%TF.GenerationSoftware,KiCad,Pcbnew,(5.0.0)*%
%TF.CreationDate,2018-11-30T21:18:20+09:00*%
%TF.ProjectId,16F676-mppt,3136463637362D6D7070742E6B696361,rev?*%
%TF.SameCoordinates,Original*%
%TF.FileFunction,Copper,L1,Top,Signal*%
%TF.FilePolarity,Positive*%
%FSLAX46Y46*%
G04 Gerber Fmt 4.6, Leading zero omitted, Abs format (unit mm)*
G04 Created by KiCad (PCBNEW (5.0.0)) date 11/30/18 21:18:20*
%MOMM*%
%LPD*%
G01*
G04 APERTURE LIST*
%ADD10C,5.000000*%
%ADD11R,1.600000X1.600000*%
%ADD12O,1.600000X1.600000*%
%ADD13R,2.400000X2.400000*%
%ADD14C,2.400000*%
%ADD15C,2.000000*%
%ADD16R,3.200000X3.200000*%
%ADD17O,3.200000X3.200000*%
%ADD18R,2.200000X2.200000*%
%ADD19O,2.200000X2.200000*%
%ADD20R,1.800000X1.800000*%
%ADD21C,1.800000*%
%ADD22C,3.600000*%
%ADD23C,1.520000*%
%ADD24R,1.520000X1.520000*%
%ADD25C,1.600000*%
%ADD26O,1.800000X1.800000*%
%ADD27O,1.501140X2.499360*%
%ADD28O,1.699260X3.500120*%
%ADD29C,2.600000*%
%ADD30C,0.600000*%
%ADD31C,1.000000*%
%ADD32C,3.000000*%
%ADD33C,1.200000*%
%ADD34C,0.254000*%
G04 APERTURE END LIST*
D10*
X104409240Y-94604840D03*
D11*
X44958000Y-55880000D03*
D12*
X52578000Y-63500000D03*
X44958000Y-58420000D03*
X52578000Y-60960000D03*
X44958000Y-60960000D03*
X52578000Y-58420000D03*
X44958000Y-63500000D03*
X52578000Y-55880000D03*
D13*
X68072000Y-78994000D03*
D14*
X68072000Y-83994000D03*
D13*
X83058000Y-37592000D03*
D14*
X88058000Y-37592000D03*
D13*
X37561520Y-37551360D03*
D14*
X32561520Y-37551360D03*
D15*
X58166000Y-38862000D03*
X58166000Y-46362000D03*
D13*
X70612000Y-67310000D03*
D14*
X65612000Y-67310000D03*
D13*
X68326000Y-40132000D03*
D14*
X68326000Y-45132000D03*
D13*
X47752000Y-22352000D03*
D14*
X52752000Y-22352000D03*
D16*
X102224840Y-39740840D03*
D17*
X102224840Y-24500840D03*
D16*
X92710000Y-86360000D03*
D17*
X77470000Y-86360000D03*
D18*
X68326000Y-28702000D03*
D19*
X58166000Y-28702000D03*
D20*
X33548320Y-88833960D03*
D21*
X31008320Y-88833960D03*
D18*
X24516080Y-41925240D03*
D19*
X24516080Y-31765240D03*
D16*
X38862000Y-26162000D03*
D17*
X23622000Y-26162000D03*
D16*
X38862000Y-18542000D03*
D17*
X23622000Y-18542000D03*
D20*
X61976000Y-56134000D03*
D21*
X61976000Y-58674000D03*
D20*
X68834000Y-56134000D03*
D21*
X68834000Y-58674000D03*
D16*
X96072960Y-39740840D03*
D17*
X96072960Y-24500840D03*
D16*
X92710000Y-92710000D03*
D17*
X77470000Y-92710000D03*
D22*
X91186000Y-79502000D03*
X91186000Y-66802000D03*
X91186000Y-48006000D03*
X91186000Y-60706000D03*
D23*
X76200000Y-26416000D03*
X76200000Y-23876000D03*
D24*
X76200000Y-28956000D03*
D23*
X82550000Y-26416000D03*
X82550000Y-28956000D03*
D24*
X82550000Y-23876000D03*
D23*
X88138000Y-26416000D03*
X88138000Y-28956000D03*
D24*
X88138000Y-23876000D03*
D25*
X36819840Y-82301080D03*
D12*
X36819840Y-69601080D03*
D25*
X42164000Y-74422000D03*
D12*
X54864000Y-74422000D03*
D25*
X54864000Y-85852000D03*
D12*
X42164000Y-85852000D03*
D25*
X59182000Y-73152000D03*
D12*
X59182000Y-85852000D03*
D25*
X20574000Y-31496000D03*
D12*
X20574000Y-44196000D03*
D25*
X26416000Y-64262000D03*
D12*
X39116000Y-64262000D03*
D25*
X65278000Y-52324000D03*
D12*
X52578000Y-52324000D03*
D25*
X24089360Y-45953680D03*
D12*
X36789360Y-45953680D03*
D25*
X58420000Y-22606000D03*
D12*
X71120000Y-22606000D03*
D25*
X71120000Y-18288000D03*
D12*
X58420000Y-18288000D03*
D25*
X20574000Y-47498000D03*
D12*
X20574000Y-60198000D03*
D25*
X54864000Y-80010000D03*
D12*
X42164000Y-80010000D03*
D25*
X58166000Y-33274000D03*
D12*
X70866000Y-33274000D03*
D25*
X31734760Y-82301080D03*
D12*
X31734760Y-69601080D03*
D25*
X20574000Y-76454000D03*
D12*
X20574000Y-63754000D03*
D15*
X25048600Y-86126320D03*
X20548600Y-86126320D03*
X25048600Y-79626320D03*
X20548600Y-79626320D03*
D20*
X26670000Y-57150000D03*
D26*
X29210000Y-57150000D03*
X31750000Y-57150000D03*
D11*
X44958000Y-33274000D03*
D12*
X52578000Y-48514000D03*
X44958000Y-35814000D03*
X52578000Y-45974000D03*
X44958000Y-38354000D03*
X52578000Y-43434000D03*
X44958000Y-40894000D03*
X52578000Y-40894000D03*
X44958000Y-43434000D03*
X52578000Y-38354000D03*
X44958000Y-45974000D03*
X52578000Y-35814000D03*
X44958000Y-48514000D03*
X52578000Y-33274000D03*
D10*
X16657320Y-94493080D03*
X104363520Y-16327120D03*
X16510000Y-16256000D03*
D27*
X44704000Y-93726000D03*
X47244000Y-93726000D03*
X42164000Y-93726000D03*
D28*
X86365080Y-18699480D03*
X83825080Y-18699480D03*
X88905080Y-18699480D03*
D29*
X15748000Y-29972000D03*
X15748000Y-44196000D03*
X103057960Y-85679280D03*
X96611440Y-96921320D03*
D30*
X56850280Y-61087000D03*
D31*
X81280000Y-28956000D02*
X82550000Y-28956000D01*
X80518000Y-28194000D02*
X81280000Y-28956000D01*
X80010000Y-25400000D02*
X80518000Y-25908000D01*
X79994760Y-24089360D02*
X80010000Y-25400000D01*
X80518000Y-25908000D02*
X80518000Y-28194000D01*
X68834000Y-28702000D02*
X73660000Y-23876000D01*
X73660000Y-21844000D02*
X73914000Y-21590000D01*
X73914000Y-21590000D02*
X77226160Y-21579840D01*
X68326000Y-28702000D02*
X68834000Y-28702000D01*
X73660000Y-23876000D02*
X73660000Y-21844000D01*
X77226160Y-21579840D02*
X79994760Y-24089360D01*
X52324000Y-55880000D02*
X52578000Y-55880000D01*
X52578000Y-55880000D02*
X55626000Y-52832000D01*
X55626000Y-52832000D02*
X55626000Y-41402000D01*
X55626000Y-41402000D02*
X58166000Y-38862000D01*
X20574000Y-63754000D02*
X22352000Y-63754000D01*
X31750000Y-59182000D02*
X31750000Y-57150000D01*
X30734000Y-60198000D02*
X31750000Y-59182000D01*
X24892000Y-60198000D02*
X30734000Y-60198000D01*
X23368000Y-61722000D02*
X24892000Y-60198000D01*
X23368000Y-62738000D02*
X23368000Y-61722000D01*
X22352000Y-63754000D02*
X23368000Y-62738000D01*
X73406000Y-34798000D02*
X68326000Y-39878000D01*
X73406000Y-32004000D02*
X73406000Y-34798000D01*
X72644000Y-31242000D02*
X73406000Y-32004000D01*
X51054000Y-31242000D02*
X72644000Y-31242000D01*
X49276000Y-33020000D02*
X51054000Y-31242000D01*
X68326000Y-39878000D02*
X68326000Y-40132000D01*
X49276000Y-40894000D02*
X52578000Y-40894000D01*
X49276000Y-40894000D02*
X49276000Y-40518080D01*
X49276000Y-40518080D02*
X49276000Y-33020000D01*
X48529240Y-40894000D02*
X47310040Y-42113200D01*
X49276000Y-40894000D02*
X48529240Y-40894000D01*
X47310040Y-42113200D02*
X47310040Y-50378360D01*
X47310040Y-50378360D02*
X46431200Y-51257200D01*
X42092880Y-51257200D02*
X36789360Y-45953680D01*
X46431200Y-51257200D02*
X42092880Y-51257200D01*
D32*
X91186000Y-79502000D02*
X86868000Y-79502000D01*
X83058000Y-56134000D02*
X91186000Y-48006000D01*
X83058000Y-75692000D02*
X83058000Y-56134000D01*
X86868000Y-79502000D02*
X83058000Y-75692000D01*
D33*
X31008320Y-88833960D02*
X27940000Y-85765640D01*
X27940000Y-65786000D02*
X26416000Y-64262000D01*
X27940000Y-85765640D02*
X27940000Y-65786000D01*
D31*
X61976000Y-58674000D02*
X59690000Y-58674000D01*
X61468000Y-51054000D02*
X61468000Y-36068000D01*
X58166000Y-54356000D02*
X61468000Y-51054000D01*
X58166000Y-57150000D02*
X58166000Y-54356000D01*
X59690000Y-58674000D02*
X58166000Y-57150000D01*
X61976000Y-58674000D02*
X61976000Y-87376000D01*
X61976000Y-87376000D02*
X60706000Y-88646000D01*
X70866000Y-33274000D02*
X64262000Y-33274000D01*
X64262000Y-33274000D02*
X61468000Y-36068000D01*
X54864000Y-38354000D02*
X52578000Y-38354000D01*
X61468000Y-36068000D02*
X57150000Y-36068000D01*
X57150000Y-36068000D02*
X54864000Y-38354000D01*
X47244000Y-91186000D02*
X49784000Y-88646000D01*
X49784000Y-88646000D02*
X60706000Y-88646000D01*
X47244000Y-91186000D02*
X47244000Y-93726000D01*
X77978000Y-41148000D02*
X77978000Y-30988000D01*
X66802000Y-52324000D02*
X77978000Y-41148000D01*
X65278000Y-52324000D02*
X66802000Y-52324000D01*
X78232000Y-26416000D02*
X76200000Y-26416000D01*
X78740000Y-26924000D02*
X78232000Y-26416000D01*
X78740000Y-30226000D02*
X78740000Y-26924000D01*
X77978000Y-30988000D02*
X78740000Y-30226000D01*
X37951210Y-69601080D02*
X41808400Y-65743890D01*
X36819840Y-69601080D02*
X37951210Y-69601080D01*
X41808400Y-65743890D02*
X41808400Y-59456320D01*
X42844720Y-58420000D02*
X44958000Y-58420000D01*
X41808400Y-59456320D02*
X42844720Y-58420000D01*
X53709370Y-58420000D02*
X53831290Y-58541920D01*
X52578000Y-58420000D02*
X53709370Y-58420000D01*
X53831290Y-58541920D02*
X56967120Y-58541920D01*
X56967120Y-58541920D02*
X59390280Y-60965080D01*
X59390280Y-71812350D02*
X59390280Y-60965080D01*
X59182000Y-72020630D02*
X59390280Y-71812350D01*
X59182000Y-73152000D02*
X59182000Y-72020630D01*
X52578000Y-45974000D02*
X50546000Y-45974000D01*
X51308000Y-52324000D02*
X52578000Y-52324000D01*
X49784000Y-50800000D02*
X51308000Y-52324000D01*
X49784000Y-46736000D02*
X49784000Y-50800000D01*
X50546000Y-45974000D02*
X49784000Y-46736000D01*
X31734760Y-68469710D02*
X35087560Y-65116910D01*
X31734760Y-69601080D02*
X31734760Y-68469710D01*
X35087560Y-65116910D02*
X35087560Y-59410600D01*
X38618160Y-55880000D02*
X44958000Y-55880000D01*
X35087560Y-59410600D02*
X38618160Y-55880000D01*
X46758000Y-55880000D02*
X48376840Y-57498840D01*
X44958000Y-55880000D02*
X46758000Y-55880000D01*
X48376840Y-57498840D02*
X48376840Y-64881760D01*
X48376840Y-64881760D02*
X50363120Y-66868040D01*
X50363120Y-66868040D02*
X53609240Y-66868040D01*
X56850280Y-63627000D02*
X56850280Y-61087000D01*
X53609240Y-66868040D02*
X56850280Y-63627000D01*
D34*
G36*
X107322628Y-15278119D02*
X107022084Y-14552541D01*
X107021642Y-14552247D01*
X107021244Y-14551285D01*
X106139355Y-13669396D01*
X106138393Y-13668998D01*
X106138099Y-13668556D01*
X105561970Y-13430235D01*
X104987110Y-13192120D01*
X104986339Y-13192120D01*
X104985628Y-13191826D01*
X104363097Y-13192120D01*
X103739930Y-13192120D01*
X103739219Y-13192415D01*
X103738448Y-13192415D01*
X102588941Y-13668556D01*
X102588647Y-13668998D01*
X102587685Y-13669396D01*
X101705796Y-14551285D01*
X101705398Y-14552247D01*
X101704956Y-14552541D01*
X101466635Y-15128670D01*
X101228520Y-15703530D01*
X101228520Y-15704301D01*
X101228226Y-15705012D01*
X101228520Y-16327120D01*
X101228520Y-16950710D01*
X101228815Y-16951421D01*
X101228815Y-16952192D01*
X101704956Y-18101699D01*
X101705398Y-18101993D01*
X101705796Y-18102955D01*
X102587685Y-18984844D01*
X102588647Y-18985242D01*
X102588941Y-18985684D01*
X103165070Y-19224005D01*
X103739930Y-19462120D01*
X103740701Y-19462120D01*
X103741412Y-19462414D01*
X104363943Y-19462120D01*
X104987110Y-19462120D01*
X104987821Y-19461825D01*
X104988592Y-19461825D01*
X106138099Y-18985684D01*
X106138393Y-18985242D01*
X106139355Y-18984844D01*
X107021244Y-18102955D01*
X107021642Y-18101993D01*
X107022084Y-18101699D01*
X107260405Y-17525570D01*
X107328789Y-17360477D01*
X107568624Y-98425000D01*
X97844264Y-98425000D01*
X98251854Y-98017410D01*
X98546440Y-97306215D01*
X98546440Y-96536425D01*
X98251854Y-95825230D01*
X97707530Y-95280906D01*
X96996335Y-94986320D01*
X96226545Y-94986320D01*
X95515350Y-95280906D01*
X94971026Y-95825230D01*
X94676440Y-96536425D01*
X94676440Y-97306215D01*
X94971026Y-98017410D01*
X95378616Y-98425000D01*
X13589000Y-98425000D01*
X13589000Y-95278420D01*
X13998756Y-96267659D01*
X13999198Y-96267953D01*
X13999596Y-96268915D01*
X14881485Y-97150804D01*
X14882447Y-97151202D01*
X14882741Y-97151644D01*
X15458870Y-97389965D01*
X16033730Y-97628080D01*
X16034501Y-97628080D01*
X16035212Y-97628374D01*
X16657743Y-97628080D01*
X17280910Y-97628080D01*
X17281621Y-97627785D01*
X17282392Y-97627785D01*
X18431899Y-97151644D01*
X18432193Y-97151202D01*
X18433155Y-97150804D01*
X19315044Y-96268915D01*
X19315442Y-96267953D01*
X19315884Y-96267659D01*
X19554205Y-95691530D01*
X19792320Y-95116670D01*
X19792320Y-95115899D01*
X19792614Y-95115188D01*
X19792320Y-94492657D01*
X19792320Y-93869490D01*
X19792025Y-93868779D01*
X19792025Y-93868008D01*
X19315884Y-92718501D01*
X19315442Y-92718207D01*
X19315044Y-92717245D01*
X18433155Y-91835356D01*
X18432193Y-91834958D01*
X18431899Y-91834516D01*
X17855770Y-91596195D01*
X17280910Y-91358080D01*
X17280139Y-91358080D01*
X17279428Y-91357786D01*
X16656897Y-91358080D01*
X16033730Y-91358080D01*
X16033019Y-91358375D01*
X16032248Y-91358375D01*
X14882741Y-91834516D01*
X14882447Y-91834958D01*
X14881485Y-91835356D01*
X13999596Y-92717245D01*
X13999198Y-92718207D01*
X13998756Y-92718501D01*
X13760435Y-93294630D01*
X13589000Y-93708510D01*
X13589000Y-85801098D01*
X18913600Y-85801098D01*
X18913600Y-86451542D01*
X19162514Y-87052473D01*
X19622447Y-87512406D01*
X20223378Y-87761320D01*
X20873822Y-87761320D01*
X21474753Y-87512406D01*
X21934686Y-87052473D01*
X22183600Y-86451542D01*
X22183600Y-85801098D01*
X23413600Y-85801098D01*
X23413600Y-86451542D01*
X23662514Y-87052473D01*
X24122447Y-87512406D01*
X24723378Y-87761320D01*
X25373822Y-87761320D01*
X25974753Y-87512406D01*
X26434686Y-87052473D01*
X26683600Y-86451542D01*
X26683600Y-85801098D01*
X26434686Y-85200167D01*
X25974753Y-84740234D01*
X25373822Y-84491320D01*
X24723378Y-84491320D01*
X24122447Y-84740234D01*
X23662514Y-85200167D01*
X23413600Y-85801098D01*
X22183600Y-85801098D01*
X21934686Y-85200167D01*
X21474753Y-84740234D01*
X20873822Y-84491320D01*
X20223378Y-84491320D01*
X19622447Y-84740234D01*
X19162514Y-85200167D01*
X18913600Y-85801098D01*
X13589000Y-85801098D01*
X13589000Y-79301098D01*
X18913600Y-79301098D01*
X18913600Y-79951542D01*
X19162514Y-80552473D01*
X19622447Y-81012406D01*
X20223378Y-81261320D01*
X20873822Y-81261320D01*
X21474753Y-81012406D01*
X21934686Y-80552473D01*
X22183600Y-79951542D01*
X22183600Y-79301098D01*
X23413600Y-79301098D01*
X23413600Y-79951542D01*
X23662514Y-80552473D01*
X24122447Y-81012406D01*
X24723378Y-81261320D01*
X25373822Y-81261320D01*
X25974753Y-81012406D01*
X26434686Y-80552473D01*
X26683600Y-79951542D01*
X26683600Y-79301098D01*
X26434686Y-78700167D01*
X25974753Y-78240234D01*
X25373822Y-77991320D01*
X24723378Y-77991320D01*
X24122447Y-78240234D01*
X23662514Y-78700167D01*
X23413600Y-79301098D01*
X22183600Y-79301098D01*
X21934686Y-78700167D01*
X21474753Y-78240234D01*
X20873822Y-77991320D01*
X20223378Y-77991320D01*
X19622447Y-78240234D01*
X19162514Y-78700167D01*
X18913600Y-79301098D01*
X13589000Y-79301098D01*
X13589000Y-76168561D01*
X19139000Y-76168561D01*
X19139000Y-76739439D01*
X19357466Y-77266862D01*
X19761138Y-77670534D01*
X20288561Y-77889000D01*
X20859439Y-77889000D01*
X21386862Y-77670534D01*
X21790534Y-77266862D01*
X22009000Y-76739439D01*
X22009000Y-76168561D01*
X21790534Y-75641138D01*
X21386862Y-75237466D01*
X20859439Y-75019000D01*
X20288561Y-75019000D01*
X19761138Y-75237466D01*
X19357466Y-75641138D01*
X19139000Y-76168561D01*
X13589000Y-76168561D01*
X13589000Y-63754000D01*
X19110887Y-63754000D01*
X19222260Y-64313909D01*
X19539423Y-64788577D01*
X20014091Y-65105740D01*
X20432667Y-65189000D01*
X20715333Y-65189000D01*
X21133909Y-65105740D01*
X21458283Y-64889000D01*
X22240217Y-64889000D01*
X22352000Y-64911235D01*
X22463783Y-64889000D01*
X22794855Y-64823146D01*
X23170289Y-64572289D01*
X23233613Y-64477519D01*
X23734571Y-63976561D01*
X24981000Y-63976561D01*
X24981000Y-64547439D01*
X25199466Y-65074862D01*
X25603138Y-65478534D01*
X26085981Y-65678534D01*
X26705001Y-66297555D01*
X26705000Y-85644008D01*
X26680806Y-85765640D01*
X26705000Y-85887272D01*
X26705000Y-85887275D01*
X26776656Y-86247512D01*
X27049615Y-86656025D01*
X27152734Y-86724927D01*
X29473320Y-89045514D01*
X29473320Y-89139290D01*
X29707010Y-89703467D01*
X30138813Y-90135270D01*
X30702990Y-90368960D01*
X31313650Y-90368960D01*
X31877827Y-90135270D01*
X32047045Y-89966052D01*
X32050163Y-89981725D01*
X32190511Y-90191769D01*
X32400555Y-90332117D01*
X32648320Y-90381400D01*
X34448320Y-90381400D01*
X34696085Y-90332117D01*
X34906129Y-90191769D01*
X35046477Y-89981725D01*
X35095760Y-89733960D01*
X35095760Y-87933960D01*
X35046477Y-87686195D01*
X34906129Y-87476151D01*
X34696085Y-87335803D01*
X34448320Y-87286520D01*
X32648320Y-87286520D01*
X32400555Y-87335803D01*
X32190511Y-87476151D01*
X32050163Y-87686195D01*
X32047045Y-87701868D01*
X31877827Y-87532650D01*
X31313650Y-87298960D01*
X31219874Y-87298960D01*
X29772914Y-85852000D01*
X40700887Y-85852000D01*
X40812260Y-86411909D01*
X41129423Y-86886577D01*
X41604091Y-87203740D01*
X42022667Y-87287000D01*
X42305333Y-87287000D01*
X42723909Y-87203740D01*
X43198577Y-86886577D01*
X43515740Y-86411909D01*
X43627113Y-85852000D01*
X43570336Y-85566561D01*
X53429000Y-85566561D01*
X53429000Y-86137439D01*
X53647466Y-86664862D01*
X54051138Y-87068534D01*
X54578561Y-87287000D01*
X55149439Y-87287000D01*
X55676862Y-87068534D01*
X56080534Y-86664862D01*
X56299000Y-86137439D01*
X56299000Y-85852000D01*
X57718887Y-85852000D01*
X57830260Y-86411909D01*
X58147423Y-86886577D01*
X58622091Y-87203740D01*
X59040667Y-87287000D01*
X59323333Y-87287000D01*
X59741909Y-87203740D01*
X60216577Y-86886577D01*
X60533740Y-86411909D01*
X60645113Y-85852000D01*
X60533740Y-85292091D01*
X60216577Y-84817423D01*
X59741909Y-84500260D01*
X59323333Y-84417000D01*
X59040667Y-84417000D01*
X58622091Y-84500260D01*
X58147423Y-84817423D01*
X57830260Y-85292091D01*
X57718887Y-85852000D01*
X56299000Y-85852000D01*
X56299000Y-85566561D01*
X56080534Y-85039138D01*
X55676862Y-84635466D01*
X55149439Y-84417000D01*
X54578561Y-84417000D01*
X54051138Y-84635466D01*
X53647466Y-85039138D01*
X53429000Y-85566561D01*
X43570336Y-85566561D01*
X43515740Y-85292091D01*
X43198577Y-84817423D01*
X42723909Y-84500260D01*
X42305333Y-84417000D01*
X42022667Y-84417000D01*
X41604091Y-84500260D01*
X41129423Y-84817423D01*
X40812260Y-85292091D01*
X40700887Y-85852000D01*
X29772914Y-85852000D01*
X29175000Y-85254087D01*
X29175000Y-82015641D01*
X30299760Y-82015641D01*
X30299760Y-82586519D01*
X30518226Y-83113942D01*
X30921898Y-83517614D01*
X31449321Y-83736080D01*
X32020199Y-83736080D01*
X32547622Y-83517614D01*
X32951294Y-83113942D01*
X33169760Y-82586519D01*
X33169760Y-82015641D01*
X35384840Y-82015641D01*
X35384840Y-82586519D01*
X35603306Y-83113942D01*
X36006978Y-83517614D01*
X36534401Y-83736080D01*
X37105279Y-83736080D01*
X37632702Y-83517614D01*
X38036374Y-83113942D01*
X38254840Y-82586519D01*
X38254840Y-82015641D01*
X38036374Y-81488218D01*
X37632702Y-81084546D01*
X37105279Y-80866080D01*
X36534401Y-80866080D01*
X36006978Y-81084546D01*
X35603306Y-81488218D01*
X35384840Y-82015641D01*
X33169760Y-82015641D01*
X32951294Y-81488218D01*
X32547622Y-81084546D01*
X32020199Y-80866080D01*
X31449321Y-80866080D01*
X30921898Y-81084546D01*
X30518226Y-81488218D01*
X30299760Y-82015641D01*
X29175000Y-82015641D01*
X29175000Y-80010000D01*
X40700887Y-80010000D01*
X40812260Y-80569909D01*
X41129423Y-81044577D01*
X41604091Y-81361740D01*
X42022667Y-81445000D01*
X42305333Y-81445000D01*
X42723909Y-81361740D01*
X43198577Y-81044577D01*
X43515740Y-80569909D01*
X43627113Y-80010000D01*
X43570336Y-79724561D01*
X53429000Y-79724561D01*
X53429000Y-80295439D01*
X53647466Y-80822862D01*
X54051138Y-81226534D01*
X54578561Y-81445000D01*
X55149439Y-81445000D01*
X55676862Y-81226534D01*
X56080534Y-80822862D01*
X56299000Y-80295439D01*
X56299000Y-79724561D01*
X56080534Y-79197138D01*
X55676862Y-78793466D01*
X55149439Y-78575000D01*
X54578561Y-78575000D01*
X54051138Y-78793466D01*
X53647466Y-79197138D01*
X53429000Y-79724561D01*
X43570336Y-79724561D01*
X43515740Y-79450091D01*
X43198577Y-78975423D01*
X42723909Y-78658260D01*
X42305333Y-78575000D01*
X42022667Y-78575000D01*
X41604091Y-78658260D01*
X41129423Y-78975423D01*
X40812260Y-79450091D01*
X40700887Y-80010000D01*
X29175000Y-80010000D01*
X29175000Y-74136561D01*
X40729000Y-74136561D01*
X40729000Y-74707439D01*
X40947466Y-75234862D01*
X41351138Y-75638534D01*
X41878561Y-75857000D01*
X42449439Y-75857000D01*
X42976862Y-75638534D01*
X43380534Y-75234862D01*
X43599000Y-74707439D01*
X43599000Y-74422000D01*
X53400887Y-74422000D01*
X53512260Y-74981909D01*
X53829423Y-75456577D01*
X54304091Y-75773740D01*
X54722667Y-75857000D01*
X55005333Y-75857000D01*
X55423909Y-75773740D01*
X55898577Y-75456577D01*
X56215740Y-74981909D01*
X56327113Y-74422000D01*
X56215740Y-73862091D01*
X55898577Y-73387423D01*
X55423909Y-73070260D01*
X55005333Y-72987000D01*
X54722667Y-72987000D01*
X54304091Y-73070260D01*
X53829423Y-73387423D01*
X53512260Y-73862091D01*
X53400887Y-74422000D01*
X43599000Y-74422000D01*
X43599000Y-74136561D01*
X43380534Y-73609138D01*
X42976862Y-73205466D01*
X42449439Y-72987000D01*
X41878561Y-72987000D01*
X41351138Y-73205466D01*
X40947466Y-73609138D01*
X40729000Y-74136561D01*
X29175000Y-74136561D01*
X29175000Y-69601080D01*
X30271647Y-69601080D01*
X30383020Y-70160989D01*
X30700183Y-70635657D01*
X31174851Y-70952820D01*
X31593427Y-71036080D01*
X31876093Y-71036080D01*
X32294669Y-70952820D01*
X32769337Y-70635657D01*
X33086500Y-70160989D01*
X33197873Y-69601080D01*
X33086500Y-69041171D01*
X32959099Y-68850502D01*
X35811081Y-65998520D01*
X35905849Y-65935199D01*
X36156706Y-65559765D01*
X36222560Y-65228693D01*
X36222560Y-65228692D01*
X36244795Y-65116911D01*
X36222560Y-65005129D01*
X36222560Y-64262000D01*
X37652887Y-64262000D01*
X37764260Y-64821909D01*
X38081423Y-65296577D01*
X38556091Y-65613740D01*
X38974667Y-65697000D01*
X39257333Y-65697000D01*
X39675909Y-65613740D01*
X40150577Y-65296577D01*
X40467740Y-64821909D01*
X40579113Y-64262000D01*
X40467740Y-63702091D01*
X40150577Y-63227423D01*
X39675909Y-62910260D01*
X39257333Y-62827000D01*
X38974667Y-62827000D01*
X38556091Y-62910260D01*
X38081423Y-63227423D01*
X37764260Y-63702091D01*
X37652887Y-64262000D01*
X36222560Y-64262000D01*
X36222560Y-59880731D01*
X39088292Y-57015000D01*
X43618132Y-57015000D01*
X43700191Y-57137809D01*
X43910235Y-57278157D01*
X43944637Y-57285000D01*
X42956503Y-57285000D01*
X42844720Y-57262765D01*
X42732937Y-57285000D01*
X42401865Y-57350854D01*
X42026431Y-57601711D01*
X41963109Y-57696479D01*
X41084879Y-58574709D01*
X40990112Y-58638031D01*
X40804485Y-58915842D01*
X40739254Y-59013466D01*
X40651165Y-59456320D01*
X40673401Y-59568108D01*
X40673400Y-65273758D01*
X37570418Y-68376741D01*
X37379749Y-68249340D01*
X36961173Y-68166080D01*
X36678507Y-68166080D01*
X36259931Y-68249340D01*
X35785263Y-68566503D01*
X35468100Y-69041171D01*
X35356727Y-69601080D01*
X35468100Y-70160989D01*
X35785263Y-70635657D01*
X36259931Y-70952820D01*
X36678507Y-71036080D01*
X36961173Y-71036080D01*
X37379749Y-70952820D01*
X37704123Y-70736080D01*
X37839427Y-70736080D01*
X37951210Y-70758315D01*
X38062993Y-70736080D01*
X38394065Y-70670226D01*
X38769499Y-70419369D01*
X38832823Y-70324598D01*
X42531922Y-66625500D01*
X42626689Y-66562179D01*
X42877546Y-66186745D01*
X42943400Y-65855673D01*
X42943400Y-65855672D01*
X42965635Y-65743891D01*
X42943400Y-65632109D01*
X42943400Y-59926451D01*
X43314852Y-59555000D01*
X44073717Y-59555000D01*
X44275758Y-59690000D01*
X43923423Y-59925423D01*
X43606260Y-60400091D01*
X43494887Y-60960000D01*
X43606260Y-61519909D01*
X43923423Y-61994577D01*
X44275758Y-62230000D01*
X43923423Y-62465423D01*
X43606260Y-62940091D01*
X43494887Y-63500000D01*
X43606260Y-64059909D01*
X43923423Y-64534577D01*
X44398091Y-64851740D01*
X44816667Y-64935000D01*
X45099333Y-64935000D01*
X45517909Y-64851740D01*
X45992577Y-64534577D01*
X46309740Y-64059909D01*
X46421113Y-63500000D01*
X46309740Y-62940091D01*
X45992577Y-62465423D01*
X45640242Y-62230000D01*
X45992577Y-61994577D01*
X46309740Y-61519909D01*
X46421113Y-60960000D01*
X46309740Y-60400091D01*
X45992577Y-59925423D01*
X45640242Y-59690000D01*
X45992577Y-59454577D01*
X46309740Y-58979909D01*
X46421113Y-58420000D01*
X46309740Y-57860091D01*
X45992577Y-57385423D01*
X45871894Y-57304785D01*
X46005765Y-57278157D01*
X46215809Y-57137809D01*
X46293863Y-57020994D01*
X47241840Y-57968973D01*
X47241841Y-64769972D01*
X47219605Y-64881760D01*
X47307694Y-65324614D01*
X47307695Y-65324615D01*
X47558552Y-65700049D01*
X47653320Y-65763371D01*
X49481509Y-67591561D01*
X49544831Y-67686329D01*
X49920265Y-67937186D01*
X50363119Y-68025275D01*
X50474902Y-68003040D01*
X53497457Y-68003040D01*
X53609240Y-68025275D01*
X53721023Y-68003040D01*
X54052095Y-67937186D01*
X54427529Y-67686329D01*
X54490853Y-67591558D01*
X57573801Y-64508610D01*
X57668569Y-64445289D01*
X57919426Y-64069855D01*
X57985280Y-63738783D01*
X57985280Y-63738782D01*
X58007515Y-63627000D01*
X57985280Y-63515217D01*
X57985280Y-61165212D01*
X58255281Y-61435213D01*
X58255280Y-71364620D01*
X58112854Y-71577775D01*
X58112854Y-71577776D01*
X58024765Y-72020630D01*
X58047000Y-72132413D01*
X58047000Y-72257604D01*
X57965466Y-72339138D01*
X57747000Y-72866561D01*
X57747000Y-73437439D01*
X57965466Y-73964862D01*
X58369138Y-74368534D01*
X58896561Y-74587000D01*
X59467439Y-74587000D01*
X59994862Y-74368534D01*
X60398534Y-73964862D01*
X60617000Y-73437439D01*
X60617000Y-72866561D01*
X60400375Y-72343582D01*
X60459426Y-72255205D01*
X60525280Y-71924133D01*
X60525280Y-71924132D01*
X60547515Y-71812351D01*
X60525280Y-71700569D01*
X60525280Y-61076863D01*
X60547515Y-60965080D01*
X60459426Y-60522225D01*
X60431042Y-60479746D01*
X60208569Y-60146791D01*
X60113801Y-60083469D01*
X59839332Y-59809000D01*
X60841000Y-59809000D01*
X60841001Y-86905867D01*
X60235869Y-87511000D01*
X49895781Y-87511000D01*
X49783999Y-87488765D01*
X49672217Y-87511000D01*
X49341145Y-87576854D01*
X48965711Y-87827711D01*
X48902389Y-87922479D01*
X46520482Y-90304387D01*
X46425711Y-90367711D01*
X46174855Y-90743145D01*
X46174854Y-90743146D01*
X46086765Y-91186000D01*
X46109000Y-91297783D01*
X46109000Y-92431578D01*
X45974000Y-92633620D01*
X45702940Y-92227950D01*
X45244622Y-91921712D01*
X44704000Y-91814176D01*
X44163379Y-91921712D01*
X43705061Y-92227950D01*
X43434000Y-92633620D01*
X43162940Y-92227950D01*
X42704622Y-91921712D01*
X42164000Y-91814176D01*
X41623379Y-91921712D01*
X41165061Y-92227950D01*
X40858822Y-92686268D01*
X40778430Y-93090427D01*
X40778430Y-94361572D01*
X40858822Y-94765731D01*
X41165060Y-95224049D01*
X41623378Y-95530288D01*
X42164000Y-95637824D01*
X42704621Y-95530288D01*
X43162939Y-95224050D01*
X43434000Y-94818379D01*
X43705060Y-95224049D01*
X44163378Y-95530288D01*
X44704000Y-95637824D01*
X45244621Y-95530288D01*
X45702939Y-95224050D01*
X45974000Y-94818379D01*
X46245060Y-95224049D01*
X46703378Y-95530288D01*
X47244000Y-95637824D01*
X47784621Y-95530288D01*
X48242939Y-95224050D01*
X48549178Y-94765732D01*
X48629570Y-94361573D01*
X48629570Y-93090427D01*
X48553899Y-92710000D01*
X75191214Y-92710000D01*
X75364676Y-93582054D01*
X75858655Y-94321345D01*
X76597946Y-94815324D01*
X77249872Y-94945000D01*
X77690128Y-94945000D01*
X78342054Y-94815324D01*
X79081345Y-94321345D01*
X79575324Y-93582054D01*
X79748786Y-92710000D01*
X79575324Y-91837946D01*
X79088926Y-91110000D01*
X90462560Y-91110000D01*
X90462560Y-94310000D01*
X90511843Y-94557765D01*
X90652191Y-94767809D01*
X90862235Y-94908157D01*
X91110000Y-94957440D01*
X94310000Y-94957440D01*
X94557765Y-94908157D01*
X94767809Y-94767809D01*
X94908157Y-94557765D01*
X94957440Y-94310000D01*
X94957440Y-93982732D01*
X101273946Y-93982732D01*
X101274240Y-94604840D01*
X101274240Y-95228430D01*
X101274535Y-95229141D01*
X101274535Y-95229912D01*
X101750676Y-96379419D01*
X101751118Y-96379713D01*
X101751516Y-96380675D01*
X102633405Y-97262564D01*
X102634367Y-97262962D01*
X102634661Y-97263404D01*
X103210790Y-97501725D01*
X103785650Y-97739840D01*
X103786421Y-97739840D01*
X103787132Y-97740134D01*
X104409663Y-97739840D01*
X105032830Y-97739840D01*
X105033541Y-97739545D01*
X105034312Y-97739545D01*
X106183819Y-97263404D01*
X106184113Y-97262962D01*
X106185075Y-97262564D01*
X107066964Y-96380675D01*
X107067362Y-96379713D01*
X107067804Y-96379419D01*
X107306125Y-95803290D01*
X107544240Y-95228430D01*
X107544240Y-95227659D01*
X107544534Y-95226948D01*
X107544240Y-94604417D01*
X107544240Y-93981250D01*
X107543945Y-93980539D01*
X107543945Y-93979768D01*
X107067804Y-92830261D01*
X107067362Y-92829967D01*
X107066964Y-92829005D01*
X106185075Y-91947116D01*
X106184113Y-91946718D01*
X106183819Y-91946276D01*
X105607690Y-91707955D01*
X105032830Y-91469840D01*
X105032059Y-91469840D01*
X105031348Y-91469546D01*
X104408817Y-91469840D01*
X103785650Y-91469840D01*
X103784939Y-91470135D01*
X103784168Y-91470135D01*
X102634661Y-91946276D01*
X102634367Y-91946718D01*
X102633405Y-91947116D01*
X101751516Y-92829005D01*
X101751118Y-92829967D01*
X101750676Y-92830261D01*
X101512355Y-93406390D01*
X101274240Y-93981250D01*
X101274240Y-93982021D01*
X101273946Y-93982732D01*
X94957440Y-93982732D01*
X94957440Y-91110000D01*
X94908157Y-90862235D01*
X94767809Y-90652191D01*
X94557765Y-90511843D01*
X94310000Y-90462560D01*
X91110000Y-90462560D01*
X90862235Y-90511843D01*
X90652191Y-90652191D01*
X90511843Y-90862235D01*
X90462560Y-91110000D01*
X79088926Y-91110000D01*
X79081345Y-91098655D01*
X78342054Y-90604676D01*
X77690128Y-90475000D01*
X77249872Y-90475000D01*
X76597946Y-90604676D01*
X75858655Y-91098655D01*
X75364676Y-91837946D01*
X75191214Y-92710000D01*
X48553899Y-92710000D01*
X48549178Y-92686268D01*
X48379000Y-92431578D01*
X48379000Y-91656131D01*
X50254132Y-89781000D01*
X60594217Y-89781000D01*
X60706000Y-89803235D01*
X60817783Y-89781000D01*
X61148855Y-89715146D01*
X61524289Y-89464289D01*
X61587613Y-89369518D01*
X62699521Y-88257611D01*
X62794289Y-88194289D01*
X63045146Y-87818855D01*
X63093283Y-87576854D01*
X63133235Y-87376001D01*
X63111000Y-87264218D01*
X63111000Y-86360000D01*
X75191214Y-86360000D01*
X75364676Y-87232054D01*
X75858655Y-87971345D01*
X76597946Y-88465324D01*
X77249872Y-88595000D01*
X77690128Y-88595000D01*
X78342054Y-88465324D01*
X79081345Y-87971345D01*
X79575324Y-87232054D01*
X79748786Y-86360000D01*
X79575324Y-85487946D01*
X79088926Y-84760000D01*
X90462560Y-84760000D01*
X90462560Y-87960000D01*
X90511843Y-88207765D01*
X90652191Y-88417809D01*
X90862235Y-88558157D01*
X91110000Y-88607440D01*
X94310000Y-88607440D01*
X94557765Y-88558157D01*
X94767809Y-88417809D01*
X94908157Y-88207765D01*
X94957440Y-87960000D01*
X94957440Y-85294385D01*
X101122960Y-85294385D01*
X101122960Y-86064175D01*
X101417546Y-86775370D01*
X101961870Y-87319694D01*
X102673065Y-87614280D01*
X103442855Y-87614280D01*
X104154050Y-87319694D01*
X104698374Y-86775370D01*
X104992960Y-86064175D01*
X104992960Y-85294385D01*
X104698374Y-84583190D01*
X104154050Y-84038866D01*
X103442855Y-83744280D01*
X102673065Y-83744280D01*
X101961870Y-84038866D01*
X101417546Y-84583190D01*
X101122960Y-85294385D01*
X94957440Y-85294385D01*
X94957440Y-84760000D01*
X94908157Y-84512235D01*
X94767809Y-84302191D01*
X94557765Y-84161843D01*
X94310000Y-84112560D01*
X91110000Y-84112560D01*
X90862235Y-84161843D01*
X90652191Y-84302191D01*
X90511843Y-84512235D01*
X90462560Y-84760000D01*
X79088926Y-84760000D01*
X79081345Y-84748655D01*
X78342054Y-84254676D01*
X77690128Y-84125000D01*
X77249872Y-84125000D01*
X76597946Y-84254676D01*
X75858655Y-84748655D01*
X75364676Y-85487946D01*
X75191214Y-86360000D01*
X63111000Y-86360000D01*
X63111000Y-83628996D01*
X66237000Y-83628996D01*
X66237000Y-84359004D01*
X66516362Y-85033444D01*
X67032556Y-85549638D01*
X67706996Y-85829000D01*
X68437004Y-85829000D01*
X69111444Y-85549638D01*
X69627638Y-85033444D01*
X69907000Y-84359004D01*
X69907000Y-83628996D01*
X69627638Y-82954556D01*
X69111444Y-82438362D01*
X68437004Y-82159000D01*
X67706996Y-82159000D01*
X67032556Y-82438362D01*
X66516362Y-82954556D01*
X66237000Y-83628996D01*
X63111000Y-83628996D01*
X63111000Y-77794000D01*
X66224560Y-77794000D01*
X66224560Y-80194000D01*
X66273843Y-80441765D01*
X66414191Y-80651809D01*
X66624235Y-80792157D01*
X66872000Y-80841440D01*
X69272000Y-80841440D01*
X69519765Y-80792157D01*
X69729809Y-80651809D01*
X69870157Y-80441765D01*
X69919440Y-80194000D01*
X69919440Y-77794000D01*
X69870157Y-77546235D01*
X69729809Y-77336191D01*
X69519765Y-77195843D01*
X69272000Y-77146560D01*
X66872000Y-77146560D01*
X66624235Y-77195843D01*
X66414191Y-77336191D01*
X66273843Y-77546235D01*
X66224560Y-77794000D01*
X63111000Y-77794000D01*
X63111000Y-66944996D01*
X63777000Y-66944996D01*
X63777000Y-67675004D01*
X64056362Y-68349444D01*
X64572556Y-68865638D01*
X65246996Y-69145000D01*
X65977004Y-69145000D01*
X66651444Y-68865638D01*
X67167638Y-68349444D01*
X67447000Y-67675004D01*
X67447000Y-66944996D01*
X67167638Y-66270556D01*
X67007082Y-66110000D01*
X68764560Y-66110000D01*
X68764560Y-68510000D01*
X68813843Y-68757765D01*
X68954191Y-68967809D01*
X69164235Y-69108157D01*
X69412000Y-69157440D01*
X71812000Y-69157440D01*
X72059765Y-69108157D01*
X72269809Y-68967809D01*
X72410157Y-68757765D01*
X72459440Y-68510000D01*
X72459440Y-66110000D01*
X72410157Y-65862235D01*
X72269809Y-65652191D01*
X72059765Y-65511843D01*
X71812000Y-65462560D01*
X69412000Y-65462560D01*
X69164235Y-65511843D01*
X68954191Y-65652191D01*
X68813843Y-65862235D01*
X68764560Y-66110000D01*
X67007082Y-66110000D01*
X66651444Y-65754362D01*
X65977004Y-65475000D01*
X65246996Y-65475000D01*
X64572556Y-65754362D01*
X64056362Y-66270556D01*
X63777000Y-66944996D01*
X63111000Y-66944996D01*
X63111000Y-59709817D01*
X63277310Y-59543507D01*
X63511000Y-58979330D01*
X63511000Y-58368670D01*
X63277310Y-57804493D01*
X63108092Y-57635275D01*
X63123765Y-57632157D01*
X63333809Y-57491809D01*
X63474157Y-57281765D01*
X63523440Y-57034000D01*
X63523440Y-55234000D01*
X67286560Y-55234000D01*
X67286560Y-57034000D01*
X67335843Y-57281765D01*
X67476191Y-57491809D01*
X67686235Y-57632157D01*
X67701908Y-57635275D01*
X67532690Y-57804493D01*
X67299000Y-58368670D01*
X67299000Y-58979330D01*
X67532690Y-59543507D01*
X67964493Y-59975310D01*
X68528670Y-60209000D01*
X69139330Y-60209000D01*
X69703507Y-59975310D01*
X70135310Y-59543507D01*
X70369000Y-58979330D01*
X70369000Y-58368670D01*
X70135310Y-57804493D01*
X69966092Y-57635275D01*
X69981765Y-57632157D01*
X70191809Y-57491809D01*
X70332157Y-57281765D01*
X70381440Y-57034000D01*
X70381440Y-56134000D01*
X80881174Y-56134000D01*
X80923001Y-56344280D01*
X80923000Y-75481725D01*
X80881174Y-75692000D01*
X80923000Y-75902275D01*
X80923000Y-75902278D01*
X81046874Y-76525035D01*
X81518751Y-77231249D01*
X81697019Y-77350364D01*
X85209638Y-80862984D01*
X85328751Y-81041249D01*
X85507016Y-81160362D01*
X86034964Y-81513126D01*
X86868000Y-81678827D01*
X87078278Y-81637000D01*
X89977385Y-81637000D01*
X90701648Y-81937000D01*
X91670352Y-81937000D01*
X92565316Y-81566293D01*
X93250293Y-80881316D01*
X93621000Y-79986352D01*
X93621000Y-79017648D01*
X93250293Y-78122684D01*
X92565316Y-77437707D01*
X91670352Y-77067000D01*
X90701648Y-77067000D01*
X89977385Y-77367000D01*
X87752346Y-77367000D01*
X85193000Y-74807655D01*
X85193000Y-66317648D01*
X88751000Y-66317648D01*
X88751000Y-67286352D01*
X89121707Y-68181316D01*
X89806684Y-68866293D01*
X90701648Y-69237000D01*
X91670352Y-69237000D01*
X92565316Y-68866293D01*
X93250293Y-68181316D01*
X93621000Y-67286352D01*
X93621000Y-66317648D01*
X93250293Y-65422684D01*
X92565316Y-64737707D01*
X91670352Y-64367000D01*
X90701648Y-64367000D01*
X89806684Y-64737707D01*
X89121707Y-65422684D01*
X88751000Y-66317648D01*
X85193000Y-66317648D01*
X85193000Y-60221648D01*
X88751000Y-60221648D01*
X88751000Y-61190352D01*
X89121707Y-62085316D01*
X89806684Y-62770293D01*
X90701648Y-63141000D01*
X91670352Y-63141000D01*
X92565316Y-62770293D01*
X93250293Y-62085316D01*
X93621000Y-61190352D01*
X93621000Y-60221648D01*
X93250293Y-59326684D01*
X92565316Y-58641707D01*
X91670352Y-58271000D01*
X90701648Y-58271000D01*
X89806684Y-58641707D01*
X89121707Y-59326684D01*
X88751000Y-60221648D01*
X85193000Y-60221648D01*
X85193000Y-57018345D01*
X91841052Y-50370293D01*
X92565316Y-50070293D01*
X93250293Y-49385316D01*
X93621000Y-48490352D01*
X93621000Y-47521648D01*
X93250293Y-46626684D01*
X92565316Y-45941707D01*
X91670352Y-45571000D01*
X90701648Y-45571000D01*
X89806684Y-45941707D01*
X89121707Y-46626684D01*
X88821707Y-47350948D01*
X81697017Y-54475638D01*
X81518752Y-54594751D01*
X81399639Y-54773016D01*
X81399638Y-54773017D01*
X81046874Y-55300965D01*
X80881174Y-56134000D01*
X70381440Y-56134000D01*
X70381440Y-55234000D01*
X70332157Y-54986235D01*
X70191809Y-54776191D01*
X69981765Y-54635843D01*
X69734000Y-54586560D01*
X67934000Y-54586560D01*
X67686235Y-54635843D01*
X67476191Y-54776191D01*
X67335843Y-54986235D01*
X67286560Y-55234000D01*
X63523440Y-55234000D01*
X63474157Y-54986235D01*
X63333809Y-54776191D01*
X63123765Y-54635843D01*
X62876000Y-54586560D01*
X61076000Y-54586560D01*
X60828235Y-54635843D01*
X60618191Y-54776191D01*
X60477843Y-54986235D01*
X60428560Y-55234000D01*
X60428560Y-57034000D01*
X60477843Y-57281765D01*
X60618191Y-57491809D01*
X60688817Y-57539000D01*
X60160133Y-57539000D01*
X59301000Y-56679869D01*
X59301000Y-54826131D01*
X62191521Y-51935610D01*
X62286289Y-51872289D01*
X62537146Y-51496855D01*
X62585283Y-51254854D01*
X62625235Y-51054001D01*
X62603000Y-50942218D01*
X62603000Y-44766996D01*
X66491000Y-44766996D01*
X66491000Y-45497004D01*
X66770362Y-46171444D01*
X67286556Y-46687638D01*
X67960996Y-46967000D01*
X68691004Y-46967000D01*
X69365444Y-46687638D01*
X69881638Y-46171444D01*
X70161000Y-45497004D01*
X70161000Y-44766996D01*
X69881638Y-44092556D01*
X69365444Y-43576362D01*
X68691004Y-43297000D01*
X67960996Y-43297000D01*
X67286556Y-43576362D01*
X66770362Y-44092556D01*
X66491000Y-44766996D01*
X62603000Y-44766996D01*
X62603000Y-36538131D01*
X64732132Y-34409000D01*
X69981717Y-34409000D01*
X70306091Y-34625740D01*
X70724667Y-34709000D01*
X71007333Y-34709000D01*
X71425909Y-34625740D01*
X71900577Y-34308577D01*
X72217740Y-33833909D01*
X72271001Y-33566151D01*
X72271001Y-34327867D01*
X68314309Y-38284560D01*
X67126000Y-38284560D01*
X66878235Y-38333843D01*
X66668191Y-38474191D01*
X66527843Y-38684235D01*
X66478560Y-38932000D01*
X66478560Y-41332000D01*
X66527843Y-41579765D01*
X66668191Y-41789809D01*
X66878235Y-41930157D01*
X67126000Y-41979440D01*
X69526000Y-41979440D01*
X69773765Y-41930157D01*
X69983809Y-41789809D01*
X70124157Y-41579765D01*
X70173440Y-41332000D01*
X70173440Y-39635691D01*
X74129521Y-35679611D01*
X74224289Y-35616289D01*
X74475146Y-35240855D01*
X74541000Y-34909783D01*
X74563235Y-34798000D01*
X74541000Y-34686217D01*
X74541000Y-32115783D01*
X74563235Y-32004000D01*
X74475146Y-31561145D01*
X74356270Y-31383235D01*
X74224289Y-31185711D01*
X74129521Y-31122389D01*
X73525613Y-30518481D01*
X73462289Y-30423711D01*
X73086855Y-30172854D01*
X72755783Y-30107000D01*
X72644000Y-30084765D01*
X72532217Y-30107000D01*
X69985913Y-30107000D01*
X70024157Y-30049765D01*
X70073440Y-29802000D01*
X70073440Y-29067691D01*
X74383522Y-24757610D01*
X74478289Y-24694289D01*
X74729146Y-24318855D01*
X74790619Y-24009809D01*
X74805000Y-23937510D01*
X74805000Y-24153483D01*
X75017376Y-24666204D01*
X75409796Y-25058624D01*
X75620740Y-25146000D01*
X75409796Y-25233376D01*
X75017376Y-25625796D01*
X74805000Y-26138517D01*
X74805000Y-26693483D01*
X75017376Y-27206204D01*
X75373049Y-27561877D01*
X75192235Y-27597843D01*
X74982191Y-27738191D01*
X74841843Y-27948235D01*
X74792560Y-28196000D01*
X74792560Y-29716000D01*
X74841843Y-29963765D01*
X74982191Y-30173809D01*
X75192235Y-30314157D01*
X75440000Y-30363440D01*
X76960000Y-30363440D01*
X77041037Y-30347321D01*
X77005733Y-30400157D01*
X76908854Y-30545146D01*
X76820765Y-30988000D01*
X76843001Y-31099788D01*
X76843000Y-40677868D01*
X66331869Y-51189000D01*
X66172396Y-51189000D01*
X66090862Y-51107466D01*
X65563439Y-50889000D01*
X64992561Y-50889000D01*
X64465138Y-51107466D01*
X64061466Y-51511138D01*
X63843000Y-52038561D01*
X63843000Y-52609439D01*
X64061466Y-53136862D01*
X64465138Y-53540534D01*
X64992561Y-53759000D01*
X65563439Y-53759000D01*
X66090862Y-53540534D01*
X66172396Y-53459000D01*
X66690217Y-53459000D01*
X66802000Y-53481235D01*
X66913783Y-53459000D01*
X67244855Y-53393146D01*
X67620289Y-53142289D01*
X67683613Y-53047518D01*
X78701522Y-42029610D01*
X78796289Y-41966289D01*
X79047146Y-41590855D01*
X79096877Y-41340840D01*
X79135235Y-41148000D01*
X79113000Y-41036217D01*
X79113000Y-36392000D01*
X81210560Y-36392000D01*
X81210560Y-38792000D01*
X81259843Y-39039765D01*
X81400191Y-39249809D01*
X81610235Y-39390157D01*
X81858000Y-39439440D01*
X84258000Y-39439440D01*
X84505765Y-39390157D01*
X84715809Y-39249809D01*
X84856157Y-39039765D01*
X84905440Y-38792000D01*
X84905440Y-37226996D01*
X86223000Y-37226996D01*
X86223000Y-37957004D01*
X86502362Y-38631444D01*
X87018556Y-39147638D01*
X87692996Y-39427000D01*
X88423004Y-39427000D01*
X89097444Y-39147638D01*
X89613638Y-38631444D01*
X89816852Y-38140840D01*
X93825520Y-38140840D01*
X93825520Y-41340840D01*
X93874803Y-41588605D01*
X94015151Y-41798649D01*
X94225195Y-41938997D01*
X94472960Y-41988280D01*
X97672960Y-41988280D01*
X97920725Y-41938997D01*
X98130769Y-41798649D01*
X98271117Y-41588605D01*
X98320400Y-41340840D01*
X98320400Y-38140840D01*
X99977400Y-38140840D01*
X99977400Y-41340840D01*
X100026683Y-41588605D01*
X100167031Y-41798649D01*
X100377075Y-41938997D01*
X100624840Y-41988280D01*
X103824840Y-41988280D01*
X104072605Y-41938997D01*
X104282649Y-41798649D01*
X104422997Y-41588605D01*
X104472280Y-41340840D01*
X104472280Y-38140840D01*
X104422997Y-37893075D01*
X104282649Y-37683031D01*
X104072605Y-37542683D01*
X103824840Y-37493400D01*
X100624840Y-37493400D01*
X100377075Y-37542683D01*
X100167031Y-37683031D01*
X100026683Y-37893075D01*
X99977400Y-38140840D01*
X98320400Y-38140840D01*
X98271117Y-37893075D01*
X98130769Y-37683031D01*
X97920725Y-37542683D01*
X97672960Y-37493400D01*
X94472960Y-37493400D01*
X94225195Y-37542683D01*
X94015151Y-37683031D01*
X93874803Y-37893075D01*
X93825520Y-38140840D01*
X89816852Y-38140840D01*
X89893000Y-37957004D01*
X89893000Y-37226996D01*
X89613638Y-36552556D01*
X89097444Y-36036362D01*
X88423004Y-35757000D01*
X87692996Y-35757000D01*
X87018556Y-36036362D01*
X86502362Y-36552556D01*
X86223000Y-37226996D01*
X84905440Y-37226996D01*
X84905440Y-36392000D01*
X84856157Y-36144235D01*
X84715809Y-35934191D01*
X84505765Y-35793843D01*
X84258000Y-35744560D01*
X81858000Y-35744560D01*
X81610235Y-35793843D01*
X81400191Y-35934191D01*
X81259843Y-36144235D01*
X81210560Y-36392000D01*
X79113000Y-36392000D01*
X79113000Y-31458131D01*
X79463521Y-31107611D01*
X79558289Y-31044289D01*
X79809146Y-30668855D01*
X79875000Y-30337783D01*
X79875000Y-30337782D01*
X79897235Y-30226000D01*
X79875000Y-30114217D01*
X79875000Y-29156131D01*
X80398389Y-29679521D01*
X80461711Y-29774289D01*
X80728969Y-29952865D01*
X80837145Y-30025146D01*
X81280000Y-30113235D01*
X81391783Y-30091000D01*
X81712172Y-30091000D01*
X81759796Y-30138624D01*
X82272517Y-30351000D01*
X82827483Y-30351000D01*
X83340204Y-30138624D01*
X83732624Y-29746204D01*
X83945000Y-29233483D01*
X83945000Y-28678517D01*
X83732624Y-28165796D01*
X83340204Y-27773376D01*
X83129260Y-27686000D01*
X83340204Y-27598624D01*
X83732624Y-27206204D01*
X83945000Y-26693483D01*
X83945000Y-26138517D01*
X83732624Y-25625796D01*
X83376951Y-25270123D01*
X83557765Y-25234157D01*
X83767809Y-25093809D01*
X83908157Y-24883765D01*
X83957440Y-24636000D01*
X83957440Y-23116000D01*
X86730560Y-23116000D01*
X86730560Y-24636000D01*
X86779843Y-24883765D01*
X86920191Y-25093809D01*
X87130235Y-25234157D01*
X87311049Y-25270123D01*
X86955376Y-25625796D01*
X86743000Y-26138517D01*
X86743000Y-26693483D01*
X86955376Y-27206204D01*
X87347796Y-27598624D01*
X87558740Y-27686000D01*
X87347796Y-27773376D01*
X86955376Y-28165796D01*
X86743000Y-28678517D01*
X86743000Y-29233483D01*
X86955376Y-29746204D01*
X87347796Y-30138624D01*
X87860517Y-30351000D01*
X88415483Y-30351000D01*
X88928204Y-30138624D01*
X89320624Y-29746204D01*
X89533000Y-29233483D01*
X89533000Y-28678517D01*
X89320624Y-28165796D01*
X88928204Y-27773376D01*
X88717260Y-27686000D01*
X88928204Y-27598624D01*
X89320624Y-27206204D01*
X89533000Y-26693483D01*
X89533000Y-26138517D01*
X89320624Y-25625796D01*
X88964951Y-25270123D01*
X89145765Y-25234157D01*
X89355809Y-25093809D01*
X89496157Y-24883765D01*
X89545440Y-24636000D01*
X89545440Y-24500840D01*
X93794174Y-24500840D01*
X93967636Y-25372894D01*
X94461615Y-26112185D01*
X95200906Y-26606164D01*
X95852832Y-26735840D01*
X96293088Y-26735840D01*
X96945014Y-26606164D01*
X97684305Y-26112185D01*
X98178284Y-25372894D01*
X98351746Y-24500840D01*
X99946054Y-24500840D01*
X100119516Y-25372894D01*
X100613495Y-26112185D01*
X101352786Y-26606164D01*
X102004712Y-26735840D01*
X102444968Y-26735840D01*
X103096894Y-26606164D01*
X103836185Y-26112185D01*
X104330164Y-25372894D01*
X104503626Y-24500840D01*
X104330164Y-23628786D01*
X103836185Y-22889495D01*
X103096894Y-22395516D01*
X102444968Y-22265840D01*
X102004712Y-22265840D01*
X101352786Y-22395516D01*
X100613495Y-22889495D01*
X100119516Y-23628786D01*
X99946054Y-24500840D01*
X98351746Y-24500840D01*
X98178284Y-23628786D01*
X97684305Y-22889495D01*
X96945014Y-22395516D01*
X96293088Y-22265840D01*
X95852832Y-22265840D01*
X95200906Y-22395516D01*
X94461615Y-22889495D01*
X93967636Y-23628786D01*
X93794174Y-24500840D01*
X89545440Y-24500840D01*
X89545440Y-23116000D01*
X89496157Y-22868235D01*
X89355809Y-22658191D01*
X89145765Y-22517843D01*
X88898000Y-22468560D01*
X87378000Y-22468560D01*
X87130235Y-22517843D01*
X86920191Y-22658191D01*
X86779843Y-22868235D01*
X86730560Y-23116000D01*
X83957440Y-23116000D01*
X83908157Y-22868235D01*
X83767809Y-22658191D01*
X83557765Y-22517843D01*
X83310000Y-22468560D01*
X81790000Y-22468560D01*
X81542235Y-22517843D01*
X81332191Y-22658191D01*
X81191843Y-22868235D01*
X81142560Y-23116000D01*
X81142560Y-24000509D01*
X81100914Y-23834219D01*
X81058684Y-23634104D01*
X81046252Y-23615958D01*
X81040908Y-23594621D01*
X80919083Y-23430345D01*
X80803479Y-23261612D01*
X80690050Y-23187714D01*
X78090807Y-20831704D01*
X78041935Y-20759045D01*
X77925069Y-20681475D01*
X77905591Y-20663820D01*
X77832098Y-20619766D01*
X77665733Y-20509341D01*
X77639230Y-20504154D01*
X77616065Y-20490268D01*
X77418552Y-20460962D01*
X77334461Y-20444503D01*
X77308171Y-20444584D01*
X77169425Y-20423997D01*
X77084484Y-20445270D01*
X74024061Y-20454658D01*
X73913999Y-20432765D01*
X73800490Y-20455344D01*
X73798736Y-20455349D01*
X73690950Y-20477133D01*
X73471146Y-20520855D01*
X73469643Y-20521859D01*
X73467868Y-20522218D01*
X73281734Y-20647416D01*
X73190477Y-20708392D01*
X73189238Y-20709631D01*
X73093205Y-20774225D01*
X73031145Y-20867724D01*
X72936480Y-20962389D01*
X72841712Y-21025711D01*
X72656085Y-21303522D01*
X72590854Y-21401146D01*
X72502765Y-21844000D01*
X72525001Y-21955788D01*
X72525001Y-22313850D01*
X72471740Y-22046091D01*
X72154577Y-21571423D01*
X71679909Y-21254260D01*
X71261333Y-21171000D01*
X70978667Y-21171000D01*
X70560091Y-21254260D01*
X70085423Y-21571423D01*
X69768260Y-22046091D01*
X69656887Y-22606000D01*
X69768260Y-23165909D01*
X70085423Y-23640577D01*
X70560091Y-23957740D01*
X70978667Y-24041000D01*
X71261333Y-24041000D01*
X71679909Y-23957740D01*
X72154577Y-23640577D01*
X72471740Y-23165909D01*
X72525000Y-22898151D01*
X72525000Y-23405868D01*
X68976309Y-26954560D01*
X67226000Y-26954560D01*
X66978235Y-27003843D01*
X66768191Y-27144191D01*
X66627843Y-27354235D01*
X66578560Y-27602000D01*
X66578560Y-29802000D01*
X66627843Y-30049765D01*
X66666087Y-30107000D01*
X59186186Y-30107000D01*
X59416865Y-29952865D01*
X59800334Y-29378963D01*
X59934990Y-28702000D01*
X59800334Y-28025037D01*
X59416865Y-27451135D01*
X58842963Y-27067666D01*
X58336880Y-26967000D01*
X57995120Y-26967000D01*
X57489037Y-27067666D01*
X56915135Y-27451135D01*
X56531666Y-28025037D01*
X56397010Y-28702000D01*
X56531666Y-29378963D01*
X56915135Y-29952865D01*
X57145814Y-30107000D01*
X51165783Y-30107000D01*
X51054000Y-30084765D01*
X50626946Y-30169711D01*
X50611145Y-30172854D01*
X50235711Y-30423711D01*
X50172389Y-30518479D01*
X48552480Y-32138389D01*
X48457712Y-32201711D01*
X48384590Y-32311146D01*
X48206854Y-32577146D01*
X48118765Y-33020000D01*
X48141001Y-33131788D01*
X48141000Y-39813990D01*
X48086385Y-39824854D01*
X47710951Y-40075711D01*
X47647629Y-40170479D01*
X46586522Y-41231587D01*
X46491751Y-41294911D01*
X46240895Y-41670345D01*
X46240894Y-41670346D01*
X46152805Y-42113200D01*
X46175040Y-42224983D01*
X46175040Y-42672498D01*
X45992577Y-42399423D01*
X45640242Y-42164000D01*
X45992577Y-41928577D01*
X46309740Y-41453909D01*
X46421113Y-40894000D01*
X46309740Y-40334091D01*
X45992577Y-39859423D01*
X45640242Y-39624000D01*
X45992577Y-39388577D01*
X46309740Y-38913909D01*
X46421113Y-38354000D01*
X46309740Y-37794091D01*
X45992577Y-37319423D01*
X45640242Y-37084000D01*
X45992577Y-36848577D01*
X46309740Y-36373909D01*
X46421113Y-35814000D01*
X46309740Y-35254091D01*
X45992577Y-34779423D01*
X45871894Y-34698785D01*
X46005765Y-34672157D01*
X46215809Y-34531809D01*
X46356157Y-34321765D01*
X46405440Y-34074000D01*
X46405440Y-32474000D01*
X46356157Y-32226235D01*
X46215809Y-32016191D01*
X46005765Y-31875843D01*
X45758000Y-31826560D01*
X44158000Y-31826560D01*
X43910235Y-31875843D01*
X43700191Y-32016191D01*
X43559843Y-32226235D01*
X43510560Y-32474000D01*
X43510560Y-34074000D01*
X43559843Y-34321765D01*
X43700191Y-34531809D01*
X43910235Y-34672157D01*
X44044106Y-34698785D01*
X43923423Y-34779423D01*
X43606260Y-35254091D01*
X43494887Y-35814000D01*
X43606260Y-36373909D01*
X43923423Y-36848577D01*
X44275758Y-37084000D01*
X43923423Y-37319423D01*
X43606260Y-37794091D01*
X43494887Y-38354000D01*
X43606260Y-38913909D01*
X43923423Y-39388577D01*
X44275758Y-39624000D01*
X43923423Y-39859423D01*
X43606260Y-40334091D01*
X43494887Y-40894000D01*
X43606260Y-41453909D01*
X43923423Y-41928577D01*
X44275758Y-42164000D01*
X43923423Y-42399423D01*
X43606260Y-42874091D01*
X43494887Y-43434000D01*
X43606260Y-43993909D01*
X43923423Y-44468577D01*
X44275758Y-44704000D01*
X43923423Y-44939423D01*
X43606260Y-45414091D01*
X43494887Y-45974000D01*
X43606260Y-46533909D01*
X43923423Y-47008577D01*
X44275758Y-47244000D01*
X43923423Y-47479423D01*
X43606260Y-47954091D01*
X43494887Y-48514000D01*
X43606260Y-49073909D01*
X43923423Y-49548577D01*
X44398091Y-49865740D01*
X44816667Y-49949000D01*
X45099333Y-49949000D01*
X45517909Y-49865740D01*
X45992577Y-49548577D01*
X46175041Y-49275501D01*
X46175041Y-49908227D01*
X45961069Y-50122200D01*
X42563012Y-50122200D01*
X38217209Y-45776398D01*
X38141100Y-45393771D01*
X37823937Y-44919103D01*
X37349269Y-44601940D01*
X36930693Y-44518680D01*
X36648027Y-44518680D01*
X36229451Y-44601940D01*
X35754783Y-44919103D01*
X35437620Y-45393771D01*
X35326247Y-45953680D01*
X35437620Y-46513589D01*
X35754783Y-46988257D01*
X36229451Y-47305420D01*
X36612078Y-47381529D01*
X41211269Y-51980721D01*
X41274591Y-52075489D01*
X41646512Y-52323999D01*
X41650025Y-52326346D01*
X42092880Y-52414435D01*
X42204663Y-52392200D01*
X46319417Y-52392200D01*
X46431200Y-52414435D01*
X46542983Y-52392200D01*
X46874055Y-52326346D01*
X47249489Y-52075489D01*
X47312813Y-51980719D01*
X48033561Y-51259971D01*
X48128329Y-51196649D01*
X48379186Y-50821215D01*
X48445040Y-50490143D01*
X48467275Y-50378361D01*
X48445040Y-50266579D01*
X48445040Y-42583331D01*
X48999372Y-42029000D01*
X49164217Y-42029000D01*
X49276000Y-42051235D01*
X49387783Y-42029000D01*
X51693717Y-42029000D01*
X51895758Y-42164000D01*
X51543423Y-42399423D01*
X51226260Y-42874091D01*
X51114887Y-43434000D01*
X51226260Y-43993909D01*
X51543423Y-44468577D01*
X51895758Y-44704000D01*
X51693717Y-44839000D01*
X50657783Y-44839000D01*
X50546000Y-44816765D01*
X50434217Y-44839000D01*
X50103145Y-44904854D01*
X49727711Y-45155711D01*
X49664389Y-45250479D01*
X49060481Y-45854387D01*
X48965711Y-45917711D01*
X48750954Y-46239119D01*
X48714854Y-46293146D01*
X48626765Y-46736000D01*
X48649000Y-46847783D01*
X48649001Y-50688212D01*
X48626765Y-50800000D01*
X48714854Y-51242854D01*
X48714855Y-51242855D01*
X48965712Y-51618289D01*
X49060479Y-51681610D01*
X50426391Y-53047524D01*
X50489711Y-53142289D01*
X50865145Y-53393146D01*
X51196217Y-53459000D01*
X51307999Y-53481235D01*
X51419781Y-53459000D01*
X51693717Y-53459000D01*
X52018091Y-53675740D01*
X52436667Y-53759000D01*
X52719333Y-53759000D01*
X53137909Y-53675740D01*
X53256104Y-53596765D01*
X52400718Y-54452151D01*
X52018091Y-54528260D01*
X51543423Y-54845423D01*
X51226260Y-55320091D01*
X51114887Y-55880000D01*
X51226260Y-56439909D01*
X51543423Y-56914577D01*
X51895758Y-57150000D01*
X51543423Y-57385423D01*
X51226260Y-57860091D01*
X51114887Y-58420000D01*
X51226260Y-58979909D01*
X51543423Y-59454577D01*
X51895758Y-59690000D01*
X51543423Y-59925423D01*
X51226260Y-60400091D01*
X51114887Y-60960000D01*
X51226260Y-61519909D01*
X51543423Y-61994577D01*
X51895758Y-62230000D01*
X51543423Y-62465423D01*
X51226260Y-62940091D01*
X51114887Y-63500000D01*
X51226260Y-64059909D01*
X51543423Y-64534577D01*
X52018091Y-64851740D01*
X52436667Y-64935000D01*
X52719333Y-64935000D01*
X53137909Y-64851740D01*
X53612577Y-64534577D01*
X53929740Y-64059909D01*
X54041113Y-63500000D01*
X53929740Y-62940091D01*
X53612577Y-62465423D01*
X53260242Y-62230000D01*
X53612577Y-61994577D01*
X53929740Y-61519909D01*
X54041113Y-60960000D01*
X53929740Y-60400091D01*
X53612577Y-59925423D01*
X53260242Y-59690000D01*
X53383405Y-59607705D01*
X53388435Y-59611066D01*
X53719507Y-59676920D01*
X53831290Y-59699155D01*
X53943073Y-59676920D01*
X56496989Y-59676920D01*
X56766499Y-59946430D01*
X56407426Y-60017854D01*
X56031992Y-60268711D01*
X55781135Y-60644145D01*
X55715281Y-60975217D01*
X55715280Y-63156868D01*
X53139109Y-65733040D01*
X50833252Y-65733040D01*
X49511840Y-64411629D01*
X49511840Y-57610621D01*
X49534075Y-57498839D01*
X49497507Y-57315000D01*
X49445986Y-57055985D01*
X49195129Y-56680551D01*
X49100364Y-56617231D01*
X47639613Y-55156481D01*
X47576289Y-55061711D01*
X47200855Y-54810854D01*
X46869783Y-54745000D01*
X46758000Y-54722765D01*
X46646217Y-54745000D01*
X46297868Y-54745000D01*
X46215809Y-54622191D01*
X46005765Y-54481843D01*
X45758000Y-54432560D01*
X44158000Y-54432560D01*
X43910235Y-54481843D01*
X43700191Y-54622191D01*
X43618132Y-54745000D01*
X38729941Y-54745000D01*
X38618159Y-54722765D01*
X38506377Y-54745000D01*
X38175305Y-54810854D01*
X37799871Y-55061711D01*
X37736549Y-55156479D01*
X34364040Y-58528989D01*
X34269272Y-58592311D01*
X34099589Y-58846260D01*
X34018414Y-58967746D01*
X33930325Y-59410600D01*
X33952561Y-59522388D01*
X33952560Y-64646778D01*
X31011240Y-67588099D01*
X30916472Y-67651421D01*
X30665614Y-68026855D01*
X30665614Y-68026856D01*
X30577525Y-68469710D01*
X30599760Y-68581493D01*
X30599760Y-68716797D01*
X30383020Y-69041171D01*
X30271647Y-69601080D01*
X29175000Y-69601080D01*
X29175000Y-65907630D01*
X29199194Y-65785999D01*
X29175000Y-65664368D01*
X29175000Y-65664364D01*
X29103344Y-65304127D01*
X28830385Y-64895615D01*
X28727269Y-64826715D01*
X27832534Y-63931981D01*
X27632534Y-63449138D01*
X27228862Y-63045466D01*
X26701439Y-62827000D01*
X26130561Y-62827000D01*
X25603138Y-63045466D01*
X25199466Y-63449138D01*
X24981000Y-63976561D01*
X23734571Y-63976561D01*
X24091521Y-63619611D01*
X24186289Y-63556289D01*
X24437146Y-63180855D01*
X24503000Y-62849783D01*
X24503000Y-62849782D01*
X24525235Y-62738000D01*
X24503000Y-62626217D01*
X24503000Y-62192131D01*
X25362133Y-61333000D01*
X30622217Y-61333000D01*
X30734000Y-61355235D01*
X30845783Y-61333000D01*
X31176855Y-61267146D01*
X31552289Y-61016289D01*
X31615613Y-60921519D01*
X32473521Y-60063611D01*
X32568289Y-60000289D01*
X32819146Y-59624855D01*
X32871787Y-59360208D01*
X32907235Y-59182000D01*
X32885000Y-59070217D01*
X32885000Y-58214279D01*
X33195938Y-57748927D01*
X33315072Y-57150000D01*
X33195938Y-56551073D01*
X32856673Y-56043327D01*
X32348927Y-55704062D01*
X31901182Y-55615000D01*
X31598818Y-55615000D01*
X31151073Y-55704062D01*
X30643327Y-56043327D01*
X30480000Y-56287763D01*
X30316673Y-56043327D01*
X29808927Y-55704062D01*
X29361182Y-55615000D01*
X29058818Y-55615000D01*
X28611073Y-55704062D01*
X28167129Y-56000696D01*
X28027809Y-55792191D01*
X27817765Y-55651843D01*
X27570000Y-55602560D01*
X25770000Y-55602560D01*
X25522235Y-55651843D01*
X25312191Y-55792191D01*
X25171843Y-56002235D01*
X25122560Y-56250000D01*
X25122560Y-58050000D01*
X25171843Y-58297765D01*
X25312191Y-58507809D01*
X25522235Y-58648157D01*
X25770000Y-58697440D01*
X27570000Y-58697440D01*
X27817765Y-58648157D01*
X28027809Y-58507809D01*
X28167129Y-58299304D01*
X28611073Y-58595938D01*
X29058818Y-58685000D01*
X29361182Y-58685000D01*
X29808927Y-58595938D01*
X30316673Y-58256673D01*
X30480000Y-58012237D01*
X30615000Y-58214279D01*
X30615000Y-58711868D01*
X30263869Y-59063000D01*
X25003781Y-59063000D01*
X24891999Y-59040765D01*
X24780217Y-59063000D01*
X24449145Y-59128854D01*
X24073711Y-59379711D01*
X24010391Y-59474476D01*
X22644479Y-60840390D01*
X22549712Y-60903711D01*
X22298854Y-61279145D01*
X22250963Y-61519909D01*
X22210765Y-61722000D01*
X22233000Y-61833783D01*
X22233000Y-62267868D01*
X21881869Y-62619000D01*
X21458283Y-62619000D01*
X21133909Y-62402260D01*
X20715333Y-62319000D01*
X20432667Y-62319000D01*
X20014091Y-62402260D01*
X19539423Y-62719423D01*
X19222260Y-63194091D01*
X19110887Y-63754000D01*
X13589000Y-63754000D01*
X13589000Y-60198000D01*
X19110887Y-60198000D01*
X19222260Y-60757909D01*
X19539423Y-61232577D01*
X20014091Y-61549740D01*
X20432667Y-61633000D01*
X20715333Y-61633000D01*
X21133909Y-61549740D01*
X21608577Y-61232577D01*
X21925740Y-60757909D01*
X22037113Y-60198000D01*
X21925740Y-59638091D01*
X21608577Y-59163423D01*
X21133909Y-58846260D01*
X20715333Y-58763000D01*
X20432667Y-58763000D01*
X20014091Y-58846260D01*
X19539423Y-59163423D01*
X19222260Y-59638091D01*
X19110887Y-60198000D01*
X13589000Y-60198000D01*
X13589000Y-47212561D01*
X19139000Y-47212561D01*
X19139000Y-47783439D01*
X19357466Y-48310862D01*
X19761138Y-48714534D01*
X20288561Y-48933000D01*
X20859439Y-48933000D01*
X21386862Y-48714534D01*
X21790534Y-48310862D01*
X22009000Y-47783439D01*
X22009000Y-47212561D01*
X21790534Y-46685138D01*
X21386862Y-46281466D01*
X20859439Y-46063000D01*
X20288561Y-46063000D01*
X19761138Y-46281466D01*
X19357466Y-46685138D01*
X19139000Y-47212561D01*
X13589000Y-47212561D01*
X13589000Y-43811105D01*
X13813000Y-43811105D01*
X13813000Y-44580895D01*
X14107586Y-45292090D01*
X14651910Y-45836414D01*
X15363105Y-46131000D01*
X16132895Y-46131000D01*
X16844090Y-45836414D01*
X17012263Y-45668241D01*
X22654360Y-45668241D01*
X22654360Y-46239119D01*
X22872826Y-46766542D01*
X23276498Y-47170214D01*
X23803921Y-47388680D01*
X24374799Y-47388680D01*
X24902222Y-47170214D01*
X25305894Y-46766542D01*
X25524360Y-46239119D01*
X25524360Y-45668241D01*
X25305894Y-45140818D01*
X24902222Y-44737146D01*
X24374799Y-44518680D01*
X23803921Y-44518680D01*
X23276498Y-44737146D01*
X22872826Y-45140818D01*
X22654360Y-45668241D01*
X17012263Y-45668241D01*
X17388414Y-45292090D01*
X17683000Y-44580895D01*
X17683000Y-44196000D01*
X19110887Y-44196000D01*
X19222260Y-44755909D01*
X19539423Y-45230577D01*
X20014091Y-45547740D01*
X20432667Y-45631000D01*
X20715333Y-45631000D01*
X21133909Y-45547740D01*
X21608577Y-45230577D01*
X21925740Y-44755909D01*
X22037113Y-44196000D01*
X21925740Y-43636091D01*
X21608577Y-43161423D01*
X21133909Y-42844260D01*
X20715333Y-42761000D01*
X20432667Y-42761000D01*
X20014091Y-42844260D01*
X19539423Y-43161423D01*
X19222260Y-43636091D01*
X19110887Y-44196000D01*
X17683000Y-44196000D01*
X17683000Y-43811105D01*
X17388414Y-43099910D01*
X16844090Y-42555586D01*
X16132895Y-42261000D01*
X15363105Y-42261000D01*
X14651910Y-42555586D01*
X14107586Y-43099910D01*
X13813000Y-43811105D01*
X13589000Y-43811105D01*
X13589000Y-40825240D01*
X22768640Y-40825240D01*
X22768640Y-43025240D01*
X22817923Y-43273005D01*
X22958271Y-43483049D01*
X23168315Y-43623397D01*
X23416080Y-43672680D01*
X25616080Y-43672680D01*
X25863845Y-43623397D01*
X26073889Y-43483049D01*
X26214237Y-43273005D01*
X26263520Y-43025240D01*
X26263520Y-40825240D01*
X26214237Y-40577475D01*
X26073889Y-40367431D01*
X25863845Y-40227083D01*
X25616080Y-40177800D01*
X23416080Y-40177800D01*
X23168315Y-40227083D01*
X22958271Y-40367431D01*
X22817923Y-40577475D01*
X22768640Y-40825240D01*
X13589000Y-40825240D01*
X13589000Y-37186356D01*
X30726520Y-37186356D01*
X30726520Y-37916364D01*
X31005882Y-38590804D01*
X31522076Y-39106998D01*
X32196516Y-39386360D01*
X32926524Y-39386360D01*
X33600964Y-39106998D01*
X34117158Y-38590804D01*
X34396520Y-37916364D01*
X34396520Y-37186356D01*
X34117158Y-36511916D01*
X33956602Y-36351360D01*
X35714080Y-36351360D01*
X35714080Y-38751360D01*
X35763363Y-38999125D01*
X35903711Y-39209169D01*
X36113755Y-39349517D01*
X36361520Y-39398800D01*
X38761520Y-39398800D01*
X39009285Y-39349517D01*
X39219329Y-39209169D01*
X39359677Y-38999125D01*
X39408960Y-38751360D01*
X39408960Y-36351360D01*
X39359677Y-36103595D01*
X39219329Y-35893551D01*
X39009285Y-35753203D01*
X38761520Y-35703920D01*
X36361520Y-35703920D01*
X36113755Y-35753203D01*
X35903711Y-35893551D01*
X35763363Y-36103595D01*
X35714080Y-36351360D01*
X33956602Y-36351360D01*
X33600964Y-35995722D01*
X32926524Y-35716360D01*
X32196516Y-35716360D01*
X31522076Y-35995722D01*
X31005882Y-36511916D01*
X30726520Y-37186356D01*
X13589000Y-37186356D01*
X13589000Y-29587105D01*
X13813000Y-29587105D01*
X13813000Y-30356895D01*
X14107586Y-31068090D01*
X14651910Y-31612414D01*
X15363105Y-31907000D01*
X16132895Y-31907000D01*
X16844090Y-31612414D01*
X17245943Y-31210561D01*
X19139000Y-31210561D01*
X19139000Y-31781439D01*
X19357466Y-32308862D01*
X19761138Y-32712534D01*
X20288561Y-32931000D01*
X20859439Y-32931000D01*
X21386862Y-32712534D01*
X21790534Y-32308862D01*
X22009000Y-31781439D01*
X22009000Y-31765240D01*
X22747090Y-31765240D01*
X22881746Y-32442203D01*
X23265215Y-33016105D01*
X23839117Y-33399574D01*
X24345200Y-33500240D01*
X24686960Y-33500240D01*
X25193043Y-33399574D01*
X25766945Y-33016105D01*
X26150414Y-32442203D01*
X26285070Y-31765240D01*
X26150414Y-31088277D01*
X25766945Y-30514375D01*
X25193043Y-30130906D01*
X24686960Y-30030240D01*
X24345200Y-30030240D01*
X23839117Y-30130906D01*
X23265215Y-30514375D01*
X22881746Y-31088277D01*
X22747090Y-31765240D01*
X22009000Y-31765240D01*
X22009000Y-31210561D01*
X21790534Y-30683138D01*
X21386862Y-30279466D01*
X20859439Y-30061000D01*
X20288561Y-30061000D01*
X19761138Y-30279466D01*
X19357466Y-30683138D01*
X19139000Y-31210561D01*
X17245943Y-31210561D01*
X17388414Y-31068090D01*
X17683000Y-30356895D01*
X17683000Y-29587105D01*
X17388414Y-28875910D01*
X16844090Y-28331586D01*
X16132895Y-28037000D01*
X15363105Y-28037000D01*
X14651910Y-28331586D01*
X14107586Y-28875910D01*
X13813000Y-29587105D01*
X13589000Y-29587105D01*
X13589000Y-26162000D01*
X21343214Y-26162000D01*
X21516676Y-27034054D01*
X22010655Y-27773345D01*
X22749946Y-28267324D01*
X23401872Y-28397000D01*
X23842128Y-28397000D01*
X24494054Y-28267324D01*
X25233345Y-27773345D01*
X25727324Y-27034054D01*
X25900786Y-26162000D01*
X25727324Y-25289946D01*
X25240926Y-24562000D01*
X36614560Y-24562000D01*
X36614560Y-27762000D01*
X36663843Y-28009765D01*
X36804191Y-28219809D01*
X37014235Y-28360157D01*
X37262000Y-28409440D01*
X40462000Y-28409440D01*
X40709765Y-28360157D01*
X40919809Y-28219809D01*
X41060157Y-28009765D01*
X41109440Y-27762000D01*
X41109440Y-24562000D01*
X41060157Y-24314235D01*
X40919809Y-24104191D01*
X40709765Y-23963843D01*
X40462000Y-23914560D01*
X37262000Y-23914560D01*
X37014235Y-23963843D01*
X36804191Y-24104191D01*
X36663843Y-24314235D01*
X36614560Y-24562000D01*
X25240926Y-24562000D01*
X25233345Y-24550655D01*
X24494054Y-24056676D01*
X23842128Y-23927000D01*
X23401872Y-23927000D01*
X22749946Y-24056676D01*
X22010655Y-24550655D01*
X21516676Y-25289946D01*
X21343214Y-26162000D01*
X13589000Y-26162000D01*
X13589000Y-21152000D01*
X45904560Y-21152000D01*
X45904560Y-23552000D01*
X45953843Y-23799765D01*
X46094191Y-24009809D01*
X46304235Y-24150157D01*
X46552000Y-24199440D01*
X48952000Y-24199440D01*
X49199765Y-24150157D01*
X49409809Y-24009809D01*
X49550157Y-23799765D01*
X49599440Y-23552000D01*
X49599440Y-21986996D01*
X50917000Y-21986996D01*
X50917000Y-22717004D01*
X51196362Y-23391444D01*
X51712556Y-23907638D01*
X52386996Y-24187000D01*
X53117004Y-24187000D01*
X53791444Y-23907638D01*
X54307638Y-23391444D01*
X54587000Y-22717004D01*
X54587000Y-22320561D01*
X56985000Y-22320561D01*
X56985000Y-22891439D01*
X57203466Y-23418862D01*
X57607138Y-23822534D01*
X58134561Y-24041000D01*
X58705439Y-24041000D01*
X59232862Y-23822534D01*
X59636534Y-23418862D01*
X59855000Y-22891439D01*
X59855000Y-22320561D01*
X59636534Y-21793138D01*
X59232862Y-21389466D01*
X58705439Y-21171000D01*
X58134561Y-21171000D01*
X57607138Y-21389466D01*
X57203466Y-21793138D01*
X56985000Y-22320561D01*
X54587000Y-22320561D01*
X54587000Y-21986996D01*
X54307638Y-21312556D01*
X53791444Y-20796362D01*
X53117004Y-20517000D01*
X52386996Y-20517000D01*
X51712556Y-20796362D01*
X51196362Y-21312556D01*
X50917000Y-21986996D01*
X49599440Y-21986996D01*
X49599440Y-21152000D01*
X49550157Y-20904235D01*
X49409809Y-20694191D01*
X49199765Y-20553843D01*
X48952000Y-20504560D01*
X46552000Y-20504560D01*
X46304235Y-20553843D01*
X46094191Y-20694191D01*
X45953843Y-20904235D01*
X45904560Y-21152000D01*
X13589000Y-21152000D01*
X13589000Y-17397002D01*
X13851436Y-18030579D01*
X13851878Y-18030873D01*
X13852276Y-18031835D01*
X14734165Y-18913724D01*
X14735127Y-18914122D01*
X14735421Y-18914564D01*
X15311550Y-19152885D01*
X15886410Y-19391000D01*
X15887181Y-19391000D01*
X15887892Y-19391294D01*
X16510423Y-19391000D01*
X17133590Y-19391000D01*
X17134301Y-19390705D01*
X17135072Y-19390705D01*
X18284579Y-18914564D01*
X18284873Y-18914122D01*
X18285835Y-18913724D01*
X18657559Y-18542000D01*
X21343214Y-18542000D01*
X21516676Y-19414054D01*
X22010655Y-20153345D01*
X22749946Y-20647324D01*
X23401872Y-20777000D01*
X23842128Y-20777000D01*
X24494054Y-20647324D01*
X25233345Y-20153345D01*
X25727324Y-19414054D01*
X25900786Y-18542000D01*
X25727324Y-17669946D01*
X25240926Y-16942000D01*
X36614560Y-16942000D01*
X36614560Y-20142000D01*
X36663843Y-20389765D01*
X36804191Y-20599809D01*
X37014235Y-20740157D01*
X37262000Y-20789440D01*
X40462000Y-20789440D01*
X40709765Y-20740157D01*
X40919809Y-20599809D01*
X41060157Y-20389765D01*
X41109440Y-20142000D01*
X41109440Y-18288000D01*
X56956887Y-18288000D01*
X57068260Y-18847909D01*
X57385423Y-19322577D01*
X57860091Y-19639740D01*
X58278667Y-19723000D01*
X58561333Y-19723000D01*
X58979909Y-19639740D01*
X59454577Y-19322577D01*
X59771740Y-18847909D01*
X59883113Y-18288000D01*
X59826336Y-18002561D01*
X69685000Y-18002561D01*
X69685000Y-18573439D01*
X69903466Y-19100862D01*
X70307138Y-19504534D01*
X70834561Y-19723000D01*
X71405439Y-19723000D01*
X71932862Y-19504534D01*
X72336534Y-19100862D01*
X72555000Y-18573439D01*
X72555000Y-18002561D01*
X72410137Y-17652831D01*
X82340450Y-17652831D01*
X82340451Y-19746130D01*
X82426591Y-20179184D01*
X82754723Y-20670268D01*
X83245807Y-20998400D01*
X83825080Y-21113625D01*
X84404354Y-20998400D01*
X84895438Y-20670268D01*
X85095081Y-20371482D01*
X85294723Y-20670268D01*
X85785807Y-20998400D01*
X86365080Y-21113625D01*
X86944354Y-20998400D01*
X87435438Y-20670268D01*
X87635081Y-20371482D01*
X87834723Y-20670268D01*
X88325807Y-20998400D01*
X88905080Y-21113625D01*
X89484354Y-20998400D01*
X89975438Y-20670268D01*
X90303570Y-20179184D01*
X90389710Y-19746130D01*
X90389710Y-17652830D01*
X90303570Y-17219776D01*
X89975438Y-16728692D01*
X89484353Y-16400560D01*
X88905080Y-16285335D01*
X88325806Y-16400560D01*
X87834722Y-16728692D01*
X87635080Y-17027478D01*
X87435438Y-16728692D01*
X86944353Y-16400560D01*
X86365080Y-16285335D01*
X85785806Y-16400560D01*
X85294722Y-16728692D01*
X85095080Y-17027478D01*
X84895438Y-16728692D01*
X84404353Y-16400560D01*
X83825080Y-16285335D01*
X83245806Y-16400560D01*
X82754722Y-16728692D01*
X82426590Y-17219777D01*
X82340450Y-17652831D01*
X72410137Y-17652831D01*
X72336534Y-17475138D01*
X71932862Y-17071466D01*
X71405439Y-16853000D01*
X70834561Y-16853000D01*
X70307138Y-17071466D01*
X69903466Y-17475138D01*
X69685000Y-18002561D01*
X59826336Y-18002561D01*
X59771740Y-17728091D01*
X59454577Y-17253423D01*
X58979909Y-16936260D01*
X58561333Y-16853000D01*
X58278667Y-16853000D01*
X57860091Y-16936260D01*
X57385423Y-17253423D01*
X57068260Y-17728091D01*
X56956887Y-18288000D01*
X41109440Y-18288000D01*
X41109440Y-16942000D01*
X41060157Y-16694235D01*
X40919809Y-16484191D01*
X40709765Y-16343843D01*
X40462000Y-16294560D01*
X37262000Y-16294560D01*
X37014235Y-16343843D01*
X36804191Y-16484191D01*
X36663843Y-16694235D01*
X36614560Y-16942000D01*
X25240926Y-16942000D01*
X25233345Y-16930655D01*
X24494054Y-16436676D01*
X23842128Y-16307000D01*
X23401872Y-16307000D01*
X22749946Y-16436676D01*
X22010655Y-16930655D01*
X21516676Y-17669946D01*
X21343214Y-18542000D01*
X18657559Y-18542000D01*
X19167724Y-18031835D01*
X19168122Y-18030873D01*
X19168564Y-18030579D01*
X19406885Y-17454450D01*
X19645000Y-16879590D01*
X19645000Y-16878819D01*
X19645294Y-16878108D01*
X19645000Y-16255577D01*
X19645000Y-15632410D01*
X19644705Y-15631699D01*
X19644705Y-15630928D01*
X19168564Y-14481421D01*
X19168122Y-14481127D01*
X19167724Y-14480165D01*
X18285835Y-13598276D01*
X18284873Y-13597878D01*
X18284579Y-13597436D01*
X17708450Y-13359115D01*
X17133590Y-13121000D01*
X17132819Y-13121000D01*
X17132108Y-13120706D01*
X16509577Y-13121000D01*
X15886410Y-13121000D01*
X15885699Y-13121295D01*
X15884928Y-13121295D01*
X14735421Y-13597436D01*
X14735127Y-13597878D01*
X14734165Y-13598276D01*
X13852276Y-14480165D01*
X13851878Y-14481127D01*
X13851436Y-14481421D01*
X13613115Y-15057550D01*
X13589000Y-15115769D01*
X13589000Y-12877000D01*
X107315524Y-12877000D01*
X107322628Y-15278119D01*
X107322628Y-15278119D01*
G37*
X107322628Y-15278119D02*
X107022084Y-14552541D01*
X107021642Y-14552247D01*
X107021244Y-14551285D01*
X106139355Y-13669396D01*
X106138393Y-13668998D01*
X106138099Y-13668556D01*
X105561970Y-13430235D01*
X104987110Y-13192120D01*
X104986339Y-13192120D01*
X104985628Y-13191826D01*
X104363097Y-13192120D01*
X103739930Y-13192120D01*
X103739219Y-13192415D01*
X103738448Y-13192415D01*
X102588941Y-13668556D01*
X102588647Y-13668998D01*
X102587685Y-13669396D01*
X101705796Y-14551285D01*
X101705398Y-14552247D01*
X101704956Y-14552541D01*
X101466635Y-15128670D01*
X101228520Y-15703530D01*
X101228520Y-15704301D01*
X101228226Y-15705012D01*
X101228520Y-16327120D01*
X101228520Y-16950710D01*
X101228815Y-16951421D01*
X101228815Y-16952192D01*
X101704956Y-18101699D01*
X101705398Y-18101993D01*
X101705796Y-18102955D01*
X102587685Y-18984844D01*
X102588647Y-18985242D01*
X102588941Y-18985684D01*
X103165070Y-19224005D01*
X103739930Y-19462120D01*
X103740701Y-19462120D01*
X103741412Y-19462414D01*
X104363943Y-19462120D01*
X104987110Y-19462120D01*
X104987821Y-19461825D01*
X104988592Y-19461825D01*
X106138099Y-18985684D01*
X106138393Y-18985242D01*
X106139355Y-18984844D01*
X107021244Y-18102955D01*
X107021642Y-18101993D01*
X107022084Y-18101699D01*
X107260405Y-17525570D01*
X107328789Y-17360477D01*
X107568624Y-98425000D01*
X97844264Y-98425000D01*
X98251854Y-98017410D01*
X98546440Y-97306215D01*
X98546440Y-96536425D01*
X98251854Y-95825230D01*
X97707530Y-95280906D01*
X96996335Y-94986320D01*
X96226545Y-94986320D01*
X95515350Y-95280906D01*
X94971026Y-95825230D01*
X94676440Y-96536425D01*
X94676440Y-97306215D01*
X94971026Y-98017410D01*
X95378616Y-98425000D01*
X13589000Y-98425000D01*
X13589000Y-95278420D01*
X13998756Y-96267659D01*
X13999198Y-96267953D01*
X13999596Y-96268915D01*
X14881485Y-97150804D01*
X14882447Y-97151202D01*
X14882741Y-97151644D01*
X15458870Y-97389965D01*
X16033730Y-97628080D01*
X16034501Y-97628080D01*
X16035212Y-97628374D01*
X16657743Y-97628080D01*
X17280910Y-97628080D01*
X17281621Y-97627785D01*
X17282392Y-97627785D01*
X18431899Y-97151644D01*
X18432193Y-97151202D01*
X18433155Y-97150804D01*
X19315044Y-96268915D01*
X19315442Y-96267953D01*
X19315884Y-96267659D01*
X19554205Y-95691530D01*
X19792320Y-95116670D01*
X19792320Y-95115899D01*
X19792614Y-95115188D01*
X19792320Y-94492657D01*
X19792320Y-93869490D01*
X19792025Y-93868779D01*
X19792025Y-93868008D01*
X19315884Y-92718501D01*
X19315442Y-92718207D01*
X19315044Y-92717245D01*
X18433155Y-91835356D01*
X18432193Y-91834958D01*
X18431899Y-91834516D01*
X17855770Y-91596195D01*
X17280910Y-91358080D01*
X17280139Y-91358080D01*
X17279428Y-91357786D01*
X16656897Y-91358080D01*
X16033730Y-91358080D01*
X16033019Y-91358375D01*
X16032248Y-91358375D01*
X14882741Y-91834516D01*
X14882447Y-91834958D01*
X14881485Y-91835356D01*
X13999596Y-92717245D01*
X13999198Y-92718207D01*
X13998756Y-92718501D01*
X13760435Y-93294630D01*
X13589000Y-93708510D01*
X13589000Y-85801098D01*
X18913600Y-85801098D01*
X18913600Y-86451542D01*
X19162514Y-87052473D01*
X19622447Y-87512406D01*
X20223378Y-87761320D01*
X20873822Y-87761320D01*
X21474753Y-87512406D01*
X21934686Y-87052473D01*
X22183600Y-86451542D01*
X22183600Y-85801098D01*
X23413600Y-85801098D01*
X23413600Y-86451542D01*
X23662514Y-87052473D01*
X24122447Y-87512406D01*
X24723378Y-87761320D01*
X25373822Y-87761320D01*
X25974753Y-87512406D01*
X26434686Y-87052473D01*
X26683600Y-86451542D01*
X26683600Y-85801098D01*
X26434686Y-85200167D01*
X25974753Y-84740234D01*
X25373822Y-84491320D01*
X24723378Y-84491320D01*
X24122447Y-84740234D01*
X23662514Y-85200167D01*
X23413600Y-85801098D01*
X22183600Y-85801098D01*
X21934686Y-85200167D01*
X21474753Y-84740234D01*
X20873822Y-84491320D01*
X20223378Y-84491320D01*
X19622447Y-84740234D01*
X19162514Y-85200167D01*
X18913600Y-85801098D01*
X13589000Y-85801098D01*
X13589000Y-79301098D01*
X18913600Y-79301098D01*
X18913600Y-79951542D01*
X19162514Y-80552473D01*
X19622447Y-81012406D01*
X20223378Y-81261320D01*
X20873822Y-81261320D01*
X21474753Y-81012406D01*
X21934686Y-80552473D01*
X22183600Y-79951542D01*
X22183600Y-79301098D01*
X23413600Y-79301098D01*
X23413600Y-79951542D01*
X23662514Y-80552473D01*
X24122447Y-81012406D01*
X24723378Y-81261320D01*
X25373822Y-81261320D01*
X25974753Y-81012406D01*
X26434686Y-80552473D01*
X26683600Y-79951542D01*
X26683600Y-79301098D01*
X26434686Y-78700167D01*
X25974753Y-78240234D01*
X25373822Y-77991320D01*
X24723378Y-77991320D01*
X24122447Y-78240234D01*
X23662514Y-78700167D01*
X23413600Y-79301098D01*
X22183600Y-79301098D01*
X21934686Y-78700167D01*
X21474753Y-78240234D01*
X20873822Y-77991320D01*
X20223378Y-77991320D01*
X19622447Y-78240234D01*
X19162514Y-78700167D01*
X18913600Y-79301098D01*
X13589000Y-79301098D01*
X13589000Y-76168561D01*
X19139000Y-76168561D01*
X19139000Y-76739439D01*
X19357466Y-77266862D01*
X19761138Y-77670534D01*
X20288561Y-77889000D01*
X20859439Y-77889000D01*
X21386862Y-77670534D01*
X21790534Y-77266862D01*
X22009000Y-76739439D01*
X22009000Y-76168561D01*
X21790534Y-75641138D01*
X21386862Y-75237466D01*
X20859439Y-75019000D01*
X20288561Y-75019000D01*
X19761138Y-75237466D01*
X19357466Y-75641138D01*
X19139000Y-76168561D01*
X13589000Y-76168561D01*
X13589000Y-63754000D01*
X19110887Y-63754000D01*
X19222260Y-64313909D01*
X19539423Y-64788577D01*
X20014091Y-65105740D01*
X20432667Y-65189000D01*
X20715333Y-65189000D01*
X21133909Y-65105740D01*
X21458283Y-64889000D01*
X22240217Y-64889000D01*
X22352000Y-64911235D01*
X22463783Y-64889000D01*
X22794855Y-64823146D01*
X23170289Y-64572289D01*
X23233613Y-64477519D01*
X23734571Y-63976561D01*
X24981000Y-63976561D01*
X24981000Y-64547439D01*
X25199466Y-65074862D01*
X25603138Y-65478534D01*
X26085981Y-65678534D01*
X26705001Y-66297555D01*
X26705000Y-85644008D01*
X26680806Y-85765640D01*
X26705000Y-85887272D01*
X26705000Y-85887275D01*
X26776656Y-86247512D01*
X27049615Y-86656025D01*
X27152734Y-86724927D01*
X29473320Y-89045514D01*
X29473320Y-89139290D01*
X29707010Y-89703467D01*
X30138813Y-90135270D01*
X30702990Y-90368960D01*
X31313650Y-90368960D01*
X31877827Y-90135270D01*
X32047045Y-89966052D01*
X32050163Y-89981725D01*
X32190511Y-90191769D01*
X32400555Y-90332117D01*
X32648320Y-90381400D01*
X34448320Y-90381400D01*
X34696085Y-90332117D01*
X34906129Y-90191769D01*
X35046477Y-89981725D01*
X35095760Y-89733960D01*
X35095760Y-87933960D01*
X35046477Y-87686195D01*
X34906129Y-87476151D01*
X34696085Y-87335803D01*
X34448320Y-87286520D01*
X32648320Y-87286520D01*
X32400555Y-87335803D01*
X32190511Y-87476151D01*
X32050163Y-87686195D01*
X32047045Y-87701868D01*
X31877827Y-87532650D01*
X31313650Y-87298960D01*
X31219874Y-87298960D01*
X29772914Y-85852000D01*
X40700887Y-85852000D01*
X40812260Y-86411909D01*
X41129423Y-86886577D01*
X41604091Y-87203740D01*
X42022667Y-87287000D01*
X42305333Y-87287000D01*
X42723909Y-87203740D01*
X43198577Y-86886577D01*
X43515740Y-86411909D01*
X43627113Y-85852000D01*
X43570336Y-85566561D01*
X53429000Y-85566561D01*
X53429000Y-86137439D01*
X53647466Y-86664862D01*
X54051138Y-87068534D01*
X54578561Y-87287000D01*
X55149439Y-87287000D01*
X55676862Y-87068534D01*
X56080534Y-86664862D01*
X56299000Y-86137439D01*
X56299000Y-85852000D01*
X57718887Y-85852000D01*
X57830260Y-86411909D01*
X58147423Y-86886577D01*
X58622091Y-87203740D01*
X59040667Y-87287000D01*
X59323333Y-87287000D01*
X59741909Y-87203740D01*
X60216577Y-86886577D01*
X60533740Y-86411909D01*
X60645113Y-85852000D01*
X60533740Y-85292091D01*
X60216577Y-84817423D01*
X59741909Y-84500260D01*
X59323333Y-84417000D01*
X59040667Y-84417000D01*
X58622091Y-84500260D01*
X58147423Y-84817423D01*
X57830260Y-85292091D01*
X57718887Y-85852000D01*
X56299000Y-85852000D01*
X56299000Y-85566561D01*
X56080534Y-85039138D01*
X55676862Y-84635466D01*
X55149439Y-84417000D01*
X54578561Y-84417000D01*
X54051138Y-84635466D01*
X53647466Y-85039138D01*
X53429000Y-85566561D01*
X43570336Y-85566561D01*
X43515740Y-85292091D01*
X43198577Y-84817423D01*
X42723909Y-84500260D01*
X42305333Y-84417000D01*
X42022667Y-84417000D01*
X41604091Y-84500260D01*
X41129423Y-84817423D01*
X40812260Y-85292091D01*
X40700887Y-85852000D01*
X29772914Y-85852000D01*
X29175000Y-85254087D01*
X29175000Y-82015641D01*
X30299760Y-82015641D01*
X30299760Y-82586519D01*
X30518226Y-83113942D01*
X30921898Y-83517614D01*
X31449321Y-83736080D01*
X32020199Y-83736080D01*
X32547622Y-83517614D01*
X32951294Y-83113942D01*
X33169760Y-82586519D01*
X33169760Y-82015641D01*
X35384840Y-82015641D01*
X35384840Y-82586519D01*
X35603306Y-83113942D01*
X36006978Y-83517614D01*
X36534401Y-83736080D01*
X37105279Y-83736080D01*
X37632702Y-83517614D01*
X38036374Y-83113942D01*
X38254840Y-82586519D01*
X38254840Y-82015641D01*
X38036374Y-81488218D01*
X37632702Y-81084546D01*
X37105279Y-80866080D01*
X36534401Y-80866080D01*
X36006978Y-81084546D01*
X35603306Y-81488218D01*
X35384840Y-82015641D01*
X33169760Y-82015641D01*
X32951294Y-81488218D01*
X32547622Y-81084546D01*
X32020199Y-80866080D01*
X31449321Y-80866080D01*
X30921898Y-81084546D01*
X30518226Y-81488218D01*
X30299760Y-82015641D01*
X29175000Y-82015641D01*
X29175000Y-80010000D01*
X40700887Y-80010000D01*
X40812260Y-80569909D01*
X41129423Y-81044577D01*
X41604091Y-81361740D01*
X42022667Y-81445000D01*
X42305333Y-81445000D01*
X42723909Y-81361740D01*
X43198577Y-81044577D01*
X43515740Y-80569909D01*
X43627113Y-80010000D01*
X43570336Y-79724561D01*
X53429000Y-79724561D01*
X53429000Y-80295439D01*
X53647466Y-80822862D01*
X54051138Y-81226534D01*
X54578561Y-81445000D01*
X55149439Y-81445000D01*
X55676862Y-81226534D01*
X56080534Y-80822862D01*
X56299000Y-80295439D01*
X56299000Y-79724561D01*
X56080534Y-79197138D01*
X55676862Y-78793466D01*
X55149439Y-78575000D01*
X54578561Y-78575000D01*
X54051138Y-78793466D01*
X53647466Y-79197138D01*
X53429000Y-79724561D01*
X43570336Y-79724561D01*
X43515740Y-79450091D01*
X43198577Y-78975423D01*
X42723909Y-78658260D01*
X42305333Y-78575000D01*
X42022667Y-78575000D01*
X41604091Y-78658260D01*
X41129423Y-78975423D01*
X40812260Y-79450091D01*
X40700887Y-80010000D01*
X29175000Y-80010000D01*
X29175000Y-74136561D01*
X40729000Y-74136561D01*
X40729000Y-74707439D01*
X40947466Y-75234862D01*
X41351138Y-75638534D01*
X41878561Y-75857000D01*
X42449439Y-75857000D01*
X42976862Y-75638534D01*
X43380534Y-75234862D01*
X43599000Y-74707439D01*
X43599000Y-74422000D01*
X53400887Y-74422000D01*
X53512260Y-74981909D01*
X53829423Y-75456577D01*
X54304091Y-75773740D01*
X54722667Y-75857000D01*
X55005333Y-75857000D01*
X55423909Y-75773740D01*
X55898577Y-75456577D01*
X56215740Y-74981909D01*
X56327113Y-74422000D01*
X56215740Y-73862091D01*
X55898577Y-73387423D01*
X55423909Y-73070260D01*
X55005333Y-72987000D01*
X54722667Y-72987000D01*
X54304091Y-73070260D01*
X53829423Y-73387423D01*
X53512260Y-73862091D01*
X53400887Y-74422000D01*
X43599000Y-74422000D01*
X43599000Y-74136561D01*
X43380534Y-73609138D01*
X42976862Y-73205466D01*
X42449439Y-72987000D01*
X41878561Y-72987000D01*
X41351138Y-73205466D01*
X40947466Y-73609138D01*
X40729000Y-74136561D01*
X29175000Y-74136561D01*
X29175000Y-69601080D01*
X30271647Y-69601080D01*
X30383020Y-70160989D01*
X30700183Y-70635657D01*
X31174851Y-70952820D01*
X31593427Y-71036080D01*
X31876093Y-71036080D01*
X32294669Y-70952820D01*
X32769337Y-70635657D01*
X33086500Y-70160989D01*
X33197873Y-69601080D01*
X33086500Y-69041171D01*
X32959099Y-68850502D01*
X35811081Y-65998520D01*
X35905849Y-65935199D01*
X36156706Y-65559765D01*
X36222560Y-65228693D01*
X36222560Y-65228692D01*
X36244795Y-65116911D01*
X36222560Y-65005129D01*
X36222560Y-64262000D01*
X37652887Y-64262000D01*
X37764260Y-64821909D01*
X38081423Y-65296577D01*
X38556091Y-65613740D01*
X38974667Y-65697000D01*
X39257333Y-65697000D01*
X39675909Y-65613740D01*
X40150577Y-65296577D01*
X40467740Y-64821909D01*
X40579113Y-64262000D01*
X40467740Y-63702091D01*
X40150577Y-63227423D01*
X39675909Y-62910260D01*
X39257333Y-62827000D01*
X38974667Y-62827000D01*
X38556091Y-62910260D01*
X38081423Y-63227423D01*
X37764260Y-63702091D01*
X37652887Y-64262000D01*
X36222560Y-64262000D01*
X36222560Y-59880731D01*
X39088292Y-57015000D01*
X43618132Y-57015000D01*
X43700191Y-57137809D01*
X43910235Y-57278157D01*
X43944637Y-57285000D01*
X42956503Y-57285000D01*
X42844720Y-57262765D01*
X42732937Y-57285000D01*
X42401865Y-57350854D01*
X42026431Y-57601711D01*
X41963109Y-57696479D01*
X41084879Y-58574709D01*
X40990112Y-58638031D01*
X40804485Y-58915842D01*
X40739254Y-59013466D01*
X40651165Y-59456320D01*
X40673401Y-59568108D01*
X40673400Y-65273758D01*
X37570418Y-68376741D01*
X37379749Y-68249340D01*
X36961173Y-68166080D01*
X36678507Y-68166080D01*
X36259931Y-68249340D01*
X35785263Y-68566503D01*
X35468100Y-69041171D01*
X35356727Y-69601080D01*
X35468100Y-70160989D01*
X35785263Y-70635657D01*
X36259931Y-70952820D01*
X36678507Y-71036080D01*
X36961173Y-71036080D01*
X37379749Y-70952820D01*
X37704123Y-70736080D01*
X37839427Y-70736080D01*
X37951210Y-70758315D01*
X38062993Y-70736080D01*
X38394065Y-70670226D01*
X38769499Y-70419369D01*
X38832823Y-70324598D01*
X42531922Y-66625500D01*
X42626689Y-66562179D01*
X42877546Y-66186745D01*
X42943400Y-65855673D01*
X42943400Y-65855672D01*
X42965635Y-65743891D01*
X42943400Y-65632109D01*
X42943400Y-59926451D01*
X43314852Y-59555000D01*
X44073717Y-59555000D01*
X44275758Y-59690000D01*
X43923423Y-59925423D01*
X43606260Y-60400091D01*
X43494887Y-60960000D01*
X43606260Y-61519909D01*
X43923423Y-61994577D01*
X44275758Y-62230000D01*
X43923423Y-62465423D01*
X43606260Y-62940091D01*
X43494887Y-63500000D01*
X43606260Y-64059909D01*
X43923423Y-64534577D01*
X44398091Y-64851740D01*
X44816667Y-64935000D01*
X45099333Y-64935000D01*
X45517909Y-64851740D01*
X45992577Y-64534577D01*
X46309740Y-64059909D01*
X46421113Y-63500000D01*
X46309740Y-62940091D01*
X45992577Y-62465423D01*
X45640242Y-62230000D01*
X45992577Y-61994577D01*
X46309740Y-61519909D01*
X46421113Y-60960000D01*
X46309740Y-60400091D01*
X45992577Y-59925423D01*
X45640242Y-59690000D01*
X45992577Y-59454577D01*
X46309740Y-58979909D01*
X46421113Y-58420000D01*
X46309740Y-57860091D01*
X45992577Y-57385423D01*
X45871894Y-57304785D01*
X46005765Y-57278157D01*
X46215809Y-57137809D01*
X46293863Y-57020994D01*
X47241840Y-57968973D01*
X47241841Y-64769972D01*
X47219605Y-64881760D01*
X47307694Y-65324614D01*
X47307695Y-65324615D01*
X47558552Y-65700049D01*
X47653320Y-65763371D01*
X49481509Y-67591561D01*
X49544831Y-67686329D01*
X49920265Y-67937186D01*
X50363119Y-68025275D01*
X50474902Y-68003040D01*
X53497457Y-68003040D01*
X53609240Y-68025275D01*
X53721023Y-68003040D01*
X54052095Y-67937186D01*
X54427529Y-67686329D01*
X54490853Y-67591558D01*
X57573801Y-64508610D01*
X57668569Y-64445289D01*
X57919426Y-64069855D01*
X57985280Y-63738783D01*
X57985280Y-63738782D01*
X58007515Y-63627000D01*
X57985280Y-63515217D01*
X57985280Y-61165212D01*
X58255281Y-61435213D01*
X58255280Y-71364620D01*
X58112854Y-71577775D01*
X58112854Y-71577776D01*
X58024765Y-72020630D01*
X58047000Y-72132413D01*
X58047000Y-72257604D01*
X57965466Y-72339138D01*
X57747000Y-72866561D01*
X57747000Y-73437439D01*
X57965466Y-73964862D01*
X58369138Y-74368534D01*
X58896561Y-74587000D01*
X59467439Y-74587000D01*
X59994862Y-74368534D01*
X60398534Y-73964862D01*
X60617000Y-73437439D01*
X60617000Y-72866561D01*
X60400375Y-72343582D01*
X60459426Y-72255205D01*
X60525280Y-71924133D01*
X60525280Y-71924132D01*
X60547515Y-71812351D01*
X60525280Y-71700569D01*
X60525280Y-61076863D01*
X60547515Y-60965080D01*
X60459426Y-60522225D01*
X60431042Y-60479746D01*
X60208569Y-60146791D01*
X60113801Y-60083469D01*
X59839332Y-59809000D01*
X60841000Y-59809000D01*
X60841001Y-86905867D01*
X60235869Y-87511000D01*
X49895781Y-87511000D01*
X49783999Y-87488765D01*
X49672217Y-87511000D01*
X49341145Y-87576854D01*
X48965711Y-87827711D01*
X48902389Y-87922479D01*
X46520482Y-90304387D01*
X46425711Y-90367711D01*
X46174855Y-90743145D01*
X46174854Y-90743146D01*
X46086765Y-91186000D01*
X46109000Y-91297783D01*
X46109000Y-92431578D01*
X45974000Y-92633620D01*
X45702940Y-92227950D01*
X45244622Y-91921712D01*
X44704000Y-91814176D01*
X44163379Y-91921712D01*
X43705061Y-92227950D01*
X43434000Y-92633620D01*
X43162940Y-92227950D01*
X42704622Y-91921712D01*
X42164000Y-91814176D01*
X41623379Y-91921712D01*
X41165061Y-92227950D01*
X40858822Y-92686268D01*
X40778430Y-93090427D01*
X40778430Y-94361572D01*
X40858822Y-94765731D01*
X41165060Y-95224049D01*
X41623378Y-95530288D01*
X42164000Y-95637824D01*
X42704621Y-95530288D01*
X43162939Y-95224050D01*
X43434000Y-94818379D01*
X43705060Y-95224049D01*
X44163378Y-95530288D01*
X44704000Y-95637824D01*
X45244621Y-95530288D01*
X45702939Y-95224050D01*
X45974000Y-94818379D01*
X46245060Y-95224049D01*
X46703378Y-95530288D01*
X47244000Y-95637824D01*
X47784621Y-95530288D01*
X48242939Y-95224050D01*
X48549178Y-94765732D01*
X48629570Y-94361573D01*
X48629570Y-93090427D01*
X48553899Y-92710000D01*
X75191214Y-92710000D01*
X75364676Y-93582054D01*
X75858655Y-94321345D01*
X76597946Y-94815324D01*
X77249872Y-94945000D01*
X77690128Y-94945000D01*
X78342054Y-94815324D01*
X79081345Y-94321345D01*
X79575324Y-93582054D01*
X79748786Y-92710000D01*
X79575324Y-91837946D01*
X79088926Y-91110000D01*
X90462560Y-91110000D01*
X90462560Y-94310000D01*
X90511843Y-94557765D01*
X90652191Y-94767809D01*
X90862235Y-94908157D01*
X91110000Y-94957440D01*
X94310000Y-94957440D01*
X94557765Y-94908157D01*
X94767809Y-94767809D01*
X94908157Y-94557765D01*
X94957440Y-94310000D01*
X94957440Y-93982732D01*
X101273946Y-93982732D01*
X101274240Y-94604840D01*
X101274240Y-95228430D01*
X101274535Y-95229141D01*
X101274535Y-95229912D01*
X101750676Y-96379419D01*
X101751118Y-96379713D01*
X101751516Y-96380675D01*
X102633405Y-97262564D01*
X102634367Y-97262962D01*
X102634661Y-97263404D01*
X103210790Y-97501725D01*
X103785650Y-97739840D01*
X103786421Y-97739840D01*
X103787132Y-97740134D01*
X104409663Y-97739840D01*
X105032830Y-97739840D01*
X105033541Y-97739545D01*
X105034312Y-97739545D01*
X106183819Y-97263404D01*
X106184113Y-97262962D01*
X106185075Y-97262564D01*
X107066964Y-96380675D01*
X107067362Y-96379713D01*
X107067804Y-96379419D01*
X107306125Y-95803290D01*
X107544240Y-95228430D01*
X107544240Y-95227659D01*
X107544534Y-95226948D01*
X107544240Y-94604417D01*
X107544240Y-93981250D01*
X107543945Y-93980539D01*
X107543945Y-93979768D01*
X107067804Y-92830261D01*
X107067362Y-92829967D01*
X107066964Y-92829005D01*
X106185075Y-91947116D01*
X106184113Y-91946718D01*
X106183819Y-91946276D01*
X105607690Y-91707955D01*
X105032830Y-91469840D01*
X105032059Y-91469840D01*
X105031348Y-91469546D01*
X104408817Y-91469840D01*
X103785650Y-91469840D01*
X103784939Y-91470135D01*
X103784168Y-91470135D01*
X102634661Y-91946276D01*
X102634367Y-91946718D01*
X102633405Y-91947116D01*
X101751516Y-92829005D01*
X101751118Y-92829967D01*
X101750676Y-92830261D01*
X101512355Y-93406390D01*
X101274240Y-93981250D01*
X101274240Y-93982021D01*
X101273946Y-93982732D01*
X94957440Y-93982732D01*
X94957440Y-91110000D01*
X94908157Y-90862235D01*
X94767809Y-90652191D01*
X94557765Y-90511843D01*
X94310000Y-90462560D01*
X91110000Y-90462560D01*
X90862235Y-90511843D01*
X90652191Y-90652191D01*
X90511843Y-90862235D01*
X90462560Y-91110000D01*
X79088926Y-91110000D01*
X79081345Y-91098655D01*
X78342054Y-90604676D01*
X77690128Y-90475000D01*
X77249872Y-90475000D01*
X76597946Y-90604676D01*
X75858655Y-91098655D01*
X75364676Y-91837946D01*
X75191214Y-92710000D01*
X48553899Y-92710000D01*
X48549178Y-92686268D01*
X48379000Y-92431578D01*
X48379000Y-91656131D01*
X50254132Y-89781000D01*
X60594217Y-89781000D01*
X60706000Y-89803235D01*
X60817783Y-89781000D01*
X61148855Y-89715146D01*
X61524289Y-89464289D01*
X61587613Y-89369518D01*
X62699521Y-88257611D01*
X62794289Y-88194289D01*
X63045146Y-87818855D01*
X63093283Y-87576854D01*
X63133235Y-87376001D01*
X63111000Y-87264218D01*
X63111000Y-86360000D01*
X75191214Y-86360000D01*
X75364676Y-87232054D01*
X75858655Y-87971345D01*
X76597946Y-88465324D01*
X77249872Y-88595000D01*
X77690128Y-88595000D01*
X78342054Y-88465324D01*
X79081345Y-87971345D01*
X79575324Y-87232054D01*
X79748786Y-86360000D01*
X79575324Y-85487946D01*
X79088926Y-84760000D01*
X90462560Y-84760000D01*
X90462560Y-87960000D01*
X90511843Y-88207765D01*
X90652191Y-88417809D01*
X90862235Y-88558157D01*
X91110000Y-88607440D01*
X94310000Y-88607440D01*
X94557765Y-88558157D01*
X94767809Y-88417809D01*
X94908157Y-88207765D01*
X94957440Y-87960000D01*
X94957440Y-85294385D01*
X101122960Y-85294385D01*
X101122960Y-86064175D01*
X101417546Y-86775370D01*
X101961870Y-87319694D01*
X102673065Y-87614280D01*
X103442855Y-87614280D01*
X104154050Y-87319694D01*
X104698374Y-86775370D01*
X104992960Y-86064175D01*
X104992960Y-85294385D01*
X104698374Y-84583190D01*
X104154050Y-84038866D01*
X103442855Y-83744280D01*
X102673065Y-83744280D01*
X101961870Y-84038866D01*
X101417546Y-84583190D01*
X101122960Y-85294385D01*
X94957440Y-85294385D01*
X94957440Y-84760000D01*
X94908157Y-84512235D01*
X94767809Y-84302191D01*
X94557765Y-84161843D01*
X94310000Y-84112560D01*
X91110000Y-84112560D01*
X90862235Y-84161843D01*
X90652191Y-84302191D01*
X90511843Y-84512235D01*
X90462560Y-84760000D01*
X79088926Y-84760000D01*
X79081345Y-84748655D01*
X78342054Y-84254676D01*
X77690128Y-84125000D01*
X77249872Y-84125000D01*
X76597946Y-84254676D01*
X75858655Y-84748655D01*
X75364676Y-85487946D01*
X75191214Y-86360000D01*
X63111000Y-86360000D01*
X63111000Y-83628996D01*
X66237000Y-83628996D01*
X66237000Y-84359004D01*
X66516362Y-85033444D01*
X67032556Y-85549638D01*
X67706996Y-85829000D01*
X68437004Y-85829000D01*
X69111444Y-85549638D01*
X69627638Y-85033444D01*
X69907000Y-84359004D01*
X69907000Y-83628996D01*
X69627638Y-82954556D01*
X69111444Y-82438362D01*
X68437004Y-82159000D01*
X67706996Y-82159000D01*
X67032556Y-82438362D01*
X66516362Y-82954556D01*
X66237000Y-83628996D01*
X63111000Y-83628996D01*
X63111000Y-77794000D01*
X66224560Y-77794000D01*
X66224560Y-80194000D01*
X66273843Y-80441765D01*
X66414191Y-80651809D01*
X66624235Y-80792157D01*
X66872000Y-80841440D01*
X69272000Y-80841440D01*
X69519765Y-80792157D01*
X69729809Y-80651809D01*
X69870157Y-80441765D01*
X69919440Y-80194000D01*
X69919440Y-77794000D01*
X69870157Y-77546235D01*
X69729809Y-77336191D01*
X69519765Y-77195843D01*
X69272000Y-77146560D01*
X66872000Y-77146560D01*
X66624235Y-77195843D01*
X66414191Y-77336191D01*
X66273843Y-77546235D01*
X66224560Y-77794000D01*
X63111000Y-77794000D01*
X63111000Y-66944996D01*
X63777000Y-66944996D01*
X63777000Y-67675004D01*
X64056362Y-68349444D01*
X64572556Y-68865638D01*
X65246996Y-69145000D01*
X65977004Y-69145000D01*
X66651444Y-68865638D01*
X67167638Y-68349444D01*
X67447000Y-67675004D01*
X67447000Y-66944996D01*
X67167638Y-66270556D01*
X67007082Y-66110000D01*
X68764560Y-66110000D01*
X68764560Y-68510000D01*
X68813843Y-68757765D01*
X68954191Y-68967809D01*
X69164235Y-69108157D01*
X69412000Y-69157440D01*
X71812000Y-69157440D01*
X72059765Y-69108157D01*
X72269809Y-68967809D01*
X72410157Y-68757765D01*
X72459440Y-68510000D01*
X72459440Y-66110000D01*
X72410157Y-65862235D01*
X72269809Y-65652191D01*
X72059765Y-65511843D01*
X71812000Y-65462560D01*
X69412000Y-65462560D01*
X69164235Y-65511843D01*
X68954191Y-65652191D01*
X68813843Y-65862235D01*
X68764560Y-66110000D01*
X67007082Y-66110000D01*
X66651444Y-65754362D01*
X65977004Y-65475000D01*
X65246996Y-65475000D01*
X64572556Y-65754362D01*
X64056362Y-66270556D01*
X63777000Y-66944996D01*
X63111000Y-66944996D01*
X63111000Y-59709817D01*
X63277310Y-59543507D01*
X63511000Y-58979330D01*
X63511000Y-58368670D01*
X63277310Y-57804493D01*
X63108092Y-57635275D01*
X63123765Y-57632157D01*
X63333809Y-57491809D01*
X63474157Y-57281765D01*
X63523440Y-57034000D01*
X63523440Y-55234000D01*
X67286560Y-55234000D01*
X67286560Y-57034000D01*
X67335843Y-57281765D01*
X67476191Y-57491809D01*
X67686235Y-57632157D01*
X67701908Y-57635275D01*
X67532690Y-57804493D01*
X67299000Y-58368670D01*
X67299000Y-58979330D01*
X67532690Y-59543507D01*
X67964493Y-59975310D01*
X68528670Y-60209000D01*
X69139330Y-60209000D01*
X69703507Y-59975310D01*
X70135310Y-59543507D01*
X70369000Y-58979330D01*
X70369000Y-58368670D01*
X70135310Y-57804493D01*
X69966092Y-57635275D01*
X69981765Y-57632157D01*
X70191809Y-57491809D01*
X70332157Y-57281765D01*
X70381440Y-57034000D01*
X70381440Y-56134000D01*
X80881174Y-56134000D01*
X80923001Y-56344280D01*
X80923000Y-75481725D01*
X80881174Y-75692000D01*
X80923000Y-75902275D01*
X80923000Y-75902278D01*
X81046874Y-76525035D01*
X81518751Y-77231249D01*
X81697019Y-77350364D01*
X85209638Y-80862984D01*
X85328751Y-81041249D01*
X85507016Y-81160362D01*
X86034964Y-81513126D01*
X86868000Y-81678827D01*
X87078278Y-81637000D01*
X89977385Y-81637000D01*
X90701648Y-81937000D01*
X91670352Y-81937000D01*
X92565316Y-81566293D01*
X93250293Y-80881316D01*
X93621000Y-79986352D01*
X93621000Y-79017648D01*
X93250293Y-78122684D01*
X92565316Y-77437707D01*
X91670352Y-77067000D01*
X90701648Y-77067000D01*
X89977385Y-77367000D01*
X87752346Y-77367000D01*
X85193000Y-74807655D01*
X85193000Y-66317648D01*
X88751000Y-66317648D01*
X88751000Y-67286352D01*
X89121707Y-68181316D01*
X89806684Y-68866293D01*
X90701648Y-69237000D01*
X91670352Y-69237000D01*
X92565316Y-68866293D01*
X93250293Y-68181316D01*
X93621000Y-67286352D01*
X93621000Y-66317648D01*
X93250293Y-65422684D01*
X92565316Y-64737707D01*
X91670352Y-64367000D01*
X90701648Y-64367000D01*
X89806684Y-64737707D01*
X89121707Y-65422684D01*
X88751000Y-66317648D01*
X85193000Y-66317648D01*
X85193000Y-60221648D01*
X88751000Y-60221648D01*
X88751000Y-61190352D01*
X89121707Y-62085316D01*
X89806684Y-62770293D01*
X90701648Y-63141000D01*
X91670352Y-63141000D01*
X92565316Y-62770293D01*
X93250293Y-62085316D01*
X93621000Y-61190352D01*
X93621000Y-60221648D01*
X93250293Y-59326684D01*
X92565316Y-58641707D01*
X91670352Y-58271000D01*
X90701648Y-58271000D01*
X89806684Y-58641707D01*
X89121707Y-59326684D01*
X88751000Y-60221648D01*
X85193000Y-60221648D01*
X85193000Y-57018345D01*
X91841052Y-50370293D01*
X92565316Y-50070293D01*
X93250293Y-49385316D01*
X93621000Y-48490352D01*
X93621000Y-47521648D01*
X93250293Y-46626684D01*
X92565316Y-45941707D01*
X91670352Y-45571000D01*
X90701648Y-45571000D01*
X89806684Y-45941707D01*
X89121707Y-46626684D01*
X88821707Y-47350948D01*
X81697017Y-54475638D01*
X81518752Y-54594751D01*
X81399639Y-54773016D01*
X81399638Y-54773017D01*
X81046874Y-55300965D01*
X80881174Y-56134000D01*
X70381440Y-56134000D01*
X70381440Y-55234000D01*
X70332157Y-54986235D01*
X70191809Y-54776191D01*
X69981765Y-54635843D01*
X69734000Y-54586560D01*
X67934000Y-54586560D01*
X67686235Y-54635843D01*
X67476191Y-54776191D01*
X67335843Y-54986235D01*
X67286560Y-55234000D01*
X63523440Y-55234000D01*
X63474157Y-54986235D01*
X63333809Y-54776191D01*
X63123765Y-54635843D01*
X62876000Y-54586560D01*
X61076000Y-54586560D01*
X60828235Y-54635843D01*
X60618191Y-54776191D01*
X60477843Y-54986235D01*
X60428560Y-55234000D01*
X60428560Y-57034000D01*
X60477843Y-57281765D01*
X60618191Y-57491809D01*
X60688817Y-57539000D01*
X60160133Y-57539000D01*
X59301000Y-56679869D01*
X59301000Y-54826131D01*
X62191521Y-51935610D01*
X62286289Y-51872289D01*
X62537146Y-51496855D01*
X62585283Y-51254854D01*
X62625235Y-51054001D01*
X62603000Y-50942218D01*
X62603000Y-44766996D01*
X66491000Y-44766996D01*
X66491000Y-45497004D01*
X66770362Y-46171444D01*
X67286556Y-46687638D01*
X67960996Y-46967000D01*
X68691004Y-46967000D01*
X69365444Y-46687638D01*
X69881638Y-46171444D01*
X70161000Y-45497004D01*
X70161000Y-44766996D01*
X69881638Y-44092556D01*
X69365444Y-43576362D01*
X68691004Y-43297000D01*
X67960996Y-43297000D01*
X67286556Y-43576362D01*
X66770362Y-44092556D01*
X66491000Y-44766996D01*
X62603000Y-44766996D01*
X62603000Y-36538131D01*
X64732132Y-34409000D01*
X69981717Y-34409000D01*
X70306091Y-34625740D01*
X70724667Y-34709000D01*
X71007333Y-34709000D01*
X71425909Y-34625740D01*
X71900577Y-34308577D01*
X72217740Y-33833909D01*
X72271001Y-33566151D01*
X72271001Y-34327867D01*
X68314309Y-38284560D01*
X67126000Y-38284560D01*
X66878235Y-38333843D01*
X66668191Y-38474191D01*
X66527843Y-38684235D01*
X66478560Y-38932000D01*
X66478560Y-41332000D01*
X66527843Y-41579765D01*
X66668191Y-41789809D01*
X66878235Y-41930157D01*
X67126000Y-41979440D01*
X69526000Y-41979440D01*
X69773765Y-41930157D01*
X69983809Y-41789809D01*
X70124157Y-41579765D01*
X70173440Y-41332000D01*
X70173440Y-39635691D01*
X74129521Y-35679611D01*
X74224289Y-35616289D01*
X74475146Y-35240855D01*
X74541000Y-34909783D01*
X74563235Y-34798000D01*
X74541000Y-34686217D01*
X74541000Y-32115783D01*
X74563235Y-32004000D01*
X74475146Y-31561145D01*
X74356270Y-31383235D01*
X74224289Y-31185711D01*
X74129521Y-31122389D01*
X73525613Y-30518481D01*
X73462289Y-30423711D01*
X73086855Y-30172854D01*
X72755783Y-30107000D01*
X72644000Y-30084765D01*
X72532217Y-30107000D01*
X69985913Y-30107000D01*
X70024157Y-30049765D01*
X70073440Y-29802000D01*
X70073440Y-29067691D01*
X74383522Y-24757610D01*
X74478289Y-24694289D01*
X74729146Y-24318855D01*
X74790619Y-24009809D01*
X74805000Y-23937510D01*
X74805000Y-24153483D01*
X75017376Y-24666204D01*
X75409796Y-25058624D01*
X75620740Y-25146000D01*
X75409796Y-25233376D01*
X75017376Y-25625796D01*
X74805000Y-26138517D01*
X74805000Y-26693483D01*
X75017376Y-27206204D01*
X75373049Y-27561877D01*
X75192235Y-27597843D01*
X74982191Y-27738191D01*
X74841843Y-27948235D01*
X74792560Y-28196000D01*
X74792560Y-29716000D01*
X74841843Y-29963765D01*
X74982191Y-30173809D01*
X75192235Y-30314157D01*
X75440000Y-30363440D01*
X76960000Y-30363440D01*
X77041037Y-30347321D01*
X77005733Y-30400157D01*
X76908854Y-30545146D01*
X76820765Y-30988000D01*
X76843001Y-31099788D01*
X76843000Y-40677868D01*
X66331869Y-51189000D01*
X66172396Y-51189000D01*
X66090862Y-51107466D01*
X65563439Y-50889000D01*
X64992561Y-50889000D01*
X64465138Y-51107466D01*
X64061466Y-51511138D01*
X63843000Y-52038561D01*
X63843000Y-52609439D01*
X64061466Y-53136862D01*
X64465138Y-53540534D01*
X64992561Y-53759000D01*
X65563439Y-53759000D01*
X66090862Y-53540534D01*
X66172396Y-53459000D01*
X66690217Y-53459000D01*
X66802000Y-53481235D01*
X66913783Y-53459000D01*
X67244855Y-53393146D01*
X67620289Y-53142289D01*
X67683613Y-53047518D01*
X78701522Y-42029610D01*
X78796289Y-41966289D01*
X79047146Y-41590855D01*
X79096877Y-41340840D01*
X79135235Y-41148000D01*
X79113000Y-41036217D01*
X79113000Y-36392000D01*
X81210560Y-36392000D01*
X81210560Y-38792000D01*
X81259843Y-39039765D01*
X81400191Y-39249809D01*
X81610235Y-39390157D01*
X81858000Y-39439440D01*
X84258000Y-39439440D01*
X84505765Y-39390157D01*
X84715809Y-39249809D01*
X84856157Y-39039765D01*
X84905440Y-38792000D01*
X84905440Y-37226996D01*
X86223000Y-37226996D01*
X86223000Y-37957004D01*
X86502362Y-38631444D01*
X87018556Y-39147638D01*
X87692996Y-39427000D01*
X88423004Y-39427000D01*
X89097444Y-39147638D01*
X89613638Y-38631444D01*
X89816852Y-38140840D01*
X93825520Y-38140840D01*
X93825520Y-41340840D01*
X93874803Y-41588605D01*
X94015151Y-41798649D01*
X94225195Y-41938997D01*
X94472960Y-41988280D01*
X97672960Y-41988280D01*
X97920725Y-41938997D01*
X98130769Y-41798649D01*
X98271117Y-41588605D01*
X98320400Y-41340840D01*
X98320400Y-38140840D01*
X99977400Y-38140840D01*
X99977400Y-41340840D01*
X100026683Y-41588605D01*
X100167031Y-41798649D01*
X100377075Y-41938997D01*
X100624840Y-41988280D01*
X103824840Y-41988280D01*
X104072605Y-41938997D01*
X104282649Y-41798649D01*
X104422997Y-41588605D01*
X104472280Y-41340840D01*
X104472280Y-38140840D01*
X104422997Y-37893075D01*
X104282649Y-37683031D01*
X104072605Y-37542683D01*
X103824840Y-37493400D01*
X100624840Y-37493400D01*
X100377075Y-37542683D01*
X100167031Y-37683031D01*
X100026683Y-37893075D01*
X99977400Y-38140840D01*
X98320400Y-38140840D01*
X98271117Y-37893075D01*
X98130769Y-37683031D01*
X97920725Y-37542683D01*
X97672960Y-37493400D01*
X94472960Y-37493400D01*
X94225195Y-37542683D01*
X94015151Y-37683031D01*
X93874803Y-37893075D01*
X93825520Y-38140840D01*
X89816852Y-38140840D01*
X89893000Y-37957004D01*
X89893000Y-37226996D01*
X89613638Y-36552556D01*
X89097444Y-36036362D01*
X88423004Y-35757000D01*
X87692996Y-35757000D01*
X87018556Y-36036362D01*
X86502362Y-36552556D01*
X86223000Y-37226996D01*
X84905440Y-37226996D01*
X84905440Y-36392000D01*
X84856157Y-36144235D01*
X84715809Y-35934191D01*
X84505765Y-35793843D01*
X84258000Y-35744560D01*
X81858000Y-35744560D01*
X81610235Y-35793843D01*
X81400191Y-35934191D01*
X81259843Y-36144235D01*
X81210560Y-36392000D01*
X79113000Y-36392000D01*
X79113000Y-31458131D01*
X79463521Y-31107611D01*
X79558289Y-31044289D01*
X79809146Y-30668855D01*
X79875000Y-30337783D01*
X79875000Y-30337782D01*
X79897235Y-30226000D01*
X79875000Y-30114217D01*
X79875000Y-29156131D01*
X80398389Y-29679521D01*
X80461711Y-29774289D01*
X80728969Y-29952865D01*
X80837145Y-30025146D01*
X81280000Y-30113235D01*
X81391783Y-30091000D01*
X81712172Y-30091000D01*
X81759796Y-30138624D01*
X82272517Y-30351000D01*
X82827483Y-30351000D01*
X83340204Y-30138624D01*
X83732624Y-29746204D01*
X83945000Y-29233483D01*
X83945000Y-28678517D01*
X83732624Y-28165796D01*
X83340204Y-27773376D01*
X83129260Y-27686000D01*
X83340204Y-27598624D01*
X83732624Y-27206204D01*
X83945000Y-26693483D01*
X83945000Y-26138517D01*
X83732624Y-25625796D01*
X83376951Y-25270123D01*
X83557765Y-25234157D01*
X83767809Y-25093809D01*
X83908157Y-24883765D01*
X83957440Y-24636000D01*
X83957440Y-23116000D01*
X86730560Y-23116000D01*
X86730560Y-24636000D01*
X86779843Y-24883765D01*
X86920191Y-25093809D01*
X87130235Y-25234157D01*
X87311049Y-25270123D01*
X86955376Y-25625796D01*
X86743000Y-26138517D01*
X86743000Y-26693483D01*
X86955376Y-27206204D01*
X87347796Y-27598624D01*
X87558740Y-27686000D01*
X87347796Y-27773376D01*
X86955376Y-28165796D01*
X86743000Y-28678517D01*
X86743000Y-29233483D01*
X86955376Y-29746204D01*
X87347796Y-30138624D01*
X87860517Y-30351000D01*
X88415483Y-30351000D01*
X88928204Y-30138624D01*
X89320624Y-29746204D01*
X89533000Y-29233483D01*
X89533000Y-28678517D01*
X89320624Y-28165796D01*
X88928204Y-27773376D01*
X88717260Y-27686000D01*
X88928204Y-27598624D01*
X89320624Y-27206204D01*
X89533000Y-26693483D01*
X89533000Y-26138517D01*
X89320624Y-25625796D01*
X88964951Y-25270123D01*
X89145765Y-25234157D01*
X89355809Y-25093809D01*
X89496157Y-24883765D01*
X89545440Y-24636000D01*
X89545440Y-24500840D01*
X93794174Y-24500840D01*
X93967636Y-25372894D01*
X94461615Y-26112185D01*
X95200906Y-26606164D01*
X95852832Y-26735840D01*
X96293088Y-26735840D01*
X96945014Y-26606164D01*
X97684305Y-26112185D01*
X98178284Y-25372894D01*
X98351746Y-24500840D01*
X99946054Y-24500840D01*
X100119516Y-25372894D01*
X100613495Y-26112185D01*
X101352786Y-26606164D01*
X102004712Y-26735840D01*
X102444968Y-26735840D01*
X103096894Y-26606164D01*
X103836185Y-26112185D01*
X104330164Y-25372894D01*
X104503626Y-24500840D01*
X104330164Y-23628786D01*
X103836185Y-22889495D01*
X103096894Y-22395516D01*
X102444968Y-22265840D01*
X102004712Y-22265840D01*
X101352786Y-22395516D01*
X100613495Y-22889495D01*
X100119516Y-23628786D01*
X99946054Y-24500840D01*
X98351746Y-24500840D01*
X98178284Y-23628786D01*
X97684305Y-22889495D01*
X96945014Y-22395516D01*
X96293088Y-22265840D01*
X95852832Y-22265840D01*
X95200906Y-22395516D01*
X94461615Y-22889495D01*
X93967636Y-23628786D01*
X93794174Y-24500840D01*
X89545440Y-24500840D01*
X89545440Y-23116000D01*
X89496157Y-22868235D01*
X89355809Y-22658191D01*
X89145765Y-22517843D01*
X88898000Y-22468560D01*
X87378000Y-22468560D01*
X87130235Y-22517843D01*
X86920191Y-22658191D01*
X86779843Y-22868235D01*
X86730560Y-23116000D01*
X83957440Y-23116000D01*
X83908157Y-22868235D01*
X83767809Y-22658191D01*
X83557765Y-22517843D01*
X83310000Y-22468560D01*
X81790000Y-22468560D01*
X81542235Y-22517843D01*
X81332191Y-22658191D01*
X81191843Y-22868235D01*
X81142560Y-23116000D01*
X81142560Y-24000509D01*
X81100914Y-23834219D01*
X81058684Y-23634104D01*
X81046252Y-23615958D01*
X81040908Y-23594621D01*
X80919083Y-23430345D01*
X80803479Y-23261612D01*
X80690050Y-23187714D01*
X78090807Y-20831704D01*
X78041935Y-20759045D01*
X77925069Y-20681475D01*
X77905591Y-20663820D01*
X77832098Y-20619766D01*
X77665733Y-20509341D01*
X77639230Y-20504154D01*
X77616065Y-20490268D01*
X77418552Y-20460962D01*
X77334461Y-20444503D01*
X77308171Y-20444584D01*
X77169425Y-20423997D01*
X77084484Y-20445270D01*
X74024061Y-20454658D01*
X73913999Y-20432765D01*
X73800490Y-20455344D01*
X73798736Y-20455349D01*
X73690950Y-20477133D01*
X73471146Y-20520855D01*
X73469643Y-20521859D01*
X73467868Y-20522218D01*
X73281734Y-20647416D01*
X73190477Y-20708392D01*
X73189238Y-20709631D01*
X73093205Y-20774225D01*
X73031145Y-20867724D01*
X72936480Y-20962389D01*
X72841712Y-21025711D01*
X72656085Y-21303522D01*
X72590854Y-21401146D01*
X72502765Y-21844000D01*
X72525001Y-21955788D01*
X72525001Y-22313850D01*
X72471740Y-22046091D01*
X72154577Y-21571423D01*
X71679909Y-21254260D01*
X71261333Y-21171000D01*
X70978667Y-21171000D01*
X70560091Y-21254260D01*
X70085423Y-21571423D01*
X69768260Y-22046091D01*
X69656887Y-22606000D01*
X69768260Y-23165909D01*
X70085423Y-23640577D01*
X70560091Y-23957740D01*
X70978667Y-24041000D01*
X71261333Y-24041000D01*
X71679909Y-23957740D01*
X72154577Y-23640577D01*
X72471740Y-23165909D01*
X72525000Y-22898151D01*
X72525000Y-23405868D01*
X68976309Y-26954560D01*
X67226000Y-26954560D01*
X66978235Y-27003843D01*
X66768191Y-27144191D01*
X66627843Y-27354235D01*
X66578560Y-27602000D01*
X66578560Y-29802000D01*
X66627843Y-30049765D01*
X66666087Y-30107000D01*
X59186186Y-30107000D01*
X59416865Y-29952865D01*
X59800334Y-29378963D01*
X59934990Y-28702000D01*
X59800334Y-28025037D01*
X59416865Y-27451135D01*
X58842963Y-27067666D01*
X58336880Y-26967000D01*
X57995120Y-26967000D01*
X57489037Y-27067666D01*
X56915135Y-27451135D01*
X56531666Y-28025037D01*
X56397010Y-28702000D01*
X56531666Y-29378963D01*
X56915135Y-29952865D01*
X57145814Y-30107000D01*
X51165783Y-30107000D01*
X51054000Y-30084765D01*
X50626946Y-30169711D01*
X50611145Y-30172854D01*
X50235711Y-30423711D01*
X50172389Y-30518479D01*
X48552480Y-32138389D01*
X48457712Y-32201711D01*
X48384590Y-32311146D01*
X48206854Y-32577146D01*
X48118765Y-33020000D01*
X48141001Y-33131788D01*
X48141000Y-39813990D01*
X48086385Y-39824854D01*
X47710951Y-40075711D01*
X47647629Y-40170479D01*
X46586522Y-41231587D01*
X46491751Y-41294911D01*
X46240895Y-41670345D01*
X46240894Y-41670346D01*
X46152805Y-42113200D01*
X46175040Y-42224983D01*
X46175040Y-42672498D01*
X45992577Y-42399423D01*
X45640242Y-42164000D01*
X45992577Y-41928577D01*
X46309740Y-41453909D01*
X46421113Y-40894000D01*
X46309740Y-40334091D01*
X45992577Y-39859423D01*
X45640242Y-39624000D01*
X45992577Y-39388577D01*
X46309740Y-38913909D01*
X46421113Y-38354000D01*
X46309740Y-37794091D01*
X45992577Y-37319423D01*
X45640242Y-37084000D01*
X45992577Y-36848577D01*
X46309740Y-36373909D01*
X46421113Y-35814000D01*
X46309740Y-35254091D01*
X45992577Y-34779423D01*
X45871894Y-34698785D01*
X46005765Y-34672157D01*
X46215809Y-34531809D01*
X46356157Y-34321765D01*
X46405440Y-34074000D01*
X46405440Y-32474000D01*
X46356157Y-32226235D01*
X46215809Y-32016191D01*
X46005765Y-31875843D01*
X45758000Y-31826560D01*
X44158000Y-31826560D01*
X43910235Y-31875843D01*
X43700191Y-32016191D01*
X43559843Y-32226235D01*
X43510560Y-32474000D01*
X43510560Y-34074000D01*
X43559843Y-34321765D01*
X43700191Y-34531809D01*
X43910235Y-34672157D01*
X44044106Y-34698785D01*
X43923423Y-34779423D01*
X43606260Y-35254091D01*
X43494887Y-35814000D01*
X43606260Y-36373909D01*
X43923423Y-36848577D01*
X44275758Y-37084000D01*
X43923423Y-37319423D01*
X43606260Y-37794091D01*
X43494887Y-38354000D01*
X43606260Y-38913909D01*
X43923423Y-39388577D01*
X44275758Y-39624000D01*
X43923423Y-39859423D01*
X43606260Y-40334091D01*
X43494887Y-40894000D01*
X43606260Y-41453909D01*
X43923423Y-41928577D01*
X44275758Y-42164000D01*
X43923423Y-42399423D01*
X43606260Y-42874091D01*
X43494887Y-43434000D01*
X43606260Y-43993909D01*
X43923423Y-44468577D01*
X44275758Y-44704000D01*
X43923423Y-44939423D01*
X43606260Y-45414091D01*
X43494887Y-45974000D01*
X43606260Y-46533909D01*
X43923423Y-47008577D01*
X44275758Y-47244000D01*
X43923423Y-47479423D01*
X43606260Y-47954091D01*
X43494887Y-48514000D01*
X43606260Y-49073909D01*
X43923423Y-49548577D01*
X44398091Y-49865740D01*
X44816667Y-49949000D01*
X45099333Y-49949000D01*
X45517909Y-49865740D01*
X45992577Y-49548577D01*
X46175041Y-49275501D01*
X46175041Y-49908227D01*
X45961069Y-50122200D01*
X42563012Y-50122200D01*
X38217209Y-45776398D01*
X38141100Y-45393771D01*
X37823937Y-44919103D01*
X37349269Y-44601940D01*
X36930693Y-44518680D01*
X36648027Y-44518680D01*
X36229451Y-44601940D01*
X35754783Y-44919103D01*
X35437620Y-45393771D01*
X35326247Y-45953680D01*
X35437620Y-46513589D01*
X35754783Y-46988257D01*
X36229451Y-47305420D01*
X36612078Y-47381529D01*
X41211269Y-51980721D01*
X41274591Y-52075489D01*
X41646512Y-52323999D01*
X41650025Y-52326346D01*
X42092880Y-52414435D01*
X42204663Y-52392200D01*
X46319417Y-52392200D01*
X46431200Y-52414435D01*
X46542983Y-52392200D01*
X46874055Y-52326346D01*
X47249489Y-52075489D01*
X47312813Y-51980719D01*
X48033561Y-51259971D01*
X48128329Y-51196649D01*
X48379186Y-50821215D01*
X48445040Y-50490143D01*
X48467275Y-50378361D01*
X48445040Y-50266579D01*
X48445040Y-42583331D01*
X48999372Y-42029000D01*
X49164217Y-42029000D01*
X49276000Y-42051235D01*
X49387783Y-42029000D01*
X51693717Y-42029000D01*
X51895758Y-42164000D01*
X51543423Y-42399423D01*
X51226260Y-42874091D01*
X51114887Y-43434000D01*
X51226260Y-43993909D01*
X51543423Y-44468577D01*
X51895758Y-44704000D01*
X51693717Y-44839000D01*
X50657783Y-44839000D01*
X50546000Y-44816765D01*
X50434217Y-44839000D01*
X50103145Y-44904854D01*
X49727711Y-45155711D01*
X49664389Y-45250479D01*
X49060481Y-45854387D01*
X48965711Y-45917711D01*
X48750954Y-46239119D01*
X48714854Y-46293146D01*
X48626765Y-46736000D01*
X48649000Y-46847783D01*
X48649001Y-50688212D01*
X48626765Y-50800000D01*
X48714854Y-51242854D01*
X48714855Y-51242855D01*
X48965712Y-51618289D01*
X49060479Y-51681610D01*
X50426391Y-53047524D01*
X50489711Y-53142289D01*
X50865145Y-53393146D01*
X51196217Y-53459000D01*
X51307999Y-53481235D01*
X51419781Y-53459000D01*
X51693717Y-53459000D01*
X52018091Y-53675740D01*
X52436667Y-53759000D01*
X52719333Y-53759000D01*
X53137909Y-53675740D01*
X53256104Y-53596765D01*
X52400718Y-54452151D01*
X52018091Y-54528260D01*
X51543423Y-54845423D01*
X51226260Y-55320091D01*
X51114887Y-55880000D01*
X51226260Y-56439909D01*
X51543423Y-56914577D01*
X51895758Y-57150000D01*
X51543423Y-57385423D01*
X51226260Y-57860091D01*
X51114887Y-58420000D01*
X51226260Y-58979909D01*
X51543423Y-59454577D01*
X51895758Y-59690000D01*
X51543423Y-59925423D01*
X51226260Y-60400091D01*
X51114887Y-60960000D01*
X51226260Y-61519909D01*
X51543423Y-61994577D01*
X51895758Y-62230000D01*
X51543423Y-62465423D01*
X51226260Y-62940091D01*
X51114887Y-63500000D01*
X51226260Y-64059909D01*
X51543423Y-64534577D01*
X52018091Y-64851740D01*
X52436667Y-64935000D01*
X52719333Y-64935000D01*
X53137909Y-64851740D01*
X53612577Y-64534577D01*
X53929740Y-64059909D01*
X54041113Y-63500000D01*
X53929740Y-62940091D01*
X53612577Y-62465423D01*
X53260242Y-62230000D01*
X53612577Y-61994577D01*
X53929740Y-61519909D01*
X54041113Y-60960000D01*
X53929740Y-60400091D01*
X53612577Y-59925423D01*
X53260242Y-59690000D01*
X53383405Y-59607705D01*
X53388435Y-59611066D01*
X53719507Y-59676920D01*
X53831290Y-59699155D01*
X53943073Y-59676920D01*
X56496989Y-59676920D01*
X56766499Y-59946430D01*
X56407426Y-60017854D01*
X56031992Y-60268711D01*
X55781135Y-60644145D01*
X55715281Y-60975217D01*
X55715280Y-63156868D01*
X53139109Y-65733040D01*
X50833252Y-65733040D01*
X49511840Y-64411629D01*
X49511840Y-57610621D01*
X49534075Y-57498839D01*
X49497507Y-57315000D01*
X49445986Y-57055985D01*
X49195129Y-56680551D01*
X49100364Y-56617231D01*
X47639613Y-55156481D01*
X47576289Y-55061711D01*
X47200855Y-54810854D01*
X46869783Y-54745000D01*
X46758000Y-54722765D01*
X46646217Y-54745000D01*
X46297868Y-54745000D01*
X46215809Y-54622191D01*
X46005765Y-54481843D01*
X45758000Y-54432560D01*
X44158000Y-54432560D01*
X43910235Y-54481843D01*
X43700191Y-54622191D01*
X43618132Y-54745000D01*
X38729941Y-54745000D01*
X38618159Y-54722765D01*
X38506377Y-54745000D01*
X38175305Y-54810854D01*
X37799871Y-55061711D01*
X37736549Y-55156479D01*
X34364040Y-58528989D01*
X34269272Y-58592311D01*
X34099589Y-58846260D01*
X34018414Y-58967746D01*
X33930325Y-59410600D01*
X33952561Y-59522388D01*
X33952560Y-64646778D01*
X31011240Y-67588099D01*
X30916472Y-67651421D01*
X30665614Y-68026855D01*
X30665614Y-68026856D01*
X30577525Y-68469710D01*
X30599760Y-68581493D01*
X30599760Y-68716797D01*
X30383020Y-69041171D01*
X30271647Y-69601080D01*
X29175000Y-69601080D01*
X29175000Y-65907630D01*
X29199194Y-65785999D01*
X29175000Y-65664368D01*
X29175000Y-65664364D01*
X29103344Y-65304127D01*
X28830385Y-64895615D01*
X28727269Y-64826715D01*
X27832534Y-63931981D01*
X27632534Y-63449138D01*
X27228862Y-63045466D01*
X26701439Y-62827000D01*
X26130561Y-62827000D01*
X25603138Y-63045466D01*
X25199466Y-63449138D01*
X24981000Y-63976561D01*
X23734571Y-63976561D01*
X24091521Y-63619611D01*
X24186289Y-63556289D01*
X24437146Y-63180855D01*
X24503000Y-62849783D01*
X24503000Y-62849782D01*
X24525235Y-62738000D01*
X24503000Y-62626217D01*
X24503000Y-62192131D01*
X25362133Y-61333000D01*
X30622217Y-61333000D01*
X30734000Y-61355235D01*
X30845783Y-61333000D01*
X31176855Y-61267146D01*
X31552289Y-61016289D01*
X31615613Y-60921519D01*
X32473521Y-60063611D01*
X32568289Y-60000289D01*
X32819146Y-59624855D01*
X32871787Y-59360208D01*
X32907235Y-59182000D01*
X32885000Y-59070217D01*
X32885000Y-58214279D01*
X33195938Y-57748927D01*
X33315072Y-57150000D01*
X33195938Y-56551073D01*
X32856673Y-56043327D01*
X32348927Y-55704062D01*
X31901182Y-55615000D01*
X31598818Y-55615000D01*
X31151073Y-55704062D01*
X30643327Y-56043327D01*
X30480000Y-56287763D01*
X30316673Y-56043327D01*
X29808927Y-55704062D01*
X29361182Y-55615000D01*
X29058818Y-55615000D01*
X28611073Y-55704062D01*
X28167129Y-56000696D01*
X28027809Y-55792191D01*
X27817765Y-55651843D01*
X27570000Y-55602560D01*
X25770000Y-55602560D01*
X25522235Y-55651843D01*
X25312191Y-55792191D01*
X25171843Y-56002235D01*
X25122560Y-56250000D01*
X25122560Y-58050000D01*
X25171843Y-58297765D01*
X25312191Y-58507809D01*
X25522235Y-58648157D01*
X25770000Y-58697440D01*
X27570000Y-58697440D01*
X27817765Y-58648157D01*
X28027809Y-58507809D01*
X28167129Y-58299304D01*
X28611073Y-58595938D01*
X29058818Y-58685000D01*
X29361182Y-58685000D01*
X29808927Y-58595938D01*
X30316673Y-58256673D01*
X30480000Y-58012237D01*
X30615000Y-58214279D01*
X30615000Y-58711868D01*
X30263869Y-59063000D01*
X25003781Y-59063000D01*
X24891999Y-59040765D01*
X24780217Y-59063000D01*
X24449145Y-59128854D01*
X24073711Y-59379711D01*
X24010391Y-59474476D01*
X22644479Y-60840390D01*
X22549712Y-60903711D01*
X22298854Y-61279145D01*
X22250963Y-61519909D01*
X22210765Y-61722000D01*
X22233000Y-61833783D01*
X22233000Y-62267868D01*
X21881869Y-62619000D01*
X21458283Y-62619000D01*
X21133909Y-62402260D01*
X20715333Y-62319000D01*
X20432667Y-62319000D01*
X20014091Y-62402260D01*
X19539423Y-62719423D01*
X19222260Y-63194091D01*
X19110887Y-63754000D01*
X13589000Y-63754000D01*
X13589000Y-60198000D01*
X19110887Y-60198000D01*
X19222260Y-60757909D01*
X19539423Y-61232577D01*
X20014091Y-61549740D01*
X20432667Y-61633000D01*
X20715333Y-61633000D01*
X21133909Y-61549740D01*
X21608577Y-61232577D01*
X21925740Y-60757909D01*
X22037113Y-60198000D01*
X21925740Y-59638091D01*
X21608577Y-59163423D01*
X21133909Y-58846260D01*
X20715333Y-58763000D01*
X20432667Y-58763000D01*
X20014091Y-58846260D01*
X19539423Y-59163423D01*
X19222260Y-59638091D01*
X19110887Y-60198000D01*
X13589000Y-60198000D01*
X13589000Y-47212561D01*
X19139000Y-47212561D01*
X19139000Y-47783439D01*
X19357466Y-48310862D01*
X19761138Y-48714534D01*
X20288561Y-48933000D01*
X20859439Y-48933000D01*
X21386862Y-48714534D01*
X21790534Y-48310862D01*
X22009000Y-47783439D01*
X22009000Y-47212561D01*
X21790534Y-46685138D01*
X21386862Y-46281466D01*
X20859439Y-46063000D01*
X20288561Y-46063000D01*
X19761138Y-46281466D01*
X19357466Y-46685138D01*
X19139000Y-47212561D01*
X13589000Y-47212561D01*
X13589000Y-43811105D01*
X13813000Y-43811105D01*
X13813000Y-44580895D01*
X14107586Y-45292090D01*
X14651910Y-45836414D01*
X15363105Y-46131000D01*
X16132895Y-46131000D01*
X16844090Y-45836414D01*
X17012263Y-45668241D01*
X22654360Y-45668241D01*
X22654360Y-46239119D01*
X22872826Y-46766542D01*
X23276498Y-47170214D01*
X23803921Y-47388680D01*
X24374799Y-47388680D01*
X24902222Y-47170214D01*
X25305894Y-46766542D01*
X25524360Y-46239119D01*
X25524360Y-45668241D01*
X25305894Y-45140818D01*
X24902222Y-44737146D01*
X24374799Y-44518680D01*
X23803921Y-44518680D01*
X23276498Y-44737146D01*
X22872826Y-45140818D01*
X22654360Y-45668241D01*
X17012263Y-45668241D01*
X17388414Y-45292090D01*
X17683000Y-44580895D01*
X17683000Y-44196000D01*
X19110887Y-44196000D01*
X19222260Y-44755909D01*
X19539423Y-45230577D01*
X20014091Y-45547740D01*
X20432667Y-45631000D01*
X20715333Y-45631000D01*
X21133909Y-45547740D01*
X21608577Y-45230577D01*
X21925740Y-44755909D01*
X22037113Y-44196000D01*
X21925740Y-43636091D01*
X21608577Y-43161423D01*
X21133909Y-42844260D01*
X20715333Y-42761000D01*
X20432667Y-42761000D01*
X20014091Y-42844260D01*
X19539423Y-43161423D01*
X19222260Y-43636091D01*
X19110887Y-44196000D01*
X17683000Y-44196000D01*
X17683000Y-43811105D01*
X17388414Y-43099910D01*
X16844090Y-42555586D01*
X16132895Y-42261000D01*
X15363105Y-42261000D01*
X14651910Y-42555586D01*
X14107586Y-43099910D01*
X13813000Y-43811105D01*
X13589000Y-43811105D01*
X13589000Y-40825240D01*
X22768640Y-40825240D01*
X22768640Y-43025240D01*
X22817923Y-43273005D01*
X22958271Y-43483049D01*
X23168315Y-43623397D01*
X23416080Y-43672680D01*
X25616080Y-43672680D01*
X25863845Y-43623397D01*
X26073889Y-43483049D01*
X26214237Y-43273005D01*
X26263520Y-43025240D01*
X26263520Y-40825240D01*
X26214237Y-40577475D01*
X26073889Y-40367431D01*
X25863845Y-40227083D01*
X25616080Y-40177800D01*
X23416080Y-40177800D01*
X23168315Y-40227083D01*
X22958271Y-40367431D01*
X22817923Y-40577475D01*
X22768640Y-40825240D01*
X13589000Y-40825240D01*
X13589000Y-37186356D01*
X30726520Y-37186356D01*
X30726520Y-37916364D01*
X31005882Y-38590804D01*
X31522076Y-39106998D01*
X32196516Y-39386360D01*
X32926524Y-39386360D01*
X33600964Y-39106998D01*
X34117158Y-38590804D01*
X34396520Y-37916364D01*
X34396520Y-37186356D01*
X34117158Y-36511916D01*
X33956602Y-36351360D01*
X35714080Y-36351360D01*
X35714080Y-38751360D01*
X35763363Y-38999125D01*
X35903711Y-39209169D01*
X36113755Y-39349517D01*
X36361520Y-39398800D01*
X38761520Y-39398800D01*
X39009285Y-39349517D01*
X39219329Y-39209169D01*
X39359677Y-38999125D01*
X39408960Y-38751360D01*
X39408960Y-36351360D01*
X39359677Y-36103595D01*
X39219329Y-35893551D01*
X39009285Y-35753203D01*
X38761520Y-35703920D01*
X36361520Y-35703920D01*
X36113755Y-35753203D01*
X35903711Y-35893551D01*
X35763363Y-36103595D01*
X35714080Y-36351360D01*
X33956602Y-36351360D01*
X33600964Y-35995722D01*
X32926524Y-35716360D01*
X32196516Y-35716360D01*
X31522076Y-35995722D01*
X31005882Y-36511916D01*
X30726520Y-37186356D01*
X13589000Y-37186356D01*
X13589000Y-29587105D01*
X13813000Y-29587105D01*
X13813000Y-30356895D01*
X14107586Y-31068090D01*
X14651910Y-31612414D01*
X15363105Y-31907000D01*
X16132895Y-31907000D01*
X16844090Y-31612414D01*
X17245943Y-31210561D01*
X19139000Y-31210561D01*
X19139000Y-31781439D01*
X19357466Y-32308862D01*
X19761138Y-32712534D01*
X20288561Y-32931000D01*
X20859439Y-32931000D01*
X21386862Y-32712534D01*
X21790534Y-32308862D01*
X22009000Y-31781439D01*
X22009000Y-31765240D01*
X22747090Y-31765240D01*
X22881746Y-32442203D01*
X23265215Y-33016105D01*
X23839117Y-33399574D01*
X24345200Y-33500240D01*
X24686960Y-33500240D01*
X25193043Y-33399574D01*
X25766945Y-33016105D01*
X26150414Y-32442203D01*
X26285070Y-31765240D01*
X26150414Y-31088277D01*
X25766945Y-30514375D01*
X25193043Y-30130906D01*
X24686960Y-30030240D01*
X24345200Y-30030240D01*
X23839117Y-30130906D01*
X23265215Y-30514375D01*
X22881746Y-31088277D01*
X22747090Y-31765240D01*
X22009000Y-31765240D01*
X22009000Y-31210561D01*
X21790534Y-30683138D01*
X21386862Y-30279466D01*
X20859439Y-30061000D01*
X20288561Y-30061000D01*
X19761138Y-30279466D01*
X19357466Y-30683138D01*
X19139000Y-31210561D01*
X17245943Y-31210561D01*
X17388414Y-31068090D01*
X17683000Y-30356895D01*
X17683000Y-29587105D01*
X17388414Y-28875910D01*
X16844090Y-28331586D01*
X16132895Y-28037000D01*
X15363105Y-28037000D01*
X14651910Y-28331586D01*
X14107586Y-28875910D01*
X13813000Y-29587105D01*
X13589000Y-29587105D01*
X13589000Y-26162000D01*
X21343214Y-26162000D01*
X21516676Y-27034054D01*
X22010655Y-27773345D01*
X22749946Y-28267324D01*
X23401872Y-28397000D01*
X23842128Y-28397000D01*
X24494054Y-28267324D01*
X25233345Y-27773345D01*
X25727324Y-27034054D01*
X25900786Y-26162000D01*
X25727324Y-25289946D01*
X25240926Y-24562000D01*
X36614560Y-24562000D01*
X36614560Y-27762000D01*
X36663843Y-28009765D01*
X36804191Y-28219809D01*
X37014235Y-28360157D01*
X37262000Y-28409440D01*
X40462000Y-28409440D01*
X40709765Y-28360157D01*
X40919809Y-28219809D01*
X41060157Y-28009765D01*
X41109440Y-27762000D01*
X41109440Y-24562000D01*
X41060157Y-24314235D01*
X40919809Y-24104191D01*
X40709765Y-23963843D01*
X40462000Y-23914560D01*
X37262000Y-23914560D01*
X37014235Y-23963843D01*
X36804191Y-24104191D01*
X36663843Y-24314235D01*
X36614560Y-24562000D01*
X25240926Y-24562000D01*
X25233345Y-24550655D01*
X24494054Y-24056676D01*
X23842128Y-23927000D01*
X23401872Y-23927000D01*
X22749946Y-24056676D01*
X22010655Y-24550655D01*
X21516676Y-25289946D01*
X21343214Y-26162000D01*
X13589000Y-26162000D01*
X13589000Y-21152000D01*
X45904560Y-21152000D01*
X45904560Y-23552000D01*
X45953843Y-23799765D01*
X46094191Y-24009809D01*
X46304235Y-24150157D01*
X46552000Y-24199440D01*
X48952000Y-24199440D01*
X49199765Y-24150157D01*
X49409809Y-24009809D01*
X49550157Y-23799765D01*
X49599440Y-23552000D01*
X49599440Y-21986996D01*
X50917000Y-21986996D01*
X50917000Y-22717004D01*
X51196362Y-23391444D01*
X51712556Y-23907638D01*
X52386996Y-24187000D01*
X53117004Y-24187000D01*
X53791444Y-23907638D01*
X54307638Y-23391444D01*
X54587000Y-22717004D01*
X54587000Y-22320561D01*
X56985000Y-22320561D01*
X56985000Y-22891439D01*
X57203466Y-23418862D01*
X57607138Y-23822534D01*
X58134561Y-24041000D01*
X58705439Y-24041000D01*
X59232862Y-23822534D01*
X59636534Y-23418862D01*
X59855000Y-22891439D01*
X59855000Y-22320561D01*
X59636534Y-21793138D01*
X59232862Y-21389466D01*
X58705439Y-21171000D01*
X58134561Y-21171000D01*
X57607138Y-21389466D01*
X57203466Y-21793138D01*
X56985000Y-22320561D01*
X54587000Y-22320561D01*
X54587000Y-21986996D01*
X54307638Y-21312556D01*
X53791444Y-20796362D01*
X53117004Y-20517000D01*
X52386996Y-20517000D01*
X51712556Y-20796362D01*
X51196362Y-21312556D01*
X50917000Y-21986996D01*
X49599440Y-21986996D01*
X49599440Y-21152000D01*
X49550157Y-20904235D01*
X49409809Y-20694191D01*
X49199765Y-20553843D01*
X48952000Y-20504560D01*
X46552000Y-20504560D01*
X46304235Y-20553843D01*
X46094191Y-20694191D01*
X45953843Y-20904235D01*
X45904560Y-21152000D01*
X13589000Y-21152000D01*
X13589000Y-17397002D01*
X13851436Y-18030579D01*
X13851878Y-18030873D01*
X13852276Y-18031835D01*
X14734165Y-18913724D01*
X14735127Y-18914122D01*
X14735421Y-18914564D01*
X15311550Y-19152885D01*
X15886410Y-19391000D01*
X15887181Y-19391000D01*
X15887892Y-19391294D01*
X16510423Y-19391000D01*
X17133590Y-19391000D01*
X17134301Y-19390705D01*
X17135072Y-19390705D01*
X18284579Y-18914564D01*
X18284873Y-18914122D01*
X18285835Y-18913724D01*
X18657559Y-18542000D01*
X21343214Y-18542000D01*
X21516676Y-19414054D01*
X22010655Y-20153345D01*
X22749946Y-20647324D01*
X23401872Y-20777000D01*
X23842128Y-20777000D01*
X24494054Y-20647324D01*
X25233345Y-20153345D01*
X25727324Y-19414054D01*
X25900786Y-18542000D01*
X25727324Y-17669946D01*
X25240926Y-16942000D01*
X36614560Y-16942000D01*
X36614560Y-20142000D01*
X36663843Y-20389765D01*
X36804191Y-20599809D01*
X37014235Y-20740157D01*
X37262000Y-20789440D01*
X40462000Y-20789440D01*
X40709765Y-20740157D01*
X40919809Y-20599809D01*
X41060157Y-20389765D01*
X41109440Y-20142000D01*
X41109440Y-18288000D01*
X56956887Y-18288000D01*
X57068260Y-18847909D01*
X57385423Y-19322577D01*
X57860091Y-19639740D01*
X58278667Y-19723000D01*
X58561333Y-19723000D01*
X58979909Y-19639740D01*
X59454577Y-19322577D01*
X59771740Y-18847909D01*
X59883113Y-18288000D01*
X59826336Y-18002561D01*
X69685000Y-18002561D01*
X69685000Y-18573439D01*
X69903466Y-19100862D01*
X70307138Y-19504534D01*
X70834561Y-19723000D01*
X71405439Y-19723000D01*
X71932862Y-19504534D01*
X72336534Y-19100862D01*
X72555000Y-18573439D01*
X72555000Y-18002561D01*
X72410137Y-17652831D01*
X82340450Y-17652831D01*
X82340451Y-19746130D01*
X82426591Y-20179184D01*
X82754723Y-20670268D01*
X83245807Y-20998400D01*
X83825080Y-21113625D01*
X84404354Y-20998400D01*
X84895438Y-20670268D01*
X85095081Y-20371482D01*
X85294723Y-20670268D01*
X85785807Y-20998400D01*
X86365080Y-21113625D01*
X86944354Y-20998400D01*
X87435438Y-20670268D01*
X87635081Y-20371482D01*
X87834723Y-20670268D01*
X88325807Y-20998400D01*
X88905080Y-21113625D01*
X89484354Y-20998400D01*
X89975438Y-20670268D01*
X90303570Y-20179184D01*
X90389710Y-19746130D01*
X90389710Y-17652830D01*
X90303570Y-17219776D01*
X89975438Y-16728692D01*
X89484353Y-16400560D01*
X88905080Y-16285335D01*
X88325806Y-16400560D01*
X87834722Y-16728692D01*
X87635080Y-17027478D01*
X87435438Y-16728692D01*
X86944353Y-16400560D01*
X86365080Y-16285335D01*
X85785806Y-16400560D01*
X85294722Y-16728692D01*
X85095080Y-17027478D01*
X84895438Y-16728692D01*
X84404353Y-16400560D01*
X83825080Y-16285335D01*
X83245806Y-16400560D01*
X82754722Y-16728692D01*
X82426590Y-17219777D01*
X82340450Y-17652831D01*
X72410137Y-17652831D01*
X72336534Y-17475138D01*
X71932862Y-17071466D01*
X71405439Y-16853000D01*
X70834561Y-16853000D01*
X70307138Y-17071466D01*
X69903466Y-17475138D01*
X69685000Y-18002561D01*
X59826336Y-18002561D01*
X59771740Y-17728091D01*
X59454577Y-17253423D01*
X58979909Y-16936260D01*
X58561333Y-16853000D01*
X58278667Y-16853000D01*
X57860091Y-16936260D01*
X57385423Y-17253423D01*
X57068260Y-17728091D01*
X56956887Y-18288000D01*
X41109440Y-18288000D01*
X41109440Y-16942000D01*
X41060157Y-16694235D01*
X40919809Y-16484191D01*
X40709765Y-16343843D01*
X40462000Y-16294560D01*
X37262000Y-16294560D01*
X37014235Y-16343843D01*
X36804191Y-16484191D01*
X36663843Y-16694235D01*
X36614560Y-16942000D01*
X25240926Y-16942000D01*
X25233345Y-16930655D01*
X24494054Y-16436676D01*
X23842128Y-16307000D01*
X23401872Y-16307000D01*
X22749946Y-16436676D01*
X22010655Y-16930655D01*
X21516676Y-17669946D01*
X21343214Y-18542000D01*
X18657559Y-18542000D01*
X19167724Y-18031835D01*
X19168122Y-18030873D01*
X19168564Y-18030579D01*
X19406885Y-17454450D01*
X19645000Y-16879590D01*
X19645000Y-16878819D01*
X19645294Y-16878108D01*
X19645000Y-16255577D01*
X19645000Y-15632410D01*
X19644705Y-15631699D01*
X19644705Y-15630928D01*
X19168564Y-14481421D01*
X19168122Y-14481127D01*
X19167724Y-14480165D01*
X18285835Y-13598276D01*
X18284873Y-13597878D01*
X18284579Y-13597436D01*
X17708450Y-13359115D01*
X17133590Y-13121000D01*
X17132819Y-13121000D01*
X17132108Y-13120706D01*
X16509577Y-13121000D01*
X15886410Y-13121000D01*
X15885699Y-13121295D01*
X15884928Y-13121295D01*
X14735421Y-13597436D01*
X14735127Y-13597878D01*
X14734165Y-13598276D01*
X13852276Y-14480165D01*
X13851878Y-14481127D01*
X13851436Y-14481421D01*
X13613115Y-15057550D01*
X13589000Y-15115769D01*
X13589000Y-12877000D01*
X107315524Y-12877000D01*
X107322628Y-15278119D01*
G36*
X60333000Y-50583868D02*
X57442480Y-53474389D01*
X57347712Y-53537711D01*
X57162085Y-53815522D01*
X57096854Y-53913146D01*
X57008765Y-54356000D01*
X57031001Y-54467788D01*
X57031000Y-57038217D01*
X57008765Y-57150000D01*
X57059085Y-57402978D01*
X56967120Y-57384685D01*
X56855337Y-57406920D01*
X54236134Y-57406920D01*
X54152225Y-57350854D01*
X53821153Y-57285000D01*
X53709370Y-57262765D01*
X53597587Y-57285000D01*
X53462283Y-57285000D01*
X53260242Y-57150000D01*
X53612577Y-56914577D01*
X53929740Y-56439909D01*
X54005849Y-56057282D01*
X56349521Y-53713610D01*
X56444289Y-53650289D01*
X56695146Y-53274855D01*
X56761000Y-52943783D01*
X56761000Y-52943782D01*
X56783235Y-52832000D01*
X56761000Y-52720217D01*
X56761000Y-47242491D01*
X56779914Y-47288153D01*
X57239847Y-47748086D01*
X57840778Y-47997000D01*
X58491222Y-47997000D01*
X59092153Y-47748086D01*
X59552086Y-47288153D01*
X59801000Y-46687222D01*
X59801000Y-46036778D01*
X59552086Y-45435847D01*
X59092153Y-44975914D01*
X58491222Y-44727000D01*
X57840778Y-44727000D01*
X57239847Y-44975914D01*
X56779914Y-45435847D01*
X56761000Y-45481509D01*
X56761000Y-41872131D01*
X58136132Y-40497000D01*
X58491222Y-40497000D01*
X59092153Y-40248086D01*
X59552086Y-39788153D01*
X59801000Y-39187222D01*
X59801000Y-38536778D01*
X59552086Y-37935847D01*
X59092153Y-37475914D01*
X58491222Y-37227000D01*
X57840778Y-37227000D01*
X57423140Y-37399991D01*
X57620132Y-37203000D01*
X60333001Y-37203000D01*
X60333000Y-50583868D01*
X60333000Y-50583868D01*
G37*
X60333000Y-50583868D02*
X57442480Y-53474389D01*
X57347712Y-53537711D01*
X57162085Y-53815522D01*
X57096854Y-53913146D01*
X57008765Y-54356000D01*
X57031001Y-54467788D01*
X57031000Y-57038217D01*
X57008765Y-57150000D01*
X57059085Y-57402978D01*
X56967120Y-57384685D01*
X56855337Y-57406920D01*
X54236134Y-57406920D01*
X54152225Y-57350854D01*
X53821153Y-57285000D01*
X53709370Y-57262765D01*
X53597587Y-57285000D01*
X53462283Y-57285000D01*
X53260242Y-57150000D01*
X53612577Y-56914577D01*
X53929740Y-56439909D01*
X54005849Y-56057282D01*
X56349521Y-53713610D01*
X56444289Y-53650289D01*
X56695146Y-53274855D01*
X56761000Y-52943783D01*
X56761000Y-52943782D01*
X56783235Y-52832000D01*
X56761000Y-52720217D01*
X56761000Y-47242491D01*
X56779914Y-47288153D01*
X57239847Y-47748086D01*
X57840778Y-47997000D01*
X58491222Y-47997000D01*
X59092153Y-47748086D01*
X59552086Y-47288153D01*
X59801000Y-46687222D01*
X59801000Y-46036778D01*
X59552086Y-45435847D01*
X59092153Y-44975914D01*
X58491222Y-44727000D01*
X57840778Y-44727000D01*
X57239847Y-44975914D01*
X56779914Y-45435847D01*
X56761000Y-45481509D01*
X56761000Y-41872131D01*
X58136132Y-40497000D01*
X58491222Y-40497000D01*
X59092153Y-40248086D01*
X59552086Y-39788153D01*
X59801000Y-39187222D01*
X59801000Y-38536778D01*
X59552086Y-37935847D01*
X59092153Y-37475914D01*
X58491222Y-37227000D01*
X57840778Y-37227000D01*
X57423140Y-37399991D01*
X57620132Y-37203000D01*
X60333001Y-37203000D01*
X60333000Y-50583868D01*
G36*
X56531000Y-38536778D02*
X56531000Y-38891868D01*
X54902480Y-40520389D01*
X54807712Y-40583711D01*
X54622085Y-40861522D01*
X54556854Y-40959146D01*
X54468765Y-41402000D01*
X54491001Y-41513788D01*
X54491000Y-52361868D01*
X53850765Y-53002103D01*
X53929740Y-52883909D01*
X54041113Y-52324000D01*
X53929740Y-51764091D01*
X53612577Y-51289423D01*
X53137909Y-50972260D01*
X52719333Y-50889000D01*
X52436667Y-50889000D01*
X52018091Y-50972260D01*
X51744320Y-51155188D01*
X50919000Y-50329869D01*
X50919000Y-47206131D01*
X51016132Y-47109000D01*
X51693717Y-47109000D01*
X51895758Y-47244000D01*
X51543423Y-47479423D01*
X51226260Y-47954091D01*
X51114887Y-48514000D01*
X51226260Y-49073909D01*
X51543423Y-49548577D01*
X52018091Y-49865740D01*
X52436667Y-49949000D01*
X52719333Y-49949000D01*
X53137909Y-49865740D01*
X53612577Y-49548577D01*
X53929740Y-49073909D01*
X54041113Y-48514000D01*
X53929740Y-47954091D01*
X53612577Y-47479423D01*
X53260242Y-47244000D01*
X53612577Y-47008577D01*
X53929740Y-46533909D01*
X54041113Y-45974000D01*
X53929740Y-45414091D01*
X53612577Y-44939423D01*
X53260242Y-44704000D01*
X53612577Y-44468577D01*
X53929740Y-43993909D01*
X54041113Y-43434000D01*
X53929740Y-42874091D01*
X53612577Y-42399423D01*
X53260242Y-42164000D01*
X53612577Y-41928577D01*
X53929740Y-41453909D01*
X54041113Y-40894000D01*
X53929740Y-40334091D01*
X53612577Y-39859423D01*
X53260242Y-39624000D01*
X53462283Y-39489000D01*
X54752217Y-39489000D01*
X54864000Y-39511235D01*
X54975783Y-39489000D01*
X55306855Y-39423146D01*
X55682289Y-39172289D01*
X55745613Y-39077518D01*
X56703992Y-38119140D01*
X56531000Y-38536778D01*
X56531000Y-38536778D01*
G37*
X56531000Y-38536778D02*
X56531000Y-38891868D01*
X54902480Y-40520389D01*
X54807712Y-40583711D01*
X54622085Y-40861522D01*
X54556854Y-40959146D01*
X54468765Y-41402000D01*
X54491001Y-41513788D01*
X54491000Y-52361868D01*
X53850765Y-53002103D01*
X53929740Y-52883909D01*
X54041113Y-52324000D01*
X53929740Y-51764091D01*
X53612577Y-51289423D01*
X53137909Y-50972260D01*
X52719333Y-50889000D01*
X52436667Y-50889000D01*
X52018091Y-50972260D01*
X51744320Y-51155188D01*
X50919000Y-50329869D01*
X50919000Y-47206131D01*
X51016132Y-47109000D01*
X51693717Y-47109000D01*
X51895758Y-47244000D01*
X51543423Y-47479423D01*
X51226260Y-47954091D01*
X51114887Y-48514000D01*
X51226260Y-49073909D01*
X51543423Y-49548577D01*
X52018091Y-49865740D01*
X52436667Y-49949000D01*
X52719333Y-49949000D01*
X53137909Y-49865740D01*
X53612577Y-49548577D01*
X53929740Y-49073909D01*
X54041113Y-48514000D01*
X53929740Y-47954091D01*
X53612577Y-47479423D01*
X53260242Y-47244000D01*
X53612577Y-47008577D01*
X53929740Y-46533909D01*
X54041113Y-45974000D01*
X53929740Y-45414091D01*
X53612577Y-44939423D01*
X53260242Y-44704000D01*
X53612577Y-44468577D01*
X53929740Y-43993909D01*
X54041113Y-43434000D01*
X53929740Y-42874091D01*
X53612577Y-42399423D01*
X53260242Y-42164000D01*
X53612577Y-41928577D01*
X53929740Y-41453909D01*
X54041113Y-40894000D01*
X53929740Y-40334091D01*
X53612577Y-39859423D01*
X53260242Y-39624000D01*
X53462283Y-39489000D01*
X54752217Y-39489000D01*
X54864000Y-39511235D01*
X54975783Y-39489000D01*
X55306855Y-39423146D01*
X55682289Y-39172289D01*
X55745613Y-39077518D01*
X56703992Y-38119140D01*
X56531000Y-38536778D01*
G36*
X46175041Y-47752499D02*
X45992577Y-47479423D01*
X45640242Y-47244000D01*
X45992577Y-47008577D01*
X46175041Y-46735501D01*
X46175041Y-47752499D01*
X46175041Y-47752499D01*
G37*
X46175041Y-47752499D02*
X45992577Y-47479423D01*
X45640242Y-47244000D01*
X45992577Y-47008577D01*
X46175041Y-46735501D01*
X46175041Y-47752499D01*
G36*
X46175040Y-45212499D02*
X45992577Y-44939423D01*
X45640242Y-44704000D01*
X45992577Y-44468577D01*
X46175040Y-44195501D01*
X46175040Y-45212499D01*
X46175040Y-45212499D01*
G37*
X46175040Y-45212499D02*
X45992577Y-44939423D01*
X45640242Y-44704000D01*
X45992577Y-44468577D01*
X46175040Y-44195501D01*
X46175040Y-45212499D01*
G36*
X51226260Y-32714091D02*
X51114887Y-33274000D01*
X51226260Y-33833909D01*
X51543423Y-34308577D01*
X51895758Y-34544000D01*
X51543423Y-34779423D01*
X51226260Y-35254091D01*
X51114887Y-35814000D01*
X51226260Y-36373909D01*
X51543423Y-36848577D01*
X51895758Y-37084000D01*
X51543423Y-37319423D01*
X51226260Y-37794091D01*
X51114887Y-38354000D01*
X51226260Y-38913909D01*
X51543423Y-39388577D01*
X51895758Y-39624000D01*
X51693717Y-39759000D01*
X50411000Y-39759000D01*
X50411000Y-33490131D01*
X51305235Y-32595897D01*
X51226260Y-32714091D01*
X51226260Y-32714091D01*
G37*
X51226260Y-32714091D02*
X51114887Y-33274000D01*
X51226260Y-33833909D01*
X51543423Y-34308577D01*
X51895758Y-34544000D01*
X51543423Y-34779423D01*
X51226260Y-35254091D01*
X51114887Y-35814000D01*
X51226260Y-36373909D01*
X51543423Y-36848577D01*
X51895758Y-37084000D01*
X51543423Y-37319423D01*
X51226260Y-37794091D01*
X51114887Y-38354000D01*
X51226260Y-38913909D01*
X51543423Y-39388577D01*
X51895758Y-39624000D01*
X51693717Y-39759000D01*
X50411000Y-39759000D01*
X50411000Y-33490131D01*
X51305235Y-32595897D01*
X51226260Y-32714091D01*
G36*
X56949466Y-32461138D02*
X56731000Y-32988561D01*
X56731000Y-33559439D01*
X56949466Y-34086862D01*
X57353138Y-34490534D01*
X57880561Y-34709000D01*
X58451439Y-34709000D01*
X58978862Y-34490534D01*
X59382534Y-34086862D01*
X59601000Y-33559439D01*
X59601000Y-32988561D01*
X59382534Y-32461138D01*
X59298396Y-32377000D01*
X63561510Y-32377000D01*
X63443711Y-32455711D01*
X63380389Y-32550479D01*
X60997869Y-34933000D01*
X57261782Y-34933000D01*
X57149999Y-34910765D01*
X56707145Y-34998854D01*
X56331711Y-35249711D01*
X56268389Y-35344479D01*
X54393869Y-37219000D01*
X53462283Y-37219000D01*
X53260242Y-37084000D01*
X53612577Y-36848577D01*
X53929740Y-36373909D01*
X54041113Y-35814000D01*
X53929740Y-35254091D01*
X53612577Y-34779423D01*
X53260242Y-34544000D01*
X53612577Y-34308577D01*
X53929740Y-33833909D01*
X54041113Y-33274000D01*
X53929740Y-32714091D01*
X53704503Y-32377000D01*
X57033604Y-32377000D01*
X56949466Y-32461138D01*
X56949466Y-32461138D01*
G37*
X56949466Y-32461138D02*
X56731000Y-32988561D01*
X56731000Y-33559439D01*
X56949466Y-34086862D01*
X57353138Y-34490534D01*
X57880561Y-34709000D01*
X58451439Y-34709000D01*
X58978862Y-34490534D01*
X59382534Y-34086862D01*
X59601000Y-33559439D01*
X59601000Y-32988561D01*
X59382534Y-32461138D01*
X59298396Y-32377000D01*
X63561510Y-32377000D01*
X63443711Y-32455711D01*
X63380389Y-32550479D01*
X60997869Y-34933000D01*
X57261782Y-34933000D01*
X57149999Y-34910765D01*
X56707145Y-34998854D01*
X56331711Y-35249711D01*
X56268389Y-35344479D01*
X54393869Y-37219000D01*
X53462283Y-37219000D01*
X53260242Y-37084000D01*
X53612577Y-36848577D01*
X53929740Y-36373909D01*
X54041113Y-35814000D01*
X53929740Y-35254091D01*
X53612577Y-34779423D01*
X53260242Y-34544000D01*
X53612577Y-34308577D01*
X53929740Y-33833909D01*
X54041113Y-33274000D01*
X53929740Y-32714091D01*
X53704503Y-32377000D01*
X57033604Y-32377000D01*
X56949466Y-32461138D01*
G36*
X72271000Y-32474132D02*
X72271000Y-32981848D01*
X72217740Y-32714091D01*
X71992503Y-32377000D01*
X72173869Y-32377000D01*
X72271000Y-32474132D01*
X72271000Y-32474132D01*
G37*
X72271000Y-32474132D02*
X72271000Y-32981848D01*
X72217740Y-32714091D01*
X71992503Y-32377000D01*
X72173869Y-32377000D01*
X72271000Y-32474132D01*
G36*
X77605000Y-29755868D02*
X77598147Y-29762722D01*
X77605000Y-29728266D01*
X77605000Y-29755868D01*
X77605000Y-29755868D01*
G37*
X77605000Y-29755868D02*
X77598147Y-29762722D01*
X77605000Y-29728266D01*
X77605000Y-29755868D01*
G36*
X77605001Y-28183736D02*
X77558157Y-27948235D01*
X77417809Y-27738191D01*
X77207765Y-27597843D01*
X77026951Y-27561877D01*
X77037828Y-27551000D01*
X77605001Y-27551000D01*
X77605001Y-28183736D01*
X77605001Y-28183736D01*
G37*
X77605001Y-28183736D02*
X77558157Y-27948235D01*
X77417809Y-27738191D01*
X77207765Y-27597843D01*
X77026951Y-27561877D01*
X77037828Y-27551000D01*
X77605001Y-27551000D01*
X77605001Y-28183736D01*
G36*
X81759796Y-27598624D02*
X81970740Y-27686000D01*
X81759796Y-27773376D01*
X81731152Y-27802020D01*
X81653000Y-27723869D01*
X81653000Y-27491828D01*
X81759796Y-27598624D01*
X81759796Y-27598624D01*
G37*
X81759796Y-27598624D02*
X81970740Y-27686000D01*
X81759796Y-27773376D01*
X81731152Y-27802020D01*
X81653000Y-27723869D01*
X81653000Y-27491828D01*
X81759796Y-27598624D01*
G36*
X78865595Y-24597732D02*
X78873700Y-25294752D01*
X78852765Y-25400000D01*
X78867843Y-25475805D01*
X78674855Y-25346854D01*
X78343783Y-25281000D01*
X78232000Y-25258765D01*
X78120217Y-25281000D01*
X77037828Y-25281000D01*
X76990204Y-25233376D01*
X76779260Y-25146000D01*
X76990204Y-25058624D01*
X77382624Y-24666204D01*
X77595000Y-24153483D01*
X77595000Y-23598517D01*
X77493871Y-23354370D01*
X78865595Y-24597732D01*
X78865595Y-24597732D01*
G37*
X78865595Y-24597732D02*
X78873700Y-25294752D01*
X78852765Y-25400000D01*
X78867843Y-25475805D01*
X78674855Y-25346854D01*
X78343783Y-25281000D01*
X78232000Y-25258765D01*
X78120217Y-25281000D01*
X77037828Y-25281000D01*
X76990204Y-25233376D01*
X76779260Y-25146000D01*
X76990204Y-25058624D01*
X77382624Y-24666204D01*
X77595000Y-24153483D01*
X77595000Y-23598517D01*
X77493871Y-23354370D01*
X78865595Y-24597732D01*
G36*
X81542235Y-25234157D02*
X81723049Y-25270123D01*
X81563466Y-25429706D01*
X81344541Y-25102061D01*
X81542235Y-25234157D01*
X81542235Y-25234157D01*
G37*
X81542235Y-25234157D02*
X81723049Y-25270123D01*
X81563466Y-25429706D01*
X81344541Y-25102061D01*
X81542235Y-25234157D01*
G36*
X81142560Y-24636000D02*
X81191843Y-24883765D01*
X81323939Y-25081459D01*
X81241521Y-25026389D01*
X81139546Y-24924414D01*
X81130734Y-24166537D01*
X81142560Y-24086831D01*
X81142560Y-24636000D01*
X81142560Y-24636000D01*
G37*
X81142560Y-24636000D02*
X81191843Y-24883765D01*
X81323939Y-25081459D01*
X81241521Y-25026389D01*
X81139546Y-24924414D01*
X81130734Y-24166537D01*
X81142560Y-24086831D01*
X81142560Y-24636000D01*
G36*
X75017376Y-23085796D02*
X74805000Y-23598517D01*
X74805000Y-23814490D01*
X74795000Y-23764217D01*
X74795000Y-22722302D01*
X75382672Y-22720500D01*
X75017376Y-23085796D01*
X75017376Y-23085796D01*
G37*
X75017376Y-23085796D02*
X74805000Y-23598517D01*
X74805000Y-23814490D01*
X74795000Y-23764217D01*
X74795000Y-22722302D01*
X75382672Y-22720500D01*
X75017376Y-23085796D01*
M02*
