%TF.GenerationSoftware,KiCad,Pcbnew,(5.0.0)*%
%TF.CreationDate,2018-11-17T18:39:48+09:00*%
%TF.ProjectId,16F676-mppt,3136463637362D6D7070742E6B696361,rev?*%
%TF.SameCoordinates,Original*%
%TF.FileFunction,Soldermask,Top*%
%TF.FilePolarity,Negative*%
%FSLAX46Y46*%
G04 Gerber Fmt 4.6, Leading zero omitted, Abs format (unit mm)*
G04 Created by KiCad (PCBNEW (5.0.0)) date 11/17/18 18:39:48*
%MOMM*%
%LPD*%
G01*
G04 APERTURE LIST*
%ADD10C,5.000000*%
%ADD11C,1.600000*%
%ADD12O,1.600000X1.600000*%
%ADD13R,1.600000X1.600000*%
%ADD14R,2.400000X2.400000*%
%ADD15C,2.400000*%
%ADD16C,2.000000*%
%ADD17R,3.200000X3.200000*%
%ADD18O,3.200000X3.200000*%
%ADD19R,2.200000X2.200000*%
%ADD20O,2.200000X2.200000*%
%ADD21R,1.800000X1.800000*%
%ADD22C,1.800000*%
%ADD23C,3.600000*%
%ADD24C,1.520000*%
%ADD25R,1.520000X1.520000*%
%ADD26O,1.800000X1.800000*%
%ADD27O,1.501140X2.499360*%
%ADD28O,1.699260X3.500120*%
%ADD29C,2.600000*%
G04 APERTURE END LIST*
D10*
X104409240Y-94604840D03*
D11*
X76184760Y-19314160D03*
D12*
X76184760Y-16774160D03*
D13*
X44958000Y-55880000D03*
D12*
X52578000Y-63500000D03*
X44958000Y-58420000D03*
X52578000Y-60960000D03*
X44958000Y-60960000D03*
X52578000Y-58420000D03*
X44958000Y-63500000D03*
X52578000Y-55880000D03*
D14*
X68072000Y-78994000D03*
D15*
X68072000Y-83994000D03*
D14*
X83058000Y-37592000D03*
D15*
X88058000Y-37592000D03*
D14*
X37561520Y-37551360D03*
D15*
X32561520Y-37551360D03*
D16*
X58166000Y-38862000D03*
X58166000Y-46362000D03*
D14*
X70612000Y-67310000D03*
D15*
X65612000Y-67310000D03*
D14*
X68326000Y-40132000D03*
D15*
X68326000Y-45132000D03*
D14*
X47752000Y-22352000D03*
D15*
X52752000Y-22352000D03*
D17*
X102224840Y-39740840D03*
D18*
X102224840Y-24500840D03*
D17*
X92710000Y-86360000D03*
D18*
X77470000Y-86360000D03*
D19*
X68326000Y-28702000D03*
D20*
X58166000Y-28702000D03*
D21*
X33548320Y-88833960D03*
D22*
X31008320Y-88833960D03*
D19*
X24516080Y-41925240D03*
D20*
X24516080Y-31765240D03*
D17*
X38862000Y-26162000D03*
D18*
X23622000Y-26162000D03*
D17*
X38862000Y-18542000D03*
D18*
X23622000Y-18542000D03*
D21*
X61976000Y-56134000D03*
D22*
X61976000Y-58674000D03*
D21*
X68834000Y-56134000D03*
D22*
X68834000Y-58674000D03*
D17*
X96072960Y-39740840D03*
D18*
X96072960Y-24500840D03*
D17*
X92710000Y-92710000D03*
D18*
X77470000Y-92710000D03*
D23*
X91186000Y-79502000D03*
X91186000Y-66802000D03*
X91186000Y-48006000D03*
X91186000Y-60706000D03*
D24*
X76200000Y-26416000D03*
X76200000Y-23876000D03*
D25*
X76200000Y-28956000D03*
D24*
X82550000Y-26416000D03*
X82550000Y-28956000D03*
D25*
X82550000Y-23876000D03*
D24*
X88138000Y-26416000D03*
X88138000Y-28956000D03*
D25*
X88138000Y-23876000D03*
D11*
X30988000Y-82550000D03*
D12*
X30988000Y-69850000D03*
D11*
X42164000Y-74422000D03*
D12*
X54864000Y-74422000D03*
D11*
X54864000Y-85852000D03*
D12*
X42164000Y-85852000D03*
D11*
X59182000Y-73152000D03*
D12*
X59182000Y-85852000D03*
D11*
X20574000Y-31496000D03*
D12*
X20574000Y-44196000D03*
D11*
X26416000Y-64262000D03*
D12*
X39116000Y-64262000D03*
D11*
X65278000Y-52324000D03*
D12*
X52578000Y-52324000D03*
D11*
X24089360Y-45953680D03*
D12*
X36789360Y-45953680D03*
D11*
X58420000Y-22606000D03*
D12*
X71120000Y-22606000D03*
D11*
X71120000Y-18288000D03*
D12*
X58420000Y-18288000D03*
D11*
X42164000Y-69088000D03*
D12*
X54864000Y-69088000D03*
D11*
X20574000Y-47498000D03*
D12*
X20574000Y-60198000D03*
D11*
X54864000Y-80010000D03*
D12*
X42164000Y-80010000D03*
D11*
X58166000Y-33274000D03*
D12*
X70866000Y-33274000D03*
D11*
X35560000Y-82550000D03*
D12*
X35560000Y-69850000D03*
D11*
X20574000Y-76454000D03*
D12*
X20574000Y-63754000D03*
D16*
X25048600Y-86126320D03*
X20548600Y-86126320D03*
X25048600Y-79626320D03*
X20548600Y-79626320D03*
D21*
X26670000Y-57150000D03*
D26*
X29210000Y-57150000D03*
X31750000Y-57150000D03*
D13*
X44958000Y-33274000D03*
D12*
X52578000Y-48514000D03*
X44958000Y-35814000D03*
X52578000Y-45974000D03*
X44958000Y-38354000D03*
X52578000Y-43434000D03*
X44958000Y-40894000D03*
X52578000Y-40894000D03*
X44958000Y-43434000D03*
X52578000Y-38354000D03*
X44958000Y-45974000D03*
X52578000Y-35814000D03*
X44958000Y-48514000D03*
X52578000Y-33274000D03*
D10*
X16657320Y-94493080D03*
X104363520Y-16327120D03*
X16510000Y-16256000D03*
D27*
X44704000Y-93726000D03*
X47244000Y-93726000D03*
X42164000Y-93726000D03*
D28*
X86365080Y-18699480D03*
X83825080Y-18699480D03*
X88905080Y-18699480D03*
D29*
X15748000Y-29972000D03*
X15748000Y-44196000D03*
X103057960Y-85679280D03*
X96611440Y-96921320D03*
M02*
