%TF.GenerationSoftware,KiCad,Pcbnew,(5.0.0)*%
%TF.CreationDate,2018-11-30T21:18:20+09:00*%
%TF.ProjectId,16F676-mppt,3136463637362D6D7070742E6B696361,rev?*%
%TF.SameCoordinates,Original*%
%TF.FileFunction,Legend,Top*%
%TF.FilePolarity,Positive*%
%FSLAX46Y46*%
G04 Gerber Fmt 4.6, Leading zero omitted, Abs format (unit mm)*
G04 Created by KiCad (PCBNEW (5.0.0)) date 11/30/18 21:18:20*
%MOMM*%
%LPD*%
G01*
G04 APERTURE LIST*
%ADD10C,0.120000*%
%ADD11C,0.150000*%
G04 APERTURE END LIST*
D10*
X49768000Y-54550000D02*
G75*
G02X47768000Y-54550000I-1000000J0D01*
G01*
X47768000Y-54550000D02*
X46118000Y-54550000D01*
X46118000Y-54550000D02*
X46118000Y-64830000D01*
X46118000Y-64830000D02*
X51418000Y-64830000D01*
X51418000Y-64830000D02*
X51418000Y-54550000D01*
X51418000Y-54550000D02*
X49768000Y-54550000D01*
X74412000Y-81494000D02*
G75*
G03X74412000Y-81494000I-6340000J0D01*
G01*
X74372000Y-81494000D02*
X61772000Y-81494000D01*
X74372000Y-81534000D02*
X61772000Y-81534000D01*
X74372000Y-81574000D02*
X61772000Y-81574000D01*
X74371000Y-81614000D02*
X61773000Y-81614000D01*
X74370000Y-81654000D02*
X61774000Y-81654000D01*
X74369000Y-81694000D02*
X61775000Y-81694000D01*
X74368000Y-81734000D02*
X61776000Y-81734000D01*
X74366000Y-81774000D02*
X61778000Y-81774000D01*
X74364000Y-81814000D02*
X61780000Y-81814000D01*
X74362000Y-81854000D02*
X61782000Y-81854000D01*
X74360000Y-81894000D02*
X61784000Y-81894000D01*
X74357000Y-81934000D02*
X61787000Y-81934000D01*
X74354000Y-81974000D02*
X61790000Y-81974000D01*
X74351000Y-82014000D02*
X61793000Y-82014000D01*
X74348000Y-82054000D02*
X61796000Y-82054000D01*
X74344000Y-82094000D02*
X61800000Y-82094000D01*
X74340000Y-82134000D02*
X61804000Y-82134000D01*
X74336000Y-82174000D02*
X61808000Y-82174000D01*
X74331000Y-82215000D02*
X61813000Y-82215000D01*
X74327000Y-82255000D02*
X61817000Y-82255000D01*
X74322000Y-82295000D02*
X61822000Y-82295000D01*
X74317000Y-82335000D02*
X61827000Y-82335000D01*
X74311000Y-82375000D02*
X61833000Y-82375000D01*
X74305000Y-82415000D02*
X61839000Y-82415000D01*
X74299000Y-82455000D02*
X61845000Y-82455000D01*
X74293000Y-82495000D02*
X61851000Y-82495000D01*
X74287000Y-82535000D02*
X61857000Y-82535000D01*
X74280000Y-82575000D02*
X61864000Y-82575000D01*
X74273000Y-82615000D02*
X69452000Y-82615000D01*
X66692000Y-82615000D02*
X61871000Y-82615000D01*
X74265000Y-82655000D02*
X69452000Y-82655000D01*
X66692000Y-82655000D02*
X61879000Y-82655000D01*
X74258000Y-82695000D02*
X69452000Y-82695000D01*
X66692000Y-82695000D02*
X61886000Y-82695000D01*
X74250000Y-82735000D02*
X69452000Y-82735000D01*
X66692000Y-82735000D02*
X61894000Y-82735000D01*
X74242000Y-82775000D02*
X69452000Y-82775000D01*
X66692000Y-82775000D02*
X61902000Y-82775000D01*
X74234000Y-82815000D02*
X69452000Y-82815000D01*
X66692000Y-82815000D02*
X61910000Y-82815000D01*
X74225000Y-82855000D02*
X69452000Y-82855000D01*
X66692000Y-82855000D02*
X61919000Y-82855000D01*
X74216000Y-82895000D02*
X69452000Y-82895000D01*
X66692000Y-82895000D02*
X61928000Y-82895000D01*
X74207000Y-82935000D02*
X69452000Y-82935000D01*
X66692000Y-82935000D02*
X61937000Y-82935000D01*
X74197000Y-82975000D02*
X69452000Y-82975000D01*
X66692000Y-82975000D02*
X61947000Y-82975000D01*
X74188000Y-83015000D02*
X69452000Y-83015000D01*
X66692000Y-83015000D02*
X61956000Y-83015000D01*
X74178000Y-83055000D02*
X69452000Y-83055000D01*
X66692000Y-83055000D02*
X61966000Y-83055000D01*
X74167000Y-83095000D02*
X69452000Y-83095000D01*
X66692000Y-83095000D02*
X61977000Y-83095000D01*
X74157000Y-83135000D02*
X69452000Y-83135000D01*
X66692000Y-83135000D02*
X61987000Y-83135000D01*
X74146000Y-83175000D02*
X69452000Y-83175000D01*
X66692000Y-83175000D02*
X61998000Y-83175000D01*
X74135000Y-83215000D02*
X69452000Y-83215000D01*
X66692000Y-83215000D02*
X62009000Y-83215000D01*
X74123000Y-83255000D02*
X69452000Y-83255000D01*
X66692000Y-83255000D02*
X62021000Y-83255000D01*
X74112000Y-83295000D02*
X69452000Y-83295000D01*
X66692000Y-83295000D02*
X62032000Y-83295000D01*
X74100000Y-83335000D02*
X69452000Y-83335000D01*
X66692000Y-83335000D02*
X62044000Y-83335000D01*
X74087000Y-83375000D02*
X69452000Y-83375000D01*
X66692000Y-83375000D02*
X62057000Y-83375000D01*
X74075000Y-83415000D02*
X69452000Y-83415000D01*
X66692000Y-83415000D02*
X62069000Y-83415000D01*
X74062000Y-83455000D02*
X69452000Y-83455000D01*
X66692000Y-83455000D02*
X62082000Y-83455000D01*
X74049000Y-83495000D02*
X69452000Y-83495000D01*
X66692000Y-83495000D02*
X62095000Y-83495000D01*
X74035000Y-83535000D02*
X69452000Y-83535000D01*
X66692000Y-83535000D02*
X62109000Y-83535000D01*
X74022000Y-83575000D02*
X69452000Y-83575000D01*
X66692000Y-83575000D02*
X62122000Y-83575000D01*
X74008000Y-83615000D02*
X69452000Y-83615000D01*
X66692000Y-83615000D02*
X62136000Y-83615000D01*
X73993000Y-83655000D02*
X69452000Y-83655000D01*
X66692000Y-83655000D02*
X62151000Y-83655000D01*
X73979000Y-83695000D02*
X69452000Y-83695000D01*
X66692000Y-83695000D02*
X62165000Y-83695000D01*
X73964000Y-83735000D02*
X69452000Y-83735000D01*
X66692000Y-83735000D02*
X62180000Y-83735000D01*
X73948000Y-83775000D02*
X69452000Y-83775000D01*
X66692000Y-83775000D02*
X62196000Y-83775000D01*
X73933000Y-83815000D02*
X69452000Y-83815000D01*
X66692000Y-83815000D02*
X62211000Y-83815000D01*
X73917000Y-83855000D02*
X69452000Y-83855000D01*
X66692000Y-83855000D02*
X62227000Y-83855000D01*
X73901000Y-83895000D02*
X69452000Y-83895000D01*
X66692000Y-83895000D02*
X62243000Y-83895000D01*
X73884000Y-83935000D02*
X69452000Y-83935000D01*
X66692000Y-83935000D02*
X62260000Y-83935000D01*
X73867000Y-83975000D02*
X69452000Y-83975000D01*
X66692000Y-83975000D02*
X62277000Y-83975000D01*
X73850000Y-84015000D02*
X69452000Y-84015000D01*
X66692000Y-84015000D02*
X62294000Y-84015000D01*
X73833000Y-84055000D02*
X69452000Y-84055000D01*
X66692000Y-84055000D02*
X62311000Y-84055000D01*
X73815000Y-84095000D02*
X69452000Y-84095000D01*
X66692000Y-84095000D02*
X62329000Y-84095000D01*
X73797000Y-84135000D02*
X69452000Y-84135000D01*
X66692000Y-84135000D02*
X62347000Y-84135000D01*
X73778000Y-84175000D02*
X69452000Y-84175000D01*
X66692000Y-84175000D02*
X62366000Y-84175000D01*
X73759000Y-84215000D02*
X69452000Y-84215000D01*
X66692000Y-84215000D02*
X62385000Y-84215000D01*
X73740000Y-84255000D02*
X69452000Y-84255000D01*
X66692000Y-84255000D02*
X62404000Y-84255000D01*
X73721000Y-84295000D02*
X69452000Y-84295000D01*
X66692000Y-84295000D02*
X62423000Y-84295000D01*
X73701000Y-84335000D02*
X69452000Y-84335000D01*
X66692000Y-84335000D02*
X62443000Y-84335000D01*
X73681000Y-84375000D02*
X69452000Y-84375000D01*
X66692000Y-84375000D02*
X62463000Y-84375000D01*
X73660000Y-84415000D02*
X69452000Y-84415000D01*
X66692000Y-84415000D02*
X62484000Y-84415000D01*
X73639000Y-84455000D02*
X69452000Y-84455000D01*
X66692000Y-84455000D02*
X62505000Y-84455000D01*
X73618000Y-84495000D02*
X69452000Y-84495000D01*
X66692000Y-84495000D02*
X62526000Y-84495000D01*
X73596000Y-84535000D02*
X69452000Y-84535000D01*
X66692000Y-84535000D02*
X62548000Y-84535000D01*
X73574000Y-84575000D02*
X69452000Y-84575000D01*
X66692000Y-84575000D02*
X62570000Y-84575000D01*
X73552000Y-84615000D02*
X69452000Y-84615000D01*
X66692000Y-84615000D02*
X62592000Y-84615000D01*
X73529000Y-84655000D02*
X69452000Y-84655000D01*
X66692000Y-84655000D02*
X62615000Y-84655000D01*
X73506000Y-84695000D02*
X69452000Y-84695000D01*
X66692000Y-84695000D02*
X62638000Y-84695000D01*
X73482000Y-84735000D02*
X69452000Y-84735000D01*
X66692000Y-84735000D02*
X62662000Y-84735000D01*
X73458000Y-84775000D02*
X69452000Y-84775000D01*
X66692000Y-84775000D02*
X62686000Y-84775000D01*
X73434000Y-84815000D02*
X69452000Y-84815000D01*
X66692000Y-84815000D02*
X62710000Y-84815000D01*
X73409000Y-84855000D02*
X69452000Y-84855000D01*
X66692000Y-84855000D02*
X62735000Y-84855000D01*
X73384000Y-84895000D02*
X69452000Y-84895000D01*
X66692000Y-84895000D02*
X62760000Y-84895000D01*
X73358000Y-84935000D02*
X69452000Y-84935000D01*
X66692000Y-84935000D02*
X62786000Y-84935000D01*
X73332000Y-84975000D02*
X69452000Y-84975000D01*
X66692000Y-84975000D02*
X62812000Y-84975000D01*
X73306000Y-85015000D02*
X69452000Y-85015000D01*
X66692000Y-85015000D02*
X62838000Y-85015000D01*
X73279000Y-85055000D02*
X69452000Y-85055000D01*
X66692000Y-85055000D02*
X62865000Y-85055000D01*
X73251000Y-85095000D02*
X69452000Y-85095000D01*
X66692000Y-85095000D02*
X62893000Y-85095000D01*
X73223000Y-85135000D02*
X69452000Y-85135000D01*
X66692000Y-85135000D02*
X62921000Y-85135000D01*
X73195000Y-85175000D02*
X69452000Y-85175000D01*
X66692000Y-85175000D02*
X62949000Y-85175000D01*
X73166000Y-85215000D02*
X69452000Y-85215000D01*
X66692000Y-85215000D02*
X62978000Y-85215000D01*
X73137000Y-85255000D02*
X69452000Y-85255000D01*
X66692000Y-85255000D02*
X63007000Y-85255000D01*
X73107000Y-85295000D02*
X69452000Y-85295000D01*
X66692000Y-85295000D02*
X63037000Y-85295000D01*
X73077000Y-85335000D02*
X69452000Y-85335000D01*
X66692000Y-85335000D02*
X63067000Y-85335000D01*
X73047000Y-85375000D02*
X63097000Y-85375000D01*
X73015000Y-85415000D02*
X63129000Y-85415000D01*
X72984000Y-85455000D02*
X63160000Y-85455000D01*
X72951000Y-85495000D02*
X63193000Y-85495000D01*
X72919000Y-85535000D02*
X63225000Y-85535000D01*
X72885000Y-85575000D02*
X63259000Y-85575000D01*
X72851000Y-85615000D02*
X63293000Y-85615000D01*
X72817000Y-85655000D02*
X63327000Y-85655000D01*
X72782000Y-85695000D02*
X63362000Y-85695000D01*
X72746000Y-85735000D02*
X63398000Y-85735000D01*
X72710000Y-85775000D02*
X63434000Y-85775000D01*
X72673000Y-85815000D02*
X63471000Y-85815000D01*
X72635000Y-85855000D02*
X63509000Y-85855000D01*
X72597000Y-85895000D02*
X63547000Y-85895000D01*
X72558000Y-85935000D02*
X63586000Y-85935000D01*
X72519000Y-85975000D02*
X63625000Y-85975000D01*
X72478000Y-86015000D02*
X63666000Y-86015000D01*
X72437000Y-86055000D02*
X63707000Y-86055000D01*
X72395000Y-86095000D02*
X63749000Y-86095000D01*
X72353000Y-86135000D02*
X63791000Y-86135000D01*
X72310000Y-86175000D02*
X63834000Y-86175000D01*
X72265000Y-86215000D02*
X63879000Y-86215000D01*
X72220000Y-86255000D02*
X63924000Y-86255000D01*
X72174000Y-86295000D02*
X63970000Y-86295000D01*
X72128000Y-86335000D02*
X64016000Y-86335000D01*
X72080000Y-86375000D02*
X64064000Y-86375000D01*
X72031000Y-86415000D02*
X64113000Y-86415000D01*
X71981000Y-86455000D02*
X64163000Y-86455000D01*
X71931000Y-86495000D02*
X64213000Y-86495000D01*
X71879000Y-86535000D02*
X64265000Y-86535000D01*
X71826000Y-86575000D02*
X64318000Y-86575000D01*
X71772000Y-86615000D02*
X64372000Y-86615000D01*
X71716000Y-86655000D02*
X64428000Y-86655000D01*
X71660000Y-86695000D02*
X64484000Y-86695000D01*
X71602000Y-86735000D02*
X64542000Y-86735000D01*
X71542000Y-86775000D02*
X64602000Y-86775000D01*
X71481000Y-86815000D02*
X64663000Y-86815000D01*
X71419000Y-86855000D02*
X64725000Y-86855000D01*
X71354000Y-86895000D02*
X64790000Y-86895000D01*
X71289000Y-86935000D02*
X64855000Y-86935000D01*
X71221000Y-86975000D02*
X64923000Y-86975000D01*
X71151000Y-87015000D02*
X64993000Y-87015000D01*
X71079000Y-87055000D02*
X65065000Y-87055000D01*
X71005000Y-87095000D02*
X65139000Y-87095000D01*
X70928000Y-87135000D02*
X65216000Y-87135000D01*
X70849000Y-87175000D02*
X65295000Y-87175000D01*
X70767000Y-87215000D02*
X65377000Y-87215000D01*
X70682000Y-87255000D02*
X65462000Y-87255000D01*
X70593000Y-87295000D02*
X65551000Y-87295000D01*
X70500000Y-87335000D02*
X65644000Y-87335000D01*
X70403000Y-87375000D02*
X65741000Y-87375000D01*
X70302000Y-87415000D02*
X65842000Y-87415000D01*
X70194000Y-87455000D02*
X65950000Y-87455000D01*
X70081000Y-87495000D02*
X66063000Y-87495000D01*
X69960000Y-87535000D02*
X66184000Y-87535000D01*
X69829000Y-87575000D02*
X66315000Y-87575000D01*
X69688000Y-87615000D02*
X66456000Y-87615000D01*
X69532000Y-87655000D02*
X66612000Y-87655000D01*
X69357000Y-87695000D02*
X66787000Y-87695000D01*
X69154000Y-87735000D02*
X66990000Y-87735000D01*
X68903000Y-87775000D02*
X67241000Y-87775000D01*
X68536000Y-87815000D02*
X67608000Y-87815000D01*
X68072000Y-75794000D02*
X68072000Y-77594000D01*
X68972000Y-76694000D02*
X67172000Y-76694000D01*
X91898000Y-37592000D02*
G75*
G03X91898000Y-37592000I-6340000J0D01*
G01*
X85558000Y-31292000D02*
X85558000Y-43892000D01*
X85598000Y-31292000D02*
X85598000Y-43892000D01*
X85638000Y-31292000D02*
X85638000Y-43892000D01*
X85678000Y-31293000D02*
X85678000Y-43891000D01*
X85718000Y-31294000D02*
X85718000Y-43890000D01*
X85758000Y-31295000D02*
X85758000Y-43889000D01*
X85798000Y-31296000D02*
X85798000Y-43888000D01*
X85838000Y-31298000D02*
X85838000Y-43886000D01*
X85878000Y-31300000D02*
X85878000Y-43884000D01*
X85918000Y-31302000D02*
X85918000Y-43882000D01*
X85958000Y-31304000D02*
X85958000Y-43880000D01*
X85998000Y-31307000D02*
X85998000Y-43877000D01*
X86038000Y-31310000D02*
X86038000Y-43874000D01*
X86078000Y-31313000D02*
X86078000Y-43871000D01*
X86118000Y-31316000D02*
X86118000Y-43868000D01*
X86158000Y-31320000D02*
X86158000Y-43864000D01*
X86198000Y-31324000D02*
X86198000Y-43860000D01*
X86238000Y-31328000D02*
X86238000Y-43856000D01*
X86279000Y-31333000D02*
X86279000Y-43851000D01*
X86319000Y-31337000D02*
X86319000Y-43847000D01*
X86359000Y-31342000D02*
X86359000Y-43842000D01*
X86399000Y-31347000D02*
X86399000Y-43837000D01*
X86439000Y-31353000D02*
X86439000Y-43831000D01*
X86479000Y-31359000D02*
X86479000Y-43825000D01*
X86519000Y-31365000D02*
X86519000Y-43819000D01*
X86559000Y-31371000D02*
X86559000Y-43813000D01*
X86599000Y-31377000D02*
X86599000Y-43807000D01*
X86639000Y-31384000D02*
X86639000Y-43800000D01*
X86679000Y-31391000D02*
X86679000Y-36212000D01*
X86679000Y-38972000D02*
X86679000Y-43793000D01*
X86719000Y-31399000D02*
X86719000Y-36212000D01*
X86719000Y-38972000D02*
X86719000Y-43785000D01*
X86759000Y-31406000D02*
X86759000Y-36212000D01*
X86759000Y-38972000D02*
X86759000Y-43778000D01*
X86799000Y-31414000D02*
X86799000Y-36212000D01*
X86799000Y-38972000D02*
X86799000Y-43770000D01*
X86839000Y-31422000D02*
X86839000Y-36212000D01*
X86839000Y-38972000D02*
X86839000Y-43762000D01*
X86879000Y-31430000D02*
X86879000Y-36212000D01*
X86879000Y-38972000D02*
X86879000Y-43754000D01*
X86919000Y-31439000D02*
X86919000Y-36212000D01*
X86919000Y-38972000D02*
X86919000Y-43745000D01*
X86959000Y-31448000D02*
X86959000Y-36212000D01*
X86959000Y-38972000D02*
X86959000Y-43736000D01*
X86999000Y-31457000D02*
X86999000Y-36212000D01*
X86999000Y-38972000D02*
X86999000Y-43727000D01*
X87039000Y-31467000D02*
X87039000Y-36212000D01*
X87039000Y-38972000D02*
X87039000Y-43717000D01*
X87079000Y-31476000D02*
X87079000Y-36212000D01*
X87079000Y-38972000D02*
X87079000Y-43708000D01*
X87119000Y-31486000D02*
X87119000Y-36212000D01*
X87119000Y-38972000D02*
X87119000Y-43698000D01*
X87159000Y-31497000D02*
X87159000Y-36212000D01*
X87159000Y-38972000D02*
X87159000Y-43687000D01*
X87199000Y-31507000D02*
X87199000Y-36212000D01*
X87199000Y-38972000D02*
X87199000Y-43677000D01*
X87239000Y-31518000D02*
X87239000Y-36212000D01*
X87239000Y-38972000D02*
X87239000Y-43666000D01*
X87279000Y-31529000D02*
X87279000Y-36212000D01*
X87279000Y-38972000D02*
X87279000Y-43655000D01*
X87319000Y-31541000D02*
X87319000Y-36212000D01*
X87319000Y-38972000D02*
X87319000Y-43643000D01*
X87359000Y-31552000D02*
X87359000Y-36212000D01*
X87359000Y-38972000D02*
X87359000Y-43632000D01*
X87399000Y-31564000D02*
X87399000Y-36212000D01*
X87399000Y-38972000D02*
X87399000Y-43620000D01*
X87439000Y-31577000D02*
X87439000Y-36212000D01*
X87439000Y-38972000D02*
X87439000Y-43607000D01*
X87479000Y-31589000D02*
X87479000Y-36212000D01*
X87479000Y-38972000D02*
X87479000Y-43595000D01*
X87519000Y-31602000D02*
X87519000Y-36212000D01*
X87519000Y-38972000D02*
X87519000Y-43582000D01*
X87559000Y-31615000D02*
X87559000Y-36212000D01*
X87559000Y-38972000D02*
X87559000Y-43569000D01*
X87599000Y-31629000D02*
X87599000Y-36212000D01*
X87599000Y-38972000D02*
X87599000Y-43555000D01*
X87639000Y-31642000D02*
X87639000Y-36212000D01*
X87639000Y-38972000D02*
X87639000Y-43542000D01*
X87679000Y-31656000D02*
X87679000Y-36212000D01*
X87679000Y-38972000D02*
X87679000Y-43528000D01*
X87719000Y-31671000D02*
X87719000Y-36212000D01*
X87719000Y-38972000D02*
X87719000Y-43513000D01*
X87759000Y-31685000D02*
X87759000Y-36212000D01*
X87759000Y-38972000D02*
X87759000Y-43499000D01*
X87799000Y-31700000D02*
X87799000Y-36212000D01*
X87799000Y-38972000D02*
X87799000Y-43484000D01*
X87839000Y-31716000D02*
X87839000Y-36212000D01*
X87839000Y-38972000D02*
X87839000Y-43468000D01*
X87879000Y-31731000D02*
X87879000Y-36212000D01*
X87879000Y-38972000D02*
X87879000Y-43453000D01*
X87919000Y-31747000D02*
X87919000Y-36212000D01*
X87919000Y-38972000D02*
X87919000Y-43437000D01*
X87959000Y-31763000D02*
X87959000Y-36212000D01*
X87959000Y-38972000D02*
X87959000Y-43421000D01*
X87999000Y-31780000D02*
X87999000Y-36212000D01*
X87999000Y-38972000D02*
X87999000Y-43404000D01*
X88039000Y-31797000D02*
X88039000Y-36212000D01*
X88039000Y-38972000D02*
X88039000Y-43387000D01*
X88079000Y-31814000D02*
X88079000Y-36212000D01*
X88079000Y-38972000D02*
X88079000Y-43370000D01*
X88119000Y-31831000D02*
X88119000Y-36212000D01*
X88119000Y-38972000D02*
X88119000Y-43353000D01*
X88159000Y-31849000D02*
X88159000Y-36212000D01*
X88159000Y-38972000D02*
X88159000Y-43335000D01*
X88199000Y-31867000D02*
X88199000Y-36212000D01*
X88199000Y-38972000D02*
X88199000Y-43317000D01*
X88239000Y-31886000D02*
X88239000Y-36212000D01*
X88239000Y-38972000D02*
X88239000Y-43298000D01*
X88279000Y-31905000D02*
X88279000Y-36212000D01*
X88279000Y-38972000D02*
X88279000Y-43279000D01*
X88319000Y-31924000D02*
X88319000Y-36212000D01*
X88319000Y-38972000D02*
X88319000Y-43260000D01*
X88359000Y-31943000D02*
X88359000Y-36212000D01*
X88359000Y-38972000D02*
X88359000Y-43241000D01*
X88399000Y-31963000D02*
X88399000Y-36212000D01*
X88399000Y-38972000D02*
X88399000Y-43221000D01*
X88439000Y-31983000D02*
X88439000Y-36212000D01*
X88439000Y-38972000D02*
X88439000Y-43201000D01*
X88479000Y-32004000D02*
X88479000Y-36212000D01*
X88479000Y-38972000D02*
X88479000Y-43180000D01*
X88519000Y-32025000D02*
X88519000Y-36212000D01*
X88519000Y-38972000D02*
X88519000Y-43159000D01*
X88559000Y-32046000D02*
X88559000Y-36212000D01*
X88559000Y-38972000D02*
X88559000Y-43138000D01*
X88599000Y-32068000D02*
X88599000Y-36212000D01*
X88599000Y-38972000D02*
X88599000Y-43116000D01*
X88639000Y-32090000D02*
X88639000Y-36212000D01*
X88639000Y-38972000D02*
X88639000Y-43094000D01*
X88679000Y-32112000D02*
X88679000Y-36212000D01*
X88679000Y-38972000D02*
X88679000Y-43072000D01*
X88719000Y-32135000D02*
X88719000Y-36212000D01*
X88719000Y-38972000D02*
X88719000Y-43049000D01*
X88759000Y-32158000D02*
X88759000Y-36212000D01*
X88759000Y-38972000D02*
X88759000Y-43026000D01*
X88799000Y-32182000D02*
X88799000Y-36212000D01*
X88799000Y-38972000D02*
X88799000Y-43002000D01*
X88839000Y-32206000D02*
X88839000Y-36212000D01*
X88839000Y-38972000D02*
X88839000Y-42978000D01*
X88879000Y-32230000D02*
X88879000Y-36212000D01*
X88879000Y-38972000D02*
X88879000Y-42954000D01*
X88919000Y-32255000D02*
X88919000Y-36212000D01*
X88919000Y-38972000D02*
X88919000Y-42929000D01*
X88959000Y-32280000D02*
X88959000Y-36212000D01*
X88959000Y-38972000D02*
X88959000Y-42904000D01*
X88999000Y-32306000D02*
X88999000Y-36212000D01*
X88999000Y-38972000D02*
X88999000Y-42878000D01*
X89039000Y-32332000D02*
X89039000Y-36212000D01*
X89039000Y-38972000D02*
X89039000Y-42852000D01*
X89079000Y-32358000D02*
X89079000Y-36212000D01*
X89079000Y-38972000D02*
X89079000Y-42826000D01*
X89119000Y-32385000D02*
X89119000Y-36212000D01*
X89119000Y-38972000D02*
X89119000Y-42799000D01*
X89159000Y-32413000D02*
X89159000Y-36212000D01*
X89159000Y-38972000D02*
X89159000Y-42771000D01*
X89199000Y-32441000D02*
X89199000Y-36212000D01*
X89199000Y-38972000D02*
X89199000Y-42743000D01*
X89239000Y-32469000D02*
X89239000Y-36212000D01*
X89239000Y-38972000D02*
X89239000Y-42715000D01*
X89279000Y-32498000D02*
X89279000Y-36212000D01*
X89279000Y-38972000D02*
X89279000Y-42686000D01*
X89319000Y-32527000D02*
X89319000Y-36212000D01*
X89319000Y-38972000D02*
X89319000Y-42657000D01*
X89359000Y-32557000D02*
X89359000Y-36212000D01*
X89359000Y-38972000D02*
X89359000Y-42627000D01*
X89399000Y-32587000D02*
X89399000Y-36212000D01*
X89399000Y-38972000D02*
X89399000Y-42597000D01*
X89439000Y-32617000D02*
X89439000Y-42567000D01*
X89479000Y-32649000D02*
X89479000Y-42535000D01*
X89519000Y-32680000D02*
X89519000Y-42504000D01*
X89559000Y-32713000D02*
X89559000Y-42471000D01*
X89599000Y-32745000D02*
X89599000Y-42439000D01*
X89639000Y-32779000D02*
X89639000Y-42405000D01*
X89679000Y-32813000D02*
X89679000Y-42371000D01*
X89719000Y-32847000D02*
X89719000Y-42337000D01*
X89759000Y-32882000D02*
X89759000Y-42302000D01*
X89799000Y-32918000D02*
X89799000Y-42266000D01*
X89839000Y-32954000D02*
X89839000Y-42230000D01*
X89879000Y-32991000D02*
X89879000Y-42193000D01*
X89919000Y-33029000D02*
X89919000Y-42155000D01*
X89959000Y-33067000D02*
X89959000Y-42117000D01*
X89999000Y-33106000D02*
X89999000Y-42078000D01*
X90039000Y-33145000D02*
X90039000Y-42039000D01*
X90079000Y-33186000D02*
X90079000Y-41998000D01*
X90119000Y-33227000D02*
X90119000Y-41957000D01*
X90159000Y-33269000D02*
X90159000Y-41915000D01*
X90199000Y-33311000D02*
X90199000Y-41873000D01*
X90239000Y-33354000D02*
X90239000Y-41830000D01*
X90279000Y-33399000D02*
X90279000Y-41785000D01*
X90319000Y-33444000D02*
X90319000Y-41740000D01*
X90359000Y-33490000D02*
X90359000Y-41694000D01*
X90399000Y-33536000D02*
X90399000Y-41648000D01*
X90439000Y-33584000D02*
X90439000Y-41600000D01*
X90479000Y-33633000D02*
X90479000Y-41551000D01*
X90519000Y-33683000D02*
X90519000Y-41501000D01*
X90559000Y-33733000D02*
X90559000Y-41451000D01*
X90599000Y-33785000D02*
X90599000Y-41399000D01*
X90639000Y-33838000D02*
X90639000Y-41346000D01*
X90679000Y-33892000D02*
X90679000Y-41292000D01*
X90719000Y-33948000D02*
X90719000Y-41236000D01*
X90759000Y-34004000D02*
X90759000Y-41180000D01*
X90799000Y-34062000D02*
X90799000Y-41122000D01*
X90839000Y-34122000D02*
X90839000Y-41062000D01*
X90879000Y-34183000D02*
X90879000Y-41001000D01*
X90919000Y-34245000D02*
X90919000Y-40939000D01*
X90959000Y-34310000D02*
X90959000Y-40874000D01*
X90999000Y-34375000D02*
X90999000Y-40809000D01*
X91039000Y-34443000D02*
X91039000Y-40741000D01*
X91079000Y-34513000D02*
X91079000Y-40671000D01*
X91119000Y-34585000D02*
X91119000Y-40599000D01*
X91159000Y-34659000D02*
X91159000Y-40525000D01*
X91199000Y-34736000D02*
X91199000Y-40448000D01*
X91239000Y-34815000D02*
X91239000Y-40369000D01*
X91279000Y-34897000D02*
X91279000Y-40287000D01*
X91319000Y-34982000D02*
X91319000Y-40202000D01*
X91359000Y-35071000D02*
X91359000Y-40113000D01*
X91399000Y-35164000D02*
X91399000Y-40020000D01*
X91439000Y-35261000D02*
X91439000Y-39923000D01*
X91479000Y-35362000D02*
X91479000Y-39822000D01*
X91519000Y-35470000D02*
X91519000Y-39714000D01*
X91559000Y-35583000D02*
X91559000Y-39601000D01*
X91599000Y-35704000D02*
X91599000Y-39480000D01*
X91639000Y-35835000D02*
X91639000Y-39349000D01*
X91679000Y-35976000D02*
X91679000Y-39208000D01*
X91719000Y-36132000D02*
X91719000Y-39052000D01*
X91759000Y-36307000D02*
X91759000Y-38877000D01*
X91799000Y-36510000D02*
X91799000Y-38674000D01*
X91839000Y-36761000D02*
X91839000Y-38423000D01*
X91879000Y-37128000D02*
X91879000Y-38056000D01*
X79858000Y-37592000D02*
X81658000Y-37592000D01*
X80758000Y-36692000D02*
X80758000Y-38492000D01*
X41401520Y-37551360D02*
G75*
G03X41401520Y-37551360I-6340000J0D01*
G01*
X35061520Y-43851360D02*
X35061520Y-31251360D01*
X35021520Y-43851360D02*
X35021520Y-31251360D01*
X34981520Y-43851360D02*
X34981520Y-31251360D01*
X34941520Y-43850360D02*
X34941520Y-31252360D01*
X34901520Y-43849360D02*
X34901520Y-31253360D01*
X34861520Y-43848360D02*
X34861520Y-31254360D01*
X34821520Y-43847360D02*
X34821520Y-31255360D01*
X34781520Y-43845360D02*
X34781520Y-31257360D01*
X34741520Y-43843360D02*
X34741520Y-31259360D01*
X34701520Y-43841360D02*
X34701520Y-31261360D01*
X34661520Y-43839360D02*
X34661520Y-31263360D01*
X34621520Y-43836360D02*
X34621520Y-31266360D01*
X34581520Y-43833360D02*
X34581520Y-31269360D01*
X34541520Y-43830360D02*
X34541520Y-31272360D01*
X34501520Y-43827360D02*
X34501520Y-31275360D01*
X34461520Y-43823360D02*
X34461520Y-31279360D01*
X34421520Y-43819360D02*
X34421520Y-31283360D01*
X34381520Y-43815360D02*
X34381520Y-31287360D01*
X34340520Y-43810360D02*
X34340520Y-31292360D01*
X34300520Y-43806360D02*
X34300520Y-31296360D01*
X34260520Y-43801360D02*
X34260520Y-31301360D01*
X34220520Y-43796360D02*
X34220520Y-31306360D01*
X34180520Y-43790360D02*
X34180520Y-31312360D01*
X34140520Y-43784360D02*
X34140520Y-31318360D01*
X34100520Y-43778360D02*
X34100520Y-31324360D01*
X34060520Y-43772360D02*
X34060520Y-31330360D01*
X34020520Y-43766360D02*
X34020520Y-31336360D01*
X33980520Y-43759360D02*
X33980520Y-31343360D01*
X33940520Y-43752360D02*
X33940520Y-38931360D01*
X33940520Y-36171360D02*
X33940520Y-31350360D01*
X33900520Y-43744360D02*
X33900520Y-38931360D01*
X33900520Y-36171360D02*
X33900520Y-31358360D01*
X33860520Y-43737360D02*
X33860520Y-38931360D01*
X33860520Y-36171360D02*
X33860520Y-31365360D01*
X33820520Y-43729360D02*
X33820520Y-38931360D01*
X33820520Y-36171360D02*
X33820520Y-31373360D01*
X33780520Y-43721360D02*
X33780520Y-38931360D01*
X33780520Y-36171360D02*
X33780520Y-31381360D01*
X33740520Y-43713360D02*
X33740520Y-38931360D01*
X33740520Y-36171360D02*
X33740520Y-31389360D01*
X33700520Y-43704360D02*
X33700520Y-38931360D01*
X33700520Y-36171360D02*
X33700520Y-31398360D01*
X33660520Y-43695360D02*
X33660520Y-38931360D01*
X33660520Y-36171360D02*
X33660520Y-31407360D01*
X33620520Y-43686360D02*
X33620520Y-38931360D01*
X33620520Y-36171360D02*
X33620520Y-31416360D01*
X33580520Y-43676360D02*
X33580520Y-38931360D01*
X33580520Y-36171360D02*
X33580520Y-31426360D01*
X33540520Y-43667360D02*
X33540520Y-38931360D01*
X33540520Y-36171360D02*
X33540520Y-31435360D01*
X33500520Y-43657360D02*
X33500520Y-38931360D01*
X33500520Y-36171360D02*
X33500520Y-31445360D01*
X33460520Y-43646360D02*
X33460520Y-38931360D01*
X33460520Y-36171360D02*
X33460520Y-31456360D01*
X33420520Y-43636360D02*
X33420520Y-38931360D01*
X33420520Y-36171360D02*
X33420520Y-31466360D01*
X33380520Y-43625360D02*
X33380520Y-38931360D01*
X33380520Y-36171360D02*
X33380520Y-31477360D01*
X33340520Y-43614360D02*
X33340520Y-38931360D01*
X33340520Y-36171360D02*
X33340520Y-31488360D01*
X33300520Y-43602360D02*
X33300520Y-38931360D01*
X33300520Y-36171360D02*
X33300520Y-31500360D01*
X33260520Y-43591360D02*
X33260520Y-38931360D01*
X33260520Y-36171360D02*
X33260520Y-31511360D01*
X33220520Y-43579360D02*
X33220520Y-38931360D01*
X33220520Y-36171360D02*
X33220520Y-31523360D01*
X33180520Y-43566360D02*
X33180520Y-38931360D01*
X33180520Y-36171360D02*
X33180520Y-31536360D01*
X33140520Y-43554360D02*
X33140520Y-38931360D01*
X33140520Y-36171360D02*
X33140520Y-31548360D01*
X33100520Y-43541360D02*
X33100520Y-38931360D01*
X33100520Y-36171360D02*
X33100520Y-31561360D01*
X33060520Y-43528360D02*
X33060520Y-38931360D01*
X33060520Y-36171360D02*
X33060520Y-31574360D01*
X33020520Y-43514360D02*
X33020520Y-38931360D01*
X33020520Y-36171360D02*
X33020520Y-31588360D01*
X32980520Y-43501360D02*
X32980520Y-38931360D01*
X32980520Y-36171360D02*
X32980520Y-31601360D01*
X32940520Y-43487360D02*
X32940520Y-38931360D01*
X32940520Y-36171360D02*
X32940520Y-31615360D01*
X32900520Y-43472360D02*
X32900520Y-38931360D01*
X32900520Y-36171360D02*
X32900520Y-31630360D01*
X32860520Y-43458360D02*
X32860520Y-38931360D01*
X32860520Y-36171360D02*
X32860520Y-31644360D01*
X32820520Y-43443360D02*
X32820520Y-38931360D01*
X32820520Y-36171360D02*
X32820520Y-31659360D01*
X32780520Y-43427360D02*
X32780520Y-38931360D01*
X32780520Y-36171360D02*
X32780520Y-31675360D01*
X32740520Y-43412360D02*
X32740520Y-38931360D01*
X32740520Y-36171360D02*
X32740520Y-31690360D01*
X32700520Y-43396360D02*
X32700520Y-38931360D01*
X32700520Y-36171360D02*
X32700520Y-31706360D01*
X32660520Y-43380360D02*
X32660520Y-38931360D01*
X32660520Y-36171360D02*
X32660520Y-31722360D01*
X32620520Y-43363360D02*
X32620520Y-38931360D01*
X32620520Y-36171360D02*
X32620520Y-31739360D01*
X32580520Y-43346360D02*
X32580520Y-38931360D01*
X32580520Y-36171360D02*
X32580520Y-31756360D01*
X32540520Y-43329360D02*
X32540520Y-38931360D01*
X32540520Y-36171360D02*
X32540520Y-31773360D01*
X32500520Y-43312360D02*
X32500520Y-38931360D01*
X32500520Y-36171360D02*
X32500520Y-31790360D01*
X32460520Y-43294360D02*
X32460520Y-38931360D01*
X32460520Y-36171360D02*
X32460520Y-31808360D01*
X32420520Y-43276360D02*
X32420520Y-38931360D01*
X32420520Y-36171360D02*
X32420520Y-31826360D01*
X32380520Y-43257360D02*
X32380520Y-38931360D01*
X32380520Y-36171360D02*
X32380520Y-31845360D01*
X32340520Y-43238360D02*
X32340520Y-38931360D01*
X32340520Y-36171360D02*
X32340520Y-31864360D01*
X32300520Y-43219360D02*
X32300520Y-38931360D01*
X32300520Y-36171360D02*
X32300520Y-31883360D01*
X32260520Y-43200360D02*
X32260520Y-38931360D01*
X32260520Y-36171360D02*
X32260520Y-31902360D01*
X32220520Y-43180360D02*
X32220520Y-38931360D01*
X32220520Y-36171360D02*
X32220520Y-31922360D01*
X32180520Y-43160360D02*
X32180520Y-38931360D01*
X32180520Y-36171360D02*
X32180520Y-31942360D01*
X32140520Y-43139360D02*
X32140520Y-38931360D01*
X32140520Y-36171360D02*
X32140520Y-31963360D01*
X32100520Y-43118360D02*
X32100520Y-38931360D01*
X32100520Y-36171360D02*
X32100520Y-31984360D01*
X32060520Y-43097360D02*
X32060520Y-38931360D01*
X32060520Y-36171360D02*
X32060520Y-32005360D01*
X32020520Y-43075360D02*
X32020520Y-38931360D01*
X32020520Y-36171360D02*
X32020520Y-32027360D01*
X31980520Y-43053360D02*
X31980520Y-38931360D01*
X31980520Y-36171360D02*
X31980520Y-32049360D01*
X31940520Y-43031360D02*
X31940520Y-38931360D01*
X31940520Y-36171360D02*
X31940520Y-32071360D01*
X31900520Y-43008360D02*
X31900520Y-38931360D01*
X31900520Y-36171360D02*
X31900520Y-32094360D01*
X31860520Y-42985360D02*
X31860520Y-38931360D01*
X31860520Y-36171360D02*
X31860520Y-32117360D01*
X31820520Y-42961360D02*
X31820520Y-38931360D01*
X31820520Y-36171360D02*
X31820520Y-32141360D01*
X31780520Y-42937360D02*
X31780520Y-38931360D01*
X31780520Y-36171360D02*
X31780520Y-32165360D01*
X31740520Y-42913360D02*
X31740520Y-38931360D01*
X31740520Y-36171360D02*
X31740520Y-32189360D01*
X31700520Y-42888360D02*
X31700520Y-38931360D01*
X31700520Y-36171360D02*
X31700520Y-32214360D01*
X31660520Y-42863360D02*
X31660520Y-38931360D01*
X31660520Y-36171360D02*
X31660520Y-32239360D01*
X31620520Y-42837360D02*
X31620520Y-38931360D01*
X31620520Y-36171360D02*
X31620520Y-32265360D01*
X31580520Y-42811360D02*
X31580520Y-38931360D01*
X31580520Y-36171360D02*
X31580520Y-32291360D01*
X31540520Y-42785360D02*
X31540520Y-38931360D01*
X31540520Y-36171360D02*
X31540520Y-32317360D01*
X31500520Y-42758360D02*
X31500520Y-38931360D01*
X31500520Y-36171360D02*
X31500520Y-32344360D01*
X31460520Y-42730360D02*
X31460520Y-38931360D01*
X31460520Y-36171360D02*
X31460520Y-32372360D01*
X31420520Y-42702360D02*
X31420520Y-38931360D01*
X31420520Y-36171360D02*
X31420520Y-32400360D01*
X31380520Y-42674360D02*
X31380520Y-38931360D01*
X31380520Y-36171360D02*
X31380520Y-32428360D01*
X31340520Y-42645360D02*
X31340520Y-38931360D01*
X31340520Y-36171360D02*
X31340520Y-32457360D01*
X31300520Y-42616360D02*
X31300520Y-38931360D01*
X31300520Y-36171360D02*
X31300520Y-32486360D01*
X31260520Y-42586360D02*
X31260520Y-38931360D01*
X31260520Y-36171360D02*
X31260520Y-32516360D01*
X31220520Y-42556360D02*
X31220520Y-38931360D01*
X31220520Y-36171360D02*
X31220520Y-32546360D01*
X31180520Y-42526360D02*
X31180520Y-32576360D01*
X31140520Y-42494360D02*
X31140520Y-32608360D01*
X31100520Y-42463360D02*
X31100520Y-32639360D01*
X31060520Y-42430360D02*
X31060520Y-32672360D01*
X31020520Y-42398360D02*
X31020520Y-32704360D01*
X30980520Y-42364360D02*
X30980520Y-32738360D01*
X30940520Y-42330360D02*
X30940520Y-32772360D01*
X30900520Y-42296360D02*
X30900520Y-32806360D01*
X30860520Y-42261360D02*
X30860520Y-32841360D01*
X30820520Y-42225360D02*
X30820520Y-32877360D01*
X30780520Y-42189360D02*
X30780520Y-32913360D01*
X30740520Y-42152360D02*
X30740520Y-32950360D01*
X30700520Y-42114360D02*
X30700520Y-32988360D01*
X30660520Y-42076360D02*
X30660520Y-33026360D01*
X30620520Y-42037360D02*
X30620520Y-33065360D01*
X30580520Y-41998360D02*
X30580520Y-33104360D01*
X30540520Y-41957360D02*
X30540520Y-33145360D01*
X30500520Y-41916360D02*
X30500520Y-33186360D01*
X30460520Y-41874360D02*
X30460520Y-33228360D01*
X30420520Y-41832360D02*
X30420520Y-33270360D01*
X30380520Y-41789360D02*
X30380520Y-33313360D01*
X30340520Y-41744360D02*
X30340520Y-33358360D01*
X30300520Y-41699360D02*
X30300520Y-33403360D01*
X30260520Y-41653360D02*
X30260520Y-33449360D01*
X30220520Y-41607360D02*
X30220520Y-33495360D01*
X30180520Y-41559360D02*
X30180520Y-33543360D01*
X30140520Y-41510360D02*
X30140520Y-33592360D01*
X30100520Y-41460360D02*
X30100520Y-33642360D01*
X30060520Y-41410360D02*
X30060520Y-33692360D01*
X30020520Y-41358360D02*
X30020520Y-33744360D01*
X29980520Y-41305360D02*
X29980520Y-33797360D01*
X29940520Y-41251360D02*
X29940520Y-33851360D01*
X29900520Y-41195360D02*
X29900520Y-33907360D01*
X29860520Y-41139360D02*
X29860520Y-33963360D01*
X29820520Y-41081360D02*
X29820520Y-34021360D01*
X29780520Y-41021360D02*
X29780520Y-34081360D01*
X29740520Y-40960360D02*
X29740520Y-34142360D01*
X29700520Y-40898360D02*
X29700520Y-34204360D01*
X29660520Y-40833360D02*
X29660520Y-34269360D01*
X29620520Y-40768360D02*
X29620520Y-34334360D01*
X29580520Y-40700360D02*
X29580520Y-34402360D01*
X29540520Y-40630360D02*
X29540520Y-34472360D01*
X29500520Y-40558360D02*
X29500520Y-34544360D01*
X29460520Y-40484360D02*
X29460520Y-34618360D01*
X29420520Y-40407360D02*
X29420520Y-34695360D01*
X29380520Y-40328360D02*
X29380520Y-34774360D01*
X29340520Y-40246360D02*
X29340520Y-34856360D01*
X29300520Y-40161360D02*
X29300520Y-34941360D01*
X29260520Y-40072360D02*
X29260520Y-35030360D01*
X29220520Y-39979360D02*
X29220520Y-35123360D01*
X29180520Y-39882360D02*
X29180520Y-35220360D01*
X29140520Y-39781360D02*
X29140520Y-35321360D01*
X29100520Y-39673360D02*
X29100520Y-35429360D01*
X29060520Y-39560360D02*
X29060520Y-35542360D01*
X29020520Y-39439360D02*
X29020520Y-35663360D01*
X28980520Y-39308360D02*
X28980520Y-35794360D01*
X28940520Y-39167360D02*
X28940520Y-35935360D01*
X28900520Y-39011360D02*
X28900520Y-36091360D01*
X28860520Y-38836360D02*
X28860520Y-36266360D01*
X28820520Y-38633360D02*
X28820520Y-36469360D01*
X28780520Y-38382360D02*
X28780520Y-36720360D01*
X28740520Y-38015360D02*
X28740520Y-37087360D01*
X40761520Y-37551360D02*
X38961520Y-37551360D01*
X39861520Y-38451360D02*
X39861520Y-36651360D01*
X60726000Y-36302000D02*
X60726000Y-48922000D01*
X55606000Y-36302000D02*
X55606000Y-48922000D01*
X60726000Y-36302000D02*
X55606000Y-36302000D01*
X60726000Y-48922000D02*
X55606000Y-48922000D01*
X74452000Y-67310000D02*
G75*
G03X74452000Y-67310000I-6340000J0D01*
G01*
X68112000Y-73610000D02*
X68112000Y-61010000D01*
X68072000Y-73610000D02*
X68072000Y-61010000D01*
X68032000Y-73610000D02*
X68032000Y-61010000D01*
X67992000Y-73609000D02*
X67992000Y-61011000D01*
X67952000Y-73608000D02*
X67952000Y-61012000D01*
X67912000Y-73607000D02*
X67912000Y-61013000D01*
X67872000Y-73606000D02*
X67872000Y-61014000D01*
X67832000Y-73604000D02*
X67832000Y-61016000D01*
X67792000Y-73602000D02*
X67792000Y-61018000D01*
X67752000Y-73600000D02*
X67752000Y-61020000D01*
X67712000Y-73598000D02*
X67712000Y-61022000D01*
X67672000Y-73595000D02*
X67672000Y-61025000D01*
X67632000Y-73592000D02*
X67632000Y-61028000D01*
X67592000Y-73589000D02*
X67592000Y-61031000D01*
X67552000Y-73586000D02*
X67552000Y-61034000D01*
X67512000Y-73582000D02*
X67512000Y-61038000D01*
X67472000Y-73578000D02*
X67472000Y-61042000D01*
X67432000Y-73574000D02*
X67432000Y-61046000D01*
X67391000Y-73569000D02*
X67391000Y-61051000D01*
X67351000Y-73565000D02*
X67351000Y-61055000D01*
X67311000Y-73560000D02*
X67311000Y-61060000D01*
X67271000Y-73555000D02*
X67271000Y-61065000D01*
X67231000Y-73549000D02*
X67231000Y-61071000D01*
X67191000Y-73543000D02*
X67191000Y-61077000D01*
X67151000Y-73537000D02*
X67151000Y-61083000D01*
X67111000Y-73531000D02*
X67111000Y-61089000D01*
X67071000Y-73525000D02*
X67071000Y-61095000D01*
X67031000Y-73518000D02*
X67031000Y-61102000D01*
X66991000Y-73511000D02*
X66991000Y-68690000D01*
X66991000Y-65930000D02*
X66991000Y-61109000D01*
X66951000Y-73503000D02*
X66951000Y-68690000D01*
X66951000Y-65930000D02*
X66951000Y-61117000D01*
X66911000Y-73496000D02*
X66911000Y-68690000D01*
X66911000Y-65930000D02*
X66911000Y-61124000D01*
X66871000Y-73488000D02*
X66871000Y-68690000D01*
X66871000Y-65930000D02*
X66871000Y-61132000D01*
X66831000Y-73480000D02*
X66831000Y-68690000D01*
X66831000Y-65930000D02*
X66831000Y-61140000D01*
X66791000Y-73472000D02*
X66791000Y-68690000D01*
X66791000Y-65930000D02*
X66791000Y-61148000D01*
X66751000Y-73463000D02*
X66751000Y-68690000D01*
X66751000Y-65930000D02*
X66751000Y-61157000D01*
X66711000Y-73454000D02*
X66711000Y-68690000D01*
X66711000Y-65930000D02*
X66711000Y-61166000D01*
X66671000Y-73445000D02*
X66671000Y-68690000D01*
X66671000Y-65930000D02*
X66671000Y-61175000D01*
X66631000Y-73435000D02*
X66631000Y-68690000D01*
X66631000Y-65930000D02*
X66631000Y-61185000D01*
X66591000Y-73426000D02*
X66591000Y-68690000D01*
X66591000Y-65930000D02*
X66591000Y-61194000D01*
X66551000Y-73416000D02*
X66551000Y-68690000D01*
X66551000Y-65930000D02*
X66551000Y-61204000D01*
X66511000Y-73405000D02*
X66511000Y-68690000D01*
X66511000Y-65930000D02*
X66511000Y-61215000D01*
X66471000Y-73395000D02*
X66471000Y-68690000D01*
X66471000Y-65930000D02*
X66471000Y-61225000D01*
X66431000Y-73384000D02*
X66431000Y-68690000D01*
X66431000Y-65930000D02*
X66431000Y-61236000D01*
X66391000Y-73373000D02*
X66391000Y-68690000D01*
X66391000Y-65930000D02*
X66391000Y-61247000D01*
X66351000Y-73361000D02*
X66351000Y-68690000D01*
X66351000Y-65930000D02*
X66351000Y-61259000D01*
X66311000Y-73350000D02*
X66311000Y-68690000D01*
X66311000Y-65930000D02*
X66311000Y-61270000D01*
X66271000Y-73338000D02*
X66271000Y-68690000D01*
X66271000Y-65930000D02*
X66271000Y-61282000D01*
X66231000Y-73325000D02*
X66231000Y-68690000D01*
X66231000Y-65930000D02*
X66231000Y-61295000D01*
X66191000Y-73313000D02*
X66191000Y-68690000D01*
X66191000Y-65930000D02*
X66191000Y-61307000D01*
X66151000Y-73300000D02*
X66151000Y-68690000D01*
X66151000Y-65930000D02*
X66151000Y-61320000D01*
X66111000Y-73287000D02*
X66111000Y-68690000D01*
X66111000Y-65930000D02*
X66111000Y-61333000D01*
X66071000Y-73273000D02*
X66071000Y-68690000D01*
X66071000Y-65930000D02*
X66071000Y-61347000D01*
X66031000Y-73260000D02*
X66031000Y-68690000D01*
X66031000Y-65930000D02*
X66031000Y-61360000D01*
X65991000Y-73246000D02*
X65991000Y-68690000D01*
X65991000Y-65930000D02*
X65991000Y-61374000D01*
X65951000Y-73231000D02*
X65951000Y-68690000D01*
X65951000Y-65930000D02*
X65951000Y-61389000D01*
X65911000Y-73217000D02*
X65911000Y-68690000D01*
X65911000Y-65930000D02*
X65911000Y-61403000D01*
X65871000Y-73202000D02*
X65871000Y-68690000D01*
X65871000Y-65930000D02*
X65871000Y-61418000D01*
X65831000Y-73186000D02*
X65831000Y-68690000D01*
X65831000Y-65930000D02*
X65831000Y-61434000D01*
X65791000Y-73171000D02*
X65791000Y-68690000D01*
X65791000Y-65930000D02*
X65791000Y-61449000D01*
X65751000Y-73155000D02*
X65751000Y-68690000D01*
X65751000Y-65930000D02*
X65751000Y-61465000D01*
X65711000Y-73139000D02*
X65711000Y-68690000D01*
X65711000Y-65930000D02*
X65711000Y-61481000D01*
X65671000Y-73122000D02*
X65671000Y-68690000D01*
X65671000Y-65930000D02*
X65671000Y-61498000D01*
X65631000Y-73105000D02*
X65631000Y-68690000D01*
X65631000Y-65930000D02*
X65631000Y-61515000D01*
X65591000Y-73088000D02*
X65591000Y-68690000D01*
X65591000Y-65930000D02*
X65591000Y-61532000D01*
X65551000Y-73071000D02*
X65551000Y-68690000D01*
X65551000Y-65930000D02*
X65551000Y-61549000D01*
X65511000Y-73053000D02*
X65511000Y-68690000D01*
X65511000Y-65930000D02*
X65511000Y-61567000D01*
X65471000Y-73035000D02*
X65471000Y-68690000D01*
X65471000Y-65930000D02*
X65471000Y-61585000D01*
X65431000Y-73016000D02*
X65431000Y-68690000D01*
X65431000Y-65930000D02*
X65431000Y-61604000D01*
X65391000Y-72997000D02*
X65391000Y-68690000D01*
X65391000Y-65930000D02*
X65391000Y-61623000D01*
X65351000Y-72978000D02*
X65351000Y-68690000D01*
X65351000Y-65930000D02*
X65351000Y-61642000D01*
X65311000Y-72959000D02*
X65311000Y-68690000D01*
X65311000Y-65930000D02*
X65311000Y-61661000D01*
X65271000Y-72939000D02*
X65271000Y-68690000D01*
X65271000Y-65930000D02*
X65271000Y-61681000D01*
X65231000Y-72919000D02*
X65231000Y-68690000D01*
X65231000Y-65930000D02*
X65231000Y-61701000D01*
X65191000Y-72898000D02*
X65191000Y-68690000D01*
X65191000Y-65930000D02*
X65191000Y-61722000D01*
X65151000Y-72877000D02*
X65151000Y-68690000D01*
X65151000Y-65930000D02*
X65151000Y-61743000D01*
X65111000Y-72856000D02*
X65111000Y-68690000D01*
X65111000Y-65930000D02*
X65111000Y-61764000D01*
X65071000Y-72834000D02*
X65071000Y-68690000D01*
X65071000Y-65930000D02*
X65071000Y-61786000D01*
X65031000Y-72812000D02*
X65031000Y-68690000D01*
X65031000Y-65930000D02*
X65031000Y-61808000D01*
X64991000Y-72790000D02*
X64991000Y-68690000D01*
X64991000Y-65930000D02*
X64991000Y-61830000D01*
X64951000Y-72767000D02*
X64951000Y-68690000D01*
X64951000Y-65930000D02*
X64951000Y-61853000D01*
X64911000Y-72744000D02*
X64911000Y-68690000D01*
X64911000Y-65930000D02*
X64911000Y-61876000D01*
X64871000Y-72720000D02*
X64871000Y-68690000D01*
X64871000Y-65930000D02*
X64871000Y-61900000D01*
X64831000Y-72696000D02*
X64831000Y-68690000D01*
X64831000Y-65930000D02*
X64831000Y-61924000D01*
X64791000Y-72672000D02*
X64791000Y-68690000D01*
X64791000Y-65930000D02*
X64791000Y-61948000D01*
X64751000Y-72647000D02*
X64751000Y-68690000D01*
X64751000Y-65930000D02*
X64751000Y-61973000D01*
X64711000Y-72622000D02*
X64711000Y-68690000D01*
X64711000Y-65930000D02*
X64711000Y-61998000D01*
X64671000Y-72596000D02*
X64671000Y-68690000D01*
X64671000Y-65930000D02*
X64671000Y-62024000D01*
X64631000Y-72570000D02*
X64631000Y-68690000D01*
X64631000Y-65930000D02*
X64631000Y-62050000D01*
X64591000Y-72544000D02*
X64591000Y-68690000D01*
X64591000Y-65930000D02*
X64591000Y-62076000D01*
X64551000Y-72517000D02*
X64551000Y-68690000D01*
X64551000Y-65930000D02*
X64551000Y-62103000D01*
X64511000Y-72489000D02*
X64511000Y-68690000D01*
X64511000Y-65930000D02*
X64511000Y-62131000D01*
X64471000Y-72461000D02*
X64471000Y-68690000D01*
X64471000Y-65930000D02*
X64471000Y-62159000D01*
X64431000Y-72433000D02*
X64431000Y-68690000D01*
X64431000Y-65930000D02*
X64431000Y-62187000D01*
X64391000Y-72404000D02*
X64391000Y-68690000D01*
X64391000Y-65930000D02*
X64391000Y-62216000D01*
X64351000Y-72375000D02*
X64351000Y-68690000D01*
X64351000Y-65930000D02*
X64351000Y-62245000D01*
X64311000Y-72345000D02*
X64311000Y-68690000D01*
X64311000Y-65930000D02*
X64311000Y-62275000D01*
X64271000Y-72315000D02*
X64271000Y-68690000D01*
X64271000Y-65930000D02*
X64271000Y-62305000D01*
X64231000Y-72285000D02*
X64231000Y-62335000D01*
X64191000Y-72253000D02*
X64191000Y-62367000D01*
X64151000Y-72222000D02*
X64151000Y-62398000D01*
X64111000Y-72189000D02*
X64111000Y-62431000D01*
X64071000Y-72157000D02*
X64071000Y-62463000D01*
X64031000Y-72123000D02*
X64031000Y-62497000D01*
X63991000Y-72089000D02*
X63991000Y-62531000D01*
X63951000Y-72055000D02*
X63951000Y-62565000D01*
X63911000Y-72020000D02*
X63911000Y-62600000D01*
X63871000Y-71984000D02*
X63871000Y-62636000D01*
X63831000Y-71948000D02*
X63831000Y-62672000D01*
X63791000Y-71911000D02*
X63791000Y-62709000D01*
X63751000Y-71873000D02*
X63751000Y-62747000D01*
X63711000Y-71835000D02*
X63711000Y-62785000D01*
X63671000Y-71796000D02*
X63671000Y-62824000D01*
X63631000Y-71757000D02*
X63631000Y-62863000D01*
X63591000Y-71716000D02*
X63591000Y-62904000D01*
X63551000Y-71675000D02*
X63551000Y-62945000D01*
X63511000Y-71633000D02*
X63511000Y-62987000D01*
X63471000Y-71591000D02*
X63471000Y-63029000D01*
X63431000Y-71548000D02*
X63431000Y-63072000D01*
X63391000Y-71503000D02*
X63391000Y-63117000D01*
X63351000Y-71458000D02*
X63351000Y-63162000D01*
X63311000Y-71412000D02*
X63311000Y-63208000D01*
X63271000Y-71366000D02*
X63271000Y-63254000D01*
X63231000Y-71318000D02*
X63231000Y-63302000D01*
X63191000Y-71269000D02*
X63191000Y-63351000D01*
X63151000Y-71219000D02*
X63151000Y-63401000D01*
X63111000Y-71169000D02*
X63111000Y-63451000D01*
X63071000Y-71117000D02*
X63071000Y-63503000D01*
X63031000Y-71064000D02*
X63031000Y-63556000D01*
X62991000Y-71010000D02*
X62991000Y-63610000D01*
X62951000Y-70954000D02*
X62951000Y-63666000D01*
X62911000Y-70898000D02*
X62911000Y-63722000D01*
X62871000Y-70840000D02*
X62871000Y-63780000D01*
X62831000Y-70780000D02*
X62831000Y-63840000D01*
X62791000Y-70719000D02*
X62791000Y-63901000D01*
X62751000Y-70657000D02*
X62751000Y-63963000D01*
X62711000Y-70592000D02*
X62711000Y-64028000D01*
X62671000Y-70527000D02*
X62671000Y-64093000D01*
X62631000Y-70459000D02*
X62631000Y-64161000D01*
X62591000Y-70389000D02*
X62591000Y-64231000D01*
X62551000Y-70317000D02*
X62551000Y-64303000D01*
X62511000Y-70243000D02*
X62511000Y-64377000D01*
X62471000Y-70166000D02*
X62471000Y-64454000D01*
X62431000Y-70087000D02*
X62431000Y-64533000D01*
X62391000Y-70005000D02*
X62391000Y-64615000D01*
X62351000Y-69920000D02*
X62351000Y-64700000D01*
X62311000Y-69831000D02*
X62311000Y-64789000D01*
X62271000Y-69738000D02*
X62271000Y-64882000D01*
X62231000Y-69641000D02*
X62231000Y-64979000D01*
X62191000Y-69540000D02*
X62191000Y-65080000D01*
X62151000Y-69432000D02*
X62151000Y-65188000D01*
X62111000Y-69319000D02*
X62111000Y-65301000D01*
X62071000Y-69198000D02*
X62071000Y-65422000D01*
X62031000Y-69067000D02*
X62031000Y-65553000D01*
X61991000Y-68926000D02*
X61991000Y-65694000D01*
X61951000Y-68770000D02*
X61951000Y-65850000D01*
X61911000Y-68595000D02*
X61911000Y-66025000D01*
X61871000Y-68392000D02*
X61871000Y-66228000D01*
X61831000Y-68141000D02*
X61831000Y-66479000D01*
X61791000Y-67774000D02*
X61791000Y-66846000D01*
X73812000Y-67310000D02*
X72012000Y-67310000D01*
X72912000Y-68210000D02*
X72912000Y-66410000D01*
X74666000Y-42632000D02*
G75*
G03X74666000Y-42632000I-6340000J0D01*
G01*
X74626000Y-42632000D02*
X62026000Y-42632000D01*
X74626000Y-42672000D02*
X62026000Y-42672000D01*
X74626000Y-42712000D02*
X62026000Y-42712000D01*
X74625000Y-42752000D02*
X62027000Y-42752000D01*
X74624000Y-42792000D02*
X62028000Y-42792000D01*
X74623000Y-42832000D02*
X62029000Y-42832000D01*
X74622000Y-42872000D02*
X62030000Y-42872000D01*
X74620000Y-42912000D02*
X62032000Y-42912000D01*
X74618000Y-42952000D02*
X62034000Y-42952000D01*
X74616000Y-42992000D02*
X62036000Y-42992000D01*
X74614000Y-43032000D02*
X62038000Y-43032000D01*
X74611000Y-43072000D02*
X62041000Y-43072000D01*
X74608000Y-43112000D02*
X62044000Y-43112000D01*
X74605000Y-43152000D02*
X62047000Y-43152000D01*
X74602000Y-43192000D02*
X62050000Y-43192000D01*
X74598000Y-43232000D02*
X62054000Y-43232000D01*
X74594000Y-43272000D02*
X62058000Y-43272000D01*
X74590000Y-43312000D02*
X62062000Y-43312000D01*
X74585000Y-43353000D02*
X62067000Y-43353000D01*
X74581000Y-43393000D02*
X62071000Y-43393000D01*
X74576000Y-43433000D02*
X62076000Y-43433000D01*
X74571000Y-43473000D02*
X62081000Y-43473000D01*
X74565000Y-43513000D02*
X62087000Y-43513000D01*
X74559000Y-43553000D02*
X62093000Y-43553000D01*
X74553000Y-43593000D02*
X62099000Y-43593000D01*
X74547000Y-43633000D02*
X62105000Y-43633000D01*
X74541000Y-43673000D02*
X62111000Y-43673000D01*
X74534000Y-43713000D02*
X62118000Y-43713000D01*
X74527000Y-43753000D02*
X69706000Y-43753000D01*
X66946000Y-43753000D02*
X62125000Y-43753000D01*
X74519000Y-43793000D02*
X69706000Y-43793000D01*
X66946000Y-43793000D02*
X62133000Y-43793000D01*
X74512000Y-43833000D02*
X69706000Y-43833000D01*
X66946000Y-43833000D02*
X62140000Y-43833000D01*
X74504000Y-43873000D02*
X69706000Y-43873000D01*
X66946000Y-43873000D02*
X62148000Y-43873000D01*
X74496000Y-43913000D02*
X69706000Y-43913000D01*
X66946000Y-43913000D02*
X62156000Y-43913000D01*
X74488000Y-43953000D02*
X69706000Y-43953000D01*
X66946000Y-43953000D02*
X62164000Y-43953000D01*
X74479000Y-43993000D02*
X69706000Y-43993000D01*
X66946000Y-43993000D02*
X62173000Y-43993000D01*
X74470000Y-44033000D02*
X69706000Y-44033000D01*
X66946000Y-44033000D02*
X62182000Y-44033000D01*
X74461000Y-44073000D02*
X69706000Y-44073000D01*
X66946000Y-44073000D02*
X62191000Y-44073000D01*
X74451000Y-44113000D02*
X69706000Y-44113000D01*
X66946000Y-44113000D02*
X62201000Y-44113000D01*
X74442000Y-44153000D02*
X69706000Y-44153000D01*
X66946000Y-44153000D02*
X62210000Y-44153000D01*
X74432000Y-44193000D02*
X69706000Y-44193000D01*
X66946000Y-44193000D02*
X62220000Y-44193000D01*
X74421000Y-44233000D02*
X69706000Y-44233000D01*
X66946000Y-44233000D02*
X62231000Y-44233000D01*
X74411000Y-44273000D02*
X69706000Y-44273000D01*
X66946000Y-44273000D02*
X62241000Y-44273000D01*
X74400000Y-44313000D02*
X69706000Y-44313000D01*
X66946000Y-44313000D02*
X62252000Y-44313000D01*
X74389000Y-44353000D02*
X69706000Y-44353000D01*
X66946000Y-44353000D02*
X62263000Y-44353000D01*
X74377000Y-44393000D02*
X69706000Y-44393000D01*
X66946000Y-44393000D02*
X62275000Y-44393000D01*
X74366000Y-44433000D02*
X69706000Y-44433000D01*
X66946000Y-44433000D02*
X62286000Y-44433000D01*
X74354000Y-44473000D02*
X69706000Y-44473000D01*
X66946000Y-44473000D02*
X62298000Y-44473000D01*
X74341000Y-44513000D02*
X69706000Y-44513000D01*
X66946000Y-44513000D02*
X62311000Y-44513000D01*
X74329000Y-44553000D02*
X69706000Y-44553000D01*
X66946000Y-44553000D02*
X62323000Y-44553000D01*
X74316000Y-44593000D02*
X69706000Y-44593000D01*
X66946000Y-44593000D02*
X62336000Y-44593000D01*
X74303000Y-44633000D02*
X69706000Y-44633000D01*
X66946000Y-44633000D02*
X62349000Y-44633000D01*
X74289000Y-44673000D02*
X69706000Y-44673000D01*
X66946000Y-44673000D02*
X62363000Y-44673000D01*
X74276000Y-44713000D02*
X69706000Y-44713000D01*
X66946000Y-44713000D02*
X62376000Y-44713000D01*
X74262000Y-44753000D02*
X69706000Y-44753000D01*
X66946000Y-44753000D02*
X62390000Y-44753000D01*
X74247000Y-44793000D02*
X69706000Y-44793000D01*
X66946000Y-44793000D02*
X62405000Y-44793000D01*
X74233000Y-44833000D02*
X69706000Y-44833000D01*
X66946000Y-44833000D02*
X62419000Y-44833000D01*
X74218000Y-44873000D02*
X69706000Y-44873000D01*
X66946000Y-44873000D02*
X62434000Y-44873000D01*
X74202000Y-44913000D02*
X69706000Y-44913000D01*
X66946000Y-44913000D02*
X62450000Y-44913000D01*
X74187000Y-44953000D02*
X69706000Y-44953000D01*
X66946000Y-44953000D02*
X62465000Y-44953000D01*
X74171000Y-44993000D02*
X69706000Y-44993000D01*
X66946000Y-44993000D02*
X62481000Y-44993000D01*
X74155000Y-45033000D02*
X69706000Y-45033000D01*
X66946000Y-45033000D02*
X62497000Y-45033000D01*
X74138000Y-45073000D02*
X69706000Y-45073000D01*
X66946000Y-45073000D02*
X62514000Y-45073000D01*
X74121000Y-45113000D02*
X69706000Y-45113000D01*
X66946000Y-45113000D02*
X62531000Y-45113000D01*
X74104000Y-45153000D02*
X69706000Y-45153000D01*
X66946000Y-45153000D02*
X62548000Y-45153000D01*
X74087000Y-45193000D02*
X69706000Y-45193000D01*
X66946000Y-45193000D02*
X62565000Y-45193000D01*
X74069000Y-45233000D02*
X69706000Y-45233000D01*
X66946000Y-45233000D02*
X62583000Y-45233000D01*
X74051000Y-45273000D02*
X69706000Y-45273000D01*
X66946000Y-45273000D02*
X62601000Y-45273000D01*
X74032000Y-45313000D02*
X69706000Y-45313000D01*
X66946000Y-45313000D02*
X62620000Y-45313000D01*
X74013000Y-45353000D02*
X69706000Y-45353000D01*
X66946000Y-45353000D02*
X62639000Y-45353000D01*
X73994000Y-45393000D02*
X69706000Y-45393000D01*
X66946000Y-45393000D02*
X62658000Y-45393000D01*
X73975000Y-45433000D02*
X69706000Y-45433000D01*
X66946000Y-45433000D02*
X62677000Y-45433000D01*
X73955000Y-45473000D02*
X69706000Y-45473000D01*
X66946000Y-45473000D02*
X62697000Y-45473000D01*
X73935000Y-45513000D02*
X69706000Y-45513000D01*
X66946000Y-45513000D02*
X62717000Y-45513000D01*
X73914000Y-45553000D02*
X69706000Y-45553000D01*
X66946000Y-45553000D02*
X62738000Y-45553000D01*
X73893000Y-45593000D02*
X69706000Y-45593000D01*
X66946000Y-45593000D02*
X62759000Y-45593000D01*
X73872000Y-45633000D02*
X69706000Y-45633000D01*
X66946000Y-45633000D02*
X62780000Y-45633000D01*
X73850000Y-45673000D02*
X69706000Y-45673000D01*
X66946000Y-45673000D02*
X62802000Y-45673000D01*
X73828000Y-45713000D02*
X69706000Y-45713000D01*
X66946000Y-45713000D02*
X62824000Y-45713000D01*
X73806000Y-45753000D02*
X69706000Y-45753000D01*
X66946000Y-45753000D02*
X62846000Y-45753000D01*
X73783000Y-45793000D02*
X69706000Y-45793000D01*
X66946000Y-45793000D02*
X62869000Y-45793000D01*
X73760000Y-45833000D02*
X69706000Y-45833000D01*
X66946000Y-45833000D02*
X62892000Y-45833000D01*
X73736000Y-45873000D02*
X69706000Y-45873000D01*
X66946000Y-45873000D02*
X62916000Y-45873000D01*
X73712000Y-45913000D02*
X69706000Y-45913000D01*
X66946000Y-45913000D02*
X62940000Y-45913000D01*
X73688000Y-45953000D02*
X69706000Y-45953000D01*
X66946000Y-45953000D02*
X62964000Y-45953000D01*
X73663000Y-45993000D02*
X69706000Y-45993000D01*
X66946000Y-45993000D02*
X62989000Y-45993000D01*
X73638000Y-46033000D02*
X69706000Y-46033000D01*
X66946000Y-46033000D02*
X63014000Y-46033000D01*
X73612000Y-46073000D02*
X69706000Y-46073000D01*
X66946000Y-46073000D02*
X63040000Y-46073000D01*
X73586000Y-46113000D02*
X69706000Y-46113000D01*
X66946000Y-46113000D02*
X63066000Y-46113000D01*
X73560000Y-46153000D02*
X69706000Y-46153000D01*
X66946000Y-46153000D02*
X63092000Y-46153000D01*
X73533000Y-46193000D02*
X69706000Y-46193000D01*
X66946000Y-46193000D02*
X63119000Y-46193000D01*
X73505000Y-46233000D02*
X69706000Y-46233000D01*
X66946000Y-46233000D02*
X63147000Y-46233000D01*
X73477000Y-46273000D02*
X69706000Y-46273000D01*
X66946000Y-46273000D02*
X63175000Y-46273000D01*
X73449000Y-46313000D02*
X69706000Y-46313000D01*
X66946000Y-46313000D02*
X63203000Y-46313000D01*
X73420000Y-46353000D02*
X69706000Y-46353000D01*
X66946000Y-46353000D02*
X63232000Y-46353000D01*
X73391000Y-46393000D02*
X69706000Y-46393000D01*
X66946000Y-46393000D02*
X63261000Y-46393000D01*
X73361000Y-46433000D02*
X69706000Y-46433000D01*
X66946000Y-46433000D02*
X63291000Y-46433000D01*
X73331000Y-46473000D02*
X69706000Y-46473000D01*
X66946000Y-46473000D02*
X63321000Y-46473000D01*
X73301000Y-46513000D02*
X63351000Y-46513000D01*
X73269000Y-46553000D02*
X63383000Y-46553000D01*
X73238000Y-46593000D02*
X63414000Y-46593000D01*
X73205000Y-46633000D02*
X63447000Y-46633000D01*
X73173000Y-46673000D02*
X63479000Y-46673000D01*
X73139000Y-46713000D02*
X63513000Y-46713000D01*
X73105000Y-46753000D02*
X63547000Y-46753000D01*
X73071000Y-46793000D02*
X63581000Y-46793000D01*
X73036000Y-46833000D02*
X63616000Y-46833000D01*
X73000000Y-46873000D02*
X63652000Y-46873000D01*
X72964000Y-46913000D02*
X63688000Y-46913000D01*
X72927000Y-46953000D02*
X63725000Y-46953000D01*
X72889000Y-46993000D02*
X63763000Y-46993000D01*
X72851000Y-47033000D02*
X63801000Y-47033000D01*
X72812000Y-47073000D02*
X63840000Y-47073000D01*
X72773000Y-47113000D02*
X63879000Y-47113000D01*
X72732000Y-47153000D02*
X63920000Y-47153000D01*
X72691000Y-47193000D02*
X63961000Y-47193000D01*
X72649000Y-47233000D02*
X64003000Y-47233000D01*
X72607000Y-47273000D02*
X64045000Y-47273000D01*
X72564000Y-47313000D02*
X64088000Y-47313000D01*
X72519000Y-47353000D02*
X64133000Y-47353000D01*
X72474000Y-47393000D02*
X64178000Y-47393000D01*
X72428000Y-47433000D02*
X64224000Y-47433000D01*
X72382000Y-47473000D02*
X64270000Y-47473000D01*
X72334000Y-47513000D02*
X64318000Y-47513000D01*
X72285000Y-47553000D02*
X64367000Y-47553000D01*
X72235000Y-47593000D02*
X64417000Y-47593000D01*
X72185000Y-47633000D02*
X64467000Y-47633000D01*
X72133000Y-47673000D02*
X64519000Y-47673000D01*
X72080000Y-47713000D02*
X64572000Y-47713000D01*
X72026000Y-47753000D02*
X64626000Y-47753000D01*
X71970000Y-47793000D02*
X64682000Y-47793000D01*
X71914000Y-47833000D02*
X64738000Y-47833000D01*
X71856000Y-47873000D02*
X64796000Y-47873000D01*
X71796000Y-47913000D02*
X64856000Y-47913000D01*
X71735000Y-47953000D02*
X64917000Y-47953000D01*
X71673000Y-47993000D02*
X64979000Y-47993000D01*
X71608000Y-48033000D02*
X65044000Y-48033000D01*
X71543000Y-48073000D02*
X65109000Y-48073000D01*
X71475000Y-48113000D02*
X65177000Y-48113000D01*
X71405000Y-48153000D02*
X65247000Y-48153000D01*
X71333000Y-48193000D02*
X65319000Y-48193000D01*
X71259000Y-48233000D02*
X65393000Y-48233000D01*
X71182000Y-48273000D02*
X65470000Y-48273000D01*
X71103000Y-48313000D02*
X65549000Y-48313000D01*
X71021000Y-48353000D02*
X65631000Y-48353000D01*
X70936000Y-48393000D02*
X65716000Y-48393000D01*
X70847000Y-48433000D02*
X65805000Y-48433000D01*
X70754000Y-48473000D02*
X65898000Y-48473000D01*
X70657000Y-48513000D02*
X65995000Y-48513000D01*
X70556000Y-48553000D02*
X66096000Y-48553000D01*
X70448000Y-48593000D02*
X66204000Y-48593000D01*
X70335000Y-48633000D02*
X66317000Y-48633000D01*
X70214000Y-48673000D02*
X66438000Y-48673000D01*
X70083000Y-48713000D02*
X66569000Y-48713000D01*
X69942000Y-48753000D02*
X66710000Y-48753000D01*
X69786000Y-48793000D02*
X66866000Y-48793000D01*
X69611000Y-48833000D02*
X67041000Y-48833000D01*
X69408000Y-48873000D02*
X67244000Y-48873000D01*
X69157000Y-48913000D02*
X67495000Y-48913000D01*
X68790000Y-48953000D02*
X67862000Y-48953000D01*
X68326000Y-36932000D02*
X68326000Y-38732000D01*
X69226000Y-37832000D02*
X67426000Y-37832000D01*
X56592000Y-22352000D02*
G75*
G03X56592000Y-22352000I-6340000J0D01*
G01*
X50252000Y-16052000D02*
X50252000Y-28652000D01*
X50292000Y-16052000D02*
X50292000Y-28652000D01*
X50332000Y-16052000D02*
X50332000Y-28652000D01*
X50372000Y-16053000D02*
X50372000Y-28651000D01*
X50412000Y-16054000D02*
X50412000Y-28650000D01*
X50452000Y-16055000D02*
X50452000Y-28649000D01*
X50492000Y-16056000D02*
X50492000Y-28648000D01*
X50532000Y-16058000D02*
X50532000Y-28646000D01*
X50572000Y-16060000D02*
X50572000Y-28644000D01*
X50612000Y-16062000D02*
X50612000Y-28642000D01*
X50652000Y-16064000D02*
X50652000Y-28640000D01*
X50692000Y-16067000D02*
X50692000Y-28637000D01*
X50732000Y-16070000D02*
X50732000Y-28634000D01*
X50772000Y-16073000D02*
X50772000Y-28631000D01*
X50812000Y-16076000D02*
X50812000Y-28628000D01*
X50852000Y-16080000D02*
X50852000Y-28624000D01*
X50892000Y-16084000D02*
X50892000Y-28620000D01*
X50932000Y-16088000D02*
X50932000Y-28616000D01*
X50973000Y-16093000D02*
X50973000Y-28611000D01*
X51013000Y-16097000D02*
X51013000Y-28607000D01*
X51053000Y-16102000D02*
X51053000Y-28602000D01*
X51093000Y-16107000D02*
X51093000Y-28597000D01*
X51133000Y-16113000D02*
X51133000Y-28591000D01*
X51173000Y-16119000D02*
X51173000Y-28585000D01*
X51213000Y-16125000D02*
X51213000Y-28579000D01*
X51253000Y-16131000D02*
X51253000Y-28573000D01*
X51293000Y-16137000D02*
X51293000Y-28567000D01*
X51333000Y-16144000D02*
X51333000Y-28560000D01*
X51373000Y-16151000D02*
X51373000Y-20972000D01*
X51373000Y-23732000D02*
X51373000Y-28553000D01*
X51413000Y-16159000D02*
X51413000Y-20972000D01*
X51413000Y-23732000D02*
X51413000Y-28545000D01*
X51453000Y-16166000D02*
X51453000Y-20972000D01*
X51453000Y-23732000D02*
X51453000Y-28538000D01*
X51493000Y-16174000D02*
X51493000Y-20972000D01*
X51493000Y-23732000D02*
X51493000Y-28530000D01*
X51533000Y-16182000D02*
X51533000Y-20972000D01*
X51533000Y-23732000D02*
X51533000Y-28522000D01*
X51573000Y-16190000D02*
X51573000Y-20972000D01*
X51573000Y-23732000D02*
X51573000Y-28514000D01*
X51613000Y-16199000D02*
X51613000Y-20972000D01*
X51613000Y-23732000D02*
X51613000Y-28505000D01*
X51653000Y-16208000D02*
X51653000Y-20972000D01*
X51653000Y-23732000D02*
X51653000Y-28496000D01*
X51693000Y-16217000D02*
X51693000Y-20972000D01*
X51693000Y-23732000D02*
X51693000Y-28487000D01*
X51733000Y-16227000D02*
X51733000Y-20972000D01*
X51733000Y-23732000D02*
X51733000Y-28477000D01*
X51773000Y-16236000D02*
X51773000Y-20972000D01*
X51773000Y-23732000D02*
X51773000Y-28468000D01*
X51813000Y-16246000D02*
X51813000Y-20972000D01*
X51813000Y-23732000D02*
X51813000Y-28458000D01*
X51853000Y-16257000D02*
X51853000Y-20972000D01*
X51853000Y-23732000D02*
X51853000Y-28447000D01*
X51893000Y-16267000D02*
X51893000Y-20972000D01*
X51893000Y-23732000D02*
X51893000Y-28437000D01*
X51933000Y-16278000D02*
X51933000Y-20972000D01*
X51933000Y-23732000D02*
X51933000Y-28426000D01*
X51973000Y-16289000D02*
X51973000Y-20972000D01*
X51973000Y-23732000D02*
X51973000Y-28415000D01*
X52013000Y-16301000D02*
X52013000Y-20972000D01*
X52013000Y-23732000D02*
X52013000Y-28403000D01*
X52053000Y-16312000D02*
X52053000Y-20972000D01*
X52053000Y-23732000D02*
X52053000Y-28392000D01*
X52093000Y-16324000D02*
X52093000Y-20972000D01*
X52093000Y-23732000D02*
X52093000Y-28380000D01*
X52133000Y-16337000D02*
X52133000Y-20972000D01*
X52133000Y-23732000D02*
X52133000Y-28367000D01*
X52173000Y-16349000D02*
X52173000Y-20972000D01*
X52173000Y-23732000D02*
X52173000Y-28355000D01*
X52213000Y-16362000D02*
X52213000Y-20972000D01*
X52213000Y-23732000D02*
X52213000Y-28342000D01*
X52253000Y-16375000D02*
X52253000Y-20972000D01*
X52253000Y-23732000D02*
X52253000Y-28329000D01*
X52293000Y-16389000D02*
X52293000Y-20972000D01*
X52293000Y-23732000D02*
X52293000Y-28315000D01*
X52333000Y-16402000D02*
X52333000Y-20972000D01*
X52333000Y-23732000D02*
X52333000Y-28302000D01*
X52373000Y-16416000D02*
X52373000Y-20972000D01*
X52373000Y-23732000D02*
X52373000Y-28288000D01*
X52413000Y-16431000D02*
X52413000Y-20972000D01*
X52413000Y-23732000D02*
X52413000Y-28273000D01*
X52453000Y-16445000D02*
X52453000Y-20972000D01*
X52453000Y-23732000D02*
X52453000Y-28259000D01*
X52493000Y-16460000D02*
X52493000Y-20972000D01*
X52493000Y-23732000D02*
X52493000Y-28244000D01*
X52533000Y-16476000D02*
X52533000Y-20972000D01*
X52533000Y-23732000D02*
X52533000Y-28228000D01*
X52573000Y-16491000D02*
X52573000Y-20972000D01*
X52573000Y-23732000D02*
X52573000Y-28213000D01*
X52613000Y-16507000D02*
X52613000Y-20972000D01*
X52613000Y-23732000D02*
X52613000Y-28197000D01*
X52653000Y-16523000D02*
X52653000Y-20972000D01*
X52653000Y-23732000D02*
X52653000Y-28181000D01*
X52693000Y-16540000D02*
X52693000Y-20972000D01*
X52693000Y-23732000D02*
X52693000Y-28164000D01*
X52733000Y-16557000D02*
X52733000Y-20972000D01*
X52733000Y-23732000D02*
X52733000Y-28147000D01*
X52773000Y-16574000D02*
X52773000Y-20972000D01*
X52773000Y-23732000D02*
X52773000Y-28130000D01*
X52813000Y-16591000D02*
X52813000Y-20972000D01*
X52813000Y-23732000D02*
X52813000Y-28113000D01*
X52853000Y-16609000D02*
X52853000Y-20972000D01*
X52853000Y-23732000D02*
X52853000Y-28095000D01*
X52893000Y-16627000D02*
X52893000Y-20972000D01*
X52893000Y-23732000D02*
X52893000Y-28077000D01*
X52933000Y-16646000D02*
X52933000Y-20972000D01*
X52933000Y-23732000D02*
X52933000Y-28058000D01*
X52973000Y-16665000D02*
X52973000Y-20972000D01*
X52973000Y-23732000D02*
X52973000Y-28039000D01*
X53013000Y-16684000D02*
X53013000Y-20972000D01*
X53013000Y-23732000D02*
X53013000Y-28020000D01*
X53053000Y-16703000D02*
X53053000Y-20972000D01*
X53053000Y-23732000D02*
X53053000Y-28001000D01*
X53093000Y-16723000D02*
X53093000Y-20972000D01*
X53093000Y-23732000D02*
X53093000Y-27981000D01*
X53133000Y-16743000D02*
X53133000Y-20972000D01*
X53133000Y-23732000D02*
X53133000Y-27961000D01*
X53173000Y-16764000D02*
X53173000Y-20972000D01*
X53173000Y-23732000D02*
X53173000Y-27940000D01*
X53213000Y-16785000D02*
X53213000Y-20972000D01*
X53213000Y-23732000D02*
X53213000Y-27919000D01*
X53253000Y-16806000D02*
X53253000Y-20972000D01*
X53253000Y-23732000D02*
X53253000Y-27898000D01*
X53293000Y-16828000D02*
X53293000Y-20972000D01*
X53293000Y-23732000D02*
X53293000Y-27876000D01*
X53333000Y-16850000D02*
X53333000Y-20972000D01*
X53333000Y-23732000D02*
X53333000Y-27854000D01*
X53373000Y-16872000D02*
X53373000Y-20972000D01*
X53373000Y-23732000D02*
X53373000Y-27832000D01*
X53413000Y-16895000D02*
X53413000Y-20972000D01*
X53413000Y-23732000D02*
X53413000Y-27809000D01*
X53453000Y-16918000D02*
X53453000Y-20972000D01*
X53453000Y-23732000D02*
X53453000Y-27786000D01*
X53493000Y-16942000D02*
X53493000Y-20972000D01*
X53493000Y-23732000D02*
X53493000Y-27762000D01*
X53533000Y-16966000D02*
X53533000Y-20972000D01*
X53533000Y-23732000D02*
X53533000Y-27738000D01*
X53573000Y-16990000D02*
X53573000Y-20972000D01*
X53573000Y-23732000D02*
X53573000Y-27714000D01*
X53613000Y-17015000D02*
X53613000Y-20972000D01*
X53613000Y-23732000D02*
X53613000Y-27689000D01*
X53653000Y-17040000D02*
X53653000Y-20972000D01*
X53653000Y-23732000D02*
X53653000Y-27664000D01*
X53693000Y-17066000D02*
X53693000Y-20972000D01*
X53693000Y-23732000D02*
X53693000Y-27638000D01*
X53733000Y-17092000D02*
X53733000Y-20972000D01*
X53733000Y-23732000D02*
X53733000Y-27612000D01*
X53773000Y-17118000D02*
X53773000Y-20972000D01*
X53773000Y-23732000D02*
X53773000Y-27586000D01*
X53813000Y-17145000D02*
X53813000Y-20972000D01*
X53813000Y-23732000D02*
X53813000Y-27559000D01*
X53853000Y-17173000D02*
X53853000Y-20972000D01*
X53853000Y-23732000D02*
X53853000Y-27531000D01*
X53893000Y-17201000D02*
X53893000Y-20972000D01*
X53893000Y-23732000D02*
X53893000Y-27503000D01*
X53933000Y-17229000D02*
X53933000Y-20972000D01*
X53933000Y-23732000D02*
X53933000Y-27475000D01*
X53973000Y-17258000D02*
X53973000Y-20972000D01*
X53973000Y-23732000D02*
X53973000Y-27446000D01*
X54013000Y-17287000D02*
X54013000Y-20972000D01*
X54013000Y-23732000D02*
X54013000Y-27417000D01*
X54053000Y-17317000D02*
X54053000Y-20972000D01*
X54053000Y-23732000D02*
X54053000Y-27387000D01*
X54093000Y-17347000D02*
X54093000Y-20972000D01*
X54093000Y-23732000D02*
X54093000Y-27357000D01*
X54133000Y-17377000D02*
X54133000Y-27327000D01*
X54173000Y-17409000D02*
X54173000Y-27295000D01*
X54213000Y-17440000D02*
X54213000Y-27264000D01*
X54253000Y-17473000D02*
X54253000Y-27231000D01*
X54293000Y-17505000D02*
X54293000Y-27199000D01*
X54333000Y-17539000D02*
X54333000Y-27165000D01*
X54373000Y-17573000D02*
X54373000Y-27131000D01*
X54413000Y-17607000D02*
X54413000Y-27097000D01*
X54453000Y-17642000D02*
X54453000Y-27062000D01*
X54493000Y-17678000D02*
X54493000Y-27026000D01*
X54533000Y-17714000D02*
X54533000Y-26990000D01*
X54573000Y-17751000D02*
X54573000Y-26953000D01*
X54613000Y-17789000D02*
X54613000Y-26915000D01*
X54653000Y-17827000D02*
X54653000Y-26877000D01*
X54693000Y-17866000D02*
X54693000Y-26838000D01*
X54733000Y-17905000D02*
X54733000Y-26799000D01*
X54773000Y-17946000D02*
X54773000Y-26758000D01*
X54813000Y-17987000D02*
X54813000Y-26717000D01*
X54853000Y-18029000D02*
X54853000Y-26675000D01*
X54893000Y-18071000D02*
X54893000Y-26633000D01*
X54933000Y-18114000D02*
X54933000Y-26590000D01*
X54973000Y-18159000D02*
X54973000Y-26545000D01*
X55013000Y-18204000D02*
X55013000Y-26500000D01*
X55053000Y-18250000D02*
X55053000Y-26454000D01*
X55093000Y-18296000D02*
X55093000Y-26408000D01*
X55133000Y-18344000D02*
X55133000Y-26360000D01*
X55173000Y-18393000D02*
X55173000Y-26311000D01*
X55213000Y-18443000D02*
X55213000Y-26261000D01*
X55253000Y-18493000D02*
X55253000Y-26211000D01*
X55293000Y-18545000D02*
X55293000Y-26159000D01*
X55333000Y-18598000D02*
X55333000Y-26106000D01*
X55373000Y-18652000D02*
X55373000Y-26052000D01*
X55413000Y-18708000D02*
X55413000Y-25996000D01*
X55453000Y-18764000D02*
X55453000Y-25940000D01*
X55493000Y-18822000D02*
X55493000Y-25882000D01*
X55533000Y-18882000D02*
X55533000Y-25822000D01*
X55573000Y-18943000D02*
X55573000Y-25761000D01*
X55613000Y-19005000D02*
X55613000Y-25699000D01*
X55653000Y-19070000D02*
X55653000Y-25634000D01*
X55693000Y-19135000D02*
X55693000Y-25569000D01*
X55733000Y-19203000D02*
X55733000Y-25501000D01*
X55773000Y-19273000D02*
X55773000Y-25431000D01*
X55813000Y-19345000D02*
X55813000Y-25359000D01*
X55853000Y-19419000D02*
X55853000Y-25285000D01*
X55893000Y-19496000D02*
X55893000Y-25208000D01*
X55933000Y-19575000D02*
X55933000Y-25129000D01*
X55973000Y-19657000D02*
X55973000Y-25047000D01*
X56013000Y-19742000D02*
X56013000Y-24962000D01*
X56053000Y-19831000D02*
X56053000Y-24873000D01*
X56093000Y-19924000D02*
X56093000Y-24780000D01*
X56133000Y-20021000D02*
X56133000Y-24683000D01*
X56173000Y-20122000D02*
X56173000Y-24582000D01*
X56213000Y-20230000D02*
X56213000Y-24474000D01*
X56253000Y-20343000D02*
X56253000Y-24361000D01*
X56293000Y-20464000D02*
X56293000Y-24240000D01*
X56333000Y-20595000D02*
X56333000Y-24109000D01*
X56373000Y-20736000D02*
X56373000Y-23968000D01*
X56413000Y-20892000D02*
X56413000Y-23812000D01*
X56453000Y-21067000D02*
X56453000Y-23637000D01*
X56493000Y-21270000D02*
X56493000Y-23434000D01*
X56533000Y-21521000D02*
X56533000Y-23183000D01*
X56573000Y-21888000D02*
X56573000Y-22816000D01*
X44552000Y-22352000D02*
X46352000Y-22352000D01*
X45452000Y-21452000D02*
X45452000Y-23252000D01*
X99564840Y-36930840D02*
X104884840Y-36930840D01*
X104884840Y-36930840D02*
X104884840Y-27310840D01*
X104884840Y-27310840D02*
X99564840Y-27310840D01*
X99564840Y-27310840D02*
X99564840Y-36930840D01*
X102224840Y-37960840D02*
X102224840Y-36930840D01*
X102224840Y-26280840D02*
X102224840Y-27310840D01*
X99564840Y-35445840D02*
X104884840Y-35445840D01*
X89900000Y-89020000D02*
X89900000Y-83700000D01*
X89900000Y-83700000D02*
X80280000Y-83700000D01*
X80280000Y-83700000D02*
X80280000Y-89020000D01*
X80280000Y-89020000D02*
X89900000Y-89020000D01*
X90930000Y-86360000D02*
X89900000Y-86360000D01*
X79250000Y-86360000D02*
X80280000Y-86360000D01*
X88415000Y-89020000D02*
X88415000Y-83700000D01*
X65906000Y-30112000D02*
X65906000Y-27292000D01*
X65906000Y-27292000D02*
X60586000Y-27292000D01*
X60586000Y-27292000D02*
X60586000Y-30112000D01*
X60586000Y-30112000D02*
X65906000Y-30112000D01*
X67046000Y-28702000D02*
X65906000Y-28702000D01*
X59446000Y-28702000D02*
X60586000Y-28702000D01*
X65066000Y-30112000D02*
X65066000Y-27292000D01*
X30035078Y-89914684D02*
G75*
G03X34338320Y-90232709I2243242J1080724D01*
G01*
X30035078Y-87753236D02*
G75*
G02X34338320Y-87435211I2243242J-1080724D01*
G01*
X30595607Y-89914921D02*
G75*
G03X33961650Y-89913960I1682713J1080961D01*
G01*
X30595607Y-87752999D02*
G75*
G02X33961650Y-87753960I1682713J-1080961D01*
G01*
X34338320Y-90232960D02*
X34338320Y-89913960D01*
X34338320Y-87753960D02*
X34338320Y-87434960D01*
X23106080Y-39505240D02*
X25926080Y-39505240D01*
X25926080Y-39505240D02*
X25926080Y-34185240D01*
X25926080Y-34185240D02*
X23106080Y-34185240D01*
X23106080Y-34185240D02*
X23106080Y-39505240D01*
X24516080Y-40645240D02*
X24516080Y-39505240D01*
X24516080Y-33045240D02*
X24516080Y-34185240D01*
X23106080Y-38665240D02*
X25926080Y-38665240D01*
X36052000Y-28822000D02*
X36052000Y-23502000D01*
X36052000Y-23502000D02*
X26432000Y-23502000D01*
X26432000Y-23502000D02*
X26432000Y-28822000D01*
X26432000Y-28822000D02*
X36052000Y-28822000D01*
X37082000Y-26162000D02*
X36052000Y-26162000D01*
X25402000Y-26162000D02*
X26432000Y-26162000D01*
X34567000Y-28822000D02*
X34567000Y-23502000D01*
X36052000Y-21202000D02*
X36052000Y-15882000D01*
X36052000Y-15882000D02*
X26432000Y-15882000D01*
X26432000Y-15882000D02*
X26432000Y-21202000D01*
X26432000Y-21202000D02*
X36052000Y-21202000D01*
X37082000Y-18542000D02*
X36052000Y-18542000D01*
X25402000Y-18542000D02*
X26432000Y-18542000D01*
X34567000Y-21202000D02*
X34567000Y-15882000D01*
X63056724Y-59647242D02*
G75*
G03X63374749Y-55344000I-1080724J2243242D01*
G01*
X60895276Y-59647242D02*
G75*
G02X60577251Y-55344000I1080724J2243242D01*
G01*
X63056961Y-59086713D02*
G75*
G03X63056000Y-55720670I-1080961J1682713D01*
G01*
X60895039Y-59086713D02*
G75*
G02X60896000Y-55720670I1080961J1682713D01*
G01*
X63375000Y-55344000D02*
X63056000Y-55344000D01*
X60896000Y-55344000D02*
X60577000Y-55344000D01*
X69914724Y-59647242D02*
G75*
G03X70232749Y-55344000I-1080724J2243242D01*
G01*
X67753276Y-59647242D02*
G75*
G02X67435251Y-55344000I1080724J2243242D01*
G01*
X69914961Y-59086713D02*
G75*
G03X69914000Y-55720670I-1080961J1682713D01*
G01*
X67753039Y-59086713D02*
G75*
G02X67754000Y-55720670I1080961J1682713D01*
G01*
X70233000Y-55344000D02*
X69914000Y-55344000D01*
X67754000Y-55344000D02*
X67435000Y-55344000D01*
X93412960Y-36930840D02*
X98732960Y-36930840D01*
X98732960Y-36930840D02*
X98732960Y-27310840D01*
X98732960Y-27310840D02*
X93412960Y-27310840D01*
X93412960Y-27310840D02*
X93412960Y-36930840D01*
X96072960Y-37960840D02*
X96072960Y-36930840D01*
X96072960Y-26280840D02*
X96072960Y-27310840D01*
X93412960Y-35445840D02*
X98732960Y-35445840D01*
X89900000Y-95370000D02*
X89900000Y-90050000D01*
X89900000Y-90050000D02*
X80280000Y-90050000D01*
X80280000Y-90050000D02*
X80280000Y-95370000D01*
X80280000Y-95370000D02*
X89900000Y-95370000D01*
X90930000Y-92710000D02*
X89900000Y-92710000D01*
X79250000Y-92710000D02*
X80280000Y-92710000D01*
X88415000Y-95370000D02*
X88415000Y-90050000D01*
X107756000Y-82102000D02*
X74616000Y-82102000D01*
X107756000Y-64202000D02*
X74616000Y-64202000D01*
X107756000Y-82102000D02*
X107756000Y-64202000D01*
X74616000Y-82102000D02*
X74616000Y-64202000D01*
X74616000Y-45406000D02*
X107756000Y-45406000D01*
X74616000Y-63306000D02*
X107756000Y-63306000D01*
X74616000Y-45406000D02*
X74616000Y-63306000D01*
X107756000Y-45406000D02*
X107756000Y-63306000D01*
X78050000Y-28216000D02*
X78050000Y-24616000D01*
X77322795Y-28740184D02*
G75*
G03X78050000Y-28216000I-1122795J2324184D01*
G01*
X75101193Y-28772400D02*
G75*
G02X73600000Y-26416000I1098807J2356400D01*
G01*
X75101193Y-24059600D02*
G75*
G03X73600000Y-26416000I1098807J-2356400D01*
G01*
X77322795Y-24091816D02*
G75*
G02X78050000Y-24616000I-1122795J-2324184D01*
G01*
X80700000Y-24616000D02*
X80700000Y-28216000D01*
X81427205Y-24091816D02*
G75*
G03X80700000Y-24616000I1122795J-2324184D01*
G01*
X83648807Y-24059600D02*
G75*
G02X85150000Y-26416000I-1098807J-2356400D01*
G01*
X83648807Y-28772400D02*
G75*
G03X85150000Y-26416000I-1098807J2356400D01*
G01*
X81427205Y-28740184D02*
G75*
G02X80700000Y-28216000I1122795J2324184D01*
G01*
X86288000Y-24616000D02*
X86288000Y-28216000D01*
X87015205Y-24091816D02*
G75*
G03X86288000Y-24616000I1122795J-2324184D01*
G01*
X89236807Y-24059600D02*
G75*
G02X90738000Y-26416000I-1098807J-2356400D01*
G01*
X89236807Y-28772400D02*
G75*
G03X90738000Y-26416000I-1098807J2356400D01*
G01*
X87015205Y-28740184D02*
G75*
G02X86288000Y-28216000I1122795J2324184D01*
G01*
X35159840Y-80511080D02*
X38479840Y-80511080D01*
X38479840Y-80511080D02*
X38479840Y-71391080D01*
X38479840Y-71391080D02*
X35159840Y-71391080D01*
X35159840Y-71391080D02*
X35159840Y-80511080D01*
X36819840Y-81321080D02*
X36819840Y-80511080D01*
X36819840Y-70581080D02*
X36819840Y-71391080D01*
X43954000Y-72762000D02*
X43954000Y-76082000D01*
X43954000Y-76082000D02*
X53074000Y-76082000D01*
X53074000Y-76082000D02*
X53074000Y-72762000D01*
X53074000Y-72762000D02*
X43954000Y-72762000D01*
X43144000Y-74422000D02*
X43954000Y-74422000D01*
X53884000Y-74422000D02*
X53074000Y-74422000D01*
X53074000Y-87512000D02*
X53074000Y-84192000D01*
X53074000Y-84192000D02*
X43954000Y-84192000D01*
X43954000Y-84192000D02*
X43954000Y-87512000D01*
X43954000Y-87512000D02*
X53074000Y-87512000D01*
X53884000Y-85852000D02*
X53074000Y-85852000D01*
X43144000Y-85852000D02*
X43954000Y-85852000D01*
X60842000Y-74942000D02*
X57522000Y-74942000D01*
X57522000Y-74942000D02*
X57522000Y-84062000D01*
X57522000Y-84062000D02*
X60842000Y-84062000D01*
X60842000Y-84062000D02*
X60842000Y-74942000D01*
X59182000Y-74132000D02*
X59182000Y-74942000D01*
X59182000Y-84872000D02*
X59182000Y-84062000D01*
X22234000Y-33286000D02*
X18914000Y-33286000D01*
X18914000Y-33286000D02*
X18914000Y-42406000D01*
X18914000Y-42406000D02*
X22234000Y-42406000D01*
X22234000Y-42406000D02*
X22234000Y-33286000D01*
X20574000Y-32476000D02*
X20574000Y-33286000D01*
X20574000Y-43216000D02*
X20574000Y-42406000D01*
X28206000Y-62602000D02*
X28206000Y-65922000D01*
X28206000Y-65922000D02*
X37326000Y-65922000D01*
X37326000Y-65922000D02*
X37326000Y-62602000D01*
X37326000Y-62602000D02*
X28206000Y-62602000D01*
X27396000Y-64262000D02*
X28206000Y-64262000D01*
X38136000Y-64262000D02*
X37326000Y-64262000D01*
X63488000Y-53984000D02*
X63488000Y-50664000D01*
X63488000Y-50664000D02*
X54368000Y-50664000D01*
X54368000Y-50664000D02*
X54368000Y-53984000D01*
X54368000Y-53984000D02*
X63488000Y-53984000D01*
X64298000Y-52324000D02*
X63488000Y-52324000D01*
X53558000Y-52324000D02*
X54368000Y-52324000D01*
X25879360Y-44293680D02*
X25879360Y-47613680D01*
X25879360Y-47613680D02*
X34999360Y-47613680D01*
X34999360Y-47613680D02*
X34999360Y-44293680D01*
X34999360Y-44293680D02*
X25879360Y-44293680D01*
X25069360Y-45953680D02*
X25879360Y-45953680D01*
X35809360Y-45953680D02*
X34999360Y-45953680D01*
X60210000Y-20946000D02*
X60210000Y-24266000D01*
X60210000Y-24266000D02*
X69330000Y-24266000D01*
X69330000Y-24266000D02*
X69330000Y-20946000D01*
X69330000Y-20946000D02*
X60210000Y-20946000D01*
X59400000Y-22606000D02*
X60210000Y-22606000D01*
X70140000Y-22606000D02*
X69330000Y-22606000D01*
X69330000Y-19948000D02*
X69330000Y-16628000D01*
X69330000Y-16628000D02*
X60210000Y-16628000D01*
X60210000Y-16628000D02*
X60210000Y-19948000D01*
X60210000Y-19948000D02*
X69330000Y-19948000D01*
X70140000Y-18288000D02*
X69330000Y-18288000D01*
X59400000Y-18288000D02*
X60210000Y-18288000D01*
X22234000Y-49288000D02*
X18914000Y-49288000D01*
X18914000Y-49288000D02*
X18914000Y-58408000D01*
X18914000Y-58408000D02*
X22234000Y-58408000D01*
X22234000Y-58408000D02*
X22234000Y-49288000D01*
X20574000Y-48478000D02*
X20574000Y-49288000D01*
X20574000Y-59218000D02*
X20574000Y-58408000D01*
X53074000Y-81670000D02*
X53074000Y-78350000D01*
X53074000Y-78350000D02*
X43954000Y-78350000D01*
X43954000Y-78350000D02*
X43954000Y-81670000D01*
X43954000Y-81670000D02*
X53074000Y-81670000D01*
X53884000Y-80010000D02*
X53074000Y-80010000D01*
X43144000Y-80010000D02*
X43954000Y-80010000D01*
X59956000Y-31614000D02*
X59956000Y-34934000D01*
X59956000Y-34934000D02*
X69076000Y-34934000D01*
X69076000Y-34934000D02*
X69076000Y-31614000D01*
X69076000Y-31614000D02*
X59956000Y-31614000D01*
X59146000Y-33274000D02*
X59956000Y-33274000D01*
X69886000Y-33274000D02*
X69076000Y-33274000D01*
X30074760Y-80511080D02*
X33394760Y-80511080D01*
X33394760Y-80511080D02*
X33394760Y-71391080D01*
X33394760Y-71391080D02*
X30074760Y-71391080D01*
X30074760Y-71391080D02*
X30074760Y-80511080D01*
X31734760Y-81321080D02*
X31734760Y-80511080D01*
X31734760Y-70581080D02*
X31734760Y-71391080D01*
X18914000Y-74664000D02*
X22234000Y-74664000D01*
X22234000Y-74664000D02*
X22234000Y-65544000D01*
X22234000Y-65544000D02*
X18914000Y-65544000D01*
X18914000Y-65544000D02*
X18914000Y-74664000D01*
X20574000Y-75474000D02*
X20574000Y-74664000D01*
X20574000Y-64734000D02*
X20574000Y-65544000D01*
X26048600Y-85126320D02*
X26048600Y-80626320D01*
X22048600Y-86376320D02*
X23548600Y-86376320D01*
X19548600Y-80626320D02*
X19548600Y-85126320D01*
X23548600Y-79376320D02*
X22048600Y-79376320D01*
X24090000Y-54530000D02*
X34330000Y-54530000D01*
X24090000Y-59171000D02*
X34330000Y-59171000D01*
X24090000Y-54530000D02*
X24090000Y-59171000D01*
X34330000Y-54530000D02*
X34330000Y-59171000D01*
X24090000Y-56040000D02*
X34330000Y-56040000D01*
X27360000Y-54530000D02*
X27360000Y-56040000D01*
X31061000Y-54530000D02*
X31061000Y-56040000D01*
X49768000Y-31944000D02*
G75*
G02X47768000Y-31944000I-1000000J0D01*
G01*
X47768000Y-31944000D02*
X46118000Y-31944000D01*
X46118000Y-31944000D02*
X46118000Y-49844000D01*
X46118000Y-49844000D02*
X51418000Y-49844000D01*
X51418000Y-49844000D02*
X51418000Y-31944000D01*
X51418000Y-31944000D02*
X49768000Y-31944000D01*
D11*
X46228000Y-96774000D02*
X46228000Y-95631000D01*
X43180000Y-96774000D02*
X43180000Y-95631000D01*
X39370000Y-95631000D02*
X39370000Y-91948000D01*
X39370000Y-91948000D02*
X50038000Y-91948000D01*
X50038000Y-91948000D02*
X50038000Y-95631000D01*
X39370000Y-96774000D02*
X39370000Y-95631000D01*
X39370000Y-95631000D02*
X50038000Y-95631000D01*
X50038000Y-95631000D02*
X50038000Y-96774000D01*
X44704000Y-96774000D02*
X50038000Y-96774000D01*
X44704000Y-96774000D02*
X39370000Y-96774000D01*
X91699080Y-16794480D02*
X89794080Y-16794480D01*
X87254080Y-16794480D02*
X88016080Y-16794480D01*
X84841080Y-16794480D02*
X84714080Y-16794480D01*
X84841080Y-16794480D02*
X85476080Y-16794480D01*
X81031080Y-16794480D02*
X82809080Y-16794480D01*
X81031080Y-20477480D02*
X82682080Y-20477480D01*
X85349080Y-20604480D02*
X84714080Y-20604480D01*
X87889080Y-20604480D02*
X87254080Y-20604480D01*
X91699080Y-20477480D02*
X90048080Y-20477480D01*
X84841080Y-15651480D02*
X84841080Y-16794480D01*
X87889080Y-15651480D02*
X87889080Y-16794480D01*
X91699080Y-16794480D02*
X91699080Y-20477480D01*
X81031080Y-20477480D02*
X81031080Y-16794480D01*
X91699080Y-15651480D02*
X91699080Y-16794480D01*
X81031080Y-16794480D02*
X81031080Y-15651480D01*
X86365080Y-15651480D02*
X81031080Y-15651480D01*
X86365080Y-15651480D02*
X91699080Y-15651480D01*
D10*
X17348781Y-29972000D02*
G75*
G03X17348781Y-29972000I-1600781J0D01*
G01*
X17348781Y-44196000D02*
G75*
G03X17348781Y-44196000I-1600781J0D01*
G01*
X104658741Y-85679280D02*
G75*
G03X104658741Y-85679280I-1600781J0D01*
G01*
X98212221Y-96921320D02*
G75*
G03X98212221Y-96921320I-1600781J0D01*
G01*
D11*
X103075906Y-91557220D02*
X102742573Y-91081030D01*
X102504478Y-91557220D02*
X102504478Y-90557220D01*
X102885430Y-90557220D01*
X102980668Y-90604840D01*
X103028287Y-90652459D01*
X103075906Y-90747697D01*
X103075906Y-90890554D01*
X103028287Y-90985792D01*
X102980668Y-91033411D01*
X102885430Y-91081030D01*
X102504478Y-91081030D01*
X103504478Y-91033411D02*
X103837811Y-91033411D01*
X103980668Y-91557220D02*
X103504478Y-91557220D01*
X103504478Y-90557220D01*
X103980668Y-90557220D01*
X104742573Y-91033411D02*
X104409240Y-91033411D01*
X104409240Y-91557220D02*
X104409240Y-90557220D01*
X104885430Y-90557220D01*
X105409240Y-90557220D02*
X105409240Y-90795316D01*
X105171144Y-90700078D02*
X105409240Y-90795316D01*
X105647335Y-90700078D01*
X105266382Y-90985792D02*
X105409240Y-90795316D01*
X105552097Y-90985792D01*
X106171144Y-90557220D02*
X106171144Y-90795316D01*
X105933049Y-90700078D02*
X106171144Y-90795316D01*
X106409240Y-90700078D01*
X106028287Y-90985792D02*
X106171144Y-90795316D01*
X106314001Y-90985792D01*
X48006095Y-53002380D02*
X48006095Y-53811904D01*
X48053714Y-53907142D01*
X48101333Y-53954761D01*
X48196571Y-54002380D01*
X48387047Y-54002380D01*
X48482285Y-53954761D01*
X48529904Y-53907142D01*
X48577523Y-53811904D01*
X48577523Y-53002380D01*
X49006095Y-53097619D02*
X49053714Y-53050000D01*
X49148952Y-53002380D01*
X49387047Y-53002380D01*
X49482285Y-53050000D01*
X49529904Y-53097619D01*
X49577523Y-53192857D01*
X49577523Y-53288095D01*
X49529904Y-53430952D01*
X48958476Y-54002380D01*
X49577523Y-54002380D01*
X64944262Y-78810146D02*
X64991881Y-78857765D01*
X65039500Y-79000622D01*
X65039500Y-79095860D01*
X64991881Y-79238718D01*
X64896643Y-79333956D01*
X64801405Y-79381575D01*
X64610929Y-79429194D01*
X64468072Y-79429194D01*
X64277596Y-79381575D01*
X64182358Y-79333956D01*
X64087120Y-79238718D01*
X64039500Y-79095860D01*
X64039500Y-79000622D01*
X64087120Y-78857765D01*
X64134739Y-78810146D01*
X65039500Y-77857765D02*
X65039500Y-78429194D01*
X65039500Y-78143480D02*
X64039500Y-78143480D01*
X64182358Y-78238718D01*
X64277596Y-78333956D01*
X64325215Y-78429194D01*
X80097333Y-32488142D02*
X80049714Y-32535761D01*
X79906857Y-32583380D01*
X79811619Y-32583380D01*
X79668761Y-32535761D01*
X79573523Y-32440523D01*
X79525904Y-32345285D01*
X79478285Y-32154809D01*
X79478285Y-32011952D01*
X79525904Y-31821476D01*
X79573523Y-31726238D01*
X79668761Y-31631000D01*
X79811619Y-31583380D01*
X79906857Y-31583380D01*
X80049714Y-31631000D01*
X80097333Y-31678619D01*
X80478285Y-31678619D02*
X80525904Y-31631000D01*
X80621142Y-31583380D01*
X80859238Y-31583380D01*
X80954476Y-31631000D01*
X81002095Y-31678619D01*
X81049714Y-31773857D01*
X81049714Y-31869095D01*
X81002095Y-32011952D01*
X80430666Y-32583380D01*
X81049714Y-32583380D01*
X39843413Y-43562542D02*
X39795794Y-43610161D01*
X39652937Y-43657780D01*
X39557699Y-43657780D01*
X39414841Y-43610161D01*
X39319603Y-43514923D01*
X39271984Y-43419685D01*
X39224365Y-43229209D01*
X39224365Y-43086352D01*
X39271984Y-42895876D01*
X39319603Y-42800638D01*
X39414841Y-42705400D01*
X39557699Y-42657780D01*
X39652937Y-42657780D01*
X39795794Y-42705400D01*
X39843413Y-42753019D01*
X40176746Y-42657780D02*
X40795794Y-42657780D01*
X40462460Y-43038733D01*
X40605318Y-43038733D01*
X40700556Y-43086352D01*
X40748175Y-43133971D01*
X40795794Y-43229209D01*
X40795794Y-43467304D01*
X40748175Y-43562542D01*
X40700556Y-43610161D01*
X40605318Y-43657780D01*
X40319603Y-43657780D01*
X40224365Y-43610161D01*
X40176746Y-43562542D01*
X57242982Y-42508466D02*
X57290601Y-42556085D01*
X57338220Y-42698942D01*
X57338220Y-42794180D01*
X57290601Y-42937038D01*
X57195363Y-43032276D01*
X57100125Y-43079895D01*
X56909649Y-43127514D01*
X56766792Y-43127514D01*
X56576316Y-43079895D01*
X56481078Y-43032276D01*
X56385840Y-42937038D01*
X56338220Y-42794180D01*
X56338220Y-42698942D01*
X56385840Y-42556085D01*
X56433459Y-42508466D01*
X56671554Y-41651323D02*
X57338220Y-41651323D01*
X56290601Y-41889419D02*
X57004887Y-42127514D01*
X57004887Y-41508466D01*
X70389453Y-63902862D02*
X70341834Y-63950481D01*
X70198977Y-63998100D01*
X70103739Y-63998100D01*
X69960881Y-63950481D01*
X69865643Y-63855243D01*
X69818024Y-63760005D01*
X69770405Y-63569529D01*
X69770405Y-63426672D01*
X69818024Y-63236196D01*
X69865643Y-63140958D01*
X69960881Y-63045720D01*
X70103739Y-62998100D01*
X70198977Y-62998100D01*
X70341834Y-63045720D01*
X70389453Y-63093339D01*
X71294215Y-62998100D02*
X70818024Y-62998100D01*
X70770405Y-63474291D01*
X70818024Y-63426672D01*
X70913262Y-63379053D01*
X71151358Y-63379053D01*
X71246596Y-63426672D01*
X71294215Y-63474291D01*
X71341834Y-63569529D01*
X71341834Y-63807624D01*
X71294215Y-63902862D01*
X71246596Y-63950481D01*
X71151358Y-63998100D01*
X70913262Y-63998100D01*
X70818024Y-63950481D01*
X70770405Y-63902862D01*
X76243142Y-42798666D02*
X76290761Y-42846285D01*
X76338380Y-42989142D01*
X76338380Y-43084380D01*
X76290761Y-43227238D01*
X76195523Y-43322476D01*
X76100285Y-43370095D01*
X75909809Y-43417714D01*
X75766952Y-43417714D01*
X75576476Y-43370095D01*
X75481238Y-43322476D01*
X75386000Y-43227238D01*
X75338380Y-43084380D01*
X75338380Y-42989142D01*
X75386000Y-42846285D01*
X75433619Y-42798666D01*
X75338380Y-41941523D02*
X75338380Y-42132000D01*
X75386000Y-42227238D01*
X75433619Y-42274857D01*
X75576476Y-42370095D01*
X75766952Y-42417714D01*
X76147904Y-42417714D01*
X76243142Y-42370095D01*
X76290761Y-42322476D01*
X76338380Y-42227238D01*
X76338380Y-42036761D01*
X76290761Y-41941523D01*
X76243142Y-41893904D01*
X76147904Y-41846285D01*
X75909809Y-41846285D01*
X75814571Y-41893904D01*
X75766952Y-41941523D01*
X75719333Y-42036761D01*
X75719333Y-42227238D01*
X75766952Y-42322476D01*
X75814571Y-42370095D01*
X75909809Y-42417714D01*
X50085333Y-15149142D02*
X50037714Y-15196761D01*
X49894857Y-15244380D01*
X49799619Y-15244380D01*
X49656761Y-15196761D01*
X49561523Y-15101523D01*
X49513904Y-15006285D01*
X49466285Y-14815809D01*
X49466285Y-14672952D01*
X49513904Y-14482476D01*
X49561523Y-14387238D01*
X49656761Y-14292000D01*
X49799619Y-14244380D01*
X49894857Y-14244380D01*
X50037714Y-14292000D01*
X50085333Y-14339619D01*
X50418666Y-14244380D02*
X51085333Y-14244380D01*
X50656761Y-15244380D01*
X102550220Y-31969935D02*
X101550220Y-31969935D01*
X101550220Y-31731840D01*
X101597840Y-31588982D01*
X101693078Y-31493744D01*
X101788316Y-31446125D01*
X101978792Y-31398506D01*
X102121649Y-31398506D01*
X102312125Y-31446125D01*
X102407363Y-31493744D01*
X102502601Y-31588982D01*
X102550220Y-31731840D01*
X102550220Y-31969935D01*
X102550220Y-30446125D02*
X102550220Y-31017554D01*
X102550220Y-30731840D02*
X101550220Y-30731840D01*
X101693078Y-30827078D01*
X101788316Y-30922316D01*
X101835935Y-31017554D01*
X84097904Y-86812380D02*
X84097904Y-85812380D01*
X84336000Y-85812380D01*
X84478857Y-85860000D01*
X84574095Y-85955238D01*
X84621714Y-86050476D01*
X84669333Y-86240952D01*
X84669333Y-86383809D01*
X84621714Y-86574285D01*
X84574095Y-86669523D01*
X84478857Y-86764761D01*
X84336000Y-86812380D01*
X84097904Y-86812380D01*
X85050285Y-85907619D02*
X85097904Y-85860000D01*
X85193142Y-85812380D01*
X85431238Y-85812380D01*
X85526476Y-85860000D01*
X85574095Y-85907619D01*
X85621714Y-86002857D01*
X85621714Y-86098095D01*
X85574095Y-86240952D01*
X85002666Y-86812380D01*
X85621714Y-86812380D01*
X62126904Y-29154380D02*
X62126904Y-28154380D01*
X62365000Y-28154380D01*
X62507857Y-28202000D01*
X62603095Y-28297238D01*
X62650714Y-28392476D01*
X62698333Y-28582952D01*
X62698333Y-28725809D01*
X62650714Y-28916285D01*
X62603095Y-29011523D01*
X62507857Y-29106761D01*
X62365000Y-29154380D01*
X62126904Y-29154380D01*
X63031666Y-28154380D02*
X63650714Y-28154380D01*
X63317380Y-28535333D01*
X63460238Y-28535333D01*
X63555476Y-28582952D01*
X63603095Y-28630571D01*
X63650714Y-28725809D01*
X63650714Y-28963904D01*
X63603095Y-29059142D01*
X63555476Y-29106761D01*
X63460238Y-29154380D01*
X63174523Y-29154380D01*
X63079285Y-29106761D01*
X63031666Y-29059142D01*
X27476224Y-89159340D02*
X27476224Y-88159340D01*
X27714320Y-88159340D01*
X27857177Y-88206960D01*
X27952415Y-88302198D01*
X28000034Y-88397436D01*
X28047653Y-88587912D01*
X28047653Y-88730769D01*
X28000034Y-88921245D01*
X27952415Y-89016483D01*
X27857177Y-89111721D01*
X27714320Y-89159340D01*
X27476224Y-89159340D01*
X28904796Y-88492674D02*
X28904796Y-89159340D01*
X28666700Y-88111721D02*
X28428605Y-88826007D01*
X29047653Y-88826007D01*
X24968460Y-37583335D02*
X23968460Y-37583335D01*
X23968460Y-37345240D01*
X24016080Y-37202382D01*
X24111318Y-37107144D01*
X24206556Y-37059525D01*
X24397032Y-37011906D01*
X24539889Y-37011906D01*
X24730365Y-37059525D01*
X24825603Y-37107144D01*
X24920841Y-37202382D01*
X24968460Y-37345240D01*
X24968460Y-37583335D01*
X23968460Y-36107144D02*
X23968460Y-36583335D01*
X24444651Y-36630954D01*
X24397032Y-36583335D01*
X24349413Y-36488097D01*
X24349413Y-36250001D01*
X24397032Y-36154763D01*
X24444651Y-36107144D01*
X24539889Y-36059525D01*
X24777984Y-36059525D01*
X24873222Y-36107144D01*
X24920841Y-36154763D01*
X24968460Y-36250001D01*
X24968460Y-36488097D01*
X24920841Y-36583335D01*
X24873222Y-36630954D01*
X30503904Y-26614380D02*
X30503904Y-25614380D01*
X30742000Y-25614380D01*
X30884857Y-25662000D01*
X30980095Y-25757238D01*
X31027714Y-25852476D01*
X31075333Y-26042952D01*
X31075333Y-26185809D01*
X31027714Y-26376285D01*
X30980095Y-26471523D01*
X30884857Y-26566761D01*
X30742000Y-26614380D01*
X30503904Y-26614380D01*
X31932476Y-25614380D02*
X31742000Y-25614380D01*
X31646761Y-25662000D01*
X31599142Y-25709619D01*
X31503904Y-25852476D01*
X31456285Y-26042952D01*
X31456285Y-26423904D01*
X31503904Y-26519142D01*
X31551523Y-26566761D01*
X31646761Y-26614380D01*
X31837238Y-26614380D01*
X31932476Y-26566761D01*
X31980095Y-26519142D01*
X32027714Y-26423904D01*
X32027714Y-26185809D01*
X31980095Y-26090571D01*
X31932476Y-26042952D01*
X31837238Y-25995333D01*
X31646761Y-25995333D01*
X31551523Y-26042952D01*
X31503904Y-26090571D01*
X31456285Y-26185809D01*
X30503904Y-18994380D02*
X30503904Y-17994380D01*
X30742000Y-17994380D01*
X30884857Y-18042000D01*
X30980095Y-18137238D01*
X31027714Y-18232476D01*
X31075333Y-18422952D01*
X31075333Y-18565809D01*
X31027714Y-18756285D01*
X30980095Y-18851523D01*
X30884857Y-18946761D01*
X30742000Y-18994380D01*
X30503904Y-18994380D01*
X31408666Y-17994380D02*
X32075333Y-17994380D01*
X31646761Y-18994380D01*
X65888380Y-58142095D02*
X64888380Y-58142095D01*
X64888380Y-57904000D01*
X64936000Y-57761142D01*
X65031238Y-57665904D01*
X65126476Y-57618285D01*
X65316952Y-57570666D01*
X65459809Y-57570666D01*
X65650285Y-57618285D01*
X65745523Y-57665904D01*
X65840761Y-57761142D01*
X65888380Y-57904000D01*
X65888380Y-58142095D01*
X65316952Y-56999238D02*
X65269333Y-57094476D01*
X65221714Y-57142095D01*
X65126476Y-57189714D01*
X65078857Y-57189714D01*
X64983619Y-57142095D01*
X64936000Y-57094476D01*
X64888380Y-56999238D01*
X64888380Y-56808761D01*
X64936000Y-56713523D01*
X64983619Y-56665904D01*
X65078857Y-56618285D01*
X65126476Y-56618285D01*
X65221714Y-56665904D01*
X65269333Y-56713523D01*
X65316952Y-56808761D01*
X65316952Y-56999238D01*
X65364571Y-57094476D01*
X65412190Y-57142095D01*
X65507428Y-57189714D01*
X65697904Y-57189714D01*
X65793142Y-57142095D01*
X65840761Y-57094476D01*
X65888380Y-56999238D01*
X65888380Y-56808761D01*
X65840761Y-56713523D01*
X65793142Y-56665904D01*
X65697904Y-56618285D01*
X65507428Y-56618285D01*
X65412190Y-56665904D01*
X65364571Y-56713523D01*
X65316952Y-56808761D01*
X72746380Y-58142095D02*
X71746380Y-58142095D01*
X71746380Y-57904000D01*
X71794000Y-57761142D01*
X71889238Y-57665904D01*
X71984476Y-57618285D01*
X72174952Y-57570666D01*
X72317809Y-57570666D01*
X72508285Y-57618285D01*
X72603523Y-57665904D01*
X72698761Y-57761142D01*
X72746380Y-57904000D01*
X72746380Y-58142095D01*
X72746380Y-57094476D02*
X72746380Y-56904000D01*
X72698761Y-56808761D01*
X72651142Y-56761142D01*
X72508285Y-56665904D01*
X72317809Y-56618285D01*
X71936857Y-56618285D01*
X71841619Y-56665904D01*
X71794000Y-56713523D01*
X71746380Y-56808761D01*
X71746380Y-56999238D01*
X71794000Y-57094476D01*
X71841619Y-57142095D01*
X71936857Y-57189714D01*
X72174952Y-57189714D01*
X72270190Y-57142095D01*
X72317809Y-57094476D01*
X72365428Y-56999238D01*
X72365428Y-56808761D01*
X72317809Y-56713523D01*
X72270190Y-56665904D01*
X72174952Y-56618285D01*
X96525340Y-32573125D02*
X95525340Y-32573125D01*
X95525340Y-32335030D01*
X95572960Y-32192173D01*
X95668198Y-32096935D01*
X95763436Y-32049316D01*
X95953912Y-32001697D01*
X96096769Y-32001697D01*
X96287245Y-32049316D01*
X96382483Y-32096935D01*
X96477721Y-32192173D01*
X96525340Y-32335030D01*
X96525340Y-32573125D01*
X96525340Y-31049316D02*
X96525340Y-31620744D01*
X96525340Y-31335030D02*
X95525340Y-31335030D01*
X95668198Y-31430268D01*
X95763436Y-31525506D01*
X95811055Y-31620744D01*
X95525340Y-30430268D02*
X95525340Y-30335030D01*
X95572960Y-30239792D01*
X95620579Y-30192173D01*
X95715817Y-30144554D01*
X95906293Y-30096935D01*
X96144388Y-30096935D01*
X96334864Y-30144554D01*
X96430102Y-30192173D01*
X96477721Y-30239792D01*
X96525340Y-30335030D01*
X96525340Y-30430268D01*
X96477721Y-30525506D01*
X96430102Y-30573125D01*
X96334864Y-30620744D01*
X96144388Y-30668363D01*
X95906293Y-30668363D01*
X95715817Y-30620744D01*
X95620579Y-30573125D01*
X95572960Y-30525506D01*
X95525340Y-30430268D01*
X83621714Y-93162380D02*
X83621714Y-92162380D01*
X83859809Y-92162380D01*
X84002666Y-92210000D01*
X84097904Y-92305238D01*
X84145523Y-92400476D01*
X84193142Y-92590952D01*
X84193142Y-92733809D01*
X84145523Y-92924285D01*
X84097904Y-93019523D01*
X84002666Y-93114761D01*
X83859809Y-93162380D01*
X83621714Y-93162380D01*
X85145523Y-93162380D02*
X84574095Y-93162380D01*
X84859809Y-93162380D02*
X84859809Y-92162380D01*
X84764571Y-92305238D01*
X84669333Y-92400476D01*
X84574095Y-92448095D01*
X86097904Y-93162380D02*
X85526476Y-93162380D01*
X85812190Y-93162380D02*
X85812190Y-92162380D01*
X85716952Y-92305238D01*
X85621714Y-92400476D01*
X85526476Y-92448095D01*
X90892333Y-74874380D02*
X90416142Y-74874380D01*
X90416142Y-73874380D01*
X91749476Y-74874380D02*
X91178047Y-74874380D01*
X91463761Y-74874380D02*
X91463761Y-73874380D01*
X91368523Y-74017238D01*
X91273285Y-74112476D01*
X91178047Y-74160095D01*
X90892333Y-54681380D02*
X90416142Y-54681380D01*
X90416142Y-53681380D01*
X91178047Y-53776619D02*
X91225666Y-53729000D01*
X91320904Y-53681380D01*
X91559000Y-53681380D01*
X91654238Y-53729000D01*
X91701857Y-53776619D01*
X91749476Y-53871857D01*
X91749476Y-53967095D01*
X91701857Y-54109952D01*
X91130428Y-54681380D01*
X91749476Y-54681380D01*
X73187619Y-26511238D02*
X73140000Y-26606476D01*
X73044761Y-26701714D01*
X72901904Y-26844571D01*
X72854285Y-26939809D01*
X72854285Y-27035047D01*
X73092380Y-26987428D02*
X73044761Y-27082666D01*
X72949523Y-27177904D01*
X72759047Y-27225523D01*
X72425714Y-27225523D01*
X72235238Y-27177904D01*
X72140000Y-27082666D01*
X72092380Y-26987428D01*
X72092380Y-26796952D01*
X72140000Y-26701714D01*
X72235238Y-26606476D01*
X72425714Y-26558857D01*
X72759047Y-26558857D01*
X72949523Y-26606476D01*
X73044761Y-26701714D01*
X73092380Y-26796952D01*
X73092380Y-26987428D01*
X72092380Y-26225523D02*
X72092380Y-25606476D01*
X72473333Y-25939809D01*
X72473333Y-25796952D01*
X72520952Y-25701714D01*
X72568571Y-25654095D01*
X72663809Y-25606476D01*
X72901904Y-25606476D01*
X72997142Y-25654095D01*
X73044761Y-25701714D01*
X73092380Y-25796952D01*
X73092380Y-26082666D01*
X73044761Y-26177904D01*
X72997142Y-26225523D01*
X80156299Y-26399478D02*
X80108680Y-26494716D01*
X80013441Y-26589954D01*
X79870584Y-26732811D01*
X79822965Y-26828049D01*
X79822965Y-26923287D01*
X80061060Y-26875668D02*
X80013441Y-26970906D01*
X79918203Y-27066144D01*
X79727727Y-27113763D01*
X79394394Y-27113763D01*
X79203918Y-27066144D01*
X79108680Y-26970906D01*
X79061060Y-26875668D01*
X79061060Y-26685192D01*
X79108680Y-26589954D01*
X79203918Y-26494716D01*
X79394394Y-26447097D01*
X79727727Y-26447097D01*
X79918203Y-26494716D01*
X80013441Y-26589954D01*
X80061060Y-26685192D01*
X80061060Y-26875668D01*
X79394394Y-25589954D02*
X80061060Y-25589954D01*
X79013441Y-25828049D02*
X79727727Y-26066144D01*
X79727727Y-25447097D01*
X92363539Y-26308038D02*
X92315920Y-26403276D01*
X92220681Y-26498514D01*
X92077824Y-26641371D01*
X92030205Y-26736609D01*
X92030205Y-26831847D01*
X92268300Y-26784228D02*
X92220681Y-26879466D01*
X92125443Y-26974704D01*
X91934967Y-27022323D01*
X91601634Y-27022323D01*
X91411158Y-26974704D01*
X91315920Y-26879466D01*
X91268300Y-26784228D01*
X91268300Y-26593752D01*
X91315920Y-26498514D01*
X91411158Y-26403276D01*
X91601634Y-26355657D01*
X91934967Y-26355657D01*
X92125443Y-26403276D01*
X92220681Y-26498514D01*
X92268300Y-26593752D01*
X92268300Y-26784228D01*
X91268300Y-25450895D02*
X91268300Y-25927085D01*
X91744491Y-25974704D01*
X91696872Y-25927085D01*
X91649253Y-25831847D01*
X91649253Y-25593752D01*
X91696872Y-25498514D01*
X91744491Y-25450895D01*
X91839729Y-25403276D01*
X92077824Y-25403276D01*
X92173062Y-25450895D01*
X92220681Y-25498514D01*
X92268300Y-25593752D01*
X92268300Y-25831847D01*
X92220681Y-25927085D01*
X92173062Y-25974704D01*
X34701740Y-76270146D02*
X34225550Y-76603480D01*
X34701740Y-76841575D02*
X33701740Y-76841575D01*
X33701740Y-76460622D01*
X33749360Y-76365384D01*
X33796979Y-76317765D01*
X33892217Y-76270146D01*
X34035074Y-76270146D01*
X34130312Y-76317765D01*
X34177931Y-76365384D01*
X34225550Y-76460622D01*
X34225550Y-76841575D01*
X34701740Y-75317765D02*
X34701740Y-75889194D01*
X34701740Y-75603480D02*
X33701740Y-75603480D01*
X33844598Y-75698718D01*
X33939836Y-75793956D01*
X33987455Y-75889194D01*
X48240653Y-77658220D02*
X47907320Y-77182030D01*
X47669224Y-77658220D02*
X47669224Y-76658220D01*
X48050177Y-76658220D01*
X48145415Y-76705840D01*
X48193034Y-76753459D01*
X48240653Y-76848697D01*
X48240653Y-76991554D01*
X48193034Y-77086792D01*
X48145415Y-77134411D01*
X48050177Y-77182030D01*
X47669224Y-77182030D01*
X48621605Y-76753459D02*
X48669224Y-76705840D01*
X48764462Y-76658220D01*
X49002558Y-76658220D01*
X49097796Y-76705840D01*
X49145415Y-76753459D01*
X49193034Y-76848697D01*
X49193034Y-76943935D01*
X49145415Y-77086792D01*
X48573986Y-77658220D01*
X49193034Y-77658220D01*
X48098413Y-89235540D02*
X47765080Y-88759350D01*
X47526984Y-89235540D02*
X47526984Y-88235540D01*
X47907937Y-88235540D01*
X48003175Y-88283160D01*
X48050794Y-88330779D01*
X48098413Y-88426017D01*
X48098413Y-88568874D01*
X48050794Y-88664112D01*
X48003175Y-88711731D01*
X47907937Y-88759350D01*
X47526984Y-88759350D01*
X48431746Y-88235540D02*
X49050794Y-88235540D01*
X48717460Y-88616493D01*
X48860318Y-88616493D01*
X48955556Y-88664112D01*
X49003175Y-88711731D01*
X49050794Y-88806969D01*
X49050794Y-89045064D01*
X49003175Y-89140302D01*
X48955556Y-89187921D01*
X48860318Y-89235540D01*
X48574603Y-89235540D01*
X48479365Y-89187921D01*
X48431746Y-89140302D01*
X60726580Y-70900586D02*
X60250390Y-71233920D01*
X60726580Y-71472015D02*
X59726580Y-71472015D01*
X59726580Y-71091062D01*
X59774200Y-70995824D01*
X59821819Y-70948205D01*
X59917057Y-70900586D01*
X60059914Y-70900586D01*
X60155152Y-70948205D01*
X60202771Y-70995824D01*
X60250390Y-71091062D01*
X60250390Y-71472015D01*
X60059914Y-70043443D02*
X60726580Y-70043443D01*
X59678961Y-70281539D02*
X60393247Y-70519634D01*
X60393247Y-69900586D01*
X18156180Y-37875506D02*
X17679990Y-38208840D01*
X18156180Y-38446935D02*
X17156180Y-38446935D01*
X17156180Y-38065982D01*
X17203800Y-37970744D01*
X17251419Y-37923125D01*
X17346657Y-37875506D01*
X17489514Y-37875506D01*
X17584752Y-37923125D01*
X17632371Y-37970744D01*
X17679990Y-38065982D01*
X17679990Y-38446935D01*
X17156180Y-36970744D02*
X17156180Y-37446935D01*
X17632371Y-37494554D01*
X17584752Y-37446935D01*
X17537133Y-37351697D01*
X17537133Y-37113601D01*
X17584752Y-37018363D01*
X17632371Y-36970744D01*
X17727609Y-36923125D01*
X17965704Y-36923125D01*
X18060942Y-36970744D01*
X18108561Y-37018363D01*
X18156180Y-37113601D01*
X18156180Y-37351697D01*
X18108561Y-37446935D01*
X18060942Y-37494554D01*
X32716173Y-61808620D02*
X32382840Y-61332430D01*
X32144744Y-61808620D02*
X32144744Y-60808620D01*
X32525697Y-60808620D01*
X32620935Y-60856240D01*
X32668554Y-60903859D01*
X32716173Y-60999097D01*
X32716173Y-61141954D01*
X32668554Y-61237192D01*
X32620935Y-61284811D01*
X32525697Y-61332430D01*
X32144744Y-61332430D01*
X33573316Y-60808620D02*
X33382840Y-60808620D01*
X33287601Y-60856240D01*
X33239982Y-60903859D01*
X33144744Y-61046716D01*
X33097125Y-61237192D01*
X33097125Y-61618144D01*
X33144744Y-61713382D01*
X33192363Y-61761001D01*
X33287601Y-61808620D01*
X33478078Y-61808620D01*
X33573316Y-61761001D01*
X33620935Y-61713382D01*
X33668554Y-61618144D01*
X33668554Y-61380049D01*
X33620935Y-61284811D01*
X33573316Y-61237192D01*
X33478078Y-61189573D01*
X33287601Y-61189573D01*
X33192363Y-61237192D01*
X33144744Y-61284811D01*
X33097125Y-61380049D01*
X56739493Y-55519580D02*
X56406160Y-55043390D01*
X56168064Y-55519580D02*
X56168064Y-54519580D01*
X56549017Y-54519580D01*
X56644255Y-54567200D01*
X56691874Y-54614819D01*
X56739493Y-54710057D01*
X56739493Y-54852914D01*
X56691874Y-54948152D01*
X56644255Y-54995771D01*
X56549017Y-55043390D01*
X56168064Y-55043390D01*
X57072826Y-54519580D02*
X57739493Y-54519580D01*
X57310921Y-55519580D01*
X30526693Y-46279060D02*
X30193360Y-45802870D01*
X29955264Y-46279060D02*
X29955264Y-45279060D01*
X30336217Y-45279060D01*
X30431455Y-45326680D01*
X30479074Y-45374299D01*
X30526693Y-45469537D01*
X30526693Y-45612394D01*
X30479074Y-45707632D01*
X30431455Y-45755251D01*
X30336217Y-45802870D01*
X29955264Y-45802870D01*
X31098121Y-45707632D02*
X31002883Y-45660013D01*
X30955264Y-45612394D01*
X30907645Y-45517156D01*
X30907645Y-45469537D01*
X30955264Y-45374299D01*
X31002883Y-45326680D01*
X31098121Y-45279060D01*
X31288598Y-45279060D01*
X31383836Y-45326680D01*
X31431455Y-45374299D01*
X31479074Y-45469537D01*
X31479074Y-45517156D01*
X31431455Y-45612394D01*
X31383836Y-45660013D01*
X31288598Y-45707632D01*
X31098121Y-45707632D01*
X31002883Y-45755251D01*
X30955264Y-45802870D01*
X30907645Y-45898108D01*
X30907645Y-46088584D01*
X30955264Y-46183822D01*
X31002883Y-46231441D01*
X31098121Y-46279060D01*
X31288598Y-46279060D01*
X31383836Y-46231441D01*
X31431455Y-46183822D01*
X31479074Y-46088584D01*
X31479074Y-45898108D01*
X31431455Y-45802870D01*
X31383836Y-45755251D01*
X31288598Y-45707632D01*
X64633813Y-15733020D02*
X64300480Y-15256830D01*
X64062384Y-15733020D02*
X64062384Y-14733020D01*
X64443337Y-14733020D01*
X64538575Y-14780640D01*
X64586194Y-14828259D01*
X64633813Y-14923497D01*
X64633813Y-15066354D01*
X64586194Y-15161592D01*
X64538575Y-15209211D01*
X64443337Y-15256830D01*
X64062384Y-15256830D01*
X65110003Y-15733020D02*
X65300480Y-15733020D01*
X65395718Y-15685401D01*
X65443337Y-15637782D01*
X65538575Y-15494925D01*
X65586194Y-15304449D01*
X65586194Y-14923497D01*
X65538575Y-14828259D01*
X65490956Y-14780640D01*
X65395718Y-14733020D01*
X65205241Y-14733020D01*
X65110003Y-14780640D01*
X65062384Y-14828259D01*
X65014765Y-14923497D01*
X65014765Y-15161592D01*
X65062384Y-15256830D01*
X65110003Y-15304449D01*
X65205241Y-15352068D01*
X65395718Y-15352068D01*
X65490956Y-15304449D01*
X65538575Y-15256830D01*
X65586194Y-15161592D01*
X63568342Y-26136860D02*
X63235009Y-25660670D01*
X62996914Y-26136860D02*
X62996914Y-25136860D01*
X63377866Y-25136860D01*
X63473104Y-25184480D01*
X63520723Y-25232099D01*
X63568342Y-25327337D01*
X63568342Y-25470194D01*
X63520723Y-25565432D01*
X63473104Y-25613051D01*
X63377866Y-25660670D01*
X62996914Y-25660670D01*
X64520723Y-26136860D02*
X63949295Y-26136860D01*
X64235009Y-26136860D02*
X64235009Y-25136860D01*
X64139771Y-25279718D01*
X64044533Y-25374956D01*
X63949295Y-25422575D01*
X65139771Y-25136860D02*
X65235009Y-25136860D01*
X65330247Y-25184480D01*
X65377866Y-25232099D01*
X65425485Y-25327337D01*
X65473104Y-25517813D01*
X65473104Y-25755908D01*
X65425485Y-25946384D01*
X65377866Y-26041622D01*
X65330247Y-26089241D01*
X65235009Y-26136860D01*
X65139771Y-26136860D01*
X65044533Y-26089241D01*
X64996914Y-26041622D01*
X64949295Y-25946384D01*
X64901676Y-25755908D01*
X64901676Y-25517813D01*
X64949295Y-25327337D01*
X64996914Y-25232099D01*
X65044533Y-25184480D01*
X65139771Y-25136860D01*
X18069820Y-54556897D02*
X17593630Y-54890230D01*
X18069820Y-55128325D02*
X17069820Y-55128325D01*
X17069820Y-54747373D01*
X17117440Y-54652135D01*
X17165059Y-54604516D01*
X17260297Y-54556897D01*
X17403154Y-54556897D01*
X17498392Y-54604516D01*
X17546011Y-54652135D01*
X17593630Y-54747373D01*
X17593630Y-55128325D01*
X18069820Y-53604516D02*
X18069820Y-54175944D01*
X18069820Y-53890230D02*
X17069820Y-53890230D01*
X17212678Y-53985468D01*
X17307916Y-54080706D01*
X17355535Y-54175944D01*
X17165059Y-53223563D02*
X17117440Y-53175944D01*
X17069820Y-53080706D01*
X17069820Y-52842611D01*
X17117440Y-52747373D01*
X17165059Y-52699754D01*
X17260297Y-52652135D01*
X17355535Y-52652135D01*
X17498392Y-52699754D01*
X18069820Y-53271182D01*
X18069820Y-52652135D01*
X47622222Y-83484980D02*
X47288889Y-83008790D01*
X47050794Y-83484980D02*
X47050794Y-82484980D01*
X47431746Y-82484980D01*
X47526984Y-82532600D01*
X47574603Y-82580219D01*
X47622222Y-82675457D01*
X47622222Y-82818314D01*
X47574603Y-82913552D01*
X47526984Y-82961171D01*
X47431746Y-83008790D01*
X47050794Y-83008790D01*
X48574603Y-83484980D02*
X48003175Y-83484980D01*
X48288889Y-83484980D02*
X48288889Y-82484980D01*
X48193651Y-82627838D01*
X48098413Y-82723076D01*
X48003175Y-82770695D01*
X48907937Y-82484980D02*
X49526984Y-82484980D01*
X49193651Y-82865933D01*
X49336508Y-82865933D01*
X49431746Y-82913552D01*
X49479365Y-82961171D01*
X49526984Y-83056409D01*
X49526984Y-83294504D01*
X49479365Y-83389742D01*
X49431746Y-83437361D01*
X49336508Y-83484980D01*
X49050794Y-83484980D01*
X48955556Y-83437361D01*
X48907937Y-83389742D01*
X73118742Y-34996380D02*
X72785409Y-34520190D01*
X72547314Y-34996380D02*
X72547314Y-33996380D01*
X72928266Y-33996380D01*
X73023504Y-34044000D01*
X73071123Y-34091619D01*
X73118742Y-34186857D01*
X73118742Y-34329714D01*
X73071123Y-34424952D01*
X73023504Y-34472571D01*
X72928266Y-34520190D01*
X72547314Y-34520190D01*
X74071123Y-34996380D02*
X73499695Y-34996380D01*
X73785409Y-34996380D02*
X73785409Y-33996380D01*
X73690171Y-34139238D01*
X73594933Y-34234476D01*
X73499695Y-34282095D01*
X74928266Y-34329714D02*
X74928266Y-34996380D01*
X74690171Y-33948761D02*
X74452076Y-34663047D01*
X75071123Y-34663047D01*
X29753820Y-77015577D02*
X29277630Y-77348910D01*
X29753820Y-77587005D02*
X28753820Y-77587005D01*
X28753820Y-77206053D01*
X28801440Y-77110815D01*
X28849059Y-77063196D01*
X28944297Y-77015577D01*
X29087154Y-77015577D01*
X29182392Y-77063196D01*
X29230011Y-77110815D01*
X29277630Y-77206053D01*
X29277630Y-77587005D01*
X29753820Y-76063196D02*
X29753820Y-76634624D01*
X29753820Y-76348910D02*
X28753820Y-76348910D01*
X28896678Y-76444148D01*
X28991916Y-76539386D01*
X29039535Y-76634624D01*
X28753820Y-75158434D02*
X28753820Y-75634624D01*
X29230011Y-75682243D01*
X29182392Y-75634624D01*
X29134773Y-75539386D01*
X29134773Y-75301291D01*
X29182392Y-75206053D01*
X29230011Y-75158434D01*
X29325249Y-75110815D01*
X29563344Y-75110815D01*
X29658582Y-75158434D01*
X29706201Y-75206053D01*
X29753820Y-75301291D01*
X29753820Y-75539386D01*
X29706201Y-75634624D01*
X29658582Y-75682243D01*
X18069820Y-70030577D02*
X17593630Y-70363910D01*
X18069820Y-70602005D02*
X17069820Y-70602005D01*
X17069820Y-70221053D01*
X17117440Y-70125815D01*
X17165059Y-70078196D01*
X17260297Y-70030577D01*
X17403154Y-70030577D01*
X17498392Y-70078196D01*
X17546011Y-70125815D01*
X17593630Y-70221053D01*
X17593630Y-70602005D01*
X18069820Y-69078196D02*
X18069820Y-69649624D01*
X18069820Y-69363910D02*
X17069820Y-69363910D01*
X17212678Y-69459148D01*
X17307916Y-69554386D01*
X17355535Y-69649624D01*
X17069820Y-68221053D02*
X17069820Y-68411529D01*
X17117440Y-68506767D01*
X17165059Y-68554386D01*
X17307916Y-68649624D01*
X17498392Y-68697243D01*
X17879344Y-68697243D01*
X17974582Y-68649624D01*
X18022201Y-68602005D01*
X18069820Y-68506767D01*
X18069820Y-68316291D01*
X18022201Y-68221053D01*
X17974582Y-68173434D01*
X17879344Y-68125815D01*
X17641249Y-68125815D01*
X17546011Y-68173434D01*
X17498392Y-68221053D01*
X17450773Y-68316291D01*
X17450773Y-68506767D01*
X17498392Y-68602005D01*
X17546011Y-68649624D01*
X17641249Y-68697243D01*
X23112361Y-84157653D02*
X23159980Y-84014796D01*
X23159980Y-83776700D01*
X23112361Y-83681462D01*
X23064742Y-83633843D01*
X22969504Y-83586224D01*
X22874266Y-83586224D01*
X22779028Y-83633843D01*
X22731409Y-83681462D01*
X22683790Y-83776700D01*
X22636171Y-83967177D01*
X22588552Y-84062415D01*
X22540933Y-84110034D01*
X22445695Y-84157653D01*
X22350457Y-84157653D01*
X22255219Y-84110034D01*
X22207600Y-84062415D01*
X22159980Y-83967177D01*
X22159980Y-83729081D01*
X22207600Y-83586224D01*
X22159980Y-83252891D02*
X23159980Y-83014796D01*
X22445695Y-82824320D01*
X23159980Y-82633843D01*
X22159980Y-82395748D01*
X23159980Y-81490986D02*
X23159980Y-82062415D01*
X23159980Y-81776700D02*
X22159980Y-81776700D01*
X22302838Y-81871939D01*
X22398076Y-81967177D01*
X22445695Y-82062415D01*
X35107975Y-55327300D02*
X35107975Y-56136824D01*
X35155594Y-56232062D01*
X35203213Y-56279681D01*
X35298451Y-56327300D01*
X35488927Y-56327300D01*
X35584165Y-56279681D01*
X35631784Y-56232062D01*
X35679403Y-56136824D01*
X35679403Y-55327300D01*
X36679403Y-56327300D02*
X36107975Y-56327300D01*
X36393689Y-56327300D02*
X36393689Y-55327300D01*
X36298451Y-55470158D01*
X36203213Y-55565396D01*
X36107975Y-55613015D01*
X48082295Y-29983180D02*
X48082295Y-30792704D01*
X48129914Y-30887942D01*
X48177533Y-30935561D01*
X48272771Y-30983180D01*
X48463247Y-30983180D01*
X48558485Y-30935561D01*
X48606104Y-30887942D01*
X48653723Y-30792704D01*
X48653723Y-29983180D01*
X49034676Y-29983180D02*
X49653723Y-29983180D01*
X49320390Y-30364133D01*
X49463247Y-30364133D01*
X49558485Y-30411752D01*
X49606104Y-30459371D01*
X49653723Y-30554609D01*
X49653723Y-30792704D01*
X49606104Y-30887942D01*
X49558485Y-30935561D01*
X49463247Y-30983180D01*
X49177533Y-30983180D01*
X49082295Y-30935561D01*
X49034676Y-30887942D01*
X15323986Y-91445460D02*
X14990653Y-90969270D01*
X14752558Y-91445460D02*
X14752558Y-90445460D01*
X15133510Y-90445460D01*
X15228748Y-90493080D01*
X15276367Y-90540699D01*
X15323986Y-90635937D01*
X15323986Y-90778794D01*
X15276367Y-90874032D01*
X15228748Y-90921651D01*
X15133510Y-90969270D01*
X14752558Y-90969270D01*
X15752558Y-90921651D02*
X16085891Y-90921651D01*
X16228748Y-91445460D02*
X15752558Y-91445460D01*
X15752558Y-90445460D01*
X16228748Y-90445460D01*
X16990653Y-90921651D02*
X16657320Y-90921651D01*
X16657320Y-91445460D02*
X16657320Y-90445460D01*
X17133510Y-90445460D01*
X17657320Y-90445460D02*
X17657320Y-90683556D01*
X17419224Y-90588318D02*
X17657320Y-90683556D01*
X17895415Y-90588318D01*
X17514462Y-90874032D02*
X17657320Y-90683556D01*
X17800177Y-90874032D01*
X18419224Y-90445460D02*
X18419224Y-90683556D01*
X18181129Y-90588318D02*
X18419224Y-90683556D01*
X18657320Y-90588318D01*
X18276367Y-90874032D02*
X18419224Y-90683556D01*
X18562081Y-90874032D01*
X103030186Y-13279500D02*
X102696853Y-12803310D01*
X102458758Y-13279500D02*
X102458758Y-12279500D01*
X102839710Y-12279500D01*
X102934948Y-12327120D01*
X102982567Y-12374739D01*
X103030186Y-12469977D01*
X103030186Y-12612834D01*
X102982567Y-12708072D01*
X102934948Y-12755691D01*
X102839710Y-12803310D01*
X102458758Y-12803310D01*
X103458758Y-12755691D02*
X103792091Y-12755691D01*
X103934948Y-13279500D02*
X103458758Y-13279500D01*
X103458758Y-12279500D01*
X103934948Y-12279500D01*
X104696853Y-12755691D02*
X104363520Y-12755691D01*
X104363520Y-13279500D02*
X104363520Y-12279500D01*
X104839710Y-12279500D01*
X105363520Y-12279500D02*
X105363520Y-12517596D01*
X105125424Y-12422358D02*
X105363520Y-12517596D01*
X105601615Y-12422358D01*
X105220662Y-12708072D02*
X105363520Y-12517596D01*
X105506377Y-12708072D01*
X106125424Y-12279500D02*
X106125424Y-12517596D01*
X105887329Y-12422358D02*
X106125424Y-12517596D01*
X106363520Y-12422358D01*
X105982567Y-12708072D02*
X106125424Y-12517596D01*
X106268281Y-12708072D01*
X15176666Y-13208380D02*
X14843333Y-12732190D01*
X14605238Y-13208380D02*
X14605238Y-12208380D01*
X14986190Y-12208380D01*
X15081428Y-12256000D01*
X15129047Y-12303619D01*
X15176666Y-12398857D01*
X15176666Y-12541714D01*
X15129047Y-12636952D01*
X15081428Y-12684571D01*
X14986190Y-12732190D01*
X14605238Y-12732190D01*
X15605238Y-12684571D02*
X15938571Y-12684571D01*
X16081428Y-13208380D02*
X15605238Y-13208380D01*
X15605238Y-12208380D01*
X16081428Y-12208380D01*
X16843333Y-12684571D02*
X16510000Y-12684571D01*
X16510000Y-13208380D02*
X16510000Y-12208380D01*
X16986190Y-12208380D01*
X17510000Y-12208380D02*
X17510000Y-12446476D01*
X17271904Y-12351238D02*
X17510000Y-12446476D01*
X17748095Y-12351238D01*
X17367142Y-12636952D02*
X17510000Y-12446476D01*
X17652857Y-12636952D01*
X18271904Y-12208380D02*
X18271904Y-12446476D01*
X18033809Y-12351238D02*
X18271904Y-12446476D01*
X18510000Y-12351238D01*
X18129047Y-12636952D02*
X18271904Y-12446476D01*
X18414761Y-12636952D01*
X51085761Y-94273619D02*
X50990523Y-94226000D01*
X50895285Y-94130761D01*
X50752428Y-93987904D01*
X50657190Y-93940285D01*
X50561952Y-93940285D01*
X50609571Y-94178380D02*
X50514333Y-94130761D01*
X50419095Y-94035523D01*
X50371476Y-93845047D01*
X50371476Y-93511714D01*
X50419095Y-93321238D01*
X50514333Y-93226000D01*
X50609571Y-93178380D01*
X50800047Y-93178380D01*
X50895285Y-93226000D01*
X50990523Y-93321238D01*
X51038142Y-93511714D01*
X51038142Y-93845047D01*
X50990523Y-94035523D01*
X50895285Y-94130761D01*
X50800047Y-94178380D01*
X50609571Y-94178380D01*
X51990523Y-94178380D02*
X51419095Y-94178380D01*
X51704809Y-94178380D02*
X51704809Y-93178380D01*
X51609571Y-93321238D01*
X51514333Y-93416476D01*
X51419095Y-93464095D01*
X86269841Y-14167099D02*
X86174603Y-14119480D01*
X86079365Y-14024241D01*
X85936508Y-13881384D01*
X85841270Y-13833765D01*
X85746032Y-13833765D01*
X85793651Y-14071860D02*
X85698413Y-14024241D01*
X85603175Y-13929003D01*
X85555556Y-13738527D01*
X85555556Y-13405194D01*
X85603175Y-13214718D01*
X85698413Y-13119480D01*
X85793651Y-13071860D01*
X85984127Y-13071860D01*
X86079365Y-13119480D01*
X86174603Y-13214718D01*
X86222222Y-13405194D01*
X86222222Y-13738527D01*
X86174603Y-13929003D01*
X86079365Y-14024241D01*
X85984127Y-14071860D01*
X85793651Y-14071860D01*
X86603175Y-13167099D02*
X86650794Y-13119480D01*
X86746032Y-13071860D01*
X86984127Y-13071860D01*
X87079365Y-13119480D01*
X87126984Y-13167099D01*
X87174603Y-13262337D01*
X87174603Y-13357575D01*
X87126984Y-13500432D01*
X86555556Y-14071860D01*
X87174603Y-14071860D01*
X15414666Y-31824380D02*
X15414666Y-32538666D01*
X15367047Y-32681523D01*
X15271809Y-32776761D01*
X15128952Y-32824380D01*
X15033714Y-32824380D01*
X16414666Y-32824380D02*
X15843238Y-32824380D01*
X16128952Y-32824380D02*
X16128952Y-31824380D01*
X16033714Y-31967238D01*
X15938476Y-32062476D01*
X15843238Y-32110095D01*
X15414666Y-46048380D02*
X15414666Y-46762666D01*
X15367047Y-46905523D01*
X15271809Y-47000761D01*
X15128952Y-47048380D01*
X15033714Y-47048380D01*
X15843238Y-46143619D02*
X15890857Y-46096000D01*
X15986095Y-46048380D01*
X16224190Y-46048380D01*
X16319428Y-46096000D01*
X16367047Y-46143619D01*
X16414666Y-46238857D01*
X16414666Y-46334095D01*
X16367047Y-46476952D01*
X15795619Y-47048380D01*
X16414666Y-47048380D01*
X102724626Y-87531660D02*
X102724626Y-88245946D01*
X102677007Y-88388803D01*
X102581769Y-88484041D01*
X102438912Y-88531660D01*
X102343674Y-88531660D01*
X103105579Y-87531660D02*
X103724626Y-87531660D01*
X103391293Y-87912613D01*
X103534150Y-87912613D01*
X103629388Y-87960232D01*
X103677007Y-88007851D01*
X103724626Y-88103089D01*
X103724626Y-88341184D01*
X103677007Y-88436422D01*
X103629388Y-88484041D01*
X103534150Y-88531660D01*
X103248436Y-88531660D01*
X103153198Y-88484041D01*
X103105579Y-88436422D01*
X96278106Y-98773700D02*
X96278106Y-99487986D01*
X96230487Y-99630843D01*
X96135249Y-99726081D01*
X95992392Y-99773700D01*
X95897154Y-99773700D01*
X97182868Y-99107034D02*
X97182868Y-99773700D01*
X96944773Y-98726081D02*
X96706678Y-99440367D01*
X97325725Y-99440367D01*
M02*
