%TF.GenerationSoftware,KiCad,Pcbnew,(5.0.2)-1*%
%TF.CreationDate,2018-12-26T10:29:12+09:00*%
%TF.ProjectId,16F676-mppt,31364636-3736-42d6-9d70-70742e6b6963,1.7*%
%TF.SameCoordinates,Original*%
%TF.FileFunction,Copper,L2,Bot*%
%TF.FilePolarity,Positive*%
%FSLAX46Y46*%
G04 Gerber Fmt 4.6, Leading zero omitted, Abs format (unit mm)*
G04 Created by KiCad (PCBNEW (5.0.2)-1) date 2018-12-26 오전 10:29:12*
%MOMM*%
%LPD*%
G01*
G04 APERTURE LIST*
%ADD10C,5.000000*%
%ADD11R,1.600000X1.600000*%
%ADD12O,1.600000X1.600000*%
%ADD13R,2.400000X2.400000*%
%ADD14C,2.400000*%
%ADD15C,2.000000*%
%ADD16R,3.200000X3.200000*%
%ADD17O,3.200000X3.200000*%
%ADD18R,2.200000X2.200000*%
%ADD19O,2.200000X2.200000*%
%ADD20R,1.800000X1.800000*%
%ADD21C,1.800000*%
%ADD22C,3.600000*%
%ADD23C,1.520000*%
%ADD24R,1.520000X1.520000*%
%ADD25C,1.600000*%
%ADD26O,1.800000X1.800000*%
%ADD27O,1.501140X2.499360*%
%ADD28O,1.699260X3.500120*%
%ADD29C,2.600000*%
%ADD30C,0.600000*%
%ADD31C,1.500000*%
%ADD32C,1.000000*%
%ADD33C,3.000000*%
%ADD34C,2.000000*%
%ADD35C,1.200000*%
%ADD36C,0.254000*%
G04 APERTURE END LIST*
D10*
X104409240Y-94604840D03*
D11*
X44958000Y-55880000D03*
D12*
X52578000Y-63500000D03*
X44958000Y-58420000D03*
X52578000Y-60960000D03*
X44958000Y-60960000D03*
X52578000Y-58420000D03*
X44958000Y-63500000D03*
X52578000Y-55880000D03*
D13*
X68072000Y-78994000D03*
D14*
X68072000Y-83994000D03*
D13*
X83058000Y-37592000D03*
D14*
X88058000Y-37592000D03*
D13*
X37561520Y-37551360D03*
D14*
X32561520Y-37551360D03*
D15*
X58166000Y-38862000D03*
X58166000Y-46362000D03*
D13*
X70612000Y-67310000D03*
D14*
X65612000Y-67310000D03*
D13*
X47752000Y-22352000D03*
D14*
X52752000Y-22352000D03*
D16*
X102224840Y-39740840D03*
D17*
X102224840Y-24500840D03*
D16*
X92710000Y-86360000D03*
D17*
X77470000Y-86360000D03*
D18*
X68326000Y-28702000D03*
D19*
X58166000Y-28702000D03*
D20*
X33548320Y-88833960D03*
D21*
X31008320Y-88833960D03*
D18*
X24516080Y-41925240D03*
D19*
X24516080Y-31765240D03*
D16*
X38862000Y-26162000D03*
D17*
X23622000Y-26162000D03*
D16*
X38862000Y-18542000D03*
D17*
X23622000Y-18542000D03*
D20*
X61976000Y-56134000D03*
D21*
X61976000Y-58674000D03*
D20*
X68834000Y-56134000D03*
D21*
X68834000Y-58674000D03*
D16*
X96072960Y-39740840D03*
D17*
X96072960Y-24500840D03*
D16*
X92710000Y-92710000D03*
D17*
X77470000Y-92710000D03*
D22*
X91186000Y-79502000D03*
X91186000Y-66802000D03*
X91186000Y-48006000D03*
X91186000Y-60706000D03*
D23*
X76200000Y-26416000D03*
X76200000Y-23876000D03*
D24*
X76200000Y-28956000D03*
D23*
X82550000Y-26416000D03*
X82550000Y-28956000D03*
D24*
X82550000Y-23876000D03*
D23*
X88138000Y-26416000D03*
X88138000Y-28956000D03*
D24*
X88138000Y-23876000D03*
D25*
X36819840Y-82301080D03*
D12*
X36819840Y-69601080D03*
D25*
X42164000Y-74422000D03*
D12*
X54864000Y-74422000D03*
D25*
X54864000Y-85852000D03*
D12*
X42164000Y-85852000D03*
D25*
X59182000Y-73152000D03*
D12*
X59182000Y-85852000D03*
D25*
X20574000Y-31496000D03*
D12*
X20574000Y-44196000D03*
D25*
X26416000Y-64262000D03*
D12*
X39116000Y-64262000D03*
D25*
X65278000Y-52324000D03*
D12*
X52578000Y-52324000D03*
D25*
X24511000Y-59639200D03*
D12*
X37211000Y-59639200D03*
D25*
X58420000Y-22606000D03*
D12*
X71120000Y-22606000D03*
D25*
X71120000Y-18288000D03*
D12*
X58420000Y-18288000D03*
D25*
X20574000Y-47498000D03*
D12*
X20574000Y-60198000D03*
D25*
X54864000Y-80010000D03*
D12*
X42164000Y-80010000D03*
D25*
X58166000Y-33274000D03*
D12*
X70866000Y-33274000D03*
D25*
X31734760Y-82301080D03*
D12*
X31734760Y-69601080D03*
D25*
X20574000Y-76454000D03*
D12*
X20574000Y-63754000D03*
D15*
X25048600Y-86126320D03*
X20548600Y-86126320D03*
X25048600Y-79626320D03*
X20548600Y-79626320D03*
D20*
X28376880Y-47685960D03*
D26*
X30916880Y-47685960D03*
X33456880Y-47685960D03*
D11*
X44958000Y-33274000D03*
D12*
X52578000Y-48514000D03*
X44958000Y-35814000D03*
X52578000Y-45974000D03*
X44958000Y-38354000D03*
X52578000Y-43434000D03*
X44958000Y-40894000D03*
X52578000Y-40894000D03*
X44958000Y-43434000D03*
X52578000Y-38354000D03*
X44958000Y-45974000D03*
X52578000Y-35814000D03*
X44958000Y-48514000D03*
X52578000Y-33274000D03*
D10*
X16657320Y-94493080D03*
X104363520Y-16327120D03*
X16510000Y-16256000D03*
D27*
X44704000Y-93726000D03*
X47244000Y-93726000D03*
X42164000Y-93726000D03*
D28*
X86365080Y-18699480D03*
X83825080Y-18699480D03*
X88905080Y-18699480D03*
D29*
X15748000Y-29972000D03*
X15748000Y-44196000D03*
X103057960Y-85679280D03*
X96611440Y-96921320D03*
D23*
X36581080Y-53929280D03*
X36581080Y-51389280D03*
D24*
X36581080Y-56469280D03*
X30952440Y-51379120D03*
D23*
X30952440Y-56459120D03*
X30952440Y-53919120D03*
D30*
X56850280Y-61087000D03*
D31*
X82550000Y-37084000D02*
X83058000Y-37592000D01*
X82550000Y-28956000D02*
X82550000Y-37084000D01*
X62230000Y-22606000D02*
X58420000Y-22606000D01*
X68326000Y-28702000D02*
X62230000Y-22606000D01*
D32*
X89408000Y-28956000D02*
X90678000Y-27686000D01*
D31*
X88905080Y-19599910D02*
X88905080Y-18699480D01*
X91254710Y-21949540D02*
X88905080Y-19599910D01*
X91254710Y-27109290D02*
X91254710Y-21949540D01*
X90678000Y-27686000D02*
X91254710Y-27109290D01*
X88138000Y-37512000D02*
X88058000Y-37592000D01*
X88138000Y-28956000D02*
X88138000Y-37512000D01*
X89408000Y-28956000D02*
X91254710Y-27109290D01*
X88138000Y-28956000D02*
X89408000Y-28956000D01*
D33*
X102224840Y-24500840D02*
X96072960Y-24500840D01*
X94472961Y-22900841D02*
X94244361Y-22900841D01*
X96072960Y-24500840D02*
X94472961Y-22900841D01*
X94244361Y-22900841D02*
X90043000Y-18699480D01*
D32*
X58166000Y-33274000D02*
X58166000Y-38862000D01*
X58166000Y-33274000D02*
X58166000Y-28702000D01*
D31*
X41838880Y-33274000D02*
X37561520Y-37551360D01*
X44958000Y-33274000D02*
X41838880Y-33274000D01*
X48910240Y-34926240D02*
X48910240Y-53343610D01*
X44958000Y-33274000D02*
X47258000Y-33274000D01*
X51446630Y-55880000D02*
X48910240Y-53343610D01*
X52578000Y-55880000D02*
X51446630Y-55880000D01*
X47258000Y-33274000D02*
X48910240Y-34926240D01*
D32*
X37561520Y-43581320D02*
X37561520Y-37551360D01*
X33456880Y-47685960D02*
X37561520Y-43581320D01*
D33*
X38862000Y-26162000D02*
X43942000Y-26162000D01*
X43942000Y-26162000D02*
X47752000Y-22352000D01*
X38862000Y-18542000D02*
X38862000Y-26162000D01*
X47752000Y-18152000D02*
X51961990Y-13942010D01*
X47752000Y-22352000D02*
X47752000Y-18152000D01*
X51961990Y-13942010D02*
X86365080Y-13942010D01*
D31*
X86365080Y-16885920D02*
X86365080Y-18699480D01*
D33*
X86365080Y-13942010D02*
X86365080Y-15529560D01*
D34*
X86365080Y-15529560D02*
X86365080Y-16885920D01*
D33*
X91186000Y-79502000D02*
X91186000Y-79756000D01*
X91186000Y-79756000D02*
X92710000Y-81280000D01*
X92710000Y-81280000D02*
X92710000Y-86360000D01*
X92710000Y-86360000D02*
X92710000Y-92710000D01*
X91186000Y-44627800D02*
X96072960Y-39740840D01*
X91186000Y-48006000D02*
X91186000Y-44627800D01*
X102224840Y-39740840D02*
X96072960Y-39740840D01*
D32*
X24516080Y-43825160D02*
X28376880Y-47685960D01*
X24516080Y-41925240D02*
X24516080Y-43825160D01*
X61976000Y-56134000D02*
X65024000Y-56134000D01*
X65532000Y-58674000D02*
X68834000Y-58674000D01*
X65532000Y-56642000D02*
X65532000Y-58674000D01*
X65024000Y-56134000D02*
X65532000Y-56642000D01*
D31*
X82550000Y-23876000D02*
X88138000Y-23876000D01*
X83825080Y-22600920D02*
X82550000Y-23876000D01*
X83825080Y-18699480D02*
X83825080Y-22600920D01*
X72390000Y-23876000D02*
X71120000Y-22606000D01*
X76200000Y-23876000D02*
X72390000Y-23876000D01*
X66802000Y-18288000D02*
X58420000Y-18288000D01*
X71120000Y-22606000D02*
X66802000Y-18288000D01*
D32*
X80502760Y-26416000D02*
X82550000Y-26416000D01*
X79954120Y-25867360D02*
X80502760Y-26416000D01*
X79959200Y-24038560D02*
X79954120Y-25867360D01*
X77241400Y-21579840D02*
X79959200Y-24038560D01*
X71120000Y-18288000D02*
X74416920Y-21584920D01*
X74416920Y-21584920D02*
X77241400Y-21579840D01*
D31*
X82550000Y-26416000D02*
X88138000Y-26416000D01*
D32*
X31734760Y-74686160D02*
X36819840Y-69601080D01*
X31734760Y-82301080D02*
X31734760Y-74686160D01*
X52324000Y-63500000D02*
X52324000Y-66548000D01*
X51054000Y-67818000D02*
X51054000Y-74422000D01*
X52324000Y-66548000D02*
X51054000Y-67818000D01*
X42164000Y-80010000D02*
X44704000Y-80010000D01*
X50292000Y-74422000D02*
X51054000Y-74422000D01*
X51054000Y-74422000D02*
X54864000Y-74422000D01*
X44704000Y-80010000D02*
X50292000Y-74422000D01*
X59182000Y-85852000D02*
X54864000Y-85852000D01*
X53709370Y-60960000D02*
X56896000Y-64146630D01*
X52578000Y-60960000D02*
X53709370Y-60960000D01*
X56896000Y-83820000D02*
X54864000Y-85852000D01*
X56896000Y-64146630D02*
X56896000Y-83820000D01*
X44704000Y-60960000D02*
X47244000Y-60960000D01*
X49784000Y-58420000D02*
X52324000Y-58420000D01*
X47244000Y-60960000D02*
X49784000Y-58420000D01*
X20574000Y-44196000D02*
X20574000Y-47498000D01*
X24582120Y-59695080D02*
X31699200Y-59695080D01*
X31699200Y-59591160D02*
X31699200Y-59695080D01*
X34821080Y-56469280D02*
X31699200Y-59591160D01*
X36581080Y-56469280D02*
X34821080Y-56469280D01*
X39116000Y-63130630D02*
X39080440Y-63095070D01*
X39116000Y-64262000D02*
X39116000Y-63130630D01*
X39080440Y-63095070D02*
X39080440Y-48712120D01*
X41818560Y-45974000D02*
X44958000Y-45974000D01*
X39080440Y-48712120D02*
X41818560Y-45974000D01*
X53709370Y-35814000D02*
X55402480Y-37507110D01*
X52578000Y-35814000D02*
X53709370Y-35814000D01*
X55402480Y-37507110D02*
X55402480Y-59639200D01*
X62275720Y-66512440D02*
X62275720Y-70027800D01*
X62275720Y-70027800D02*
X65059560Y-72811640D01*
X65059560Y-72811640D02*
X69469000Y-72811640D01*
X70612000Y-71668640D02*
X70612000Y-67310000D01*
X69469000Y-72811640D02*
X70612000Y-71668640D01*
X55402480Y-59639200D02*
X56850280Y-61087000D01*
X56850280Y-61087000D02*
X62275720Y-66512440D01*
X20574000Y-75322630D02*
X28571390Y-67325240D01*
X20574000Y-76454000D02*
X20574000Y-75322630D01*
X28571390Y-67325240D02*
X40233600Y-67325240D01*
X40233600Y-67325240D02*
X41595040Y-65963800D01*
X41595040Y-65963800D02*
X41595040Y-49748440D01*
X42829480Y-48514000D02*
X44958000Y-48514000D01*
X41595040Y-49748440D02*
X42829480Y-48514000D01*
D31*
X25048600Y-79626320D02*
X25048600Y-86126320D01*
X21876280Y-76454000D02*
X25048600Y-79626320D01*
X20574000Y-76454000D02*
X21876280Y-76454000D01*
D33*
X91186000Y-66802000D02*
X87630000Y-66802000D01*
X75438000Y-78994000D02*
X68072000Y-78994000D01*
X87630000Y-66802000D02*
X75438000Y-78994000D01*
X91186000Y-60706000D02*
X91186000Y-66802000D01*
X103057960Y-78673960D02*
X91186000Y-66802000D01*
X103057960Y-85679280D02*
X103057960Y-78673960D01*
X77470000Y-86360000D02*
X70438000Y-86360000D01*
X70438000Y-86360000D02*
X68072000Y-83994000D01*
X68072000Y-90170000D02*
X68072000Y-83994000D01*
X77470000Y-86360000D02*
X77470000Y-92710000D01*
D32*
X48260000Y-80010000D02*
X54864000Y-80010000D01*
D33*
X59182000Y-98044000D02*
X62992000Y-97028000D01*
X62992000Y-97028000D02*
X68072000Y-90170000D01*
X44704000Y-98044000D02*
X59182000Y-98044000D01*
D32*
X44704000Y-98044000D02*
X44450000Y-98298000D01*
X44704000Y-93726000D02*
X44704000Y-83566000D01*
X44704000Y-83566000D02*
X48260000Y-80010000D01*
D33*
X44704000Y-98044000D02*
X44704000Y-96128840D01*
D31*
X44704000Y-93726000D02*
X44704000Y-96128840D01*
D33*
X81681320Y-96921320D02*
X77470000Y-92710000D01*
X96611440Y-96921320D02*
X81681320Y-96921320D01*
D32*
X65612000Y-67310000D02*
X65612000Y-65198000D01*
X72136000Y-56134000D02*
X68834000Y-56134000D01*
X72898000Y-56896000D02*
X72136000Y-56134000D01*
X72898000Y-60198000D02*
X72898000Y-56896000D01*
X71120000Y-61976000D02*
X72898000Y-60198000D01*
X68834000Y-61976000D02*
X71120000Y-61976000D01*
X65612000Y-65198000D02*
X68834000Y-61976000D01*
D33*
X16002000Y-44450000D02*
X15748000Y-44196000D01*
D34*
X16002000Y-60198000D02*
X15748000Y-60452000D01*
X20574000Y-60198000D02*
X16002000Y-60198000D01*
D31*
X49601120Y-30297120D02*
X38118704Y-30297120D01*
X52578000Y-33274000D02*
X49601120Y-30297120D01*
X32561520Y-35854304D02*
X38118704Y-30297120D01*
X32561520Y-37551360D02*
X32561520Y-35854304D01*
X52578000Y-22526000D02*
X52752000Y-22352000D01*
X52578000Y-33274000D02*
X52578000Y-22526000D01*
X56054000Y-25654000D02*
X52752000Y-22352000D01*
X61214000Y-25654000D02*
X56054000Y-25654000D01*
X62484000Y-26924000D02*
X61214000Y-25654000D01*
X58166000Y-46362000D02*
X62484000Y-42044000D01*
D33*
X19248120Y-87426800D02*
X20548600Y-86126320D01*
X15748000Y-87426800D02*
X19248120Y-87426800D01*
X20548600Y-86126320D02*
X20548600Y-88823800D01*
X20548600Y-88823800D02*
X25501600Y-93776800D01*
X25501600Y-93776800D02*
X40497760Y-93776800D01*
D31*
X42113200Y-93776800D02*
X42164000Y-93726000D01*
X40497760Y-93776800D02*
X42113200Y-93776800D01*
X42164000Y-85852000D02*
X42164000Y-93726000D01*
X20548600Y-79626320D02*
X20548600Y-86126320D01*
D33*
X15748000Y-59944000D02*
X15748000Y-44196000D01*
X16002000Y-60198000D02*
X15748000Y-59944000D01*
X15748000Y-44196000D02*
X15748000Y-64805560D01*
X15748000Y-60452000D02*
X15748000Y-64805560D01*
X15748000Y-64805560D02*
X15748000Y-87426800D01*
X15748000Y-44196000D02*
X15748000Y-87426800D01*
D32*
X33548320Y-85572600D02*
X36819840Y-82301080D01*
X33548320Y-88833960D02*
X33548320Y-85572600D01*
X40370760Y-85852000D02*
X36819840Y-82301080D01*
X42164000Y-85852000D02*
X40370760Y-85852000D01*
X36819840Y-79766160D02*
X42164000Y-74422000D01*
X36819840Y-82301080D02*
X36819840Y-79766160D01*
X42963999Y-73622001D02*
X42164000Y-74422000D01*
X44158001Y-72427999D02*
X42963999Y-73622001D01*
X44158001Y-64299999D02*
X44158001Y-72427999D01*
X44958000Y-63500000D02*
X44158001Y-64299999D01*
D35*
X29392880Y-51379120D02*
X30952440Y-51379120D01*
X20574000Y-60198000D02*
X29392880Y-51379120D01*
X30952440Y-47721520D02*
X30916880Y-47685960D01*
X30952440Y-51379120D02*
X30952440Y-47721520D01*
X30916880Y-39196000D02*
X32561520Y-37551360D01*
X30916880Y-47685960D02*
X30916880Y-39196000D01*
X58166000Y-46362000D02*
X65843800Y-46362000D01*
X68834000Y-49352200D02*
X68834000Y-56134000D01*
X65843800Y-46362000D02*
X68834000Y-49352200D01*
X76200000Y-30916000D02*
X76240640Y-30956640D01*
X76200000Y-28956000D02*
X76200000Y-30916000D01*
X76240640Y-30956640D02*
X76240640Y-33837880D01*
X73060560Y-37017960D02*
X62484000Y-37017960D01*
X76240640Y-33837880D02*
X73060560Y-37017960D01*
D31*
X62484000Y-42044000D02*
X62484000Y-37017960D01*
X62484000Y-37017960D02*
X62484000Y-26924000D01*
D32*
X20574000Y-31496000D02*
X20574000Y-31242000D01*
X20574000Y-31242000D02*
X19304000Y-29972000D01*
X25654000Y-32258000D02*
X24892000Y-32258000D01*
X24892000Y-32258000D02*
X23622000Y-30988000D01*
D33*
X15748000Y-29972000D02*
X19304000Y-29972000D01*
X19304000Y-29972000D02*
X19812000Y-29972000D01*
X19812000Y-29972000D02*
X23622000Y-26162000D01*
X23622000Y-26162000D02*
X23622000Y-30988000D01*
X23622000Y-30988000D02*
X23622000Y-31242000D01*
X23622000Y-26162000D02*
X23622000Y-18542000D01*
D32*
X30952440Y-56459120D02*
X30952440Y-53919120D01*
X36570920Y-53919120D02*
X36581080Y-53929280D01*
X30952440Y-53919120D02*
X36570920Y-53919120D01*
X36581080Y-51389280D02*
X36581080Y-53929280D01*
D36*
G36*
X107322628Y-15278119D02*
X107022084Y-14552541D01*
X107021642Y-14552247D01*
X107021244Y-14551285D01*
X106139355Y-13669396D01*
X106138393Y-13668998D01*
X106138099Y-13668556D01*
X105561970Y-13430235D01*
X104987110Y-13192120D01*
X104986339Y-13192120D01*
X104985628Y-13191826D01*
X104363097Y-13192120D01*
X103739930Y-13192120D01*
X103739219Y-13192415D01*
X103738448Y-13192415D01*
X102588941Y-13668556D01*
X102588647Y-13668998D01*
X102587685Y-13669396D01*
X101705796Y-14551285D01*
X101705398Y-14552247D01*
X101704956Y-14552541D01*
X101466635Y-15128670D01*
X101228520Y-15703530D01*
X101228520Y-15704301D01*
X101228226Y-15705012D01*
X101228520Y-16327120D01*
X101228520Y-16950710D01*
X101228815Y-16951421D01*
X101228815Y-16952192D01*
X101704956Y-18101699D01*
X101705398Y-18101993D01*
X101705796Y-18102955D01*
X102587685Y-18984844D01*
X102588647Y-18985242D01*
X102588941Y-18985684D01*
X103165070Y-19224005D01*
X103739930Y-19462120D01*
X103740701Y-19462120D01*
X103741412Y-19462414D01*
X104363943Y-19462120D01*
X104987110Y-19462120D01*
X104987821Y-19461825D01*
X104988592Y-19461825D01*
X106138099Y-18985684D01*
X106138393Y-18985242D01*
X106139355Y-18984844D01*
X107021244Y-18102955D01*
X107021642Y-18101993D01*
X107022084Y-18101699D01*
X107260405Y-17525570D01*
X107328789Y-17360477D01*
X107568624Y-98425000D01*
X98174455Y-98425000D01*
X98622566Y-97754356D01*
X98788267Y-96921320D01*
X98622566Y-96088284D01*
X98150689Y-95382071D01*
X97444476Y-94910194D01*
X96821719Y-94786320D01*
X94740106Y-94786320D01*
X94767809Y-94767809D01*
X94908157Y-94557765D01*
X94957440Y-94310000D01*
X94957440Y-93982732D01*
X101273946Y-93982732D01*
X101274240Y-94604840D01*
X101274240Y-95228430D01*
X101274535Y-95229141D01*
X101274535Y-95229912D01*
X101750676Y-96379419D01*
X101751118Y-96379713D01*
X101751516Y-96380675D01*
X102633405Y-97262564D01*
X102634367Y-97262962D01*
X102634661Y-97263404D01*
X103210790Y-97501725D01*
X103785650Y-97739840D01*
X103786421Y-97739840D01*
X103787132Y-97740134D01*
X104409663Y-97739840D01*
X105032830Y-97739840D01*
X105033541Y-97739545D01*
X105034312Y-97739545D01*
X106183819Y-97263404D01*
X106184113Y-97262962D01*
X106185075Y-97262564D01*
X107066964Y-96380675D01*
X107067362Y-96379713D01*
X107067804Y-96379419D01*
X107306125Y-95803290D01*
X107544240Y-95228430D01*
X107544240Y-95227659D01*
X107544534Y-95226948D01*
X107544240Y-94604417D01*
X107544240Y-93981250D01*
X107543945Y-93980539D01*
X107543945Y-93979768D01*
X107067804Y-92830261D01*
X107067362Y-92829967D01*
X107066964Y-92829005D01*
X106185075Y-91947116D01*
X106184113Y-91946718D01*
X106183819Y-91946276D01*
X105607690Y-91707955D01*
X105032830Y-91469840D01*
X105032059Y-91469840D01*
X105031348Y-91469546D01*
X104408817Y-91469840D01*
X103785650Y-91469840D01*
X103784939Y-91470135D01*
X103784168Y-91470135D01*
X102634661Y-91946276D01*
X102634367Y-91946718D01*
X102633405Y-91947116D01*
X101751516Y-92829005D01*
X101751118Y-92829967D01*
X101750676Y-92830261D01*
X101512355Y-93406390D01*
X101274240Y-93981250D01*
X101274240Y-93982021D01*
X101273946Y-93982732D01*
X94957440Y-93982732D01*
X94957440Y-91110000D01*
X94908157Y-90862235D01*
X94845000Y-90767715D01*
X94845000Y-88302285D01*
X94908157Y-88207765D01*
X94957440Y-87960000D01*
X94957440Y-84760000D01*
X94908157Y-84512235D01*
X94845000Y-84417715D01*
X94845000Y-81490273D01*
X94886826Y-81279999D01*
X94845000Y-81069726D01*
X94845000Y-81069721D01*
X94721126Y-80446964D01*
X94249249Y-79740751D01*
X94070984Y-79621638D01*
X93621000Y-79171654D01*
X93621000Y-79017648D01*
X93250293Y-78122684D01*
X92565316Y-77437707D01*
X91670352Y-77067000D01*
X90701648Y-77067000D01*
X89806684Y-77437707D01*
X89121707Y-78122684D01*
X88751000Y-79017648D01*
X88751000Y-79986352D01*
X89121707Y-80881316D01*
X89806684Y-81566293D01*
X90097343Y-81686688D01*
X90575000Y-82164346D01*
X90575001Y-84417714D01*
X90511843Y-84512235D01*
X90462560Y-84760000D01*
X90462560Y-87960000D01*
X90511843Y-88207765D01*
X90575000Y-88302286D01*
X90575001Y-90767714D01*
X90511843Y-90862235D01*
X90462560Y-91110000D01*
X90462560Y-94310000D01*
X90511843Y-94557765D01*
X90652191Y-94767809D01*
X90679894Y-94786320D01*
X82565666Y-94786320D01*
X79605000Y-91825655D01*
X79605000Y-87082862D01*
X79748786Y-86360000D01*
X79575324Y-85487946D01*
X79081345Y-84748655D01*
X78342054Y-84254676D01*
X77690128Y-84125000D01*
X77249872Y-84125000D01*
X76747137Y-84225000D01*
X71322346Y-84225000D01*
X69730364Y-82633019D01*
X69611249Y-82454751D01*
X68905036Y-81982874D01*
X68072000Y-81817173D01*
X67238965Y-81982874D01*
X66532751Y-82454751D01*
X66060874Y-83160965D01*
X65895174Y-83994000D01*
X65937001Y-84204279D01*
X65937000Y-89465387D01*
X61720687Y-95157410D01*
X58902224Y-95909000D01*
X46837098Y-95909000D01*
X46764173Y-95542381D01*
X47244000Y-95637824D01*
X47784621Y-95530288D01*
X48242939Y-95224050D01*
X48549178Y-94765732D01*
X48629570Y-94361573D01*
X48629570Y-93090427D01*
X48549178Y-92686268D01*
X48242940Y-92227950D01*
X47784622Y-91921712D01*
X47244000Y-91814176D01*
X46703379Y-91921712D01*
X46245061Y-92227950D01*
X45974000Y-92633620D01*
X45839000Y-92431578D01*
X45839000Y-84036131D01*
X48730132Y-81145000D01*
X53969604Y-81145000D01*
X54051138Y-81226534D01*
X54578561Y-81445000D01*
X55149439Y-81445000D01*
X55676862Y-81226534D01*
X55761001Y-81142395D01*
X55761001Y-83349867D01*
X54693869Y-84417000D01*
X54578561Y-84417000D01*
X54051138Y-84635466D01*
X53647466Y-85039138D01*
X53429000Y-85566561D01*
X53429000Y-86137439D01*
X53647466Y-86664862D01*
X54051138Y-87068534D01*
X54578561Y-87287000D01*
X55149439Y-87287000D01*
X55676862Y-87068534D01*
X55758396Y-86987000D01*
X58297717Y-86987000D01*
X58622091Y-87203740D01*
X59040667Y-87287000D01*
X59323333Y-87287000D01*
X59741909Y-87203740D01*
X60216577Y-86886577D01*
X60533740Y-86411909D01*
X60645113Y-85852000D01*
X60533740Y-85292091D01*
X60216577Y-84817423D01*
X59741909Y-84500260D01*
X59323333Y-84417000D01*
X59040667Y-84417000D01*
X58622091Y-84500260D01*
X58297717Y-84717000D01*
X57604132Y-84717000D01*
X57619521Y-84701611D01*
X57714289Y-84638289D01*
X57965146Y-84262855D01*
X58031000Y-83931783D01*
X58053235Y-83820000D01*
X58031000Y-83708217D01*
X58031000Y-78994000D01*
X65895173Y-78994000D01*
X66060874Y-79827036D01*
X66224560Y-80072009D01*
X66224560Y-80194000D01*
X66273843Y-80441765D01*
X66414191Y-80651809D01*
X66624235Y-80792157D01*
X66872000Y-80841440D01*
X66993991Y-80841440D01*
X67238964Y-81005126D01*
X67861721Y-81129000D01*
X75227725Y-81129000D01*
X75438000Y-81170826D01*
X75648275Y-81129000D01*
X75648279Y-81129000D01*
X76271036Y-81005126D01*
X76977249Y-80533249D01*
X77096364Y-80354981D01*
X88514346Y-68937000D01*
X89977385Y-68937000D01*
X90530949Y-69166294D01*
X100922961Y-79558307D01*
X100922960Y-85889558D01*
X101046834Y-86512315D01*
X101518711Y-87218529D01*
X102224924Y-87690406D01*
X103057960Y-87856107D01*
X103890995Y-87690406D01*
X104597209Y-87218529D01*
X105069086Y-86512316D01*
X105192960Y-85889559D01*
X105192960Y-78884235D01*
X105234786Y-78673960D01*
X105192960Y-78463685D01*
X105192960Y-78463681D01*
X105069086Y-77840924D01*
X104597209Y-77134711D01*
X104418944Y-77015598D01*
X93550294Y-66146949D01*
X93321000Y-65593385D01*
X93321000Y-61914615D01*
X93621000Y-61190352D01*
X93621000Y-60221648D01*
X93250293Y-59326684D01*
X92565316Y-58641707D01*
X91670352Y-58271000D01*
X90701648Y-58271000D01*
X89806684Y-58641707D01*
X89121707Y-59326684D01*
X88751000Y-60221648D01*
X88751000Y-61190352D01*
X89051000Y-61914615D01*
X89051001Y-64667000D01*
X87840275Y-64667000D01*
X87630000Y-64625174D01*
X87419725Y-64667000D01*
X87419721Y-64667000D01*
X86796964Y-64790874D01*
X86090751Y-65262751D01*
X85971638Y-65441016D01*
X74553655Y-76859000D01*
X67861721Y-76859000D01*
X67238964Y-76982874D01*
X66993991Y-77146560D01*
X66872000Y-77146560D01*
X66624235Y-77195843D01*
X66414191Y-77336191D01*
X66273843Y-77546235D01*
X66224560Y-77794000D01*
X66224560Y-77915991D01*
X66060874Y-78160964D01*
X65895173Y-78994000D01*
X58031000Y-78994000D01*
X58031000Y-74030396D01*
X58369138Y-74368534D01*
X58896561Y-74587000D01*
X59467439Y-74587000D01*
X59994862Y-74368534D01*
X60398534Y-73964862D01*
X60617000Y-73437439D01*
X60617000Y-72866561D01*
X60398534Y-72339138D01*
X59994862Y-71935466D01*
X59467439Y-71717000D01*
X58896561Y-71717000D01*
X58369138Y-71935466D01*
X58031000Y-72273604D01*
X58031000Y-64258411D01*
X58053235Y-64146629D01*
X58018603Y-63972524D01*
X57990776Y-63832628D01*
X61140720Y-66982572D01*
X61140721Y-69916012D01*
X61118485Y-70027800D01*
X61206574Y-70470654D01*
X61206575Y-70470655D01*
X61457432Y-70846089D01*
X61552200Y-70909411D01*
X64177949Y-73535161D01*
X64241271Y-73629929D01*
X64616705Y-73880786D01*
X64947777Y-73946640D01*
X65059559Y-73968875D01*
X65171341Y-73946640D01*
X69357217Y-73946640D01*
X69469000Y-73968875D01*
X69580783Y-73946640D01*
X69911855Y-73880786D01*
X70287289Y-73629929D01*
X70350613Y-73535158D01*
X71335521Y-72550251D01*
X71430289Y-72486929D01*
X71681146Y-72111495D01*
X71704646Y-71993351D01*
X71769235Y-71668641D01*
X71747000Y-71556858D01*
X71747000Y-69157440D01*
X71812000Y-69157440D01*
X72059765Y-69108157D01*
X72269809Y-68967809D01*
X72410157Y-68757765D01*
X72459440Y-68510000D01*
X72459440Y-66110000D01*
X72410157Y-65862235D01*
X72269809Y-65652191D01*
X72059765Y-65511843D01*
X71812000Y-65462560D01*
X69412000Y-65462560D01*
X69164235Y-65511843D01*
X68954191Y-65652191D01*
X68813843Y-65862235D01*
X68764560Y-66110000D01*
X68764560Y-68510000D01*
X68813843Y-68757765D01*
X68954191Y-68967809D01*
X69164235Y-69108157D01*
X69412000Y-69157440D01*
X69477001Y-69157440D01*
X69477000Y-71198508D01*
X68998869Y-71676640D01*
X65529692Y-71676640D01*
X63410720Y-69557669D01*
X63410720Y-66624223D01*
X63432955Y-66512440D01*
X63344866Y-66069585D01*
X63277633Y-65968964D01*
X63094009Y-65694151D01*
X62999242Y-65630830D01*
X57731890Y-60363479D01*
X57731888Y-60363476D01*
X56537480Y-59169069D01*
X56537480Y-52038561D01*
X63843000Y-52038561D01*
X63843000Y-52609439D01*
X64061466Y-53136862D01*
X64465138Y-53540534D01*
X64992561Y-53759000D01*
X65563439Y-53759000D01*
X66090862Y-53540534D01*
X66494534Y-53136862D01*
X66713000Y-52609439D01*
X66713000Y-52038561D01*
X66494534Y-51511138D01*
X66090862Y-51107466D01*
X65563439Y-50889000D01*
X64992561Y-50889000D01*
X64465138Y-51107466D01*
X64061466Y-51511138D01*
X63843000Y-52038561D01*
X56537480Y-52038561D01*
X56537480Y-46702866D01*
X56779914Y-47288153D01*
X57239847Y-47748086D01*
X57840778Y-47997000D01*
X58491222Y-47997000D01*
X59092153Y-47748086D01*
X59243239Y-47597000D01*
X65332247Y-47597000D01*
X67599000Y-49863754D01*
X67599001Y-54694131D01*
X67476191Y-54776191D01*
X67335843Y-54986235D01*
X67286560Y-55234000D01*
X67286560Y-57034000D01*
X67335843Y-57281765D01*
X67476191Y-57491809D01*
X67546817Y-57539000D01*
X66667000Y-57539000D01*
X66667000Y-56753781D01*
X66689235Y-56641999D01*
X66651669Y-56453145D01*
X66601146Y-56199145D01*
X66350289Y-55823711D01*
X66255521Y-55760389D01*
X65905612Y-55410481D01*
X65842289Y-55315711D01*
X65466855Y-55064854D01*
X65135783Y-54999000D01*
X65024000Y-54976765D01*
X64912217Y-54999000D01*
X63476696Y-54999000D01*
X63474157Y-54986235D01*
X63333809Y-54776191D01*
X63123765Y-54635843D01*
X62876000Y-54586560D01*
X61076000Y-54586560D01*
X60828235Y-54635843D01*
X60618191Y-54776191D01*
X60477843Y-54986235D01*
X60428560Y-55234000D01*
X60428560Y-57034000D01*
X60477843Y-57281765D01*
X60618191Y-57491809D01*
X60828235Y-57632157D01*
X60843908Y-57635275D01*
X60674690Y-57804493D01*
X60441000Y-58368670D01*
X60441000Y-58979330D01*
X60674690Y-59543507D01*
X61106493Y-59975310D01*
X61670670Y-60209000D01*
X62281330Y-60209000D01*
X62845507Y-59975310D01*
X63277310Y-59543507D01*
X63511000Y-58979330D01*
X63511000Y-58368670D01*
X63277310Y-57804493D01*
X63108092Y-57635275D01*
X63123765Y-57632157D01*
X63333809Y-57491809D01*
X63474157Y-57281765D01*
X63476696Y-57269000D01*
X64397000Y-57269000D01*
X64397001Y-58562212D01*
X64374765Y-58674000D01*
X64462854Y-59116855D01*
X64713711Y-59492289D01*
X65089145Y-59743146D01*
X65388871Y-59802765D01*
X65409474Y-59806863D01*
X65420217Y-59809000D01*
X65532000Y-59831235D01*
X65643783Y-59809000D01*
X67798183Y-59809000D01*
X67964493Y-59975310D01*
X68528670Y-60209000D01*
X69139330Y-60209000D01*
X69703507Y-59975310D01*
X70135310Y-59543507D01*
X70369000Y-58979330D01*
X70369000Y-58368670D01*
X70135310Y-57804493D01*
X69966092Y-57635275D01*
X69981765Y-57632157D01*
X70191809Y-57491809D01*
X70332157Y-57281765D01*
X70334696Y-57269000D01*
X71665869Y-57269000D01*
X71763001Y-57366132D01*
X71763000Y-59727868D01*
X70649869Y-60841000D01*
X68945782Y-60841000D01*
X68833999Y-60818765D01*
X68420490Y-60901017D01*
X68391145Y-60906854D01*
X68015711Y-61157711D01*
X67952389Y-61252479D01*
X64888480Y-64316389D01*
X64793712Y-64379711D01*
X64690234Y-64534577D01*
X64542854Y-64755146D01*
X64454765Y-65198000D01*
X64477001Y-65309788D01*
X64477001Y-65849917D01*
X64056362Y-66270556D01*
X63777000Y-66944996D01*
X63777000Y-67675004D01*
X64056362Y-68349444D01*
X64572556Y-68865638D01*
X65246996Y-69145000D01*
X65977004Y-69145000D01*
X66651444Y-68865638D01*
X67167638Y-68349444D01*
X67447000Y-67675004D01*
X67447000Y-66944996D01*
X67167638Y-66270556D01*
X66747000Y-65849918D01*
X66747000Y-65668131D01*
X69304132Y-63111000D01*
X71008217Y-63111000D01*
X71120000Y-63133235D01*
X71231783Y-63111000D01*
X71562855Y-63045146D01*
X71938289Y-62794289D01*
X72001613Y-62699518D01*
X73621521Y-61079611D01*
X73716289Y-61016289D01*
X73967146Y-60640855D01*
X74004711Y-60452000D01*
X74055235Y-60198000D01*
X74033000Y-60086217D01*
X74033000Y-57007783D01*
X74055235Y-56896000D01*
X73967146Y-56453145D01*
X73945266Y-56420399D01*
X73716289Y-56077711D01*
X73621521Y-56014389D01*
X73017613Y-55410481D01*
X72954289Y-55315711D01*
X72578855Y-55064854D01*
X72247783Y-54999000D01*
X72136000Y-54976765D01*
X72024217Y-54999000D01*
X70334696Y-54999000D01*
X70332157Y-54986235D01*
X70191809Y-54776191D01*
X70069000Y-54694132D01*
X70069000Y-49473830D01*
X70093194Y-49352199D01*
X70069000Y-49230568D01*
X70069000Y-49230564D01*
X69997344Y-48870327D01*
X69893246Y-48714534D01*
X69793286Y-48564932D01*
X69793285Y-48564931D01*
X69724385Y-48461815D01*
X69621270Y-48392916D01*
X68750002Y-47521648D01*
X88751000Y-47521648D01*
X88751000Y-48490352D01*
X89121707Y-49385316D01*
X89806684Y-50070293D01*
X90701648Y-50441000D01*
X91670352Y-50441000D01*
X92565316Y-50070293D01*
X93250293Y-49385316D01*
X93621000Y-48490352D01*
X93621000Y-47521648D01*
X93321000Y-46797385D01*
X93321000Y-45512145D01*
X96844866Y-41988280D01*
X97672960Y-41988280D01*
X97920725Y-41938997D01*
X98015245Y-41875840D01*
X100282555Y-41875840D01*
X100377075Y-41938997D01*
X100624840Y-41988280D01*
X103824840Y-41988280D01*
X104072605Y-41938997D01*
X104282649Y-41798649D01*
X104422997Y-41588605D01*
X104472280Y-41340840D01*
X104472280Y-38140840D01*
X104422997Y-37893075D01*
X104282649Y-37683031D01*
X104072605Y-37542683D01*
X103824840Y-37493400D01*
X100624840Y-37493400D01*
X100377075Y-37542683D01*
X100282555Y-37605840D01*
X98015245Y-37605840D01*
X97920725Y-37542683D01*
X97672960Y-37493400D01*
X94472960Y-37493400D01*
X94225195Y-37542683D01*
X94015151Y-37683031D01*
X93874803Y-37893075D01*
X93825520Y-38140840D01*
X93825520Y-38968934D01*
X89825017Y-42969438D01*
X89646752Y-43088551D01*
X89527639Y-43266816D01*
X89527638Y-43266817D01*
X89174874Y-43794765D01*
X89136891Y-43985721D01*
X89051000Y-44417521D01*
X89051000Y-44417525D01*
X89009174Y-44627800D01*
X89051000Y-44838075D01*
X89051000Y-46797385D01*
X88751000Y-47521648D01*
X68750002Y-47521648D01*
X66803087Y-45574734D01*
X66734185Y-45471615D01*
X66325673Y-45198656D01*
X65965436Y-45127000D01*
X65965432Y-45127000D01*
X65843800Y-45102806D01*
X65722168Y-45127000D01*
X61359686Y-45127000D01*
X63366890Y-43119796D01*
X63482528Y-43042529D01*
X63559795Y-42926891D01*
X63559797Y-42926889D01*
X63788640Y-42584401D01*
X63788641Y-42584400D01*
X63869000Y-42180407D01*
X63869000Y-42180406D01*
X63896133Y-42044001D01*
X63869000Y-41907595D01*
X63869000Y-38252960D01*
X72938928Y-38252960D01*
X73060560Y-38277154D01*
X73182192Y-38252960D01*
X73182196Y-38252960D01*
X73542433Y-38181304D01*
X73950945Y-37908345D01*
X74019847Y-37805226D01*
X77027909Y-34797165D01*
X77131025Y-34728265D01*
X77403984Y-34319753D01*
X77475640Y-33959516D01*
X77475640Y-33959512D01*
X77499834Y-33837881D01*
X77475640Y-33716250D01*
X77475640Y-31078272D01*
X77499834Y-30956640D01*
X77475640Y-30835008D01*
X77475640Y-30835004D01*
X77435000Y-30630694D01*
X77435000Y-30148081D01*
X77558157Y-29963765D01*
X77607440Y-29716000D01*
X77607440Y-28196000D01*
X77558157Y-27948235D01*
X77417809Y-27738191D01*
X77207765Y-27597843D01*
X77026951Y-27561877D01*
X77382624Y-27206204D01*
X77595000Y-26693483D01*
X77595000Y-26138517D01*
X77382624Y-25625796D01*
X76990204Y-25233376D01*
X76787275Y-25149320D01*
X76813421Y-25131850D01*
X76990204Y-25058624D01*
X77125508Y-24923320D01*
X77198529Y-24874529D01*
X77247320Y-24801508D01*
X77382624Y-24666204D01*
X77455850Y-24489421D01*
X77504641Y-24416400D01*
X77521774Y-24330266D01*
X77595000Y-24153483D01*
X77595000Y-23962134D01*
X77612133Y-23876000D01*
X77595000Y-23789866D01*
X77595000Y-23598517D01*
X77521774Y-23421734D01*
X77507776Y-23351362D01*
X78822800Y-24541029D01*
X78819431Y-25754015D01*
X78796885Y-25867360D01*
X78840634Y-26087300D01*
X78883748Y-26307243D01*
X78884655Y-26308608D01*
X78884974Y-26310214D01*
X79009456Y-26496514D01*
X79133562Y-26683372D01*
X79229473Y-26747844D01*
X79621147Y-27139518D01*
X79684471Y-27234289D01*
X80009004Y-27451135D01*
X80059905Y-27485146D01*
X80502759Y-27573235D01*
X80614542Y-27551000D01*
X81712172Y-27551000D01*
X81759796Y-27598624D01*
X81936579Y-27671850D01*
X81957756Y-27686000D01*
X81936580Y-27700150D01*
X81759796Y-27773376D01*
X81624490Y-27908682D01*
X81551471Y-27957472D01*
X81502682Y-28030490D01*
X81367376Y-28165796D01*
X81294149Y-28342582D01*
X81245359Y-28415601D01*
X81228226Y-28501733D01*
X81155000Y-28678517D01*
X81155000Y-29233483D01*
X81165000Y-29257625D01*
X81165001Y-36947588D01*
X81137867Y-37084000D01*
X81210560Y-37449453D01*
X81210560Y-38792000D01*
X81259843Y-39039765D01*
X81400191Y-39249809D01*
X81610235Y-39390157D01*
X81858000Y-39439440D01*
X84258000Y-39439440D01*
X84505765Y-39390157D01*
X84715809Y-39249809D01*
X84856157Y-39039765D01*
X84905440Y-38792000D01*
X84905440Y-36392000D01*
X84856157Y-36144235D01*
X84715809Y-35934191D01*
X84505765Y-35793843D01*
X84258000Y-35744560D01*
X83935000Y-35744560D01*
X83935000Y-29257625D01*
X83945000Y-29233483D01*
X83945000Y-28678517D01*
X83871774Y-28501734D01*
X83854641Y-28415600D01*
X83805850Y-28342580D01*
X83732624Y-28165796D01*
X83597318Y-28030490D01*
X83548528Y-27957471D01*
X83475510Y-27908682D01*
X83367828Y-27801000D01*
X87320172Y-27801000D01*
X87212492Y-27908680D01*
X87139471Y-27957471D01*
X87090680Y-28030492D01*
X86955376Y-28165796D01*
X86882150Y-28342579D01*
X86833359Y-28415600D01*
X86816226Y-28501734D01*
X86743000Y-28678517D01*
X86743000Y-28869866D01*
X86725867Y-28956000D01*
X86743000Y-29042134D01*
X86743000Y-29233483D01*
X86753000Y-29257625D01*
X86753001Y-36301917D01*
X86502362Y-36552556D01*
X86223000Y-37226996D01*
X86223000Y-37957004D01*
X86502362Y-38631444D01*
X87018556Y-39147638D01*
X87692996Y-39427000D01*
X88423004Y-39427000D01*
X89097444Y-39147638D01*
X89613638Y-38631444D01*
X89893000Y-37957004D01*
X89893000Y-37226996D01*
X89613638Y-36552556D01*
X89523000Y-36461918D01*
X89523000Y-30345258D01*
X89544407Y-30341000D01*
X89948400Y-30260641D01*
X90406529Y-29954529D01*
X90483800Y-29838885D01*
X92137597Y-28185088D01*
X92253238Y-28107819D01*
X92559351Y-27649690D01*
X92639710Y-27245697D01*
X92639710Y-27245696D01*
X92666843Y-27109291D01*
X92639710Y-26972885D01*
X92639710Y-24342209D01*
X92705112Y-24440090D01*
X93411325Y-24911967D01*
X93478005Y-24925230D01*
X94052145Y-25499371D01*
X94461615Y-26112185D01*
X95200906Y-26606164D01*
X95852832Y-26735840D01*
X96293088Y-26735840D01*
X96795823Y-26635840D01*
X101501977Y-26635840D01*
X102004712Y-26735840D01*
X102444968Y-26735840D01*
X103096894Y-26606164D01*
X103836185Y-26112185D01*
X104330164Y-25372894D01*
X104503626Y-24500840D01*
X104330164Y-23628786D01*
X103836185Y-22889495D01*
X103096894Y-22395516D01*
X102444968Y-22265840D01*
X102004712Y-22265840D01*
X101501977Y-22365840D01*
X96957306Y-22365840D01*
X96131325Y-21539860D01*
X96012210Y-21361592D01*
X95305997Y-20889715D01*
X95239317Y-20876452D01*
X91403983Y-17041118D01*
X90876035Y-16688354D01*
X90043000Y-16522654D01*
X89753316Y-16580275D01*
X89484353Y-16400560D01*
X88905080Y-16285335D01*
X88354676Y-16394817D01*
X88376206Y-16362596D01*
X88500080Y-15739838D01*
X88500080Y-14152289D01*
X88541907Y-13942010D01*
X88376206Y-13108974D01*
X88221206Y-12877000D01*
X107315524Y-12877000D01*
X107322628Y-15278119D01*
X107322628Y-15278119D01*
G37*
X107322628Y-15278119D02*
X107022084Y-14552541D01*
X107021642Y-14552247D01*
X107021244Y-14551285D01*
X106139355Y-13669396D01*
X106138393Y-13668998D01*
X106138099Y-13668556D01*
X105561970Y-13430235D01*
X104987110Y-13192120D01*
X104986339Y-13192120D01*
X104985628Y-13191826D01*
X104363097Y-13192120D01*
X103739930Y-13192120D01*
X103739219Y-13192415D01*
X103738448Y-13192415D01*
X102588941Y-13668556D01*
X102588647Y-13668998D01*
X102587685Y-13669396D01*
X101705796Y-14551285D01*
X101705398Y-14552247D01*
X101704956Y-14552541D01*
X101466635Y-15128670D01*
X101228520Y-15703530D01*
X101228520Y-15704301D01*
X101228226Y-15705012D01*
X101228520Y-16327120D01*
X101228520Y-16950710D01*
X101228815Y-16951421D01*
X101228815Y-16952192D01*
X101704956Y-18101699D01*
X101705398Y-18101993D01*
X101705796Y-18102955D01*
X102587685Y-18984844D01*
X102588647Y-18985242D01*
X102588941Y-18985684D01*
X103165070Y-19224005D01*
X103739930Y-19462120D01*
X103740701Y-19462120D01*
X103741412Y-19462414D01*
X104363943Y-19462120D01*
X104987110Y-19462120D01*
X104987821Y-19461825D01*
X104988592Y-19461825D01*
X106138099Y-18985684D01*
X106138393Y-18985242D01*
X106139355Y-18984844D01*
X107021244Y-18102955D01*
X107021642Y-18101993D01*
X107022084Y-18101699D01*
X107260405Y-17525570D01*
X107328789Y-17360477D01*
X107568624Y-98425000D01*
X98174455Y-98425000D01*
X98622566Y-97754356D01*
X98788267Y-96921320D01*
X98622566Y-96088284D01*
X98150689Y-95382071D01*
X97444476Y-94910194D01*
X96821719Y-94786320D01*
X94740106Y-94786320D01*
X94767809Y-94767809D01*
X94908157Y-94557765D01*
X94957440Y-94310000D01*
X94957440Y-93982732D01*
X101273946Y-93982732D01*
X101274240Y-94604840D01*
X101274240Y-95228430D01*
X101274535Y-95229141D01*
X101274535Y-95229912D01*
X101750676Y-96379419D01*
X101751118Y-96379713D01*
X101751516Y-96380675D01*
X102633405Y-97262564D01*
X102634367Y-97262962D01*
X102634661Y-97263404D01*
X103210790Y-97501725D01*
X103785650Y-97739840D01*
X103786421Y-97739840D01*
X103787132Y-97740134D01*
X104409663Y-97739840D01*
X105032830Y-97739840D01*
X105033541Y-97739545D01*
X105034312Y-97739545D01*
X106183819Y-97263404D01*
X106184113Y-97262962D01*
X106185075Y-97262564D01*
X107066964Y-96380675D01*
X107067362Y-96379713D01*
X107067804Y-96379419D01*
X107306125Y-95803290D01*
X107544240Y-95228430D01*
X107544240Y-95227659D01*
X107544534Y-95226948D01*
X107544240Y-94604417D01*
X107544240Y-93981250D01*
X107543945Y-93980539D01*
X107543945Y-93979768D01*
X107067804Y-92830261D01*
X107067362Y-92829967D01*
X107066964Y-92829005D01*
X106185075Y-91947116D01*
X106184113Y-91946718D01*
X106183819Y-91946276D01*
X105607690Y-91707955D01*
X105032830Y-91469840D01*
X105032059Y-91469840D01*
X105031348Y-91469546D01*
X104408817Y-91469840D01*
X103785650Y-91469840D01*
X103784939Y-91470135D01*
X103784168Y-91470135D01*
X102634661Y-91946276D01*
X102634367Y-91946718D01*
X102633405Y-91947116D01*
X101751516Y-92829005D01*
X101751118Y-92829967D01*
X101750676Y-92830261D01*
X101512355Y-93406390D01*
X101274240Y-93981250D01*
X101274240Y-93982021D01*
X101273946Y-93982732D01*
X94957440Y-93982732D01*
X94957440Y-91110000D01*
X94908157Y-90862235D01*
X94845000Y-90767715D01*
X94845000Y-88302285D01*
X94908157Y-88207765D01*
X94957440Y-87960000D01*
X94957440Y-84760000D01*
X94908157Y-84512235D01*
X94845000Y-84417715D01*
X94845000Y-81490273D01*
X94886826Y-81279999D01*
X94845000Y-81069726D01*
X94845000Y-81069721D01*
X94721126Y-80446964D01*
X94249249Y-79740751D01*
X94070984Y-79621638D01*
X93621000Y-79171654D01*
X93621000Y-79017648D01*
X93250293Y-78122684D01*
X92565316Y-77437707D01*
X91670352Y-77067000D01*
X90701648Y-77067000D01*
X89806684Y-77437707D01*
X89121707Y-78122684D01*
X88751000Y-79017648D01*
X88751000Y-79986352D01*
X89121707Y-80881316D01*
X89806684Y-81566293D01*
X90097343Y-81686688D01*
X90575000Y-82164346D01*
X90575001Y-84417714D01*
X90511843Y-84512235D01*
X90462560Y-84760000D01*
X90462560Y-87960000D01*
X90511843Y-88207765D01*
X90575000Y-88302286D01*
X90575001Y-90767714D01*
X90511843Y-90862235D01*
X90462560Y-91110000D01*
X90462560Y-94310000D01*
X90511843Y-94557765D01*
X90652191Y-94767809D01*
X90679894Y-94786320D01*
X82565666Y-94786320D01*
X79605000Y-91825655D01*
X79605000Y-87082862D01*
X79748786Y-86360000D01*
X79575324Y-85487946D01*
X79081345Y-84748655D01*
X78342054Y-84254676D01*
X77690128Y-84125000D01*
X77249872Y-84125000D01*
X76747137Y-84225000D01*
X71322346Y-84225000D01*
X69730364Y-82633019D01*
X69611249Y-82454751D01*
X68905036Y-81982874D01*
X68072000Y-81817173D01*
X67238965Y-81982874D01*
X66532751Y-82454751D01*
X66060874Y-83160965D01*
X65895174Y-83994000D01*
X65937001Y-84204279D01*
X65937000Y-89465387D01*
X61720687Y-95157410D01*
X58902224Y-95909000D01*
X46837098Y-95909000D01*
X46764173Y-95542381D01*
X47244000Y-95637824D01*
X47784621Y-95530288D01*
X48242939Y-95224050D01*
X48549178Y-94765732D01*
X48629570Y-94361573D01*
X48629570Y-93090427D01*
X48549178Y-92686268D01*
X48242940Y-92227950D01*
X47784622Y-91921712D01*
X47244000Y-91814176D01*
X46703379Y-91921712D01*
X46245061Y-92227950D01*
X45974000Y-92633620D01*
X45839000Y-92431578D01*
X45839000Y-84036131D01*
X48730132Y-81145000D01*
X53969604Y-81145000D01*
X54051138Y-81226534D01*
X54578561Y-81445000D01*
X55149439Y-81445000D01*
X55676862Y-81226534D01*
X55761001Y-81142395D01*
X55761001Y-83349867D01*
X54693869Y-84417000D01*
X54578561Y-84417000D01*
X54051138Y-84635466D01*
X53647466Y-85039138D01*
X53429000Y-85566561D01*
X53429000Y-86137439D01*
X53647466Y-86664862D01*
X54051138Y-87068534D01*
X54578561Y-87287000D01*
X55149439Y-87287000D01*
X55676862Y-87068534D01*
X55758396Y-86987000D01*
X58297717Y-86987000D01*
X58622091Y-87203740D01*
X59040667Y-87287000D01*
X59323333Y-87287000D01*
X59741909Y-87203740D01*
X60216577Y-86886577D01*
X60533740Y-86411909D01*
X60645113Y-85852000D01*
X60533740Y-85292091D01*
X60216577Y-84817423D01*
X59741909Y-84500260D01*
X59323333Y-84417000D01*
X59040667Y-84417000D01*
X58622091Y-84500260D01*
X58297717Y-84717000D01*
X57604132Y-84717000D01*
X57619521Y-84701611D01*
X57714289Y-84638289D01*
X57965146Y-84262855D01*
X58031000Y-83931783D01*
X58053235Y-83820000D01*
X58031000Y-83708217D01*
X58031000Y-78994000D01*
X65895173Y-78994000D01*
X66060874Y-79827036D01*
X66224560Y-80072009D01*
X66224560Y-80194000D01*
X66273843Y-80441765D01*
X66414191Y-80651809D01*
X66624235Y-80792157D01*
X66872000Y-80841440D01*
X66993991Y-80841440D01*
X67238964Y-81005126D01*
X67861721Y-81129000D01*
X75227725Y-81129000D01*
X75438000Y-81170826D01*
X75648275Y-81129000D01*
X75648279Y-81129000D01*
X76271036Y-81005126D01*
X76977249Y-80533249D01*
X77096364Y-80354981D01*
X88514346Y-68937000D01*
X89977385Y-68937000D01*
X90530949Y-69166294D01*
X100922961Y-79558307D01*
X100922960Y-85889558D01*
X101046834Y-86512315D01*
X101518711Y-87218529D01*
X102224924Y-87690406D01*
X103057960Y-87856107D01*
X103890995Y-87690406D01*
X104597209Y-87218529D01*
X105069086Y-86512316D01*
X105192960Y-85889559D01*
X105192960Y-78884235D01*
X105234786Y-78673960D01*
X105192960Y-78463685D01*
X105192960Y-78463681D01*
X105069086Y-77840924D01*
X104597209Y-77134711D01*
X104418944Y-77015598D01*
X93550294Y-66146949D01*
X93321000Y-65593385D01*
X93321000Y-61914615D01*
X93621000Y-61190352D01*
X93621000Y-60221648D01*
X93250293Y-59326684D01*
X92565316Y-58641707D01*
X91670352Y-58271000D01*
X90701648Y-58271000D01*
X89806684Y-58641707D01*
X89121707Y-59326684D01*
X88751000Y-60221648D01*
X88751000Y-61190352D01*
X89051000Y-61914615D01*
X89051001Y-64667000D01*
X87840275Y-64667000D01*
X87630000Y-64625174D01*
X87419725Y-64667000D01*
X87419721Y-64667000D01*
X86796964Y-64790874D01*
X86090751Y-65262751D01*
X85971638Y-65441016D01*
X74553655Y-76859000D01*
X67861721Y-76859000D01*
X67238964Y-76982874D01*
X66993991Y-77146560D01*
X66872000Y-77146560D01*
X66624235Y-77195843D01*
X66414191Y-77336191D01*
X66273843Y-77546235D01*
X66224560Y-77794000D01*
X66224560Y-77915991D01*
X66060874Y-78160964D01*
X65895173Y-78994000D01*
X58031000Y-78994000D01*
X58031000Y-74030396D01*
X58369138Y-74368534D01*
X58896561Y-74587000D01*
X59467439Y-74587000D01*
X59994862Y-74368534D01*
X60398534Y-73964862D01*
X60617000Y-73437439D01*
X60617000Y-72866561D01*
X60398534Y-72339138D01*
X59994862Y-71935466D01*
X59467439Y-71717000D01*
X58896561Y-71717000D01*
X58369138Y-71935466D01*
X58031000Y-72273604D01*
X58031000Y-64258411D01*
X58053235Y-64146629D01*
X58018603Y-63972524D01*
X57990776Y-63832628D01*
X61140720Y-66982572D01*
X61140721Y-69916012D01*
X61118485Y-70027800D01*
X61206574Y-70470654D01*
X61206575Y-70470655D01*
X61457432Y-70846089D01*
X61552200Y-70909411D01*
X64177949Y-73535161D01*
X64241271Y-73629929D01*
X64616705Y-73880786D01*
X64947777Y-73946640D01*
X65059559Y-73968875D01*
X65171341Y-73946640D01*
X69357217Y-73946640D01*
X69469000Y-73968875D01*
X69580783Y-73946640D01*
X69911855Y-73880786D01*
X70287289Y-73629929D01*
X70350613Y-73535158D01*
X71335521Y-72550251D01*
X71430289Y-72486929D01*
X71681146Y-72111495D01*
X71704646Y-71993351D01*
X71769235Y-71668641D01*
X71747000Y-71556858D01*
X71747000Y-69157440D01*
X71812000Y-69157440D01*
X72059765Y-69108157D01*
X72269809Y-68967809D01*
X72410157Y-68757765D01*
X72459440Y-68510000D01*
X72459440Y-66110000D01*
X72410157Y-65862235D01*
X72269809Y-65652191D01*
X72059765Y-65511843D01*
X71812000Y-65462560D01*
X69412000Y-65462560D01*
X69164235Y-65511843D01*
X68954191Y-65652191D01*
X68813843Y-65862235D01*
X68764560Y-66110000D01*
X68764560Y-68510000D01*
X68813843Y-68757765D01*
X68954191Y-68967809D01*
X69164235Y-69108157D01*
X69412000Y-69157440D01*
X69477001Y-69157440D01*
X69477000Y-71198508D01*
X68998869Y-71676640D01*
X65529692Y-71676640D01*
X63410720Y-69557669D01*
X63410720Y-66624223D01*
X63432955Y-66512440D01*
X63344866Y-66069585D01*
X63277633Y-65968964D01*
X63094009Y-65694151D01*
X62999242Y-65630830D01*
X57731890Y-60363479D01*
X57731888Y-60363476D01*
X56537480Y-59169069D01*
X56537480Y-52038561D01*
X63843000Y-52038561D01*
X63843000Y-52609439D01*
X64061466Y-53136862D01*
X64465138Y-53540534D01*
X64992561Y-53759000D01*
X65563439Y-53759000D01*
X66090862Y-53540534D01*
X66494534Y-53136862D01*
X66713000Y-52609439D01*
X66713000Y-52038561D01*
X66494534Y-51511138D01*
X66090862Y-51107466D01*
X65563439Y-50889000D01*
X64992561Y-50889000D01*
X64465138Y-51107466D01*
X64061466Y-51511138D01*
X63843000Y-52038561D01*
X56537480Y-52038561D01*
X56537480Y-46702866D01*
X56779914Y-47288153D01*
X57239847Y-47748086D01*
X57840778Y-47997000D01*
X58491222Y-47997000D01*
X59092153Y-47748086D01*
X59243239Y-47597000D01*
X65332247Y-47597000D01*
X67599000Y-49863754D01*
X67599001Y-54694131D01*
X67476191Y-54776191D01*
X67335843Y-54986235D01*
X67286560Y-55234000D01*
X67286560Y-57034000D01*
X67335843Y-57281765D01*
X67476191Y-57491809D01*
X67546817Y-57539000D01*
X66667000Y-57539000D01*
X66667000Y-56753781D01*
X66689235Y-56641999D01*
X66651669Y-56453145D01*
X66601146Y-56199145D01*
X66350289Y-55823711D01*
X66255521Y-55760389D01*
X65905612Y-55410481D01*
X65842289Y-55315711D01*
X65466855Y-55064854D01*
X65135783Y-54999000D01*
X65024000Y-54976765D01*
X64912217Y-54999000D01*
X63476696Y-54999000D01*
X63474157Y-54986235D01*
X63333809Y-54776191D01*
X63123765Y-54635843D01*
X62876000Y-54586560D01*
X61076000Y-54586560D01*
X60828235Y-54635843D01*
X60618191Y-54776191D01*
X60477843Y-54986235D01*
X60428560Y-55234000D01*
X60428560Y-57034000D01*
X60477843Y-57281765D01*
X60618191Y-57491809D01*
X60828235Y-57632157D01*
X60843908Y-57635275D01*
X60674690Y-57804493D01*
X60441000Y-58368670D01*
X60441000Y-58979330D01*
X60674690Y-59543507D01*
X61106493Y-59975310D01*
X61670670Y-60209000D01*
X62281330Y-60209000D01*
X62845507Y-59975310D01*
X63277310Y-59543507D01*
X63511000Y-58979330D01*
X63511000Y-58368670D01*
X63277310Y-57804493D01*
X63108092Y-57635275D01*
X63123765Y-57632157D01*
X63333809Y-57491809D01*
X63474157Y-57281765D01*
X63476696Y-57269000D01*
X64397000Y-57269000D01*
X64397001Y-58562212D01*
X64374765Y-58674000D01*
X64462854Y-59116855D01*
X64713711Y-59492289D01*
X65089145Y-59743146D01*
X65388871Y-59802765D01*
X65409474Y-59806863D01*
X65420217Y-59809000D01*
X65532000Y-59831235D01*
X65643783Y-59809000D01*
X67798183Y-59809000D01*
X67964493Y-59975310D01*
X68528670Y-60209000D01*
X69139330Y-60209000D01*
X69703507Y-59975310D01*
X70135310Y-59543507D01*
X70369000Y-58979330D01*
X70369000Y-58368670D01*
X70135310Y-57804493D01*
X69966092Y-57635275D01*
X69981765Y-57632157D01*
X70191809Y-57491809D01*
X70332157Y-57281765D01*
X70334696Y-57269000D01*
X71665869Y-57269000D01*
X71763001Y-57366132D01*
X71763000Y-59727868D01*
X70649869Y-60841000D01*
X68945782Y-60841000D01*
X68833999Y-60818765D01*
X68420490Y-60901017D01*
X68391145Y-60906854D01*
X68015711Y-61157711D01*
X67952389Y-61252479D01*
X64888480Y-64316389D01*
X64793712Y-64379711D01*
X64690234Y-64534577D01*
X64542854Y-64755146D01*
X64454765Y-65198000D01*
X64477001Y-65309788D01*
X64477001Y-65849917D01*
X64056362Y-66270556D01*
X63777000Y-66944996D01*
X63777000Y-67675004D01*
X64056362Y-68349444D01*
X64572556Y-68865638D01*
X65246996Y-69145000D01*
X65977004Y-69145000D01*
X66651444Y-68865638D01*
X67167638Y-68349444D01*
X67447000Y-67675004D01*
X67447000Y-66944996D01*
X67167638Y-66270556D01*
X66747000Y-65849918D01*
X66747000Y-65668131D01*
X69304132Y-63111000D01*
X71008217Y-63111000D01*
X71120000Y-63133235D01*
X71231783Y-63111000D01*
X71562855Y-63045146D01*
X71938289Y-62794289D01*
X72001613Y-62699518D01*
X73621521Y-61079611D01*
X73716289Y-61016289D01*
X73967146Y-60640855D01*
X74004711Y-60452000D01*
X74055235Y-60198000D01*
X74033000Y-60086217D01*
X74033000Y-57007783D01*
X74055235Y-56896000D01*
X73967146Y-56453145D01*
X73945266Y-56420399D01*
X73716289Y-56077711D01*
X73621521Y-56014389D01*
X73017613Y-55410481D01*
X72954289Y-55315711D01*
X72578855Y-55064854D01*
X72247783Y-54999000D01*
X72136000Y-54976765D01*
X72024217Y-54999000D01*
X70334696Y-54999000D01*
X70332157Y-54986235D01*
X70191809Y-54776191D01*
X70069000Y-54694132D01*
X70069000Y-49473830D01*
X70093194Y-49352199D01*
X70069000Y-49230568D01*
X70069000Y-49230564D01*
X69997344Y-48870327D01*
X69893246Y-48714534D01*
X69793286Y-48564932D01*
X69793285Y-48564931D01*
X69724385Y-48461815D01*
X69621270Y-48392916D01*
X68750002Y-47521648D01*
X88751000Y-47521648D01*
X88751000Y-48490352D01*
X89121707Y-49385316D01*
X89806684Y-50070293D01*
X90701648Y-50441000D01*
X91670352Y-50441000D01*
X92565316Y-50070293D01*
X93250293Y-49385316D01*
X93621000Y-48490352D01*
X93621000Y-47521648D01*
X93321000Y-46797385D01*
X93321000Y-45512145D01*
X96844866Y-41988280D01*
X97672960Y-41988280D01*
X97920725Y-41938997D01*
X98015245Y-41875840D01*
X100282555Y-41875840D01*
X100377075Y-41938997D01*
X100624840Y-41988280D01*
X103824840Y-41988280D01*
X104072605Y-41938997D01*
X104282649Y-41798649D01*
X104422997Y-41588605D01*
X104472280Y-41340840D01*
X104472280Y-38140840D01*
X104422997Y-37893075D01*
X104282649Y-37683031D01*
X104072605Y-37542683D01*
X103824840Y-37493400D01*
X100624840Y-37493400D01*
X100377075Y-37542683D01*
X100282555Y-37605840D01*
X98015245Y-37605840D01*
X97920725Y-37542683D01*
X97672960Y-37493400D01*
X94472960Y-37493400D01*
X94225195Y-37542683D01*
X94015151Y-37683031D01*
X93874803Y-37893075D01*
X93825520Y-38140840D01*
X93825520Y-38968934D01*
X89825017Y-42969438D01*
X89646752Y-43088551D01*
X89527639Y-43266816D01*
X89527638Y-43266817D01*
X89174874Y-43794765D01*
X89136891Y-43985721D01*
X89051000Y-44417521D01*
X89051000Y-44417525D01*
X89009174Y-44627800D01*
X89051000Y-44838075D01*
X89051000Y-46797385D01*
X88751000Y-47521648D01*
X68750002Y-47521648D01*
X66803087Y-45574734D01*
X66734185Y-45471615D01*
X66325673Y-45198656D01*
X65965436Y-45127000D01*
X65965432Y-45127000D01*
X65843800Y-45102806D01*
X65722168Y-45127000D01*
X61359686Y-45127000D01*
X63366890Y-43119796D01*
X63482528Y-43042529D01*
X63559795Y-42926891D01*
X63559797Y-42926889D01*
X63788640Y-42584401D01*
X63788641Y-42584400D01*
X63869000Y-42180407D01*
X63869000Y-42180406D01*
X63896133Y-42044001D01*
X63869000Y-41907595D01*
X63869000Y-38252960D01*
X72938928Y-38252960D01*
X73060560Y-38277154D01*
X73182192Y-38252960D01*
X73182196Y-38252960D01*
X73542433Y-38181304D01*
X73950945Y-37908345D01*
X74019847Y-37805226D01*
X77027909Y-34797165D01*
X77131025Y-34728265D01*
X77403984Y-34319753D01*
X77475640Y-33959516D01*
X77475640Y-33959512D01*
X77499834Y-33837881D01*
X77475640Y-33716250D01*
X77475640Y-31078272D01*
X77499834Y-30956640D01*
X77475640Y-30835008D01*
X77475640Y-30835004D01*
X77435000Y-30630694D01*
X77435000Y-30148081D01*
X77558157Y-29963765D01*
X77607440Y-29716000D01*
X77607440Y-28196000D01*
X77558157Y-27948235D01*
X77417809Y-27738191D01*
X77207765Y-27597843D01*
X77026951Y-27561877D01*
X77382624Y-27206204D01*
X77595000Y-26693483D01*
X77595000Y-26138517D01*
X77382624Y-25625796D01*
X76990204Y-25233376D01*
X76787275Y-25149320D01*
X76813421Y-25131850D01*
X76990204Y-25058624D01*
X77125508Y-24923320D01*
X77198529Y-24874529D01*
X77247320Y-24801508D01*
X77382624Y-24666204D01*
X77455850Y-24489421D01*
X77504641Y-24416400D01*
X77521774Y-24330266D01*
X77595000Y-24153483D01*
X77595000Y-23962134D01*
X77612133Y-23876000D01*
X77595000Y-23789866D01*
X77595000Y-23598517D01*
X77521774Y-23421734D01*
X77507776Y-23351362D01*
X78822800Y-24541029D01*
X78819431Y-25754015D01*
X78796885Y-25867360D01*
X78840634Y-26087300D01*
X78883748Y-26307243D01*
X78884655Y-26308608D01*
X78884974Y-26310214D01*
X79009456Y-26496514D01*
X79133562Y-26683372D01*
X79229473Y-26747844D01*
X79621147Y-27139518D01*
X79684471Y-27234289D01*
X80009004Y-27451135D01*
X80059905Y-27485146D01*
X80502759Y-27573235D01*
X80614542Y-27551000D01*
X81712172Y-27551000D01*
X81759796Y-27598624D01*
X81936579Y-27671850D01*
X81957756Y-27686000D01*
X81936580Y-27700150D01*
X81759796Y-27773376D01*
X81624490Y-27908682D01*
X81551471Y-27957472D01*
X81502682Y-28030490D01*
X81367376Y-28165796D01*
X81294149Y-28342582D01*
X81245359Y-28415601D01*
X81228226Y-28501733D01*
X81155000Y-28678517D01*
X81155000Y-29233483D01*
X81165000Y-29257625D01*
X81165001Y-36947588D01*
X81137867Y-37084000D01*
X81210560Y-37449453D01*
X81210560Y-38792000D01*
X81259843Y-39039765D01*
X81400191Y-39249809D01*
X81610235Y-39390157D01*
X81858000Y-39439440D01*
X84258000Y-39439440D01*
X84505765Y-39390157D01*
X84715809Y-39249809D01*
X84856157Y-39039765D01*
X84905440Y-38792000D01*
X84905440Y-36392000D01*
X84856157Y-36144235D01*
X84715809Y-35934191D01*
X84505765Y-35793843D01*
X84258000Y-35744560D01*
X83935000Y-35744560D01*
X83935000Y-29257625D01*
X83945000Y-29233483D01*
X83945000Y-28678517D01*
X83871774Y-28501734D01*
X83854641Y-28415600D01*
X83805850Y-28342580D01*
X83732624Y-28165796D01*
X83597318Y-28030490D01*
X83548528Y-27957471D01*
X83475510Y-27908682D01*
X83367828Y-27801000D01*
X87320172Y-27801000D01*
X87212492Y-27908680D01*
X87139471Y-27957471D01*
X87090680Y-28030492D01*
X86955376Y-28165796D01*
X86882150Y-28342579D01*
X86833359Y-28415600D01*
X86816226Y-28501734D01*
X86743000Y-28678517D01*
X86743000Y-28869866D01*
X86725867Y-28956000D01*
X86743000Y-29042134D01*
X86743000Y-29233483D01*
X86753000Y-29257625D01*
X86753001Y-36301917D01*
X86502362Y-36552556D01*
X86223000Y-37226996D01*
X86223000Y-37957004D01*
X86502362Y-38631444D01*
X87018556Y-39147638D01*
X87692996Y-39427000D01*
X88423004Y-39427000D01*
X89097444Y-39147638D01*
X89613638Y-38631444D01*
X89893000Y-37957004D01*
X89893000Y-37226996D01*
X89613638Y-36552556D01*
X89523000Y-36461918D01*
X89523000Y-30345258D01*
X89544407Y-30341000D01*
X89948400Y-30260641D01*
X90406529Y-29954529D01*
X90483800Y-29838885D01*
X92137597Y-28185088D01*
X92253238Y-28107819D01*
X92559351Y-27649690D01*
X92639710Y-27245697D01*
X92639710Y-27245696D01*
X92666843Y-27109291D01*
X92639710Y-26972885D01*
X92639710Y-24342209D01*
X92705112Y-24440090D01*
X93411325Y-24911967D01*
X93478005Y-24925230D01*
X94052145Y-25499371D01*
X94461615Y-26112185D01*
X95200906Y-26606164D01*
X95852832Y-26735840D01*
X96293088Y-26735840D01*
X96795823Y-26635840D01*
X101501977Y-26635840D01*
X102004712Y-26735840D01*
X102444968Y-26735840D01*
X103096894Y-26606164D01*
X103836185Y-26112185D01*
X104330164Y-25372894D01*
X104503626Y-24500840D01*
X104330164Y-23628786D01*
X103836185Y-22889495D01*
X103096894Y-22395516D01*
X102444968Y-22265840D01*
X102004712Y-22265840D01*
X101501977Y-22365840D01*
X96957306Y-22365840D01*
X96131325Y-21539860D01*
X96012210Y-21361592D01*
X95305997Y-20889715D01*
X95239317Y-20876452D01*
X91403983Y-17041118D01*
X90876035Y-16688354D01*
X90043000Y-16522654D01*
X89753316Y-16580275D01*
X89484353Y-16400560D01*
X88905080Y-16285335D01*
X88354676Y-16394817D01*
X88376206Y-16362596D01*
X88500080Y-15739838D01*
X88500080Y-14152289D01*
X88541907Y-13942010D01*
X88376206Y-13108974D01*
X88221206Y-12877000D01*
X107315524Y-12877000D01*
X107322628Y-15278119D01*
G36*
X13736874Y-88259836D02*
X14208751Y-88966049D01*
X14914964Y-89437926D01*
X15537721Y-89561800D01*
X15537722Y-89561800D01*
X15748000Y-89603627D01*
X15958279Y-89561800D01*
X18518570Y-89561800D01*
X18537474Y-89656835D01*
X18890238Y-90184783D01*
X19009352Y-90363049D01*
X19187617Y-90482162D01*
X23843238Y-95137784D01*
X23962351Y-95316049D01*
X24668564Y-95787926D01*
X25291321Y-95911800D01*
X25291325Y-95911800D01*
X25501600Y-95953626D01*
X25711875Y-95911800D01*
X40708039Y-95911800D01*
X41330796Y-95787926D01*
X41695044Y-95544543D01*
X42164000Y-95637824D01*
X42643828Y-95542381D01*
X42569000Y-95918561D01*
X42569000Y-97833721D01*
X42527173Y-98044000D01*
X42602959Y-98425000D01*
X13589000Y-98425000D01*
X13589000Y-95278420D01*
X13998756Y-96267659D01*
X13999198Y-96267953D01*
X13999596Y-96268915D01*
X14881485Y-97150804D01*
X14882447Y-97151202D01*
X14882741Y-97151644D01*
X15458870Y-97389965D01*
X16033730Y-97628080D01*
X16034501Y-97628080D01*
X16035212Y-97628374D01*
X16657743Y-97628080D01*
X17280910Y-97628080D01*
X17281621Y-97627785D01*
X17282392Y-97627785D01*
X18431899Y-97151644D01*
X18432193Y-97151202D01*
X18433155Y-97150804D01*
X19315044Y-96268915D01*
X19315442Y-96267953D01*
X19315884Y-96267659D01*
X19554205Y-95691530D01*
X19792320Y-95116670D01*
X19792320Y-95115899D01*
X19792614Y-95115188D01*
X19792320Y-94492657D01*
X19792320Y-93869490D01*
X19792025Y-93868779D01*
X19792025Y-93868008D01*
X19315884Y-92718501D01*
X19315442Y-92718207D01*
X19315044Y-92717245D01*
X18433155Y-91835356D01*
X18432193Y-91834958D01*
X18431899Y-91834516D01*
X17855770Y-91596195D01*
X17280910Y-91358080D01*
X17280139Y-91358080D01*
X17279428Y-91357786D01*
X16656897Y-91358080D01*
X16033730Y-91358080D01*
X16033019Y-91358375D01*
X16032248Y-91358375D01*
X14882741Y-91834516D01*
X14882447Y-91834958D01*
X14881485Y-91835356D01*
X13999596Y-92717245D01*
X13999198Y-92718207D01*
X13998756Y-92718501D01*
X13760435Y-93294630D01*
X13589000Y-93708510D01*
X13589000Y-87516422D01*
X13736874Y-88259836D01*
X13736874Y-88259836D01*
G37*
X13736874Y-88259836D02*
X14208751Y-88966049D01*
X14914964Y-89437926D01*
X15537721Y-89561800D01*
X15537722Y-89561800D01*
X15748000Y-89603627D01*
X15958279Y-89561800D01*
X18518570Y-89561800D01*
X18537474Y-89656835D01*
X18890238Y-90184783D01*
X19009352Y-90363049D01*
X19187617Y-90482162D01*
X23843238Y-95137784D01*
X23962351Y-95316049D01*
X24668564Y-95787926D01*
X25291321Y-95911800D01*
X25291325Y-95911800D01*
X25501600Y-95953626D01*
X25711875Y-95911800D01*
X40708039Y-95911800D01*
X41330796Y-95787926D01*
X41695044Y-95544543D01*
X42164000Y-95637824D01*
X42643828Y-95542381D01*
X42569000Y-95918561D01*
X42569000Y-97833721D01*
X42527173Y-98044000D01*
X42602959Y-98425000D01*
X13589000Y-98425000D01*
X13589000Y-95278420D01*
X13998756Y-96267659D01*
X13999198Y-96267953D01*
X13999596Y-96268915D01*
X14881485Y-97150804D01*
X14882447Y-97151202D01*
X14882741Y-97151644D01*
X15458870Y-97389965D01*
X16033730Y-97628080D01*
X16034501Y-97628080D01*
X16035212Y-97628374D01*
X16657743Y-97628080D01*
X17280910Y-97628080D01*
X17281621Y-97627785D01*
X17282392Y-97627785D01*
X18431899Y-97151644D01*
X18432193Y-97151202D01*
X18433155Y-97150804D01*
X19315044Y-96268915D01*
X19315442Y-96267953D01*
X19315884Y-96267659D01*
X19554205Y-95691530D01*
X19792320Y-95116670D01*
X19792320Y-95115899D01*
X19792614Y-95115188D01*
X19792320Y-94492657D01*
X19792320Y-93869490D01*
X19792025Y-93868779D01*
X19792025Y-93868008D01*
X19315884Y-92718501D01*
X19315442Y-92718207D01*
X19315044Y-92717245D01*
X18433155Y-91835356D01*
X18432193Y-91834958D01*
X18431899Y-91834516D01*
X17855770Y-91596195D01*
X17280910Y-91358080D01*
X17280139Y-91358080D01*
X17279428Y-91357786D01*
X16656897Y-91358080D01*
X16033730Y-91358080D01*
X16033019Y-91358375D01*
X16032248Y-91358375D01*
X14882741Y-91834516D01*
X14882447Y-91834958D01*
X14881485Y-91835356D01*
X13999596Y-92717245D01*
X13999198Y-92718207D01*
X13998756Y-92718501D01*
X13760435Y-93294630D01*
X13589000Y-93708510D01*
X13589000Y-87516422D01*
X13736874Y-88259836D01*
G36*
X70227721Y-88495000D02*
X70227724Y-88495000D01*
X70437999Y-88536826D01*
X70648274Y-88495000D01*
X75335000Y-88495000D01*
X75335001Y-91987133D01*
X75191214Y-92710000D01*
X75364676Y-93582054D01*
X75858655Y-94321345D01*
X76471471Y-94730816D01*
X80022958Y-98282304D01*
X80118305Y-98425000D01*
X64614120Y-98425000D01*
X64654447Y-98370559D01*
X64875882Y-98118669D01*
X64905577Y-98031534D01*
X69566704Y-91739013D01*
X69611249Y-91709249D01*
X69818418Y-91399198D01*
X69912758Y-91271840D01*
X69935032Y-91224674D01*
X70083126Y-91003036D01*
X70114729Y-90844159D01*
X70183900Y-90697686D01*
X70196823Y-90431444D01*
X70207000Y-90380279D01*
X70207000Y-90221764D01*
X70225077Y-89849329D01*
X70207000Y-89798900D01*
X70207000Y-88490878D01*
X70227721Y-88495000D01*
X70227721Y-88495000D01*
G37*
X70227721Y-88495000D02*
X70227724Y-88495000D01*
X70437999Y-88536826D01*
X70648274Y-88495000D01*
X75335000Y-88495000D01*
X75335001Y-91987133D01*
X75191214Y-92710000D01*
X75364676Y-93582054D01*
X75858655Y-94321345D01*
X76471471Y-94730816D01*
X80022958Y-98282304D01*
X80118305Y-98425000D01*
X64614120Y-98425000D01*
X64654447Y-98370559D01*
X64875882Y-98118669D01*
X64905577Y-98031534D01*
X69566704Y-91739013D01*
X69611249Y-91709249D01*
X69818418Y-91399198D01*
X69912758Y-91271840D01*
X69935032Y-91224674D01*
X70083126Y-91003036D01*
X70114729Y-90844159D01*
X70183900Y-90697686D01*
X70196823Y-90431444D01*
X70207000Y-90380279D01*
X70207000Y-90221764D01*
X70225077Y-89849329D01*
X70207000Y-89798900D01*
X70207000Y-88490878D01*
X70227721Y-88495000D01*
G36*
X43569000Y-92431579D02*
X43549000Y-92461511D01*
X43549000Y-86244700D01*
X43569001Y-86144150D01*
X43569000Y-92431579D01*
X43569000Y-92431579D01*
G37*
X43569000Y-92431579D02*
X43549000Y-92461511D01*
X43549000Y-86244700D01*
X43569001Y-86144150D01*
X43569000Y-92431579D01*
G36*
X47525240Y-35499926D02*
X47525241Y-53207198D01*
X47498107Y-53343610D01*
X47605599Y-53884009D01*
X47834443Y-54226498D01*
X47911712Y-54342139D01*
X48027352Y-54419407D01*
X50370832Y-56762888D01*
X50448101Y-56878529D01*
X50906230Y-57184641D01*
X51310223Y-57265000D01*
X51410769Y-57285000D01*
X49895781Y-57285000D01*
X49783999Y-57262765D01*
X49672217Y-57285000D01*
X49341145Y-57350854D01*
X48965711Y-57601711D01*
X48902389Y-57696479D01*
X46773869Y-59825000D01*
X45842283Y-59825000D01*
X45640242Y-59690000D01*
X45992577Y-59454577D01*
X46309740Y-58979909D01*
X46421113Y-58420000D01*
X46309740Y-57860091D01*
X45992577Y-57385423D01*
X45871894Y-57304785D01*
X46005765Y-57278157D01*
X46215809Y-57137809D01*
X46356157Y-56927765D01*
X46405440Y-56680000D01*
X46405440Y-55080000D01*
X46356157Y-54832235D01*
X46215809Y-54622191D01*
X46005765Y-54481843D01*
X45758000Y-54432560D01*
X44158000Y-54432560D01*
X43910235Y-54481843D01*
X43700191Y-54622191D01*
X43559843Y-54832235D01*
X43510560Y-55080000D01*
X43510560Y-56680000D01*
X43559843Y-56927765D01*
X43700191Y-57137809D01*
X43910235Y-57278157D01*
X44044106Y-57304785D01*
X43923423Y-57385423D01*
X43606260Y-57860091D01*
X43494887Y-58420000D01*
X43606260Y-58979909D01*
X43923423Y-59454577D01*
X44275758Y-59690000D01*
X43923423Y-59925423D01*
X43606260Y-60400091D01*
X43494887Y-60960000D01*
X43606260Y-61519909D01*
X43923423Y-61994577D01*
X44275758Y-62230000D01*
X43923423Y-62465423D01*
X43606260Y-62940091D01*
X43530151Y-63322718D01*
X43434482Y-63418386D01*
X43339712Y-63481710D01*
X43114615Y-63818593D01*
X43088855Y-63857145D01*
X43000766Y-64299999D01*
X43023001Y-64411782D01*
X43023002Y-71957866D01*
X42240478Y-72740391D01*
X42240475Y-72740393D01*
X41993868Y-72987000D01*
X41878561Y-72987000D01*
X41351138Y-73205466D01*
X40947466Y-73609138D01*
X40729000Y-74136561D01*
X40729000Y-74251867D01*
X36096320Y-78884549D01*
X36001552Y-78947871D01*
X35909311Y-79085920D01*
X35750694Y-79323306D01*
X35662605Y-79766160D01*
X35684841Y-79877948D01*
X35684840Y-81406684D01*
X35603306Y-81488218D01*
X35384840Y-82015641D01*
X35384840Y-82130948D01*
X32824800Y-84690989D01*
X32730032Y-84754311D01*
X32581079Y-84977235D01*
X32479174Y-85129746D01*
X32391085Y-85572600D01*
X32413321Y-85684388D01*
X32413320Y-87333264D01*
X32400555Y-87335803D01*
X32190511Y-87476151D01*
X32050163Y-87686195D01*
X32047045Y-87701868D01*
X31877827Y-87532650D01*
X31313650Y-87298960D01*
X30702990Y-87298960D01*
X30138813Y-87532650D01*
X29707010Y-87964453D01*
X29473320Y-88528630D01*
X29473320Y-89139290D01*
X29707010Y-89703467D01*
X30138813Y-90135270D01*
X30702990Y-90368960D01*
X31313650Y-90368960D01*
X31877827Y-90135270D01*
X32047045Y-89966052D01*
X32050163Y-89981725D01*
X32190511Y-90191769D01*
X32400555Y-90332117D01*
X32648320Y-90381400D01*
X34448320Y-90381400D01*
X34696085Y-90332117D01*
X34906129Y-90191769D01*
X35046477Y-89981725D01*
X35095760Y-89733960D01*
X35095760Y-87933960D01*
X35046477Y-87686195D01*
X34906129Y-87476151D01*
X34696085Y-87335803D01*
X34683320Y-87333264D01*
X34683320Y-86042731D01*
X36819840Y-83906211D01*
X39489149Y-86575521D01*
X39552471Y-86670289D01*
X39876169Y-86886577D01*
X39927905Y-86921146D01*
X40370759Y-87009235D01*
X40482542Y-86987000D01*
X40779000Y-86987000D01*
X40779001Y-91655915D01*
X40708039Y-91641800D01*
X26385946Y-91641800D01*
X22683600Y-87939455D01*
X22683600Y-86336594D01*
X22725426Y-86126321D01*
X22683600Y-85916047D01*
X22683600Y-85916041D01*
X22559726Y-85293284D01*
X22087849Y-84587071D01*
X21933600Y-84484005D01*
X21933600Y-80553559D01*
X21934686Y-80552473D01*
X22183600Y-79951542D01*
X22183600Y-79301098D01*
X21934686Y-78700167D01*
X21474753Y-78240234D01*
X20873822Y-77991320D01*
X20223378Y-77991320D01*
X19622447Y-78240234D01*
X19162514Y-78700167D01*
X18913600Y-79301098D01*
X18913600Y-79951542D01*
X19162514Y-80552473D01*
X19163600Y-80553559D01*
X19163601Y-84484004D01*
X19009351Y-84587071D01*
X18890236Y-84765339D01*
X18363775Y-85291800D01*
X17883000Y-85291800D01*
X17883000Y-63754000D01*
X19110887Y-63754000D01*
X19222260Y-64313909D01*
X19539423Y-64788577D01*
X20014091Y-65105740D01*
X20432667Y-65189000D01*
X20715333Y-65189000D01*
X21133909Y-65105740D01*
X21608577Y-64788577D01*
X21925740Y-64313909D01*
X21992842Y-63976561D01*
X24981000Y-63976561D01*
X24981000Y-64547439D01*
X25199466Y-65074862D01*
X25603138Y-65478534D01*
X26130561Y-65697000D01*
X26701439Y-65697000D01*
X27228862Y-65478534D01*
X27632534Y-65074862D01*
X27851000Y-64547439D01*
X27851000Y-63976561D01*
X27632534Y-63449138D01*
X27228862Y-63045466D01*
X26701439Y-62827000D01*
X26130561Y-62827000D01*
X25603138Y-63045466D01*
X25199466Y-63449138D01*
X24981000Y-63976561D01*
X21992842Y-63976561D01*
X22037113Y-63754000D01*
X21925740Y-63194091D01*
X21608577Y-62719423D01*
X21133909Y-62402260D01*
X20715333Y-62319000D01*
X20432667Y-62319000D01*
X20014091Y-62402260D01*
X19539423Y-62719423D01*
X19222260Y-63194091D01*
X19110887Y-63754000D01*
X17883000Y-63754000D01*
X17883000Y-61833000D01*
X20735031Y-61833000D01*
X21211945Y-61738136D01*
X21752769Y-61376769D01*
X22114136Y-60835945D01*
X22221285Y-60297268D01*
X23076000Y-59442553D01*
X23076000Y-59924639D01*
X23294466Y-60452062D01*
X23698138Y-60855734D01*
X24225561Y-61074200D01*
X24796439Y-61074200D01*
X25323862Y-60855734D01*
X25349516Y-60830080D01*
X31587417Y-60830080D01*
X31699200Y-60852315D01*
X31810983Y-60830080D01*
X32077655Y-60777036D01*
X32142055Y-60764226D01*
X32517489Y-60513369D01*
X32618147Y-60362723D01*
X32768346Y-60137935D01*
X32771025Y-60124466D01*
X35291212Y-57604280D01*
X35307939Y-57604280D01*
X35363271Y-57687089D01*
X35573315Y-57827437D01*
X35821080Y-57876720D01*
X37341080Y-57876720D01*
X37588845Y-57827437D01*
X37798889Y-57687089D01*
X37939237Y-57477045D01*
X37945440Y-57445858D01*
X37945440Y-58404078D01*
X37770909Y-58287460D01*
X37352333Y-58204200D01*
X37069667Y-58204200D01*
X36651091Y-58287460D01*
X36176423Y-58604623D01*
X35859260Y-59079291D01*
X35747887Y-59639200D01*
X35859260Y-60199109D01*
X36176423Y-60673777D01*
X36651091Y-60990940D01*
X37069667Y-61074200D01*
X37352333Y-61074200D01*
X37770909Y-60990940D01*
X37945440Y-60874322D01*
X37945440Y-62983287D01*
X37923205Y-63095070D01*
X37979788Y-63379531D01*
X37764260Y-63702091D01*
X37652887Y-64262000D01*
X37764260Y-64821909D01*
X38081423Y-65296577D01*
X38556091Y-65613740D01*
X38974667Y-65697000D01*
X39257333Y-65697000D01*
X39675909Y-65613740D01*
X40150577Y-65296577D01*
X40460040Y-64833433D01*
X40460040Y-65493668D01*
X39763469Y-66190240D01*
X28683171Y-66190240D01*
X28571389Y-66168005D01*
X28459607Y-66190240D01*
X28128535Y-66256094D01*
X27753101Y-66506951D01*
X27689779Y-66601719D01*
X19850480Y-74441019D01*
X19755712Y-74504341D01*
X19504854Y-74879775D01*
X19451231Y-75149359D01*
X19416765Y-75322630D01*
X19439000Y-75434413D01*
X19439000Y-75559604D01*
X19357466Y-75641138D01*
X19139000Y-76168561D01*
X19139000Y-76739439D01*
X19357466Y-77266862D01*
X19761138Y-77670534D01*
X20288561Y-77889000D01*
X20859439Y-77889000D01*
X20980150Y-77839000D01*
X21302595Y-77839000D01*
X23413600Y-79950006D01*
X23413600Y-79951542D01*
X23662514Y-80552473D01*
X23663600Y-80553559D01*
X23663601Y-85199080D01*
X23662514Y-85200167D01*
X23413600Y-85801098D01*
X23413600Y-86451542D01*
X23662514Y-87052473D01*
X24122447Y-87512406D01*
X24723378Y-87761320D01*
X25373822Y-87761320D01*
X25974753Y-87512406D01*
X26434686Y-87052473D01*
X26683600Y-86451542D01*
X26683600Y-85801098D01*
X26434686Y-85200167D01*
X26433600Y-85199081D01*
X26433600Y-80553559D01*
X26434686Y-80552473D01*
X26683600Y-79951542D01*
X26683600Y-79301098D01*
X26434686Y-78700167D01*
X25974753Y-78240234D01*
X25373822Y-77991320D01*
X25372286Y-77991320D01*
X22952079Y-75571114D01*
X22874809Y-75455471D01*
X22416680Y-75149359D01*
X22363066Y-75138695D01*
X29041522Y-68460240D01*
X30859217Y-68460240D01*
X30700183Y-68566503D01*
X30383020Y-69041171D01*
X30271647Y-69601080D01*
X30383020Y-70160989D01*
X30700183Y-70635657D01*
X31174851Y-70952820D01*
X31593427Y-71036080D01*
X31876093Y-71036080D01*
X32294669Y-70952820D01*
X32769337Y-70635657D01*
X33086500Y-70160989D01*
X33197873Y-69601080D01*
X33086500Y-69041171D01*
X32769337Y-68566503D01*
X32610303Y-68460240D01*
X35944297Y-68460240D01*
X35785263Y-68566503D01*
X35468100Y-69041171D01*
X35391991Y-69423797D01*
X31011240Y-73804549D01*
X30916472Y-73867871D01*
X30784851Y-74064856D01*
X30665614Y-74243306D01*
X30577525Y-74686160D01*
X30599761Y-74797948D01*
X30599760Y-81406684D01*
X30518226Y-81488218D01*
X30299760Y-82015641D01*
X30299760Y-82586519D01*
X30518226Y-83113942D01*
X30921898Y-83517614D01*
X31449321Y-83736080D01*
X32020199Y-83736080D01*
X32547622Y-83517614D01*
X32951294Y-83113942D01*
X33169760Y-82586519D01*
X33169760Y-82015641D01*
X32951294Y-81488218D01*
X32869760Y-81406684D01*
X32869760Y-75156291D01*
X36997123Y-71028929D01*
X37379749Y-70952820D01*
X37854417Y-70635657D01*
X38171580Y-70160989D01*
X38282953Y-69601080D01*
X38171580Y-69041171D01*
X37854417Y-68566503D01*
X37695383Y-68460240D01*
X40121817Y-68460240D01*
X40233600Y-68482475D01*
X40345383Y-68460240D01*
X40676455Y-68394386D01*
X41051889Y-68143529D01*
X41115213Y-68048758D01*
X42318561Y-66845411D01*
X42413329Y-66782089D01*
X42664186Y-66406655D01*
X42730040Y-66075583D01*
X42730040Y-66075582D01*
X42752275Y-65963800D01*
X42730040Y-65852017D01*
X42730040Y-50218571D01*
X43299612Y-49649000D01*
X44073717Y-49649000D01*
X44398091Y-49865740D01*
X44816667Y-49949000D01*
X45099333Y-49949000D01*
X45517909Y-49865740D01*
X45992577Y-49548577D01*
X46309740Y-49073909D01*
X46421113Y-48514000D01*
X46309740Y-47954091D01*
X45992577Y-47479423D01*
X45640242Y-47244000D01*
X45992577Y-47008577D01*
X46309740Y-46533909D01*
X46421113Y-45974000D01*
X46309740Y-45414091D01*
X45992577Y-44939423D01*
X45640242Y-44704000D01*
X45992577Y-44468577D01*
X46309740Y-43993909D01*
X46421113Y-43434000D01*
X46309740Y-42874091D01*
X45992577Y-42399423D01*
X45640242Y-42164000D01*
X45992577Y-41928577D01*
X46309740Y-41453909D01*
X46421113Y-40894000D01*
X46309740Y-40334091D01*
X45992577Y-39859423D01*
X45640242Y-39624000D01*
X45992577Y-39388577D01*
X46309740Y-38913909D01*
X46421113Y-38354000D01*
X46309740Y-37794091D01*
X45992577Y-37319423D01*
X45640242Y-37084000D01*
X45992577Y-36848577D01*
X46309740Y-36373909D01*
X46421113Y-35814000D01*
X46309740Y-35254091D01*
X45992577Y-34779423D01*
X45871894Y-34698785D01*
X46005765Y-34672157D01*
X46025456Y-34659000D01*
X46684315Y-34659000D01*
X47525240Y-35499926D01*
X47525240Y-35499926D01*
G37*
X47525240Y-35499926D02*
X47525241Y-53207198D01*
X47498107Y-53343610D01*
X47605599Y-53884009D01*
X47834443Y-54226498D01*
X47911712Y-54342139D01*
X48027352Y-54419407D01*
X50370832Y-56762888D01*
X50448101Y-56878529D01*
X50906230Y-57184641D01*
X51310223Y-57265000D01*
X51410769Y-57285000D01*
X49895781Y-57285000D01*
X49783999Y-57262765D01*
X49672217Y-57285000D01*
X49341145Y-57350854D01*
X48965711Y-57601711D01*
X48902389Y-57696479D01*
X46773869Y-59825000D01*
X45842283Y-59825000D01*
X45640242Y-59690000D01*
X45992577Y-59454577D01*
X46309740Y-58979909D01*
X46421113Y-58420000D01*
X46309740Y-57860091D01*
X45992577Y-57385423D01*
X45871894Y-57304785D01*
X46005765Y-57278157D01*
X46215809Y-57137809D01*
X46356157Y-56927765D01*
X46405440Y-56680000D01*
X46405440Y-55080000D01*
X46356157Y-54832235D01*
X46215809Y-54622191D01*
X46005765Y-54481843D01*
X45758000Y-54432560D01*
X44158000Y-54432560D01*
X43910235Y-54481843D01*
X43700191Y-54622191D01*
X43559843Y-54832235D01*
X43510560Y-55080000D01*
X43510560Y-56680000D01*
X43559843Y-56927765D01*
X43700191Y-57137809D01*
X43910235Y-57278157D01*
X44044106Y-57304785D01*
X43923423Y-57385423D01*
X43606260Y-57860091D01*
X43494887Y-58420000D01*
X43606260Y-58979909D01*
X43923423Y-59454577D01*
X44275758Y-59690000D01*
X43923423Y-59925423D01*
X43606260Y-60400091D01*
X43494887Y-60960000D01*
X43606260Y-61519909D01*
X43923423Y-61994577D01*
X44275758Y-62230000D01*
X43923423Y-62465423D01*
X43606260Y-62940091D01*
X43530151Y-63322718D01*
X43434482Y-63418386D01*
X43339712Y-63481710D01*
X43114615Y-63818593D01*
X43088855Y-63857145D01*
X43000766Y-64299999D01*
X43023001Y-64411782D01*
X43023002Y-71957866D01*
X42240478Y-72740391D01*
X42240475Y-72740393D01*
X41993868Y-72987000D01*
X41878561Y-72987000D01*
X41351138Y-73205466D01*
X40947466Y-73609138D01*
X40729000Y-74136561D01*
X40729000Y-74251867D01*
X36096320Y-78884549D01*
X36001552Y-78947871D01*
X35909311Y-79085920D01*
X35750694Y-79323306D01*
X35662605Y-79766160D01*
X35684841Y-79877948D01*
X35684840Y-81406684D01*
X35603306Y-81488218D01*
X35384840Y-82015641D01*
X35384840Y-82130948D01*
X32824800Y-84690989D01*
X32730032Y-84754311D01*
X32581079Y-84977235D01*
X32479174Y-85129746D01*
X32391085Y-85572600D01*
X32413321Y-85684388D01*
X32413320Y-87333264D01*
X32400555Y-87335803D01*
X32190511Y-87476151D01*
X32050163Y-87686195D01*
X32047045Y-87701868D01*
X31877827Y-87532650D01*
X31313650Y-87298960D01*
X30702990Y-87298960D01*
X30138813Y-87532650D01*
X29707010Y-87964453D01*
X29473320Y-88528630D01*
X29473320Y-89139290D01*
X29707010Y-89703467D01*
X30138813Y-90135270D01*
X30702990Y-90368960D01*
X31313650Y-90368960D01*
X31877827Y-90135270D01*
X32047045Y-89966052D01*
X32050163Y-89981725D01*
X32190511Y-90191769D01*
X32400555Y-90332117D01*
X32648320Y-90381400D01*
X34448320Y-90381400D01*
X34696085Y-90332117D01*
X34906129Y-90191769D01*
X35046477Y-89981725D01*
X35095760Y-89733960D01*
X35095760Y-87933960D01*
X35046477Y-87686195D01*
X34906129Y-87476151D01*
X34696085Y-87335803D01*
X34683320Y-87333264D01*
X34683320Y-86042731D01*
X36819840Y-83906211D01*
X39489149Y-86575521D01*
X39552471Y-86670289D01*
X39876169Y-86886577D01*
X39927905Y-86921146D01*
X40370759Y-87009235D01*
X40482542Y-86987000D01*
X40779000Y-86987000D01*
X40779001Y-91655915D01*
X40708039Y-91641800D01*
X26385946Y-91641800D01*
X22683600Y-87939455D01*
X22683600Y-86336594D01*
X22725426Y-86126321D01*
X22683600Y-85916047D01*
X22683600Y-85916041D01*
X22559726Y-85293284D01*
X22087849Y-84587071D01*
X21933600Y-84484005D01*
X21933600Y-80553559D01*
X21934686Y-80552473D01*
X22183600Y-79951542D01*
X22183600Y-79301098D01*
X21934686Y-78700167D01*
X21474753Y-78240234D01*
X20873822Y-77991320D01*
X20223378Y-77991320D01*
X19622447Y-78240234D01*
X19162514Y-78700167D01*
X18913600Y-79301098D01*
X18913600Y-79951542D01*
X19162514Y-80552473D01*
X19163600Y-80553559D01*
X19163601Y-84484004D01*
X19009351Y-84587071D01*
X18890236Y-84765339D01*
X18363775Y-85291800D01*
X17883000Y-85291800D01*
X17883000Y-63754000D01*
X19110887Y-63754000D01*
X19222260Y-64313909D01*
X19539423Y-64788577D01*
X20014091Y-65105740D01*
X20432667Y-65189000D01*
X20715333Y-65189000D01*
X21133909Y-65105740D01*
X21608577Y-64788577D01*
X21925740Y-64313909D01*
X21992842Y-63976561D01*
X24981000Y-63976561D01*
X24981000Y-64547439D01*
X25199466Y-65074862D01*
X25603138Y-65478534D01*
X26130561Y-65697000D01*
X26701439Y-65697000D01*
X27228862Y-65478534D01*
X27632534Y-65074862D01*
X27851000Y-64547439D01*
X27851000Y-63976561D01*
X27632534Y-63449138D01*
X27228862Y-63045466D01*
X26701439Y-62827000D01*
X26130561Y-62827000D01*
X25603138Y-63045466D01*
X25199466Y-63449138D01*
X24981000Y-63976561D01*
X21992842Y-63976561D01*
X22037113Y-63754000D01*
X21925740Y-63194091D01*
X21608577Y-62719423D01*
X21133909Y-62402260D01*
X20715333Y-62319000D01*
X20432667Y-62319000D01*
X20014091Y-62402260D01*
X19539423Y-62719423D01*
X19222260Y-63194091D01*
X19110887Y-63754000D01*
X17883000Y-63754000D01*
X17883000Y-61833000D01*
X20735031Y-61833000D01*
X21211945Y-61738136D01*
X21752769Y-61376769D01*
X22114136Y-60835945D01*
X22221285Y-60297268D01*
X23076000Y-59442553D01*
X23076000Y-59924639D01*
X23294466Y-60452062D01*
X23698138Y-60855734D01*
X24225561Y-61074200D01*
X24796439Y-61074200D01*
X25323862Y-60855734D01*
X25349516Y-60830080D01*
X31587417Y-60830080D01*
X31699200Y-60852315D01*
X31810983Y-60830080D01*
X32077655Y-60777036D01*
X32142055Y-60764226D01*
X32517489Y-60513369D01*
X32618147Y-60362723D01*
X32768346Y-60137935D01*
X32771025Y-60124466D01*
X35291212Y-57604280D01*
X35307939Y-57604280D01*
X35363271Y-57687089D01*
X35573315Y-57827437D01*
X35821080Y-57876720D01*
X37341080Y-57876720D01*
X37588845Y-57827437D01*
X37798889Y-57687089D01*
X37939237Y-57477045D01*
X37945440Y-57445858D01*
X37945440Y-58404078D01*
X37770909Y-58287460D01*
X37352333Y-58204200D01*
X37069667Y-58204200D01*
X36651091Y-58287460D01*
X36176423Y-58604623D01*
X35859260Y-59079291D01*
X35747887Y-59639200D01*
X35859260Y-60199109D01*
X36176423Y-60673777D01*
X36651091Y-60990940D01*
X37069667Y-61074200D01*
X37352333Y-61074200D01*
X37770909Y-60990940D01*
X37945440Y-60874322D01*
X37945440Y-62983287D01*
X37923205Y-63095070D01*
X37979788Y-63379531D01*
X37764260Y-63702091D01*
X37652887Y-64262000D01*
X37764260Y-64821909D01*
X38081423Y-65296577D01*
X38556091Y-65613740D01*
X38974667Y-65697000D01*
X39257333Y-65697000D01*
X39675909Y-65613740D01*
X40150577Y-65296577D01*
X40460040Y-64833433D01*
X40460040Y-65493668D01*
X39763469Y-66190240D01*
X28683171Y-66190240D01*
X28571389Y-66168005D01*
X28459607Y-66190240D01*
X28128535Y-66256094D01*
X27753101Y-66506951D01*
X27689779Y-66601719D01*
X19850480Y-74441019D01*
X19755712Y-74504341D01*
X19504854Y-74879775D01*
X19451231Y-75149359D01*
X19416765Y-75322630D01*
X19439000Y-75434413D01*
X19439000Y-75559604D01*
X19357466Y-75641138D01*
X19139000Y-76168561D01*
X19139000Y-76739439D01*
X19357466Y-77266862D01*
X19761138Y-77670534D01*
X20288561Y-77889000D01*
X20859439Y-77889000D01*
X20980150Y-77839000D01*
X21302595Y-77839000D01*
X23413600Y-79950006D01*
X23413600Y-79951542D01*
X23662514Y-80552473D01*
X23663600Y-80553559D01*
X23663601Y-85199080D01*
X23662514Y-85200167D01*
X23413600Y-85801098D01*
X23413600Y-86451542D01*
X23662514Y-87052473D01*
X24122447Y-87512406D01*
X24723378Y-87761320D01*
X25373822Y-87761320D01*
X25974753Y-87512406D01*
X26434686Y-87052473D01*
X26683600Y-86451542D01*
X26683600Y-85801098D01*
X26434686Y-85200167D01*
X26433600Y-85199081D01*
X26433600Y-80553559D01*
X26434686Y-80552473D01*
X26683600Y-79951542D01*
X26683600Y-79301098D01*
X26434686Y-78700167D01*
X25974753Y-78240234D01*
X25373822Y-77991320D01*
X25372286Y-77991320D01*
X22952079Y-75571114D01*
X22874809Y-75455471D01*
X22416680Y-75149359D01*
X22363066Y-75138695D01*
X29041522Y-68460240D01*
X30859217Y-68460240D01*
X30700183Y-68566503D01*
X30383020Y-69041171D01*
X30271647Y-69601080D01*
X30383020Y-70160989D01*
X30700183Y-70635657D01*
X31174851Y-70952820D01*
X31593427Y-71036080D01*
X31876093Y-71036080D01*
X32294669Y-70952820D01*
X32769337Y-70635657D01*
X33086500Y-70160989D01*
X33197873Y-69601080D01*
X33086500Y-69041171D01*
X32769337Y-68566503D01*
X32610303Y-68460240D01*
X35944297Y-68460240D01*
X35785263Y-68566503D01*
X35468100Y-69041171D01*
X35391991Y-69423797D01*
X31011240Y-73804549D01*
X30916472Y-73867871D01*
X30784851Y-74064856D01*
X30665614Y-74243306D01*
X30577525Y-74686160D01*
X30599761Y-74797948D01*
X30599760Y-81406684D01*
X30518226Y-81488218D01*
X30299760Y-82015641D01*
X30299760Y-82586519D01*
X30518226Y-83113942D01*
X30921898Y-83517614D01*
X31449321Y-83736080D01*
X32020199Y-83736080D01*
X32547622Y-83517614D01*
X32951294Y-83113942D01*
X33169760Y-82586519D01*
X33169760Y-82015641D01*
X32951294Y-81488218D01*
X32869760Y-81406684D01*
X32869760Y-75156291D01*
X36997123Y-71028929D01*
X37379749Y-70952820D01*
X37854417Y-70635657D01*
X38171580Y-70160989D01*
X38282953Y-69601080D01*
X38171580Y-69041171D01*
X37854417Y-68566503D01*
X37695383Y-68460240D01*
X40121817Y-68460240D01*
X40233600Y-68482475D01*
X40345383Y-68460240D01*
X40676455Y-68394386D01*
X41051889Y-68143529D01*
X41115213Y-68048758D01*
X42318561Y-66845411D01*
X42413329Y-66782089D01*
X42664186Y-66406655D01*
X42730040Y-66075583D01*
X42730040Y-66075582D01*
X42752275Y-65963800D01*
X42730040Y-65852017D01*
X42730040Y-50218571D01*
X43299612Y-49649000D01*
X44073717Y-49649000D01*
X44398091Y-49865740D01*
X44816667Y-49949000D01*
X45099333Y-49949000D01*
X45517909Y-49865740D01*
X45992577Y-49548577D01*
X46309740Y-49073909D01*
X46421113Y-48514000D01*
X46309740Y-47954091D01*
X45992577Y-47479423D01*
X45640242Y-47244000D01*
X45992577Y-47008577D01*
X46309740Y-46533909D01*
X46421113Y-45974000D01*
X46309740Y-45414091D01*
X45992577Y-44939423D01*
X45640242Y-44704000D01*
X45992577Y-44468577D01*
X46309740Y-43993909D01*
X46421113Y-43434000D01*
X46309740Y-42874091D01*
X45992577Y-42399423D01*
X45640242Y-42164000D01*
X45992577Y-41928577D01*
X46309740Y-41453909D01*
X46421113Y-40894000D01*
X46309740Y-40334091D01*
X45992577Y-39859423D01*
X45640242Y-39624000D01*
X45992577Y-39388577D01*
X46309740Y-38913909D01*
X46421113Y-38354000D01*
X46309740Y-37794091D01*
X45992577Y-37319423D01*
X45640242Y-37084000D01*
X45992577Y-36848577D01*
X46309740Y-36373909D01*
X46421113Y-35814000D01*
X46309740Y-35254091D01*
X45992577Y-34779423D01*
X45871894Y-34698785D01*
X46005765Y-34672157D01*
X46025456Y-34659000D01*
X46684315Y-34659000D01*
X47525240Y-35499926D01*
G36*
X13613000Y-60154277D02*
X13613000Y-64595282D01*
X13613001Y-87216516D01*
X13589000Y-87337177D01*
X13589000Y-60033619D01*
X13613000Y-60154277D01*
X13613000Y-60154277D01*
G37*
X13613000Y-60154277D02*
X13613000Y-64595282D01*
X13613001Y-87216516D01*
X13589000Y-87337177D01*
X13589000Y-60033619D01*
X13613000Y-60154277D01*
G36*
X51895758Y-59690000D02*
X51543423Y-59925423D01*
X51226260Y-60400091D01*
X51114887Y-60960000D01*
X51226260Y-61519909D01*
X51543423Y-61994577D01*
X51895758Y-62230000D01*
X51543423Y-62465423D01*
X51226260Y-62940091D01*
X51114887Y-63500000D01*
X51189000Y-63872591D01*
X51189001Y-66077867D01*
X50330482Y-66936387D01*
X50235711Y-66999711D01*
X50014533Y-67330728D01*
X49984854Y-67375146D01*
X49896765Y-67818000D01*
X49919000Y-67929783D01*
X49919001Y-73338959D01*
X49849145Y-73352854D01*
X49473711Y-73603711D01*
X49410389Y-73698479D01*
X44233869Y-78875000D01*
X43048283Y-78875000D01*
X42723909Y-78658260D01*
X42305333Y-78575000D01*
X42022667Y-78575000D01*
X41604091Y-78658260D01*
X41129423Y-78975423D01*
X40812260Y-79450091D01*
X40700887Y-80010000D01*
X40812260Y-80569909D01*
X41129423Y-81044577D01*
X41604091Y-81361740D01*
X42022667Y-81445000D01*
X42305333Y-81445000D01*
X42723909Y-81361740D01*
X43048283Y-81145000D01*
X44592217Y-81145000D01*
X44704000Y-81167235D01*
X44815783Y-81145000D01*
X45146855Y-81079146D01*
X45522289Y-80828289D01*
X45585613Y-80733518D01*
X50762132Y-75557000D01*
X50942217Y-75557000D01*
X51054000Y-75579235D01*
X51165783Y-75557000D01*
X53979717Y-75557000D01*
X54304091Y-75773740D01*
X54722667Y-75857000D01*
X55005333Y-75857000D01*
X55423909Y-75773740D01*
X55761001Y-75548503D01*
X55761001Y-78877605D01*
X55676862Y-78793466D01*
X55149439Y-78575000D01*
X54578561Y-78575000D01*
X54051138Y-78793466D01*
X53969604Y-78875000D01*
X48371781Y-78875000D01*
X48259999Y-78852765D01*
X48148217Y-78875000D01*
X47817145Y-78940854D01*
X47441711Y-79191711D01*
X47378389Y-79286479D01*
X43980480Y-82684389D01*
X43885712Y-82747711D01*
X43758323Y-82938362D01*
X43634854Y-83123146D01*
X43546765Y-83566000D01*
X43569001Y-83677788D01*
X43569001Y-85559851D01*
X43515740Y-85292091D01*
X43198577Y-84817423D01*
X42723909Y-84500260D01*
X42305333Y-84417000D01*
X42022667Y-84417000D01*
X41604091Y-84500260D01*
X41279717Y-84717000D01*
X40840892Y-84717000D01*
X38254840Y-82130949D01*
X38254840Y-82015641D01*
X38036374Y-81488218D01*
X37954840Y-81406684D01*
X37954840Y-80236291D01*
X42334133Y-75857000D01*
X42449439Y-75857000D01*
X42976862Y-75638534D01*
X43380534Y-75234862D01*
X43599000Y-74707439D01*
X43599000Y-74592132D01*
X43845607Y-74345525D01*
X43845609Y-74345522D01*
X44881522Y-73309610D01*
X44976290Y-73246288D01*
X45227147Y-72870854D01*
X45293001Y-72539782D01*
X45315236Y-72427999D01*
X45293001Y-72316216D01*
X45293001Y-64896477D01*
X45517909Y-64851740D01*
X45992577Y-64534577D01*
X46309740Y-64059909D01*
X46421113Y-63500000D01*
X46309740Y-62940091D01*
X45992577Y-62465423D01*
X45640242Y-62230000D01*
X45842283Y-62095000D01*
X47132217Y-62095000D01*
X47244000Y-62117235D01*
X47355783Y-62095000D01*
X47686855Y-62029146D01*
X48062289Y-61778289D01*
X48125613Y-61683518D01*
X50254132Y-59555000D01*
X51693717Y-59555000D01*
X51895758Y-59690000D01*
X51895758Y-59690000D01*
G37*
X51895758Y-59690000D02*
X51543423Y-59925423D01*
X51226260Y-60400091D01*
X51114887Y-60960000D01*
X51226260Y-61519909D01*
X51543423Y-61994577D01*
X51895758Y-62230000D01*
X51543423Y-62465423D01*
X51226260Y-62940091D01*
X51114887Y-63500000D01*
X51189000Y-63872591D01*
X51189001Y-66077867D01*
X50330482Y-66936387D01*
X50235711Y-66999711D01*
X50014533Y-67330728D01*
X49984854Y-67375146D01*
X49896765Y-67818000D01*
X49919000Y-67929783D01*
X49919001Y-73338959D01*
X49849145Y-73352854D01*
X49473711Y-73603711D01*
X49410389Y-73698479D01*
X44233869Y-78875000D01*
X43048283Y-78875000D01*
X42723909Y-78658260D01*
X42305333Y-78575000D01*
X42022667Y-78575000D01*
X41604091Y-78658260D01*
X41129423Y-78975423D01*
X40812260Y-79450091D01*
X40700887Y-80010000D01*
X40812260Y-80569909D01*
X41129423Y-81044577D01*
X41604091Y-81361740D01*
X42022667Y-81445000D01*
X42305333Y-81445000D01*
X42723909Y-81361740D01*
X43048283Y-81145000D01*
X44592217Y-81145000D01*
X44704000Y-81167235D01*
X44815783Y-81145000D01*
X45146855Y-81079146D01*
X45522289Y-80828289D01*
X45585613Y-80733518D01*
X50762132Y-75557000D01*
X50942217Y-75557000D01*
X51054000Y-75579235D01*
X51165783Y-75557000D01*
X53979717Y-75557000D01*
X54304091Y-75773740D01*
X54722667Y-75857000D01*
X55005333Y-75857000D01*
X55423909Y-75773740D01*
X55761001Y-75548503D01*
X55761001Y-78877605D01*
X55676862Y-78793466D01*
X55149439Y-78575000D01*
X54578561Y-78575000D01*
X54051138Y-78793466D01*
X53969604Y-78875000D01*
X48371781Y-78875000D01*
X48259999Y-78852765D01*
X48148217Y-78875000D01*
X47817145Y-78940854D01*
X47441711Y-79191711D01*
X47378389Y-79286479D01*
X43980480Y-82684389D01*
X43885712Y-82747711D01*
X43758323Y-82938362D01*
X43634854Y-83123146D01*
X43546765Y-83566000D01*
X43569001Y-83677788D01*
X43569001Y-85559851D01*
X43515740Y-85292091D01*
X43198577Y-84817423D01*
X42723909Y-84500260D01*
X42305333Y-84417000D01*
X42022667Y-84417000D01*
X41604091Y-84500260D01*
X41279717Y-84717000D01*
X40840892Y-84717000D01*
X38254840Y-82130949D01*
X38254840Y-82015641D01*
X38036374Y-81488218D01*
X37954840Y-81406684D01*
X37954840Y-80236291D01*
X42334133Y-75857000D01*
X42449439Y-75857000D01*
X42976862Y-75638534D01*
X43380534Y-75234862D01*
X43599000Y-74707439D01*
X43599000Y-74592132D01*
X43845607Y-74345525D01*
X43845609Y-74345522D01*
X44881522Y-73309610D01*
X44976290Y-73246288D01*
X45227147Y-72870854D01*
X45293001Y-72539782D01*
X45315236Y-72427999D01*
X45293001Y-72316216D01*
X45293001Y-64896477D01*
X45517909Y-64851740D01*
X45992577Y-64534577D01*
X46309740Y-64059909D01*
X46421113Y-63500000D01*
X46309740Y-62940091D01*
X45992577Y-62465423D01*
X45640242Y-62230000D01*
X45842283Y-62095000D01*
X47132217Y-62095000D01*
X47244000Y-62117235D01*
X47355783Y-62095000D01*
X47686855Y-62029146D01*
X48062289Y-61778289D01*
X48125613Y-61683518D01*
X50254132Y-59555000D01*
X51693717Y-59555000D01*
X51895758Y-59690000D01*
G36*
X55761000Y-64616762D02*
X55761000Y-73295497D01*
X55423909Y-73070260D01*
X55005333Y-72987000D01*
X54722667Y-72987000D01*
X54304091Y-73070260D01*
X53979717Y-73287000D01*
X52189000Y-73287000D01*
X52189000Y-68288131D01*
X53047521Y-67429611D01*
X53142289Y-67366289D01*
X53393146Y-66990855D01*
X53394830Y-66982387D01*
X53481235Y-66548001D01*
X53459000Y-66436218D01*
X53459000Y-64637194D01*
X53612577Y-64534577D01*
X53929740Y-64059909D01*
X54041113Y-63500000D01*
X53929740Y-62940091D01*
X53618447Y-62474209D01*
X55761000Y-64616762D01*
X55761000Y-64616762D01*
G37*
X55761000Y-64616762D02*
X55761000Y-73295497D01*
X55423909Y-73070260D01*
X55005333Y-72987000D01*
X54722667Y-72987000D01*
X54304091Y-73070260D01*
X53979717Y-73287000D01*
X52189000Y-73287000D01*
X52189000Y-68288131D01*
X53047521Y-67429611D01*
X53142289Y-67366289D01*
X53393146Y-66990855D01*
X53394830Y-66982387D01*
X53481235Y-66548001D01*
X53459000Y-66436218D01*
X53459000Y-64637194D01*
X53612577Y-64534577D01*
X53929740Y-64059909D01*
X54041113Y-63500000D01*
X53929740Y-62940091D01*
X53618447Y-62474209D01*
X55761000Y-64616762D01*
G36*
X44275758Y-47244000D02*
X44073717Y-47379000D01*
X42941263Y-47379000D01*
X42829480Y-47356765D01*
X42717697Y-47379000D01*
X42386625Y-47444854D01*
X42011191Y-47695711D01*
X41947869Y-47790479D01*
X40871520Y-48866829D01*
X40776752Y-48930151D01*
X40700835Y-49043769D01*
X40525894Y-49305586D01*
X40437805Y-49748440D01*
X40460041Y-49860228D01*
X40460040Y-63690567D01*
X40251000Y-63377717D01*
X40251000Y-63242411D01*
X40273235Y-63130629D01*
X40251000Y-63018847D01*
X40215440Y-62840074D01*
X40215440Y-49182251D01*
X42288692Y-47109000D01*
X44073717Y-47109000D01*
X44275758Y-47244000D01*
X44275758Y-47244000D01*
G37*
X44275758Y-47244000D02*
X44073717Y-47379000D01*
X42941263Y-47379000D01*
X42829480Y-47356765D01*
X42717697Y-47379000D01*
X42386625Y-47444854D01*
X42011191Y-47695711D01*
X41947869Y-47790479D01*
X40871520Y-48866829D01*
X40776752Y-48930151D01*
X40700835Y-49043769D01*
X40525894Y-49305586D01*
X40437805Y-49748440D01*
X40460041Y-49860228D01*
X40460040Y-63690567D01*
X40251000Y-63377717D01*
X40251000Y-63242411D01*
X40273235Y-63130629D01*
X40251000Y-63018847D01*
X40215440Y-62840074D01*
X40215440Y-49182251D01*
X42288692Y-47109000D01*
X44073717Y-47109000D01*
X44275758Y-47244000D01*
G36*
X53603791Y-62459553D02*
X53260242Y-62230000D01*
X53328578Y-62184339D01*
X53603791Y-62459553D01*
X53603791Y-62459553D01*
G37*
X53603791Y-62459553D02*
X53260242Y-62230000D01*
X53328578Y-62184339D01*
X53603791Y-62459553D01*
G36*
X51320977Y-33975663D02*
X51543423Y-34308577D01*
X51895758Y-34544000D01*
X51543423Y-34779423D01*
X51226260Y-35254091D01*
X51114887Y-35814000D01*
X51226260Y-36373909D01*
X51543423Y-36848577D01*
X51895758Y-37084000D01*
X51543423Y-37319423D01*
X51226260Y-37794091D01*
X51114887Y-38354000D01*
X51226260Y-38913909D01*
X51543423Y-39388577D01*
X51895758Y-39624000D01*
X51543423Y-39859423D01*
X51226260Y-40334091D01*
X51114887Y-40894000D01*
X51226260Y-41453909D01*
X51543423Y-41928577D01*
X51895758Y-42164000D01*
X51543423Y-42399423D01*
X51226260Y-42874091D01*
X51114887Y-43434000D01*
X51226260Y-43993909D01*
X51543423Y-44468577D01*
X51895758Y-44704000D01*
X51543423Y-44939423D01*
X51226260Y-45414091D01*
X51114887Y-45974000D01*
X51226260Y-46533909D01*
X51543423Y-47008577D01*
X51895758Y-47244000D01*
X51543423Y-47479423D01*
X51226260Y-47954091D01*
X51114887Y-48514000D01*
X51226260Y-49073909D01*
X51543423Y-49548577D01*
X52018091Y-49865740D01*
X52436667Y-49949000D01*
X52719333Y-49949000D01*
X53137909Y-49865740D01*
X53612577Y-49548577D01*
X53929740Y-49073909D01*
X54041113Y-48514000D01*
X53929740Y-47954091D01*
X53612577Y-47479423D01*
X53260242Y-47244000D01*
X53612577Y-47008577D01*
X53929740Y-46533909D01*
X54041113Y-45974000D01*
X53929740Y-45414091D01*
X53612577Y-44939423D01*
X53260242Y-44704000D01*
X53612577Y-44468577D01*
X53929740Y-43993909D01*
X54041113Y-43434000D01*
X53929740Y-42874091D01*
X53612577Y-42399423D01*
X53260242Y-42164000D01*
X53612577Y-41928577D01*
X53929740Y-41453909D01*
X54041113Y-40894000D01*
X53929740Y-40334091D01*
X53612577Y-39859423D01*
X53260242Y-39624000D01*
X53612577Y-39388577D01*
X53929740Y-38913909D01*
X54041113Y-38354000D01*
X53929740Y-37794091D01*
X53618448Y-37328209D01*
X54267480Y-37977242D01*
X54267481Y-59527412D01*
X54245245Y-59639200D01*
X54317233Y-60001109D01*
X54152225Y-59890854D01*
X53821153Y-59825000D01*
X53709370Y-59802765D01*
X53597587Y-59825000D01*
X53462283Y-59825000D01*
X53260242Y-59690000D01*
X53612577Y-59454577D01*
X53929740Y-58979909D01*
X54041113Y-58420000D01*
X53929740Y-57860091D01*
X53612577Y-57385423D01*
X53260242Y-57150000D01*
X53612577Y-56914577D01*
X53929740Y-56439909D01*
X54041113Y-55880000D01*
X53929740Y-55320091D01*
X53612577Y-54845423D01*
X53137909Y-54528260D01*
X52719333Y-54445000D01*
X52436667Y-54445000D01*
X52185300Y-54495000D01*
X52020316Y-54495000D01*
X50295240Y-52769925D01*
X50295240Y-52324000D01*
X51114887Y-52324000D01*
X51226260Y-52883909D01*
X51543423Y-53358577D01*
X52018091Y-53675740D01*
X52436667Y-53759000D01*
X52719333Y-53759000D01*
X53137909Y-53675740D01*
X53612577Y-53358577D01*
X53929740Y-52883909D01*
X54041113Y-52324000D01*
X53929740Y-51764091D01*
X53612577Y-51289423D01*
X53137909Y-50972260D01*
X52719333Y-50889000D01*
X52436667Y-50889000D01*
X52018091Y-50972260D01*
X51543423Y-51289423D01*
X51226260Y-51764091D01*
X51114887Y-52324000D01*
X50295240Y-52324000D01*
X50295240Y-35062645D01*
X50322373Y-34926239D01*
X50271833Y-34672157D01*
X50214881Y-34385840D01*
X50130932Y-34260202D01*
X49986037Y-34043351D01*
X49986035Y-34043349D01*
X49908768Y-33927711D01*
X49793130Y-33850444D01*
X48333799Y-32391114D01*
X48256529Y-32275471D01*
X47798400Y-31969359D01*
X47394407Y-31889000D01*
X47258000Y-31861867D01*
X47121593Y-31889000D01*
X46025456Y-31889000D01*
X46005765Y-31875843D01*
X45758000Y-31826560D01*
X44158000Y-31826560D01*
X43910235Y-31875843D01*
X43890544Y-31889000D01*
X41975287Y-31889000D01*
X41838880Y-31861867D01*
X41535263Y-31922260D01*
X41298480Y-31969359D01*
X40840351Y-32275471D01*
X40763083Y-32391111D01*
X37450275Y-35703920D01*
X36361520Y-35703920D01*
X36113755Y-35753203D01*
X35903711Y-35893551D01*
X35763363Y-36103595D01*
X35714080Y-36351360D01*
X35714080Y-38751360D01*
X35763363Y-38999125D01*
X35903711Y-39209169D01*
X36113755Y-39349517D01*
X36361520Y-39398800D01*
X36426521Y-39398800D01*
X36426520Y-43111187D01*
X33386749Y-46150960D01*
X33305698Y-46150960D01*
X32857953Y-46240022D01*
X32350207Y-46579287D01*
X32186880Y-46823723D01*
X32151880Y-46771342D01*
X32151880Y-39707553D01*
X32473073Y-39386360D01*
X32926524Y-39386360D01*
X33600964Y-39106998D01*
X34117158Y-38590804D01*
X34396520Y-37916364D01*
X34396520Y-37186356D01*
X34117158Y-36511916D01*
X33989876Y-36384634D01*
X38692390Y-31682120D01*
X49027435Y-31682120D01*
X51320977Y-33975663D01*
X51320977Y-33975663D01*
G37*
X51320977Y-33975663D02*
X51543423Y-34308577D01*
X51895758Y-34544000D01*
X51543423Y-34779423D01*
X51226260Y-35254091D01*
X51114887Y-35814000D01*
X51226260Y-36373909D01*
X51543423Y-36848577D01*
X51895758Y-37084000D01*
X51543423Y-37319423D01*
X51226260Y-37794091D01*
X51114887Y-38354000D01*
X51226260Y-38913909D01*
X51543423Y-39388577D01*
X51895758Y-39624000D01*
X51543423Y-39859423D01*
X51226260Y-40334091D01*
X51114887Y-40894000D01*
X51226260Y-41453909D01*
X51543423Y-41928577D01*
X51895758Y-42164000D01*
X51543423Y-42399423D01*
X51226260Y-42874091D01*
X51114887Y-43434000D01*
X51226260Y-43993909D01*
X51543423Y-44468577D01*
X51895758Y-44704000D01*
X51543423Y-44939423D01*
X51226260Y-45414091D01*
X51114887Y-45974000D01*
X51226260Y-46533909D01*
X51543423Y-47008577D01*
X51895758Y-47244000D01*
X51543423Y-47479423D01*
X51226260Y-47954091D01*
X51114887Y-48514000D01*
X51226260Y-49073909D01*
X51543423Y-49548577D01*
X52018091Y-49865740D01*
X52436667Y-49949000D01*
X52719333Y-49949000D01*
X53137909Y-49865740D01*
X53612577Y-49548577D01*
X53929740Y-49073909D01*
X54041113Y-48514000D01*
X53929740Y-47954091D01*
X53612577Y-47479423D01*
X53260242Y-47244000D01*
X53612577Y-47008577D01*
X53929740Y-46533909D01*
X54041113Y-45974000D01*
X53929740Y-45414091D01*
X53612577Y-44939423D01*
X53260242Y-44704000D01*
X53612577Y-44468577D01*
X53929740Y-43993909D01*
X54041113Y-43434000D01*
X53929740Y-42874091D01*
X53612577Y-42399423D01*
X53260242Y-42164000D01*
X53612577Y-41928577D01*
X53929740Y-41453909D01*
X54041113Y-40894000D01*
X53929740Y-40334091D01*
X53612577Y-39859423D01*
X53260242Y-39624000D01*
X53612577Y-39388577D01*
X53929740Y-38913909D01*
X54041113Y-38354000D01*
X53929740Y-37794091D01*
X53618448Y-37328209D01*
X54267480Y-37977242D01*
X54267481Y-59527412D01*
X54245245Y-59639200D01*
X54317233Y-60001109D01*
X54152225Y-59890854D01*
X53821153Y-59825000D01*
X53709370Y-59802765D01*
X53597587Y-59825000D01*
X53462283Y-59825000D01*
X53260242Y-59690000D01*
X53612577Y-59454577D01*
X53929740Y-58979909D01*
X54041113Y-58420000D01*
X53929740Y-57860091D01*
X53612577Y-57385423D01*
X53260242Y-57150000D01*
X53612577Y-56914577D01*
X53929740Y-56439909D01*
X54041113Y-55880000D01*
X53929740Y-55320091D01*
X53612577Y-54845423D01*
X53137909Y-54528260D01*
X52719333Y-54445000D01*
X52436667Y-54445000D01*
X52185300Y-54495000D01*
X52020316Y-54495000D01*
X50295240Y-52769925D01*
X50295240Y-52324000D01*
X51114887Y-52324000D01*
X51226260Y-52883909D01*
X51543423Y-53358577D01*
X52018091Y-53675740D01*
X52436667Y-53759000D01*
X52719333Y-53759000D01*
X53137909Y-53675740D01*
X53612577Y-53358577D01*
X53929740Y-52883909D01*
X54041113Y-52324000D01*
X53929740Y-51764091D01*
X53612577Y-51289423D01*
X53137909Y-50972260D01*
X52719333Y-50889000D01*
X52436667Y-50889000D01*
X52018091Y-50972260D01*
X51543423Y-51289423D01*
X51226260Y-51764091D01*
X51114887Y-52324000D01*
X50295240Y-52324000D01*
X50295240Y-35062645D01*
X50322373Y-34926239D01*
X50271833Y-34672157D01*
X50214881Y-34385840D01*
X50130932Y-34260202D01*
X49986037Y-34043351D01*
X49986035Y-34043349D01*
X49908768Y-33927711D01*
X49793130Y-33850444D01*
X48333799Y-32391114D01*
X48256529Y-32275471D01*
X47798400Y-31969359D01*
X47394407Y-31889000D01*
X47258000Y-31861867D01*
X47121593Y-31889000D01*
X46025456Y-31889000D01*
X46005765Y-31875843D01*
X45758000Y-31826560D01*
X44158000Y-31826560D01*
X43910235Y-31875843D01*
X43890544Y-31889000D01*
X41975287Y-31889000D01*
X41838880Y-31861867D01*
X41535263Y-31922260D01*
X41298480Y-31969359D01*
X40840351Y-32275471D01*
X40763083Y-32391111D01*
X37450275Y-35703920D01*
X36361520Y-35703920D01*
X36113755Y-35753203D01*
X35903711Y-35893551D01*
X35763363Y-36103595D01*
X35714080Y-36351360D01*
X35714080Y-38751360D01*
X35763363Y-38999125D01*
X35903711Y-39209169D01*
X36113755Y-39349517D01*
X36361520Y-39398800D01*
X36426521Y-39398800D01*
X36426520Y-43111187D01*
X33386749Y-46150960D01*
X33305698Y-46150960D01*
X32857953Y-46240022D01*
X32350207Y-46579287D01*
X32186880Y-46823723D01*
X32151880Y-46771342D01*
X32151880Y-39707553D01*
X32473073Y-39386360D01*
X32926524Y-39386360D01*
X33600964Y-39106998D01*
X34117158Y-38590804D01*
X34396520Y-37916364D01*
X34396520Y-37186356D01*
X34117158Y-36511916D01*
X33989876Y-36384634D01*
X38692390Y-31682120D01*
X49027435Y-31682120D01*
X51320977Y-33975663D01*
G36*
X13613000Y-44406275D02*
X13613000Y-59733723D01*
X13589000Y-59854381D01*
X13589000Y-44285618D01*
X13613000Y-44406275D01*
X13613000Y-44406275D01*
G37*
X13613000Y-44406275D02*
X13613000Y-59733723D01*
X13589000Y-59854381D01*
X13589000Y-44285618D01*
X13613000Y-44406275D01*
G36*
X46391017Y-16493638D02*
X46212752Y-16612751D01*
X46093639Y-16791016D01*
X46093638Y-16791017D01*
X45740874Y-17318965D01*
X45575174Y-18152000D01*
X45617001Y-18362279D01*
X45617000Y-21467654D01*
X43057655Y-24027000D01*
X40997000Y-24027000D01*
X40997000Y-20484285D01*
X41060157Y-20389765D01*
X41109440Y-20142000D01*
X41109440Y-16942000D01*
X41060157Y-16694235D01*
X40919809Y-16484191D01*
X40709765Y-16343843D01*
X40462000Y-16294560D01*
X37262000Y-16294560D01*
X37014235Y-16343843D01*
X36804191Y-16484191D01*
X36663843Y-16694235D01*
X36614560Y-16942000D01*
X36614560Y-20142000D01*
X36663843Y-20389765D01*
X36727000Y-20484286D01*
X36727001Y-24219714D01*
X36663843Y-24314235D01*
X36614560Y-24562000D01*
X36614560Y-27762000D01*
X36663843Y-28009765D01*
X36804191Y-28219809D01*
X37014235Y-28360157D01*
X37262000Y-28409440D01*
X40462000Y-28409440D01*
X40709765Y-28360157D01*
X40804285Y-28297000D01*
X43731725Y-28297000D01*
X43942000Y-28338826D01*
X44152275Y-28297000D01*
X44152279Y-28297000D01*
X44775036Y-28173126D01*
X45481249Y-27701249D01*
X45600364Y-27522981D01*
X48923906Y-24199440D01*
X48952000Y-24199440D01*
X49199765Y-24150157D01*
X49409809Y-24009809D01*
X49550157Y-23799765D01*
X49599440Y-23552000D01*
X49599440Y-23430009D01*
X49763126Y-23185036D01*
X49887000Y-22562279D01*
X49887000Y-22562278D01*
X49928827Y-22352000D01*
X49887000Y-22141722D01*
X49887000Y-19036345D01*
X52846336Y-16077010D01*
X84297148Y-16077010D01*
X84353955Y-16362596D01*
X84375485Y-16394818D01*
X83825080Y-16285335D01*
X83245806Y-16400560D01*
X82754722Y-16728692D01*
X82426590Y-17219777D01*
X82340450Y-17652831D01*
X82340451Y-19746130D01*
X82426591Y-20179184D01*
X82440080Y-20199372D01*
X82440081Y-22027234D01*
X81998755Y-22468560D01*
X81790000Y-22468560D01*
X81542235Y-22517843D01*
X81332191Y-22658191D01*
X81191843Y-22868235D01*
X81142560Y-23116000D01*
X81142560Y-23852407D01*
X81137867Y-23876000D01*
X81142560Y-23899593D01*
X81142560Y-24636000D01*
X81191843Y-24883765D01*
X81332191Y-25093809D01*
X81542235Y-25234157D01*
X81723049Y-25270123D01*
X81712172Y-25281000D01*
X81090753Y-25281000D01*
X81093969Y-24123318D01*
X81114988Y-23980713D01*
X81067238Y-23790826D01*
X81029572Y-23598677D01*
X81012428Y-23572865D01*
X81004872Y-23542816D01*
X80888085Y-23385649D01*
X80779758Y-23222548D01*
X80660132Y-23142135D01*
X78106280Y-20831735D01*
X78058216Y-20760081D01*
X77940390Y-20681659D01*
X77919950Y-20663167D01*
X77847495Y-20619830D01*
X77682331Y-20509900D01*
X77654555Y-20504427D01*
X77630258Y-20489894D01*
X77433973Y-20460963D01*
X77351141Y-20444641D01*
X77323576Y-20444691D01*
X77183554Y-20424052D01*
X77099881Y-20445093D01*
X74886206Y-20449074D01*
X72555000Y-18117869D01*
X72555000Y-18002561D01*
X72336534Y-17475138D01*
X71932862Y-17071466D01*
X71405439Y-16853000D01*
X70834561Y-16853000D01*
X70307138Y-17071466D01*
X69903466Y-17475138D01*
X69685000Y-18002561D01*
X69685000Y-18573439D01*
X69903466Y-19100862D01*
X70307138Y-19504534D01*
X70834561Y-19723000D01*
X70949869Y-19723000D01*
X73536041Y-22309173D01*
X73600105Y-22404679D01*
X73729798Y-22491000D01*
X72963686Y-22491000D01*
X72377025Y-21904339D01*
X72154577Y-21571423D01*
X71821663Y-21348977D01*
X67877799Y-17405114D01*
X67800529Y-17289471D01*
X67342400Y-16983359D01*
X66938407Y-16903000D01*
X66802000Y-16875867D01*
X66665593Y-16903000D01*
X58812700Y-16903000D01*
X58561333Y-16853000D01*
X58278667Y-16853000D01*
X57860091Y-16936260D01*
X57385423Y-17253423D01*
X57068260Y-17728091D01*
X56956887Y-18288000D01*
X57068260Y-18847909D01*
X57385423Y-19322577D01*
X57860091Y-19639740D01*
X58278667Y-19723000D01*
X58561333Y-19723000D01*
X58812700Y-19673000D01*
X66228315Y-19673000D01*
X69862977Y-23307663D01*
X70085423Y-23640577D01*
X70418339Y-23863025D01*
X71314202Y-24758888D01*
X71391471Y-24874529D01*
X71849600Y-25180641D01*
X72253593Y-25261000D01*
X72389999Y-25288133D01*
X72526405Y-25261000D01*
X75382172Y-25261000D01*
X75017376Y-25625796D01*
X74805000Y-26138517D01*
X74805000Y-26693483D01*
X75017376Y-27206204D01*
X75373049Y-27561877D01*
X75192235Y-27597843D01*
X74982191Y-27738191D01*
X74841843Y-27948235D01*
X74792560Y-28196000D01*
X74792560Y-29716000D01*
X74841843Y-29963765D01*
X74965001Y-30148082D01*
X74965001Y-30794364D01*
X74940806Y-30916000D01*
X75005640Y-31241944D01*
X75005641Y-33326325D01*
X72549007Y-35782960D01*
X63869000Y-35782960D01*
X63869000Y-33274000D01*
X69402887Y-33274000D01*
X69514260Y-33833909D01*
X69831423Y-34308577D01*
X70306091Y-34625740D01*
X70724667Y-34709000D01*
X71007333Y-34709000D01*
X71425909Y-34625740D01*
X71900577Y-34308577D01*
X72217740Y-33833909D01*
X72329113Y-33274000D01*
X72217740Y-32714091D01*
X71900577Y-32239423D01*
X71425909Y-31922260D01*
X71007333Y-31839000D01*
X70724667Y-31839000D01*
X70306091Y-31922260D01*
X69831423Y-32239423D01*
X69514260Y-32714091D01*
X69402887Y-33274000D01*
X63869000Y-33274000D01*
X63869000Y-27060405D01*
X63896133Y-26923999D01*
X63842134Y-26652528D01*
X63788641Y-26383600D01*
X63482529Y-25925471D01*
X63366888Y-25848202D01*
X62289799Y-24771114D01*
X62212529Y-24655471D01*
X61754400Y-24349359D01*
X61350407Y-24269000D01*
X61214000Y-24241867D01*
X61077593Y-24269000D01*
X56627686Y-24269000D01*
X54679247Y-22320561D01*
X56985000Y-22320561D01*
X56985000Y-22891439D01*
X57203466Y-23418862D01*
X57607138Y-23822534D01*
X58134561Y-24041000D01*
X58705439Y-24041000D01*
X58826150Y-23991000D01*
X61656315Y-23991000D01*
X66578560Y-28913246D01*
X66578560Y-29802000D01*
X66627843Y-30049765D01*
X66768191Y-30259809D01*
X66978235Y-30400157D01*
X67226000Y-30449440D01*
X69426000Y-30449440D01*
X69673765Y-30400157D01*
X69883809Y-30259809D01*
X70024157Y-30049765D01*
X70073440Y-29802000D01*
X70073440Y-27602000D01*
X70024157Y-27354235D01*
X69883809Y-27144191D01*
X69673765Y-27003843D01*
X69426000Y-26954560D01*
X68537246Y-26954560D01*
X63305799Y-21723114D01*
X63228529Y-21607471D01*
X62770400Y-21301359D01*
X62366407Y-21221000D01*
X62230000Y-21193867D01*
X62093593Y-21221000D01*
X58826150Y-21221000D01*
X58705439Y-21171000D01*
X58134561Y-21171000D01*
X57607138Y-21389466D01*
X57203466Y-21793138D01*
X56985000Y-22320561D01*
X54679247Y-22320561D01*
X54587000Y-22228315D01*
X54587000Y-21986996D01*
X54307638Y-21312556D01*
X53791444Y-20796362D01*
X53117004Y-20517000D01*
X52386996Y-20517000D01*
X51712556Y-20796362D01*
X51196362Y-21312556D01*
X50917000Y-21986996D01*
X50917000Y-22717004D01*
X51193001Y-23383330D01*
X51193000Y-29930315D01*
X50676919Y-29414234D01*
X50599649Y-29298591D01*
X50141520Y-28992479D01*
X49737527Y-28912120D01*
X49601120Y-28884987D01*
X49464713Y-28912120D01*
X38255111Y-28912120D01*
X38118704Y-28884987D01*
X37982297Y-28912120D01*
X37578304Y-28992479D01*
X37120175Y-29298591D01*
X37042906Y-29414232D01*
X31678632Y-34778507D01*
X31562992Y-34855775D01*
X31485723Y-34971416D01*
X31256879Y-35313905D01*
X31149387Y-35854304D01*
X31176520Y-35990711D01*
X31176520Y-36341278D01*
X31005882Y-36511916D01*
X30726520Y-37186356D01*
X30726520Y-37639807D01*
X30129611Y-38236715D01*
X30026496Y-38305615D01*
X29957596Y-38408731D01*
X29957594Y-38408733D01*
X29753536Y-38714128D01*
X29657686Y-39196000D01*
X29681881Y-39317637D01*
X29681880Y-46292865D01*
X29524645Y-46187803D01*
X29276880Y-46138520D01*
X28434572Y-46138520D01*
X25897177Y-43601125D01*
X26073889Y-43483049D01*
X26214237Y-43273005D01*
X26263520Y-43025240D01*
X26263520Y-40825240D01*
X26214237Y-40577475D01*
X26073889Y-40367431D01*
X25863845Y-40227083D01*
X25616080Y-40177800D01*
X23416080Y-40177800D01*
X23168315Y-40227083D01*
X22958271Y-40367431D01*
X22817923Y-40577475D01*
X22768640Y-40825240D01*
X22768640Y-43025240D01*
X22817923Y-43273005D01*
X22958271Y-43483049D01*
X23168315Y-43623397D01*
X23381081Y-43665718D01*
X23381081Y-43713372D01*
X23358845Y-43825160D01*
X23446934Y-44268014D01*
X23446935Y-44268015D01*
X23697792Y-44643449D01*
X23792560Y-44706771D01*
X26829440Y-47743652D01*
X26829440Y-48585960D01*
X26878723Y-48833725D01*
X27019071Y-49043769D01*
X27229115Y-49184117D01*
X27476880Y-49233400D01*
X29276880Y-49233400D01*
X29524645Y-49184117D01*
X29717441Y-49055294D01*
X29717440Y-50144120D01*
X29514512Y-50144120D01*
X29392880Y-50119926D01*
X29271248Y-50144120D01*
X29271244Y-50144120D01*
X28911007Y-50215776D01*
X28605612Y-50419834D01*
X28605611Y-50419835D01*
X28502495Y-50488735D01*
X28433595Y-50591851D01*
X20462447Y-58563000D01*
X17883000Y-58563000D01*
X17883000Y-45477782D01*
X18013126Y-45283035D01*
X18178826Y-44449999D01*
X18128303Y-44196000D01*
X19110887Y-44196000D01*
X19222260Y-44755909D01*
X19439000Y-45080284D01*
X19439001Y-46603603D01*
X19357466Y-46685138D01*
X19139000Y-47212561D01*
X19139000Y-47783439D01*
X19357466Y-48310862D01*
X19761138Y-48714534D01*
X20288561Y-48933000D01*
X20859439Y-48933000D01*
X21386862Y-48714534D01*
X21790534Y-48310862D01*
X22009000Y-47783439D01*
X22009000Y-47212561D01*
X21790534Y-46685138D01*
X21709000Y-46603604D01*
X21709000Y-45080283D01*
X21925740Y-44755909D01*
X22037113Y-44196000D01*
X21925740Y-43636091D01*
X21608577Y-43161423D01*
X21133909Y-42844260D01*
X20715333Y-42761000D01*
X20432667Y-42761000D01*
X20014091Y-42844260D01*
X19539423Y-43161423D01*
X19222260Y-43636091D01*
X19110887Y-44196000D01*
X18128303Y-44196000D01*
X18013126Y-43616965D01*
X17660362Y-43089017D01*
X17406364Y-42835019D01*
X17287249Y-42656751D01*
X17070874Y-42512174D01*
X16581036Y-42184874D01*
X15748000Y-42019173D01*
X14914964Y-42184874D01*
X14208751Y-42656751D01*
X13736874Y-43362965D01*
X13613000Y-43985722D01*
X13613000Y-43985725D01*
X13589000Y-44106382D01*
X13589000Y-30061622D01*
X13736874Y-30805036D01*
X14208751Y-31511249D01*
X14914964Y-31983126D01*
X15537721Y-32107000D01*
X19273852Y-32107000D01*
X19357466Y-32308862D01*
X19761138Y-32712534D01*
X20288561Y-32931000D01*
X20859439Y-32931000D01*
X21386862Y-32712534D01*
X21776493Y-32322903D01*
X22082751Y-32781249D01*
X22788965Y-33253126D01*
X23622000Y-33418827D01*
X23811514Y-33381130D01*
X23839117Y-33399574D01*
X24345200Y-33500240D01*
X24686960Y-33500240D01*
X25193043Y-33399574D01*
X25202882Y-33393000D01*
X25765783Y-33393000D01*
X26096855Y-33327146D01*
X26472289Y-33076289D01*
X26723146Y-32700855D01*
X26811235Y-32258000D01*
X26723146Y-31815145D01*
X26472289Y-31439711D01*
X26181696Y-31245543D01*
X26150414Y-31088277D01*
X25766945Y-30514375D01*
X25757000Y-30507730D01*
X25757000Y-26884862D01*
X25900786Y-26162000D01*
X25757000Y-25439138D01*
X25757000Y-19264862D01*
X25900786Y-18542000D01*
X25727324Y-17669946D01*
X25233345Y-16930655D01*
X24494054Y-16436676D01*
X23842128Y-16307000D01*
X23401872Y-16307000D01*
X22749946Y-16436676D01*
X22010655Y-16930655D01*
X21516676Y-17669946D01*
X21343214Y-18542000D01*
X21487001Y-19264867D01*
X21487000Y-25277654D01*
X18927655Y-27837000D01*
X15537721Y-27837000D01*
X14914964Y-27960874D01*
X14208751Y-28432751D01*
X13736874Y-29138964D01*
X13589000Y-29882378D01*
X13589000Y-17397002D01*
X13851436Y-18030579D01*
X13851878Y-18030873D01*
X13852276Y-18031835D01*
X14734165Y-18913724D01*
X14735127Y-18914122D01*
X14735421Y-18914564D01*
X15311550Y-19152885D01*
X15886410Y-19391000D01*
X15887181Y-19391000D01*
X15887892Y-19391294D01*
X16510423Y-19391000D01*
X17133590Y-19391000D01*
X17134301Y-19390705D01*
X17135072Y-19390705D01*
X18284579Y-18914564D01*
X18284873Y-18914122D01*
X18285835Y-18913724D01*
X19167724Y-18031835D01*
X19168122Y-18030873D01*
X19168564Y-18030579D01*
X19406885Y-17454450D01*
X19645000Y-16879590D01*
X19645000Y-16878819D01*
X19645294Y-16878108D01*
X19645000Y-16255577D01*
X19645000Y-15632410D01*
X19644705Y-15631699D01*
X19644705Y-15630928D01*
X19168564Y-14481421D01*
X19168122Y-14481127D01*
X19167724Y-14480165D01*
X18285835Y-13598276D01*
X18284873Y-13597878D01*
X18284579Y-13597436D01*
X17708450Y-13359115D01*
X17133590Y-13121000D01*
X17132819Y-13121000D01*
X17132108Y-13120706D01*
X16509577Y-13121000D01*
X15886410Y-13121000D01*
X15885699Y-13121295D01*
X15884928Y-13121295D01*
X14735421Y-13597436D01*
X14735127Y-13597878D01*
X14734165Y-13598276D01*
X13852276Y-14480165D01*
X13851878Y-14481127D01*
X13851436Y-14481421D01*
X13613115Y-15057550D01*
X13589000Y-15115769D01*
X13589000Y-12877000D01*
X50007654Y-12877000D01*
X46391017Y-16493638D01*
X46391017Y-16493638D01*
G37*
X46391017Y-16493638D02*
X46212752Y-16612751D01*
X46093639Y-16791016D01*
X46093638Y-16791017D01*
X45740874Y-17318965D01*
X45575174Y-18152000D01*
X45617001Y-18362279D01*
X45617000Y-21467654D01*
X43057655Y-24027000D01*
X40997000Y-24027000D01*
X40997000Y-20484285D01*
X41060157Y-20389765D01*
X41109440Y-20142000D01*
X41109440Y-16942000D01*
X41060157Y-16694235D01*
X40919809Y-16484191D01*
X40709765Y-16343843D01*
X40462000Y-16294560D01*
X37262000Y-16294560D01*
X37014235Y-16343843D01*
X36804191Y-16484191D01*
X36663843Y-16694235D01*
X36614560Y-16942000D01*
X36614560Y-20142000D01*
X36663843Y-20389765D01*
X36727000Y-20484286D01*
X36727001Y-24219714D01*
X36663843Y-24314235D01*
X36614560Y-24562000D01*
X36614560Y-27762000D01*
X36663843Y-28009765D01*
X36804191Y-28219809D01*
X37014235Y-28360157D01*
X37262000Y-28409440D01*
X40462000Y-28409440D01*
X40709765Y-28360157D01*
X40804285Y-28297000D01*
X43731725Y-28297000D01*
X43942000Y-28338826D01*
X44152275Y-28297000D01*
X44152279Y-28297000D01*
X44775036Y-28173126D01*
X45481249Y-27701249D01*
X45600364Y-27522981D01*
X48923906Y-24199440D01*
X48952000Y-24199440D01*
X49199765Y-24150157D01*
X49409809Y-24009809D01*
X49550157Y-23799765D01*
X49599440Y-23552000D01*
X49599440Y-23430009D01*
X49763126Y-23185036D01*
X49887000Y-22562279D01*
X49887000Y-22562278D01*
X49928827Y-22352000D01*
X49887000Y-22141722D01*
X49887000Y-19036345D01*
X52846336Y-16077010D01*
X84297148Y-16077010D01*
X84353955Y-16362596D01*
X84375485Y-16394818D01*
X83825080Y-16285335D01*
X83245806Y-16400560D01*
X82754722Y-16728692D01*
X82426590Y-17219777D01*
X82340450Y-17652831D01*
X82340451Y-19746130D01*
X82426591Y-20179184D01*
X82440080Y-20199372D01*
X82440081Y-22027234D01*
X81998755Y-22468560D01*
X81790000Y-22468560D01*
X81542235Y-22517843D01*
X81332191Y-22658191D01*
X81191843Y-22868235D01*
X81142560Y-23116000D01*
X81142560Y-23852407D01*
X81137867Y-23876000D01*
X81142560Y-23899593D01*
X81142560Y-24636000D01*
X81191843Y-24883765D01*
X81332191Y-25093809D01*
X81542235Y-25234157D01*
X81723049Y-25270123D01*
X81712172Y-25281000D01*
X81090753Y-25281000D01*
X81093969Y-24123318D01*
X81114988Y-23980713D01*
X81067238Y-23790826D01*
X81029572Y-23598677D01*
X81012428Y-23572865D01*
X81004872Y-23542816D01*
X80888085Y-23385649D01*
X80779758Y-23222548D01*
X80660132Y-23142135D01*
X78106280Y-20831735D01*
X78058216Y-20760081D01*
X77940390Y-20681659D01*
X77919950Y-20663167D01*
X77847495Y-20619830D01*
X77682331Y-20509900D01*
X77654555Y-20504427D01*
X77630258Y-20489894D01*
X77433973Y-20460963D01*
X77351141Y-20444641D01*
X77323576Y-20444691D01*
X77183554Y-20424052D01*
X77099881Y-20445093D01*
X74886206Y-20449074D01*
X72555000Y-18117869D01*
X72555000Y-18002561D01*
X72336534Y-17475138D01*
X71932862Y-17071466D01*
X71405439Y-16853000D01*
X70834561Y-16853000D01*
X70307138Y-17071466D01*
X69903466Y-17475138D01*
X69685000Y-18002561D01*
X69685000Y-18573439D01*
X69903466Y-19100862D01*
X70307138Y-19504534D01*
X70834561Y-19723000D01*
X70949869Y-19723000D01*
X73536041Y-22309173D01*
X73600105Y-22404679D01*
X73729798Y-22491000D01*
X72963686Y-22491000D01*
X72377025Y-21904339D01*
X72154577Y-21571423D01*
X71821663Y-21348977D01*
X67877799Y-17405114D01*
X67800529Y-17289471D01*
X67342400Y-16983359D01*
X66938407Y-16903000D01*
X66802000Y-16875867D01*
X66665593Y-16903000D01*
X58812700Y-16903000D01*
X58561333Y-16853000D01*
X58278667Y-16853000D01*
X57860091Y-16936260D01*
X57385423Y-17253423D01*
X57068260Y-17728091D01*
X56956887Y-18288000D01*
X57068260Y-18847909D01*
X57385423Y-19322577D01*
X57860091Y-19639740D01*
X58278667Y-19723000D01*
X58561333Y-19723000D01*
X58812700Y-19673000D01*
X66228315Y-19673000D01*
X69862977Y-23307663D01*
X70085423Y-23640577D01*
X70418339Y-23863025D01*
X71314202Y-24758888D01*
X71391471Y-24874529D01*
X71849600Y-25180641D01*
X72253593Y-25261000D01*
X72389999Y-25288133D01*
X72526405Y-25261000D01*
X75382172Y-25261000D01*
X75017376Y-25625796D01*
X74805000Y-26138517D01*
X74805000Y-26693483D01*
X75017376Y-27206204D01*
X75373049Y-27561877D01*
X75192235Y-27597843D01*
X74982191Y-27738191D01*
X74841843Y-27948235D01*
X74792560Y-28196000D01*
X74792560Y-29716000D01*
X74841843Y-29963765D01*
X74965001Y-30148082D01*
X74965001Y-30794364D01*
X74940806Y-30916000D01*
X75005640Y-31241944D01*
X75005641Y-33326325D01*
X72549007Y-35782960D01*
X63869000Y-35782960D01*
X63869000Y-33274000D01*
X69402887Y-33274000D01*
X69514260Y-33833909D01*
X69831423Y-34308577D01*
X70306091Y-34625740D01*
X70724667Y-34709000D01*
X71007333Y-34709000D01*
X71425909Y-34625740D01*
X71900577Y-34308577D01*
X72217740Y-33833909D01*
X72329113Y-33274000D01*
X72217740Y-32714091D01*
X71900577Y-32239423D01*
X71425909Y-31922260D01*
X71007333Y-31839000D01*
X70724667Y-31839000D01*
X70306091Y-31922260D01*
X69831423Y-32239423D01*
X69514260Y-32714091D01*
X69402887Y-33274000D01*
X63869000Y-33274000D01*
X63869000Y-27060405D01*
X63896133Y-26923999D01*
X63842134Y-26652528D01*
X63788641Y-26383600D01*
X63482529Y-25925471D01*
X63366888Y-25848202D01*
X62289799Y-24771114D01*
X62212529Y-24655471D01*
X61754400Y-24349359D01*
X61350407Y-24269000D01*
X61214000Y-24241867D01*
X61077593Y-24269000D01*
X56627686Y-24269000D01*
X54679247Y-22320561D01*
X56985000Y-22320561D01*
X56985000Y-22891439D01*
X57203466Y-23418862D01*
X57607138Y-23822534D01*
X58134561Y-24041000D01*
X58705439Y-24041000D01*
X58826150Y-23991000D01*
X61656315Y-23991000D01*
X66578560Y-28913246D01*
X66578560Y-29802000D01*
X66627843Y-30049765D01*
X66768191Y-30259809D01*
X66978235Y-30400157D01*
X67226000Y-30449440D01*
X69426000Y-30449440D01*
X69673765Y-30400157D01*
X69883809Y-30259809D01*
X70024157Y-30049765D01*
X70073440Y-29802000D01*
X70073440Y-27602000D01*
X70024157Y-27354235D01*
X69883809Y-27144191D01*
X69673765Y-27003843D01*
X69426000Y-26954560D01*
X68537246Y-26954560D01*
X63305799Y-21723114D01*
X63228529Y-21607471D01*
X62770400Y-21301359D01*
X62366407Y-21221000D01*
X62230000Y-21193867D01*
X62093593Y-21221000D01*
X58826150Y-21221000D01*
X58705439Y-21171000D01*
X58134561Y-21171000D01*
X57607138Y-21389466D01*
X57203466Y-21793138D01*
X56985000Y-22320561D01*
X54679247Y-22320561D01*
X54587000Y-22228315D01*
X54587000Y-21986996D01*
X54307638Y-21312556D01*
X53791444Y-20796362D01*
X53117004Y-20517000D01*
X52386996Y-20517000D01*
X51712556Y-20796362D01*
X51196362Y-21312556D01*
X50917000Y-21986996D01*
X50917000Y-22717004D01*
X51193001Y-23383330D01*
X51193000Y-29930315D01*
X50676919Y-29414234D01*
X50599649Y-29298591D01*
X50141520Y-28992479D01*
X49737527Y-28912120D01*
X49601120Y-28884987D01*
X49464713Y-28912120D01*
X38255111Y-28912120D01*
X38118704Y-28884987D01*
X37982297Y-28912120D01*
X37578304Y-28992479D01*
X37120175Y-29298591D01*
X37042906Y-29414232D01*
X31678632Y-34778507D01*
X31562992Y-34855775D01*
X31485723Y-34971416D01*
X31256879Y-35313905D01*
X31149387Y-35854304D01*
X31176520Y-35990711D01*
X31176520Y-36341278D01*
X31005882Y-36511916D01*
X30726520Y-37186356D01*
X30726520Y-37639807D01*
X30129611Y-38236715D01*
X30026496Y-38305615D01*
X29957596Y-38408731D01*
X29957594Y-38408733D01*
X29753536Y-38714128D01*
X29657686Y-39196000D01*
X29681881Y-39317637D01*
X29681880Y-46292865D01*
X29524645Y-46187803D01*
X29276880Y-46138520D01*
X28434572Y-46138520D01*
X25897177Y-43601125D01*
X26073889Y-43483049D01*
X26214237Y-43273005D01*
X26263520Y-43025240D01*
X26263520Y-40825240D01*
X26214237Y-40577475D01*
X26073889Y-40367431D01*
X25863845Y-40227083D01*
X25616080Y-40177800D01*
X23416080Y-40177800D01*
X23168315Y-40227083D01*
X22958271Y-40367431D01*
X22817923Y-40577475D01*
X22768640Y-40825240D01*
X22768640Y-43025240D01*
X22817923Y-43273005D01*
X22958271Y-43483049D01*
X23168315Y-43623397D01*
X23381081Y-43665718D01*
X23381081Y-43713372D01*
X23358845Y-43825160D01*
X23446934Y-44268014D01*
X23446935Y-44268015D01*
X23697792Y-44643449D01*
X23792560Y-44706771D01*
X26829440Y-47743652D01*
X26829440Y-48585960D01*
X26878723Y-48833725D01*
X27019071Y-49043769D01*
X27229115Y-49184117D01*
X27476880Y-49233400D01*
X29276880Y-49233400D01*
X29524645Y-49184117D01*
X29717441Y-49055294D01*
X29717440Y-50144120D01*
X29514512Y-50144120D01*
X29392880Y-50119926D01*
X29271248Y-50144120D01*
X29271244Y-50144120D01*
X28911007Y-50215776D01*
X28605612Y-50419834D01*
X28605611Y-50419835D01*
X28502495Y-50488735D01*
X28433595Y-50591851D01*
X20462447Y-58563000D01*
X17883000Y-58563000D01*
X17883000Y-45477782D01*
X18013126Y-45283035D01*
X18178826Y-44449999D01*
X18128303Y-44196000D01*
X19110887Y-44196000D01*
X19222260Y-44755909D01*
X19439000Y-45080284D01*
X19439001Y-46603603D01*
X19357466Y-46685138D01*
X19139000Y-47212561D01*
X19139000Y-47783439D01*
X19357466Y-48310862D01*
X19761138Y-48714534D01*
X20288561Y-48933000D01*
X20859439Y-48933000D01*
X21386862Y-48714534D01*
X21790534Y-48310862D01*
X22009000Y-47783439D01*
X22009000Y-47212561D01*
X21790534Y-46685138D01*
X21709000Y-46603604D01*
X21709000Y-45080283D01*
X21925740Y-44755909D01*
X22037113Y-44196000D01*
X21925740Y-43636091D01*
X21608577Y-43161423D01*
X21133909Y-42844260D01*
X20715333Y-42761000D01*
X20432667Y-42761000D01*
X20014091Y-42844260D01*
X19539423Y-43161423D01*
X19222260Y-43636091D01*
X19110887Y-44196000D01*
X18128303Y-44196000D01*
X18013126Y-43616965D01*
X17660362Y-43089017D01*
X17406364Y-42835019D01*
X17287249Y-42656751D01*
X17070874Y-42512174D01*
X16581036Y-42184874D01*
X15748000Y-42019173D01*
X14914964Y-42184874D01*
X14208751Y-42656751D01*
X13736874Y-43362965D01*
X13613000Y-43985722D01*
X13613000Y-43985725D01*
X13589000Y-44106382D01*
X13589000Y-30061622D01*
X13736874Y-30805036D01*
X14208751Y-31511249D01*
X14914964Y-31983126D01*
X15537721Y-32107000D01*
X19273852Y-32107000D01*
X19357466Y-32308862D01*
X19761138Y-32712534D01*
X20288561Y-32931000D01*
X20859439Y-32931000D01*
X21386862Y-32712534D01*
X21776493Y-32322903D01*
X22082751Y-32781249D01*
X22788965Y-33253126D01*
X23622000Y-33418827D01*
X23811514Y-33381130D01*
X23839117Y-33399574D01*
X24345200Y-33500240D01*
X24686960Y-33500240D01*
X25193043Y-33399574D01*
X25202882Y-33393000D01*
X25765783Y-33393000D01*
X26096855Y-33327146D01*
X26472289Y-33076289D01*
X26723146Y-32700855D01*
X26811235Y-32258000D01*
X26723146Y-31815145D01*
X26472289Y-31439711D01*
X26181696Y-31245543D01*
X26150414Y-31088277D01*
X25766945Y-30514375D01*
X25757000Y-30507730D01*
X25757000Y-26884862D01*
X25900786Y-26162000D01*
X25757000Y-25439138D01*
X25757000Y-19264862D01*
X25900786Y-18542000D01*
X25727324Y-17669946D01*
X25233345Y-16930655D01*
X24494054Y-16436676D01*
X23842128Y-16307000D01*
X23401872Y-16307000D01*
X22749946Y-16436676D01*
X22010655Y-16930655D01*
X21516676Y-17669946D01*
X21343214Y-18542000D01*
X21487001Y-19264867D01*
X21487000Y-25277654D01*
X18927655Y-27837000D01*
X15537721Y-27837000D01*
X14914964Y-27960874D01*
X14208751Y-28432751D01*
X13736874Y-29138964D01*
X13589000Y-29882378D01*
X13589000Y-17397002D01*
X13851436Y-18030579D01*
X13851878Y-18030873D01*
X13852276Y-18031835D01*
X14734165Y-18913724D01*
X14735127Y-18914122D01*
X14735421Y-18914564D01*
X15311550Y-19152885D01*
X15886410Y-19391000D01*
X15887181Y-19391000D01*
X15887892Y-19391294D01*
X16510423Y-19391000D01*
X17133590Y-19391000D01*
X17134301Y-19390705D01*
X17135072Y-19390705D01*
X18284579Y-18914564D01*
X18284873Y-18914122D01*
X18285835Y-18913724D01*
X19167724Y-18031835D01*
X19168122Y-18030873D01*
X19168564Y-18030579D01*
X19406885Y-17454450D01*
X19645000Y-16879590D01*
X19645000Y-16878819D01*
X19645294Y-16878108D01*
X19645000Y-16255577D01*
X19645000Y-15632410D01*
X19644705Y-15631699D01*
X19644705Y-15630928D01*
X19168564Y-14481421D01*
X19168122Y-14481127D01*
X19167724Y-14480165D01*
X18285835Y-13598276D01*
X18284873Y-13597878D01*
X18284579Y-13597436D01*
X17708450Y-13359115D01*
X17133590Y-13121000D01*
X17132819Y-13121000D01*
X17132108Y-13120706D01*
X16509577Y-13121000D01*
X15886410Y-13121000D01*
X15885699Y-13121295D01*
X15884928Y-13121295D01*
X14735421Y-13597436D01*
X14735127Y-13597878D01*
X14734165Y-13598276D01*
X13852276Y-14480165D01*
X13851878Y-14481127D01*
X13851436Y-14481421D01*
X13613115Y-15057550D01*
X13589000Y-15115769D01*
X13589000Y-12877000D01*
X50007654Y-12877000D01*
X46391017Y-16493638D01*
G36*
X29944675Y-52737277D02*
X30125489Y-52773243D01*
X29769816Y-53128916D01*
X29557440Y-53641637D01*
X29557440Y-54196603D01*
X29769816Y-54709324D01*
X29817441Y-54756949D01*
X29817440Y-55621292D01*
X29769816Y-55668916D01*
X29557440Y-56181637D01*
X29557440Y-56736603D01*
X29769816Y-57249324D01*
X30162236Y-57641744D01*
X30674957Y-57854120D01*
X31229923Y-57854120D01*
X31742644Y-57641744D01*
X32135064Y-57249324D01*
X32347440Y-56736603D01*
X32347440Y-56181637D01*
X32135064Y-55668916D01*
X32087440Y-55621292D01*
X32087440Y-55054120D01*
X35733092Y-55054120D01*
X35754129Y-55075157D01*
X35573315Y-55111123D01*
X35363271Y-55251471D01*
X35307939Y-55334280D01*
X34932862Y-55334280D01*
X34821079Y-55312045D01*
X34378225Y-55400134D01*
X34002791Y-55650991D01*
X33939469Y-55745759D01*
X31125149Y-58560080D01*
X25461276Y-58560080D01*
X25323862Y-58422666D01*
X24796439Y-58204200D01*
X24314353Y-58204200D01*
X29846725Y-52671829D01*
X29944675Y-52737277D01*
X29944675Y-52737277D01*
G37*
X29944675Y-52737277D02*
X30125489Y-52773243D01*
X29769816Y-53128916D01*
X29557440Y-53641637D01*
X29557440Y-54196603D01*
X29769816Y-54709324D01*
X29817441Y-54756949D01*
X29817440Y-55621292D01*
X29769816Y-55668916D01*
X29557440Y-56181637D01*
X29557440Y-56736603D01*
X29769816Y-57249324D01*
X30162236Y-57641744D01*
X30674957Y-57854120D01*
X31229923Y-57854120D01*
X31742644Y-57641744D01*
X32135064Y-57249324D01*
X32347440Y-56736603D01*
X32347440Y-56181637D01*
X32135064Y-55668916D01*
X32087440Y-55621292D01*
X32087440Y-55054120D01*
X35733092Y-55054120D01*
X35754129Y-55075157D01*
X35573315Y-55111123D01*
X35363271Y-55251471D01*
X35307939Y-55334280D01*
X34932862Y-55334280D01*
X34821079Y-55312045D01*
X34378225Y-55400134D01*
X34002791Y-55650991D01*
X33939469Y-55745759D01*
X31125149Y-58560080D01*
X25461276Y-58560080D01*
X25323862Y-58422666D01*
X24796439Y-58204200D01*
X24314353Y-58204200D01*
X29846725Y-52671829D01*
X29944675Y-52737277D01*
G36*
X51693717Y-57285000D02*
X51482489Y-57285000D01*
X51583035Y-57265000D01*
X51723649Y-57265000D01*
X51693717Y-57285000D01*
X51693717Y-57285000D01*
G37*
X51693717Y-57285000D02*
X51482489Y-57285000D01*
X51583035Y-57265000D01*
X51723649Y-57265000D01*
X51693717Y-57285000D01*
G36*
X37945441Y-55492703D02*
X37939237Y-55461515D01*
X37798889Y-55251471D01*
X37588845Y-55111123D01*
X37408031Y-55075157D01*
X37763704Y-54719484D01*
X37945441Y-54280733D01*
X37945441Y-55492703D01*
X37945441Y-55492703D01*
G37*
X37945441Y-55492703D02*
X37939237Y-55461515D01*
X37798889Y-55251471D01*
X37588845Y-55111123D01*
X37408031Y-55075157D01*
X37763704Y-54719484D01*
X37945441Y-54280733D01*
X37945441Y-55492703D01*
G36*
X37945441Y-53577827D02*
X37763704Y-53139076D01*
X37716080Y-53091452D01*
X37716080Y-52227108D01*
X37763704Y-52179484D01*
X37945441Y-51740733D01*
X37945441Y-53577827D01*
X37945441Y-53577827D01*
G37*
X37945441Y-53577827D02*
X37763704Y-53139076D01*
X37716080Y-53091452D01*
X37716080Y-52227108D01*
X37763704Y-52179484D01*
X37945441Y-51740733D01*
X37945441Y-53577827D01*
G36*
X43910235Y-34672157D02*
X44044106Y-34698785D01*
X43923423Y-34779423D01*
X43606260Y-35254091D01*
X43494887Y-35814000D01*
X43606260Y-36373909D01*
X43923423Y-36848577D01*
X44275758Y-37084000D01*
X43923423Y-37319423D01*
X43606260Y-37794091D01*
X43494887Y-38354000D01*
X43606260Y-38913909D01*
X43923423Y-39388577D01*
X44275758Y-39624000D01*
X43923423Y-39859423D01*
X43606260Y-40334091D01*
X43494887Y-40894000D01*
X43606260Y-41453909D01*
X43923423Y-41928577D01*
X44275758Y-42164000D01*
X43923423Y-42399423D01*
X43606260Y-42874091D01*
X43494887Y-43434000D01*
X43606260Y-43993909D01*
X43923423Y-44468577D01*
X44275758Y-44704000D01*
X44073717Y-44839000D01*
X41930341Y-44839000D01*
X41818559Y-44816765D01*
X41706777Y-44839000D01*
X41375705Y-44904854D01*
X41000271Y-45155711D01*
X40936949Y-45250479D01*
X38356920Y-47830509D01*
X38262152Y-47893831D01*
X38079070Y-48167832D01*
X38011294Y-48269266D01*
X37923205Y-48712120D01*
X37945441Y-48823908D01*
X37945441Y-51037828D01*
X37763704Y-50599076D01*
X37371284Y-50206656D01*
X36858563Y-49994280D01*
X36303597Y-49994280D01*
X35790876Y-50206656D01*
X35398456Y-50599076D01*
X35186080Y-51111797D01*
X35186080Y-51666763D01*
X35398456Y-52179484D01*
X35446080Y-52227108D01*
X35446081Y-52784120D01*
X31790268Y-52784120D01*
X31779391Y-52773243D01*
X31960205Y-52737277D01*
X32170249Y-52596929D01*
X32310597Y-52386885D01*
X32359880Y-52139120D01*
X32359880Y-50619120D01*
X32310597Y-50371355D01*
X32187440Y-50187039D01*
X32187440Y-48549035D01*
X32350207Y-48792633D01*
X32857953Y-49131898D01*
X33305698Y-49220960D01*
X33608062Y-49220960D01*
X34055807Y-49131898D01*
X34563553Y-48792633D01*
X34902818Y-48284887D01*
X35012005Y-47735966D01*
X38285044Y-44462929D01*
X38379809Y-44399609D01*
X38630666Y-44024175D01*
X38676298Y-43794765D01*
X38718755Y-43581320D01*
X38696520Y-43469537D01*
X38696520Y-39398800D01*
X38761520Y-39398800D01*
X39009285Y-39349517D01*
X39219329Y-39209169D01*
X39359677Y-38999125D01*
X39408960Y-38751360D01*
X39408960Y-37662605D01*
X42412566Y-34659000D01*
X43890544Y-34659000D01*
X43910235Y-34672157D01*
X43910235Y-34672157D01*
G37*
X43910235Y-34672157D02*
X44044106Y-34698785D01*
X43923423Y-34779423D01*
X43606260Y-35254091D01*
X43494887Y-35814000D01*
X43606260Y-36373909D01*
X43923423Y-36848577D01*
X44275758Y-37084000D01*
X43923423Y-37319423D01*
X43606260Y-37794091D01*
X43494887Y-38354000D01*
X43606260Y-38913909D01*
X43923423Y-39388577D01*
X44275758Y-39624000D01*
X43923423Y-39859423D01*
X43606260Y-40334091D01*
X43494887Y-40894000D01*
X43606260Y-41453909D01*
X43923423Y-41928577D01*
X44275758Y-42164000D01*
X43923423Y-42399423D01*
X43606260Y-42874091D01*
X43494887Y-43434000D01*
X43606260Y-43993909D01*
X43923423Y-44468577D01*
X44275758Y-44704000D01*
X44073717Y-44839000D01*
X41930341Y-44839000D01*
X41818559Y-44816765D01*
X41706777Y-44839000D01*
X41375705Y-44904854D01*
X41000271Y-45155711D01*
X40936949Y-45250479D01*
X38356920Y-47830509D01*
X38262152Y-47893831D01*
X38079070Y-48167832D01*
X38011294Y-48269266D01*
X37923205Y-48712120D01*
X37945441Y-48823908D01*
X37945441Y-51037828D01*
X37763704Y-50599076D01*
X37371284Y-50206656D01*
X36858563Y-49994280D01*
X36303597Y-49994280D01*
X35790876Y-50206656D01*
X35398456Y-50599076D01*
X35186080Y-51111797D01*
X35186080Y-51666763D01*
X35398456Y-52179484D01*
X35446080Y-52227108D01*
X35446081Y-52784120D01*
X31790268Y-52784120D01*
X31779391Y-52773243D01*
X31960205Y-52737277D01*
X32170249Y-52596929D01*
X32310597Y-52386885D01*
X32359880Y-52139120D01*
X32359880Y-50619120D01*
X32310597Y-50371355D01*
X32187440Y-50187039D01*
X32187440Y-48549035D01*
X32350207Y-48792633D01*
X32857953Y-49131898D01*
X33305698Y-49220960D01*
X33608062Y-49220960D01*
X34055807Y-49131898D01*
X34563553Y-48792633D01*
X34902818Y-48284887D01*
X35012005Y-47735966D01*
X38285044Y-44462929D01*
X38379809Y-44399609D01*
X38630666Y-44024175D01*
X38676298Y-43794765D01*
X38718755Y-43581320D01*
X38696520Y-43469537D01*
X38696520Y-39398800D01*
X38761520Y-39398800D01*
X39009285Y-39349517D01*
X39219329Y-39209169D01*
X39359677Y-38999125D01*
X39408960Y-38751360D01*
X39408960Y-37662605D01*
X42412566Y-34659000D01*
X43890544Y-34659000D01*
X43910235Y-34672157D01*
G36*
X61099001Y-27497687D02*
X61099000Y-37154366D01*
X61099001Y-37154371D01*
X61099000Y-41470314D01*
X57842315Y-44727000D01*
X57840778Y-44727000D01*
X57239847Y-44975914D01*
X56779914Y-45435847D01*
X56537480Y-46021134D01*
X56537480Y-39202866D01*
X56779914Y-39788153D01*
X57239847Y-40248086D01*
X57840778Y-40497000D01*
X58491222Y-40497000D01*
X59092153Y-40248086D01*
X59552086Y-39788153D01*
X59801000Y-39187222D01*
X59801000Y-38536778D01*
X59552086Y-37935847D01*
X59301000Y-37684761D01*
X59301000Y-34168396D01*
X59382534Y-34086862D01*
X59601000Y-33559439D01*
X59601000Y-32988561D01*
X59382534Y-32461138D01*
X59301000Y-32379604D01*
X59301000Y-30030284D01*
X59416865Y-29952865D01*
X59800334Y-29378963D01*
X59934990Y-28702000D01*
X59800334Y-28025037D01*
X59416865Y-27451135D01*
X58842963Y-27067666D01*
X58698849Y-27039000D01*
X60640315Y-27039000D01*
X61099001Y-27497687D01*
X61099001Y-27497687D01*
G37*
X61099001Y-27497687D02*
X61099000Y-37154366D01*
X61099001Y-37154371D01*
X61099000Y-41470314D01*
X57842315Y-44727000D01*
X57840778Y-44727000D01*
X57239847Y-44975914D01*
X56779914Y-45435847D01*
X56537480Y-46021134D01*
X56537480Y-39202866D01*
X56779914Y-39788153D01*
X57239847Y-40248086D01*
X57840778Y-40497000D01*
X58491222Y-40497000D01*
X59092153Y-40248086D01*
X59552086Y-39788153D01*
X59801000Y-39187222D01*
X59801000Y-38536778D01*
X59552086Y-37935847D01*
X59301000Y-37684761D01*
X59301000Y-34168396D01*
X59382534Y-34086862D01*
X59601000Y-33559439D01*
X59601000Y-32988561D01*
X59382534Y-32461138D01*
X59301000Y-32379604D01*
X59301000Y-30030284D01*
X59416865Y-29952865D01*
X59800334Y-29378963D01*
X59934990Y-28702000D01*
X59800334Y-28025037D01*
X59416865Y-27451135D01*
X58842963Y-27067666D01*
X58698849Y-27039000D01*
X60640315Y-27039000D01*
X61099001Y-27497687D01*
G36*
X54978202Y-26536888D02*
X55055471Y-26652529D01*
X55513600Y-26958641D01*
X55917593Y-27039000D01*
X56053999Y-27066133D01*
X56190405Y-27039000D01*
X57633151Y-27039000D01*
X57489037Y-27067666D01*
X56915135Y-27451135D01*
X56531666Y-28025037D01*
X56397010Y-28702000D01*
X56531666Y-29378963D01*
X56915135Y-29952865D01*
X57031001Y-30030284D01*
X57031000Y-32379604D01*
X56949466Y-32461138D01*
X56731000Y-32988561D01*
X56731000Y-33559439D01*
X56949466Y-34086862D01*
X57031000Y-34168396D01*
X57031001Y-37684760D01*
X56779914Y-37935847D01*
X56537480Y-38521134D01*
X56537480Y-37618892D01*
X56559715Y-37507109D01*
X56471626Y-37064255D01*
X56430202Y-37002260D01*
X56220769Y-36688821D01*
X56126001Y-36625499D01*
X54590983Y-35090482D01*
X54527659Y-34995711D01*
X54152225Y-34744854D01*
X53821153Y-34679000D01*
X53709370Y-34656765D01*
X53597587Y-34679000D01*
X53462283Y-34679000D01*
X53260242Y-34544000D01*
X53612577Y-34308577D01*
X53929740Y-33833909D01*
X54041113Y-33274000D01*
X53963000Y-32881300D01*
X53963000Y-25521686D01*
X54978202Y-26536888D01*
X54978202Y-26536888D01*
G37*
X54978202Y-26536888D02*
X55055471Y-26652529D01*
X55513600Y-26958641D01*
X55917593Y-27039000D01*
X56053999Y-27066133D01*
X56190405Y-27039000D01*
X57633151Y-27039000D01*
X57489037Y-27067666D01*
X56915135Y-27451135D01*
X56531666Y-28025037D01*
X56397010Y-28702000D01*
X56531666Y-29378963D01*
X56915135Y-29952865D01*
X57031001Y-30030284D01*
X57031000Y-32379604D01*
X56949466Y-32461138D01*
X56731000Y-32988561D01*
X56731000Y-33559439D01*
X56949466Y-34086862D01*
X57031000Y-34168396D01*
X57031001Y-37684760D01*
X56779914Y-37935847D01*
X56537480Y-38521134D01*
X56537480Y-37618892D01*
X56559715Y-37507109D01*
X56471626Y-37064255D01*
X56430202Y-37002260D01*
X56220769Y-36688821D01*
X56126001Y-36625499D01*
X54590983Y-35090482D01*
X54527659Y-34995711D01*
X54152225Y-34744854D01*
X53821153Y-34679000D01*
X53709370Y-34656765D01*
X53597587Y-34679000D01*
X53462283Y-34679000D01*
X53260242Y-34544000D01*
X53612577Y-34308577D01*
X53929740Y-33833909D01*
X54041113Y-33274000D01*
X53963000Y-32881300D01*
X53963000Y-25521686D01*
X54978202Y-26536888D01*
G36*
X53603791Y-37313552D02*
X53260242Y-37084000D01*
X53328578Y-37038339D01*
X53603791Y-37313552D01*
X53603791Y-37313552D01*
G37*
X53603791Y-37313552D02*
X53260242Y-37084000D01*
X53328578Y-37038339D01*
X53603791Y-37313552D01*
G36*
X87834723Y-20670268D02*
X88325807Y-20998400D01*
X88349622Y-21003137D01*
X89869711Y-22523227D01*
X89869710Y-26535605D01*
X89430007Y-26975308D01*
X89442641Y-26956400D01*
X89459774Y-26870266D01*
X89533000Y-26693483D01*
X89533000Y-26502134D01*
X89550133Y-26416000D01*
X89533000Y-26329866D01*
X89533000Y-26138517D01*
X89459774Y-25961734D01*
X89442641Y-25875600D01*
X89393850Y-25802579D01*
X89320624Y-25625796D01*
X89185320Y-25490492D01*
X89136529Y-25417471D01*
X89063508Y-25368680D01*
X88964951Y-25270123D01*
X89145765Y-25234157D01*
X89355809Y-25093809D01*
X89496157Y-24883765D01*
X89545440Y-24636000D01*
X89545440Y-23899593D01*
X89550133Y-23876000D01*
X89545440Y-23852407D01*
X89545440Y-23116000D01*
X89496157Y-22868235D01*
X89355809Y-22658191D01*
X89145765Y-22517843D01*
X88898000Y-22468560D01*
X87378000Y-22468560D01*
X87265185Y-22491000D01*
X85215347Y-22491000D01*
X85210080Y-22464519D01*
X85210080Y-20543591D01*
X85294723Y-20670268D01*
X85785807Y-20998400D01*
X86365080Y-21113625D01*
X86944354Y-20998400D01*
X87435438Y-20670268D01*
X87635081Y-20371482D01*
X87834723Y-20670268D01*
X87834723Y-20670268D01*
G37*
X87834723Y-20670268D02*
X88325807Y-20998400D01*
X88349622Y-21003137D01*
X89869711Y-22523227D01*
X89869710Y-26535605D01*
X89430007Y-26975308D01*
X89442641Y-26956400D01*
X89459774Y-26870266D01*
X89533000Y-26693483D01*
X89533000Y-26502134D01*
X89550133Y-26416000D01*
X89533000Y-26329866D01*
X89533000Y-26138517D01*
X89459774Y-25961734D01*
X89442641Y-25875600D01*
X89393850Y-25802579D01*
X89320624Y-25625796D01*
X89185320Y-25490492D01*
X89136529Y-25417471D01*
X89063508Y-25368680D01*
X88964951Y-25270123D01*
X89145765Y-25234157D01*
X89355809Y-25093809D01*
X89496157Y-24883765D01*
X89545440Y-24636000D01*
X89545440Y-23899593D01*
X89550133Y-23876000D01*
X89545440Y-23852407D01*
X89545440Y-23116000D01*
X89496157Y-22868235D01*
X89355809Y-22658191D01*
X89145765Y-22517843D01*
X88898000Y-22468560D01*
X87378000Y-22468560D01*
X87265185Y-22491000D01*
X85215347Y-22491000D01*
X85210080Y-22464519D01*
X85210080Y-20543591D01*
X85294723Y-20670268D01*
X85785807Y-20998400D01*
X86365080Y-21113625D01*
X86944354Y-20998400D01*
X87435438Y-20670268D01*
X87635081Y-20371482D01*
X87834723Y-20670268D01*
M02*
