M48
;DRILL file {KiCad (5.0.2)-1} date 2019-02-15 오후 5:02:32
;FORMAT={-:-/ absolute / inch / decimal}
FMAT,2
INCH,TZ
T1C0.0157
T2C0.0315
T3C0.0354
T4C0.0394
T5C0.0394
T6C0.0433
T7C0.0472
T8C0.0512
T9C0.0630
T10C0.0709
T11C0.0984
%
G90
G05
T1
X2.2382Y-2.405
T2
X1.4496Y-2.7402
X1.4496Y-3.2402
X0.965Y-2.348
X1.465Y-2.348
X0.81Y-2.51
X0.81Y-3.01
X3.47Y-0.94
X3.47Y-1.04
X3.47Y-1.14
X2.07Y-2.06
X2.57Y-2.06
X2.294Y-1.4344
X2.294Y-1.9344
X2.29Y-1.31
X2.79Y-1.31
X1.66Y-2.93
X2.16Y-2.93
X3.Y-0.94
X3.Y-1.04
X3.Y-1.14
X2.33Y-2.88
X2.33Y-3.38
X0.81Y-1.87
X0.81Y-2.37
X1.66Y-3.38
X2.16Y-3.38
X1.2186Y-2.0228
X1.2186Y-2.1228
X1.2186Y-2.2228
X1.4402Y-2.0232
X1.4402Y-2.1232
X1.4402Y-2.2232
X2.3Y-0.72
X2.8Y-0.72
X1.66Y-3.15
X2.16Y-3.15
X1.77Y-2.2
X1.77Y-2.3
X1.77Y-2.4
X1.77Y-2.5
X2.07Y-2.2
X2.07Y-2.3
X2.07Y-2.4
X2.07Y-2.5
X2.3Y-0.89
X2.8Y-0.89
X0.81Y-1.24
X0.81Y-1.74
X1.04Y-2.53
X1.54Y-2.53
X1.2494Y-2.7402
X1.2494Y-3.2402
X3.25Y-0.94
X3.25Y-1.04
X3.25Y-1.14
X1.77Y-1.31
X1.77Y-1.41
X1.77Y-1.51
X1.77Y-1.61
X1.77Y-1.71
X1.77Y-1.81
X1.77Y-1.91
X2.07Y-1.31
X2.07Y-1.41
X2.07Y-1.51
X2.07Y-1.61
X2.07Y-1.71
X2.07Y-1.81
X2.07Y-1.91
T3
X2.44Y-2.21
X2.44Y-2.31
X2.71Y-2.21
X2.71Y-2.31
X1.2208Y-3.4974
X1.3208Y-3.4974
T4
X1.1172Y-1.8774
X1.2172Y-1.8774
X1.3172Y-1.8774
X2.5634Y-1.5242
X2.5634Y-1.8195
T5
X1.66Y-3.69
X1.76Y-3.69
X1.86Y-3.69
X3.3002Y-0.7362
X3.4002Y-0.7362
X3.5002Y-0.7362
T6
X2.29Y-1.13
X2.69Y-1.13
X0.9652Y-1.2506
X0.9652Y-1.6506
X0.809Y-3.1349
X0.809Y-3.3908
X0.9862Y-3.1349
X0.9862Y-3.3908
T7
X1.88Y-0.88
X2.0769Y-0.88
X1.2819Y-1.4784
X1.4788Y-1.4784
X2.5831Y-2.65
X2.78Y-2.65
X3.27Y-1.48
X3.4669Y-1.48
X2.68Y-3.11
X2.68Y-3.3069
T8
X3.8036Y-3.8158
X0.62Y-1.18
X4.0574Y-3.3732
X0.62Y-1.74
T9
X0.93Y-1.03
X1.53Y-1.03
X3.7824Y-0.9646
X3.7824Y-1.5646
X0.93Y-0.73
X1.53Y-0.73
X4.0246Y-0.9646
X4.0246Y-1.5646
X3.05Y-3.65
X3.65Y-3.65
X3.05Y-3.4
X3.65Y-3.4
T10
X3.59Y-1.89
X3.59Y-2.39
X3.59Y-2.63
X3.59Y-3.13
T11
X0.65Y-0.64
X4.1088Y-0.6428
X4.1106Y-3.7246
X0.6558Y-3.7202
T0
M30
