%TF.GenerationSoftware,KiCad,Pcbnew,(5.0.2)-1*%
%TF.CreationDate,2018-12-26T10:29:13+09:00*%
%TF.ProjectId,16F676-mppt,31364636-3736-42d6-9d70-70742e6b6963,1.7*%
%TF.SameCoordinates,Original*%
%TF.FileFunction,Soldermask,Bot*%
%TF.FilePolarity,Negative*%
%FSLAX46Y46*%
G04 Gerber Fmt 4.6, Leading zero omitted, Abs format (unit mm)*
G04 Created by KiCad (PCBNEW (5.0.2)-1) date 2018-12-26 오전 10:29:13*
%MOMM*%
%LPD*%
G01*
G04 APERTURE LIST*
%ADD10C,0.150000*%
G04 APERTURE END LIST*
D10*
G36*
X96990636Y-95671278D02*
X97227220Y-95769274D01*
X97440145Y-95911546D01*
X97621214Y-96092615D01*
X97763486Y-96305540D01*
X97861482Y-96542124D01*
X97911440Y-96793280D01*
X97911440Y-97049360D01*
X97861482Y-97300516D01*
X97763486Y-97537100D01*
X97621214Y-97750025D01*
X97440145Y-97931094D01*
X97227220Y-98073366D01*
X96990636Y-98171362D01*
X96739480Y-98221320D01*
X96483400Y-98221320D01*
X96232244Y-98171362D01*
X95995660Y-98073366D01*
X95782735Y-97931094D01*
X95601666Y-97750025D01*
X95459394Y-97537100D01*
X95361398Y-97300516D01*
X95311440Y-97049360D01*
X95311440Y-96793280D01*
X95361398Y-96542124D01*
X95459394Y-96305540D01*
X95601666Y-96092615D01*
X95782735Y-95911546D01*
X95995660Y-95769274D01*
X96232244Y-95671278D01*
X96483400Y-95621320D01*
X96739480Y-95621320D01*
X96990636Y-95671278D01*
X96990636Y-95671278D01*
G37*
G36*
X104977465Y-92168889D02*
X105138463Y-92200914D01*
X105323619Y-92277608D01*
X105593433Y-92389368D01*
X106002900Y-92662966D01*
X106351114Y-93011180D01*
X106624712Y-93420647D01*
X106700333Y-93603213D01*
X106766874Y-93763857D01*
X106813166Y-93875618D01*
X106909240Y-94358610D01*
X106909240Y-94851070D01*
X106883731Y-94979311D01*
X106835397Y-95222303D01*
X106813166Y-95334062D01*
X106624712Y-95789033D01*
X106351114Y-96198500D01*
X106002900Y-96546714D01*
X105593433Y-96820312D01*
X105408276Y-96897006D01*
X105138463Y-97008766D01*
X104977465Y-97040791D01*
X104655470Y-97104840D01*
X104163010Y-97104840D01*
X103841015Y-97040791D01*
X103680017Y-97008766D01*
X103410204Y-96897006D01*
X103225047Y-96820312D01*
X102815580Y-96546714D01*
X102467366Y-96198500D01*
X102193768Y-95789033D01*
X102005314Y-95334062D01*
X101983084Y-95222303D01*
X101934749Y-94979311D01*
X101909240Y-94851070D01*
X101909240Y-94358610D01*
X102005314Y-93875618D01*
X102051607Y-93763857D01*
X102118147Y-93603213D01*
X102193768Y-93420647D01*
X102467366Y-93011180D01*
X102815580Y-92662966D01*
X103225047Y-92389368D01*
X103494861Y-92277608D01*
X103680017Y-92200914D01*
X103841015Y-92168889D01*
X104163010Y-92104840D01*
X104655470Y-92104840D01*
X104977465Y-92168889D01*
X104977465Y-92168889D01*
G37*
G36*
X17225545Y-92057129D02*
X17386543Y-92089154D01*
X17400038Y-92094744D01*
X17841513Y-92277608D01*
X18250980Y-92551206D01*
X18599194Y-92899420D01*
X18872792Y-93308887D01*
X18919084Y-93420647D01*
X19061246Y-93763857D01*
X19083477Y-93875618D01*
X19157320Y-94246850D01*
X19157320Y-94739310D01*
X19134863Y-94852206D01*
X19061246Y-95222303D01*
X18983186Y-95410757D01*
X18872792Y-95677273D01*
X18599194Y-96086740D01*
X18250980Y-96434954D01*
X17841513Y-96708552D01*
X17636960Y-96793280D01*
X17386543Y-96897006D01*
X17225545Y-96929031D01*
X16903550Y-96993080D01*
X16411090Y-96993080D01*
X16089095Y-96929031D01*
X15928097Y-96897006D01*
X15677680Y-96793280D01*
X15473127Y-96708552D01*
X15063660Y-96434954D01*
X14715446Y-96086740D01*
X14441848Y-95677273D01*
X14331454Y-95410757D01*
X14253394Y-95222303D01*
X14179777Y-94852206D01*
X14157320Y-94739310D01*
X14157320Y-94246850D01*
X14231163Y-93875618D01*
X14253394Y-93763857D01*
X14395556Y-93420647D01*
X14441848Y-93308887D01*
X14715446Y-92899420D01*
X15063660Y-92551206D01*
X15473127Y-92277608D01*
X15914602Y-92094744D01*
X15928097Y-92089154D01*
X16089095Y-92057129D01*
X16411090Y-91993080D01*
X16903550Y-91993080D01*
X17225545Y-92057129D01*
X17225545Y-92057129D01*
G37*
G36*
X47391134Y-92487180D02*
X47391137Y-92487181D01*
X47532620Y-92530099D01*
X47532622Y-92530100D01*
X47663014Y-92599796D01*
X47777301Y-92693589D01*
X47871094Y-92807876D01*
X47940790Y-92938268D01*
X47983710Y-93079756D01*
X47994570Y-93190021D01*
X47994570Y-94261979D01*
X47983710Y-94372244D01*
X47940790Y-94513732D01*
X47871094Y-94644124D01*
X47777304Y-94758408D01*
X47777302Y-94758409D01*
X47777301Y-94758411D01*
X47663011Y-94852205D01*
X47532619Y-94921901D01*
X47417473Y-94956830D01*
X47391133Y-94964820D01*
X47244000Y-94979311D01*
X47096866Y-94964820D01*
X47070526Y-94956830D01*
X46955380Y-94921901D01*
X46824988Y-94852205D01*
X46824986Y-94852204D01*
X46710702Y-94758414D01*
X46710701Y-94758412D01*
X46710699Y-94758411D01*
X46616905Y-94644121D01*
X46547209Y-94513729D01*
X46504291Y-94372246D01*
X46504290Y-94372243D01*
X46493430Y-94261978D01*
X46493431Y-93190021D01*
X46504291Y-93079756D01*
X46547211Y-92938268D01*
X46616907Y-92807876D01*
X46710700Y-92693589D01*
X46824987Y-92599796D01*
X46955379Y-92530100D01*
X46955381Y-92530099D01*
X47096864Y-92487181D01*
X47096867Y-92487180D01*
X47244000Y-92472689D01*
X47391134Y-92487180D01*
X47391134Y-92487180D01*
G37*
G36*
X44851134Y-92487180D02*
X44851137Y-92487181D01*
X44992620Y-92530099D01*
X44992622Y-92530100D01*
X45123014Y-92599796D01*
X45237301Y-92693589D01*
X45331094Y-92807876D01*
X45400790Y-92938268D01*
X45443710Y-93079756D01*
X45454570Y-93190021D01*
X45454570Y-94261979D01*
X45443710Y-94372244D01*
X45400790Y-94513732D01*
X45331094Y-94644124D01*
X45237304Y-94758408D01*
X45237302Y-94758409D01*
X45237301Y-94758411D01*
X45123011Y-94852205D01*
X44992619Y-94921901D01*
X44877473Y-94956830D01*
X44851133Y-94964820D01*
X44704000Y-94979311D01*
X44556866Y-94964820D01*
X44530526Y-94956830D01*
X44415380Y-94921901D01*
X44284988Y-94852205D01*
X44284986Y-94852204D01*
X44170702Y-94758414D01*
X44170701Y-94758412D01*
X44170699Y-94758411D01*
X44076905Y-94644121D01*
X44007209Y-94513729D01*
X43964291Y-94372246D01*
X43964290Y-94372243D01*
X43953430Y-94261978D01*
X43953431Y-93190021D01*
X43964291Y-93079756D01*
X44007211Y-92938268D01*
X44076907Y-92807876D01*
X44170700Y-92693589D01*
X44284987Y-92599796D01*
X44415379Y-92530100D01*
X44415381Y-92530099D01*
X44556864Y-92487181D01*
X44556867Y-92487180D01*
X44704000Y-92472689D01*
X44851134Y-92487180D01*
X44851134Y-92487180D01*
G37*
G36*
X42311134Y-92487180D02*
X42311137Y-92487181D01*
X42452620Y-92530099D01*
X42452622Y-92530100D01*
X42583014Y-92599796D01*
X42697301Y-92693589D01*
X42791094Y-92807876D01*
X42860790Y-92938268D01*
X42903710Y-93079756D01*
X42914570Y-93190021D01*
X42914570Y-94261979D01*
X42903710Y-94372244D01*
X42860790Y-94513732D01*
X42791094Y-94644124D01*
X42697304Y-94758408D01*
X42697302Y-94758409D01*
X42697301Y-94758411D01*
X42583011Y-94852205D01*
X42452619Y-94921901D01*
X42337473Y-94956830D01*
X42311133Y-94964820D01*
X42164000Y-94979311D01*
X42016866Y-94964820D01*
X41990526Y-94956830D01*
X41875380Y-94921901D01*
X41744988Y-94852205D01*
X41744986Y-94852204D01*
X41630702Y-94758414D01*
X41630701Y-94758412D01*
X41630699Y-94758411D01*
X41536905Y-94644121D01*
X41467209Y-94513729D01*
X41424291Y-94372246D01*
X41424290Y-94372243D01*
X41413430Y-94261978D01*
X41413431Y-93190021D01*
X41424291Y-93079756D01*
X41467211Y-92938268D01*
X41536907Y-92807876D01*
X41630700Y-92693589D01*
X41744987Y-92599796D01*
X41875379Y-92530100D01*
X41875381Y-92530099D01*
X42016864Y-92487181D01*
X42016867Y-92487180D01*
X42164000Y-92472689D01*
X42311134Y-92487180D01*
X42311134Y-92487180D01*
G37*
G36*
X94310000Y-94310000D02*
X91110000Y-94310000D01*
X91110000Y-91110000D01*
X94310000Y-91110000D01*
X94310000Y-94310000D01*
X94310000Y-94310000D01*
G37*
G36*
X77626950Y-91117717D02*
X77783655Y-91133151D01*
X77984722Y-91194144D01*
X78085257Y-91224641D01*
X78233828Y-91304054D01*
X78363213Y-91373212D01*
X78363215Y-91373213D01*
X78363214Y-91373213D01*
X78606845Y-91573155D01*
X78806787Y-91816786D01*
X78955359Y-92094743D01*
X78955359Y-92094744D01*
X79046849Y-92396345D01*
X79077741Y-92710000D01*
X79046849Y-93023655D01*
X78996382Y-93190021D01*
X78955359Y-93325257D01*
X78875946Y-93473828D01*
X78806788Y-93603213D01*
X78606845Y-93846845D01*
X78363213Y-94046788D01*
X78233828Y-94115946D01*
X78085257Y-94195359D01*
X77984722Y-94225856D01*
X77783655Y-94286849D01*
X77626950Y-94302283D01*
X77548598Y-94310000D01*
X77391402Y-94310000D01*
X77313050Y-94302283D01*
X77156345Y-94286849D01*
X76955278Y-94225856D01*
X76854743Y-94195359D01*
X76706172Y-94115946D01*
X76576787Y-94046788D01*
X76333155Y-93846845D01*
X76133212Y-93603213D01*
X76064054Y-93473828D01*
X75984641Y-93325257D01*
X75943618Y-93190021D01*
X75893151Y-93023655D01*
X75862259Y-92710000D01*
X75893151Y-92396345D01*
X75984641Y-92094744D01*
X75984641Y-92094743D01*
X76133213Y-91816786D01*
X76333155Y-91573155D01*
X76576786Y-91373213D01*
X76576785Y-91373213D01*
X76576787Y-91373212D01*
X76706172Y-91304054D01*
X76854743Y-91224641D01*
X76955278Y-91194144D01*
X77156345Y-91133151D01*
X77313050Y-91117717D01*
X77391402Y-91110000D01*
X77548598Y-91110000D01*
X77626950Y-91117717D01*
X77626950Y-91117717D01*
G37*
G36*
X34448320Y-89733960D02*
X32648320Y-89733960D01*
X32648320Y-87933960D01*
X34448320Y-87933960D01*
X34448320Y-89733960D01*
X34448320Y-89733960D01*
G37*
G36*
X31270841Y-87968546D02*
X31434629Y-88036389D01*
X31582040Y-88134886D01*
X31707394Y-88260240D01*
X31805891Y-88407651D01*
X31873734Y-88571439D01*
X31908320Y-88745316D01*
X31908320Y-88922604D01*
X31873734Y-89096481D01*
X31805891Y-89260269D01*
X31707394Y-89407680D01*
X31582040Y-89533034D01*
X31434629Y-89631531D01*
X31270841Y-89699374D01*
X31096964Y-89733960D01*
X30919676Y-89733960D01*
X30745799Y-89699374D01*
X30582011Y-89631531D01*
X30434600Y-89533034D01*
X30309246Y-89407680D01*
X30210749Y-89260269D01*
X30142906Y-89096481D01*
X30108320Y-88922604D01*
X30108320Y-88745316D01*
X30142906Y-88571439D01*
X30210749Y-88407651D01*
X30309246Y-88260240D01*
X30434600Y-88134886D01*
X30582011Y-88036389D01*
X30745799Y-87968546D01*
X30919676Y-87933960D01*
X31096964Y-87933960D01*
X31270841Y-87968546D01*
X31270841Y-87968546D01*
G37*
G36*
X77626950Y-84767717D02*
X77783655Y-84783151D01*
X77984722Y-84844144D01*
X78085257Y-84874641D01*
X78181531Y-84926101D01*
X78363213Y-85023212D01*
X78606845Y-85223155D01*
X78806788Y-85466787D01*
X78875946Y-85596172D01*
X78955359Y-85744743D01*
X78955359Y-85744744D01*
X79046849Y-86046345D01*
X79077741Y-86360000D01*
X79046849Y-86673655D01*
X79042177Y-86689056D01*
X78955359Y-86975257D01*
X78875946Y-87123828D01*
X78806788Y-87253213D01*
X78606845Y-87496845D01*
X78363213Y-87696788D01*
X78233828Y-87765946D01*
X78085257Y-87845359D01*
X77984722Y-87875856D01*
X77783655Y-87936849D01*
X77626950Y-87952283D01*
X77548598Y-87960000D01*
X77391402Y-87960000D01*
X77313050Y-87952283D01*
X77156345Y-87936849D01*
X76955278Y-87875856D01*
X76854743Y-87845359D01*
X76706172Y-87765946D01*
X76576787Y-87696788D01*
X76333155Y-87496845D01*
X76133212Y-87253213D01*
X76064054Y-87123828D01*
X75984641Y-86975257D01*
X75897823Y-86689056D01*
X75893151Y-86673655D01*
X75862259Y-86360000D01*
X75893151Y-86046345D01*
X75984641Y-85744744D01*
X75984641Y-85744743D01*
X76064054Y-85596172D01*
X76133212Y-85466787D01*
X76333155Y-85223155D01*
X76576787Y-85023212D01*
X76758469Y-84926101D01*
X76854743Y-84874641D01*
X76955278Y-84844144D01*
X77156345Y-84783151D01*
X77313050Y-84767717D01*
X77391402Y-84760000D01*
X77548598Y-84760000D01*
X77626950Y-84767717D01*
X77626950Y-84767717D01*
G37*
G36*
X94310000Y-87960000D02*
X91110000Y-87960000D01*
X91110000Y-84760000D01*
X94310000Y-84760000D01*
X94310000Y-87960000D01*
X94310000Y-87960000D01*
G37*
G36*
X25224370Y-85141692D02*
X25340289Y-85164749D01*
X25522278Y-85240131D01*
X25686063Y-85349569D01*
X25825351Y-85488857D01*
X25934789Y-85652642D01*
X26010171Y-85834631D01*
X26029299Y-85930795D01*
X26048600Y-86027827D01*
X26048600Y-86224813D01*
X26034627Y-86295060D01*
X26010171Y-86418009D01*
X25934789Y-86599998D01*
X25825351Y-86763783D01*
X25686063Y-86903071D01*
X25522278Y-87012509D01*
X25340289Y-87087891D01*
X25224370Y-87110948D01*
X25147093Y-87126320D01*
X24950107Y-87126320D01*
X24872830Y-87110948D01*
X24756911Y-87087891D01*
X24574922Y-87012509D01*
X24411137Y-86903071D01*
X24271849Y-86763783D01*
X24162411Y-86599998D01*
X24087029Y-86418009D01*
X24062573Y-86295060D01*
X24048600Y-86224813D01*
X24048600Y-86027827D01*
X24067901Y-85930795D01*
X24087029Y-85834631D01*
X24162411Y-85652642D01*
X24271849Y-85488857D01*
X24411137Y-85349569D01*
X24574922Y-85240131D01*
X24756911Y-85164749D01*
X24872830Y-85141692D01*
X24950107Y-85126320D01*
X25147093Y-85126320D01*
X25224370Y-85141692D01*
X25224370Y-85141692D01*
G37*
G36*
X20724370Y-85141692D02*
X20840289Y-85164749D01*
X21022278Y-85240131D01*
X21186063Y-85349569D01*
X21325351Y-85488857D01*
X21434789Y-85652642D01*
X21510171Y-85834631D01*
X21529299Y-85930795D01*
X21548600Y-86027827D01*
X21548600Y-86224813D01*
X21534627Y-86295060D01*
X21510171Y-86418009D01*
X21434789Y-86599998D01*
X21325351Y-86763783D01*
X21186063Y-86903071D01*
X21022278Y-87012509D01*
X20840289Y-87087891D01*
X20724370Y-87110948D01*
X20647093Y-87126320D01*
X20450107Y-87126320D01*
X20372830Y-87110948D01*
X20256911Y-87087891D01*
X20074922Y-87012509D01*
X19911137Y-86903071D01*
X19771849Y-86763783D01*
X19662411Y-86599998D01*
X19587029Y-86418009D01*
X19562573Y-86295060D01*
X19548600Y-86224813D01*
X19548600Y-86027827D01*
X19567901Y-85930795D01*
X19587029Y-85834631D01*
X19662411Y-85652642D01*
X19771849Y-85488857D01*
X19911137Y-85349569D01*
X20074922Y-85240131D01*
X20256911Y-85164749D01*
X20372830Y-85141692D01*
X20450107Y-85126320D01*
X20647093Y-85126320D01*
X20724370Y-85141692D01*
X20724370Y-85141692D01*
G37*
G36*
X103437156Y-84429238D02*
X103673740Y-84527234D01*
X103886665Y-84669506D01*
X104067734Y-84850575D01*
X104210006Y-85063500D01*
X104308002Y-85300084D01*
X104357960Y-85551240D01*
X104357960Y-85807320D01*
X104308002Y-86058476D01*
X104210006Y-86295060D01*
X104067734Y-86507985D01*
X103886665Y-86689054D01*
X103673740Y-86831326D01*
X103437156Y-86929322D01*
X103186000Y-86979280D01*
X102929920Y-86979280D01*
X102678764Y-86929322D01*
X102442180Y-86831326D01*
X102229255Y-86689054D01*
X102048186Y-86507985D01*
X101905914Y-86295060D01*
X101807918Y-86058476D01*
X101757960Y-85807320D01*
X101757960Y-85551240D01*
X101807918Y-85300084D01*
X101905914Y-85063500D01*
X102048186Y-84850575D01*
X102229255Y-84669506D01*
X102442180Y-84527234D01*
X102678764Y-84429238D01*
X102929920Y-84379280D01*
X103186000Y-84379280D01*
X103437156Y-84429238D01*
X103437156Y-84429238D01*
G37*
G36*
X59276385Y-85057426D02*
X59338827Y-85063576D01*
X59402012Y-85082743D01*
X59489629Y-85109321D01*
X59628608Y-85183608D01*
X59750422Y-85283578D01*
X59850392Y-85405392D01*
X59924679Y-85544371D01*
X59970424Y-85695174D01*
X59985870Y-85852000D01*
X59970424Y-86008826D01*
X59924679Y-86159629D01*
X59850392Y-86298608D01*
X59750422Y-86420422D01*
X59628608Y-86520392D01*
X59489629Y-86594679D01*
X59472104Y-86599995D01*
X59338827Y-86640424D01*
X59299649Y-86644283D01*
X59221295Y-86652000D01*
X59142705Y-86652000D01*
X59064351Y-86644283D01*
X59025173Y-86640424D01*
X58891896Y-86599995D01*
X58874371Y-86594679D01*
X58735392Y-86520392D01*
X58613578Y-86420422D01*
X58513608Y-86298608D01*
X58439321Y-86159629D01*
X58393576Y-86008826D01*
X58378130Y-85852000D01*
X58393576Y-85695174D01*
X58439321Y-85544371D01*
X58513608Y-85405392D01*
X58613578Y-85283578D01*
X58735392Y-85183608D01*
X58874371Y-85109321D01*
X58961988Y-85082743D01*
X59025173Y-85063576D01*
X59087615Y-85057426D01*
X59142705Y-85052000D01*
X59221295Y-85052000D01*
X59276385Y-85057426D01*
X59276385Y-85057426D01*
G37*
G36*
X55097352Y-85082743D02*
X55242941Y-85143048D01*
X55373973Y-85230601D01*
X55485399Y-85342027D01*
X55572952Y-85473059D01*
X55633257Y-85618648D01*
X55664000Y-85773205D01*
X55664000Y-85930795D01*
X55633257Y-86085352D01*
X55572952Y-86230941D01*
X55485399Y-86361973D01*
X55373973Y-86473399D01*
X55242941Y-86560952D01*
X55097352Y-86621257D01*
X54942795Y-86652000D01*
X54785205Y-86652000D01*
X54630648Y-86621257D01*
X54485059Y-86560952D01*
X54354027Y-86473399D01*
X54242601Y-86361973D01*
X54155048Y-86230941D01*
X54094743Y-86085352D01*
X54064000Y-85930795D01*
X54064000Y-85773205D01*
X54094743Y-85618648D01*
X54155048Y-85473059D01*
X54242601Y-85342027D01*
X54354027Y-85230601D01*
X54485059Y-85143048D01*
X54630648Y-85082743D01*
X54785205Y-85052000D01*
X54942795Y-85052000D01*
X55097352Y-85082743D01*
X55097352Y-85082743D01*
G37*
G36*
X42258385Y-85057426D02*
X42320827Y-85063576D01*
X42384012Y-85082743D01*
X42471629Y-85109321D01*
X42610608Y-85183608D01*
X42732422Y-85283578D01*
X42832392Y-85405392D01*
X42906679Y-85544371D01*
X42952424Y-85695174D01*
X42967870Y-85852000D01*
X42952424Y-86008826D01*
X42906679Y-86159629D01*
X42832392Y-86298608D01*
X42732422Y-86420422D01*
X42610608Y-86520392D01*
X42471629Y-86594679D01*
X42454104Y-86599995D01*
X42320827Y-86640424D01*
X42281649Y-86644283D01*
X42203295Y-86652000D01*
X42124705Y-86652000D01*
X42046351Y-86644283D01*
X42007173Y-86640424D01*
X41873896Y-86599995D01*
X41856371Y-86594679D01*
X41717392Y-86520392D01*
X41595578Y-86420422D01*
X41495608Y-86298608D01*
X41421321Y-86159629D01*
X41375576Y-86008826D01*
X41360130Y-85852000D01*
X41375576Y-85695174D01*
X41421321Y-85544371D01*
X41495608Y-85405392D01*
X41595578Y-85283578D01*
X41717392Y-85183608D01*
X41856371Y-85109321D01*
X41943988Y-85082743D01*
X42007173Y-85063576D01*
X42069615Y-85057426D01*
X42124705Y-85052000D01*
X42203295Y-85052000D01*
X42258385Y-85057426D01*
X42258385Y-85057426D01*
G37*
G36*
X68422026Y-82840115D02*
X68640412Y-82930573D01*
X68836958Y-83061901D01*
X69004099Y-83229042D01*
X69135427Y-83425588D01*
X69225885Y-83643974D01*
X69272000Y-83875809D01*
X69272000Y-84112191D01*
X69225885Y-84344026D01*
X69135427Y-84562412D01*
X69004099Y-84758958D01*
X68836958Y-84926099D01*
X68640412Y-85057427D01*
X68422026Y-85147885D01*
X68190191Y-85194000D01*
X67953809Y-85194000D01*
X67721974Y-85147885D01*
X67503588Y-85057427D01*
X67307042Y-84926099D01*
X67139901Y-84758958D01*
X67008573Y-84562412D01*
X66918115Y-84344026D01*
X66872000Y-84112191D01*
X66872000Y-83875809D01*
X66918115Y-83643974D01*
X67008573Y-83425588D01*
X67139901Y-83229042D01*
X67307042Y-83061901D01*
X67503588Y-82930573D01*
X67721974Y-82840115D01*
X67953809Y-82794000D01*
X68190191Y-82794000D01*
X68422026Y-82840115D01*
X68422026Y-82840115D01*
G37*
G36*
X31968112Y-81531823D02*
X32113701Y-81592128D01*
X32244733Y-81679681D01*
X32356159Y-81791107D01*
X32443712Y-81922139D01*
X32504017Y-82067728D01*
X32534760Y-82222285D01*
X32534760Y-82379875D01*
X32504017Y-82534432D01*
X32443712Y-82680021D01*
X32356159Y-82811053D01*
X32244733Y-82922479D01*
X32113701Y-83010032D01*
X31968112Y-83070337D01*
X31813555Y-83101080D01*
X31655965Y-83101080D01*
X31501408Y-83070337D01*
X31355819Y-83010032D01*
X31224787Y-82922479D01*
X31113361Y-82811053D01*
X31025808Y-82680021D01*
X30965503Y-82534432D01*
X30934760Y-82379875D01*
X30934760Y-82222285D01*
X30965503Y-82067728D01*
X31025808Y-81922139D01*
X31113361Y-81791107D01*
X31224787Y-81679681D01*
X31355819Y-81592128D01*
X31501408Y-81531823D01*
X31655965Y-81501080D01*
X31813555Y-81501080D01*
X31968112Y-81531823D01*
X31968112Y-81531823D01*
G37*
G36*
X37053192Y-81531823D02*
X37198781Y-81592128D01*
X37329813Y-81679681D01*
X37441239Y-81791107D01*
X37528792Y-81922139D01*
X37589097Y-82067728D01*
X37619840Y-82222285D01*
X37619840Y-82379875D01*
X37589097Y-82534432D01*
X37528792Y-82680021D01*
X37441239Y-82811053D01*
X37329813Y-82922479D01*
X37198781Y-83010032D01*
X37053192Y-83070337D01*
X36898635Y-83101080D01*
X36741045Y-83101080D01*
X36586488Y-83070337D01*
X36440899Y-83010032D01*
X36309867Y-82922479D01*
X36198441Y-82811053D01*
X36110888Y-82680021D01*
X36050583Y-82534432D01*
X36019840Y-82379875D01*
X36019840Y-82222285D01*
X36050583Y-82067728D01*
X36110888Y-81922139D01*
X36198441Y-81791107D01*
X36309867Y-81679681D01*
X36440899Y-81592128D01*
X36586488Y-81531823D01*
X36741045Y-81501080D01*
X36898635Y-81501080D01*
X37053192Y-81531823D01*
X37053192Y-81531823D01*
G37*
G36*
X91595122Y-77748115D02*
X91711041Y-77771173D01*
X92038620Y-77906861D01*
X92329511Y-78101228D01*
X92333436Y-78103851D01*
X92584149Y-78354564D01*
X92584151Y-78354567D01*
X92781139Y-78649380D01*
X92916827Y-78976959D01*
X92939885Y-79092878D01*
X92986000Y-79324714D01*
X92986000Y-79679286D01*
X92951411Y-79853174D01*
X92916827Y-80027041D01*
X92781139Y-80354620D01*
X92631599Y-80578422D01*
X92584149Y-80649436D01*
X92333436Y-80900149D01*
X92333433Y-80900151D01*
X92038620Y-81097139D01*
X91711041Y-81232827D01*
X91595122Y-81255885D01*
X91363286Y-81302000D01*
X91008714Y-81302000D01*
X90776878Y-81255885D01*
X90660959Y-81232827D01*
X90333380Y-81097139D01*
X90038567Y-80900151D01*
X90038564Y-80900149D01*
X89787851Y-80649436D01*
X89740401Y-80578422D01*
X89590861Y-80354620D01*
X89455173Y-80027041D01*
X89420589Y-79853174D01*
X89386000Y-79679286D01*
X89386000Y-79324714D01*
X89432115Y-79092878D01*
X89455173Y-78976959D01*
X89590861Y-78649380D01*
X89787849Y-78354567D01*
X89787851Y-78354564D01*
X90038564Y-78103851D01*
X90042489Y-78101228D01*
X90333380Y-77906861D01*
X90660959Y-77771173D01*
X90776878Y-77748115D01*
X91008714Y-77702000D01*
X91363286Y-77702000D01*
X91595122Y-77748115D01*
X91595122Y-77748115D01*
G37*
G36*
X55097352Y-79240743D02*
X55242941Y-79301048D01*
X55373973Y-79388601D01*
X55485399Y-79500027D01*
X55572952Y-79631059D01*
X55633257Y-79776648D01*
X55664000Y-79931205D01*
X55664000Y-80088795D01*
X55633257Y-80243352D01*
X55572952Y-80388941D01*
X55485399Y-80519973D01*
X55373973Y-80631399D01*
X55242941Y-80718952D01*
X55097352Y-80779257D01*
X54942795Y-80810000D01*
X54785205Y-80810000D01*
X54630648Y-80779257D01*
X54485059Y-80718952D01*
X54354027Y-80631399D01*
X54242601Y-80519973D01*
X54155048Y-80388941D01*
X54094743Y-80243352D01*
X54064000Y-80088795D01*
X54064000Y-79931205D01*
X54094743Y-79776648D01*
X54155048Y-79631059D01*
X54242601Y-79500027D01*
X54354027Y-79388601D01*
X54485059Y-79301048D01*
X54630648Y-79240743D01*
X54785205Y-79210000D01*
X54942795Y-79210000D01*
X55097352Y-79240743D01*
X55097352Y-79240743D01*
G37*
G36*
X42281649Y-79217717D02*
X42320827Y-79221576D01*
X42384012Y-79240743D01*
X42471629Y-79267321D01*
X42610608Y-79341608D01*
X42732422Y-79441578D01*
X42832392Y-79563392D01*
X42906679Y-79702371D01*
X42952424Y-79853174D01*
X42967870Y-80010000D01*
X42952424Y-80166826D01*
X42906679Y-80317629D01*
X42832392Y-80456608D01*
X42732422Y-80578422D01*
X42610608Y-80678392D01*
X42471629Y-80752679D01*
X42396227Y-80775552D01*
X42320827Y-80798424D01*
X42281649Y-80802283D01*
X42203295Y-80810000D01*
X42124705Y-80810000D01*
X42046351Y-80802283D01*
X42007173Y-80798424D01*
X41931773Y-80775552D01*
X41856371Y-80752679D01*
X41717392Y-80678392D01*
X41595578Y-80578422D01*
X41495608Y-80456608D01*
X41421321Y-80317629D01*
X41375576Y-80166826D01*
X41360130Y-80010000D01*
X41375576Y-79853174D01*
X41421321Y-79702371D01*
X41495608Y-79563392D01*
X41595578Y-79441578D01*
X41717392Y-79341608D01*
X41856371Y-79267321D01*
X41943988Y-79240743D01*
X42007173Y-79221576D01*
X42046351Y-79217717D01*
X42124705Y-79210000D01*
X42203295Y-79210000D01*
X42281649Y-79217717D01*
X42281649Y-79217717D01*
G37*
G36*
X20724370Y-78641692D02*
X20840289Y-78664749D01*
X21022278Y-78740131D01*
X21186063Y-78849569D01*
X21325351Y-78988857D01*
X21434789Y-79152642D01*
X21510171Y-79334631D01*
X21548600Y-79527829D01*
X21548600Y-79724811D01*
X21510171Y-79918009D01*
X21434789Y-80099998D01*
X21325351Y-80263783D01*
X21186063Y-80403071D01*
X21022278Y-80512509D01*
X20840289Y-80587891D01*
X20724370Y-80610948D01*
X20647093Y-80626320D01*
X20450107Y-80626320D01*
X20372830Y-80610948D01*
X20256911Y-80587891D01*
X20074922Y-80512509D01*
X19911137Y-80403071D01*
X19771849Y-80263783D01*
X19662411Y-80099998D01*
X19587029Y-79918009D01*
X19548600Y-79724811D01*
X19548600Y-79527829D01*
X19587029Y-79334631D01*
X19662411Y-79152642D01*
X19771849Y-78988857D01*
X19911137Y-78849569D01*
X20074922Y-78740131D01*
X20256911Y-78664749D01*
X20372830Y-78641692D01*
X20450107Y-78626320D01*
X20647093Y-78626320D01*
X20724370Y-78641692D01*
X20724370Y-78641692D01*
G37*
G36*
X25224370Y-78641692D02*
X25340289Y-78664749D01*
X25522278Y-78740131D01*
X25686063Y-78849569D01*
X25825351Y-78988857D01*
X25934789Y-79152642D01*
X26010171Y-79334631D01*
X26048600Y-79527829D01*
X26048600Y-79724811D01*
X26010171Y-79918009D01*
X25934789Y-80099998D01*
X25825351Y-80263783D01*
X25686063Y-80403071D01*
X25522278Y-80512509D01*
X25340289Y-80587891D01*
X25224370Y-80610948D01*
X25147093Y-80626320D01*
X24950107Y-80626320D01*
X24872830Y-80610948D01*
X24756911Y-80587891D01*
X24574922Y-80512509D01*
X24411137Y-80403071D01*
X24271849Y-80263783D01*
X24162411Y-80099998D01*
X24087029Y-79918009D01*
X24048600Y-79724811D01*
X24048600Y-79527829D01*
X24087029Y-79334631D01*
X24162411Y-79152642D01*
X24271849Y-78988857D01*
X24411137Y-78849569D01*
X24574922Y-78740131D01*
X24756911Y-78664749D01*
X24872830Y-78641692D01*
X24950107Y-78626320D01*
X25147093Y-78626320D01*
X25224370Y-78641692D01*
X25224370Y-78641692D01*
G37*
G36*
X69272000Y-80194000D02*
X66872000Y-80194000D01*
X66872000Y-77794000D01*
X69272000Y-77794000D01*
X69272000Y-80194000D01*
X69272000Y-80194000D01*
G37*
G36*
X20807352Y-75684743D02*
X20952941Y-75745048D01*
X21083973Y-75832601D01*
X21195399Y-75944027D01*
X21282952Y-76075059D01*
X21343257Y-76220648D01*
X21374000Y-76375205D01*
X21374000Y-76532795D01*
X21343257Y-76687352D01*
X21282952Y-76832941D01*
X21195399Y-76963973D01*
X21083973Y-77075399D01*
X20952941Y-77162952D01*
X20807352Y-77223257D01*
X20652795Y-77254000D01*
X20495205Y-77254000D01*
X20340648Y-77223257D01*
X20195059Y-77162952D01*
X20064027Y-77075399D01*
X19952601Y-76963973D01*
X19865048Y-76832941D01*
X19804743Y-76687352D01*
X19774000Y-76532795D01*
X19774000Y-76375205D01*
X19804743Y-76220648D01*
X19865048Y-76075059D01*
X19952601Y-75944027D01*
X20064027Y-75832601D01*
X20195059Y-75745048D01*
X20340648Y-75684743D01*
X20495205Y-75654000D01*
X20652795Y-75654000D01*
X20807352Y-75684743D01*
X20807352Y-75684743D01*
G37*
G36*
X54981649Y-73629717D02*
X55020827Y-73633576D01*
X55084012Y-73652743D01*
X55171629Y-73679321D01*
X55310608Y-73753608D01*
X55432422Y-73853578D01*
X55532392Y-73975392D01*
X55606679Y-74114371D01*
X55652424Y-74265174D01*
X55667870Y-74422000D01*
X55652424Y-74578826D01*
X55606679Y-74729629D01*
X55532392Y-74868608D01*
X55432422Y-74990422D01*
X55310608Y-75090392D01*
X55171629Y-75164679D01*
X55096228Y-75187551D01*
X55020827Y-75210424D01*
X54981649Y-75214283D01*
X54903295Y-75222000D01*
X54824705Y-75222000D01*
X54746351Y-75214283D01*
X54707173Y-75210424D01*
X54631772Y-75187551D01*
X54556371Y-75164679D01*
X54417392Y-75090392D01*
X54295578Y-74990422D01*
X54195608Y-74868608D01*
X54121321Y-74729629D01*
X54075576Y-74578826D01*
X54060130Y-74422000D01*
X54075576Y-74265174D01*
X54121321Y-74114371D01*
X54195608Y-73975392D01*
X54295578Y-73853578D01*
X54417392Y-73753608D01*
X54556371Y-73679321D01*
X54643988Y-73652743D01*
X54707173Y-73633576D01*
X54746351Y-73629717D01*
X54824705Y-73622000D01*
X54903295Y-73622000D01*
X54981649Y-73629717D01*
X54981649Y-73629717D01*
G37*
G36*
X42397352Y-73652743D02*
X42542941Y-73713048D01*
X42673973Y-73800601D01*
X42785399Y-73912027D01*
X42872952Y-74043059D01*
X42933257Y-74188648D01*
X42964000Y-74343205D01*
X42964000Y-74500795D01*
X42933257Y-74655352D01*
X42872952Y-74800941D01*
X42785399Y-74931973D01*
X42673973Y-75043399D01*
X42542941Y-75130952D01*
X42397352Y-75191257D01*
X42242795Y-75222000D01*
X42085205Y-75222000D01*
X41930648Y-75191257D01*
X41785059Y-75130952D01*
X41654027Y-75043399D01*
X41542601Y-74931973D01*
X41455048Y-74800941D01*
X41394743Y-74655352D01*
X41364000Y-74500795D01*
X41364000Y-74343205D01*
X41394743Y-74188648D01*
X41455048Y-74043059D01*
X41542601Y-73912027D01*
X41654027Y-73800601D01*
X41785059Y-73713048D01*
X41930648Y-73652743D01*
X42085205Y-73622000D01*
X42242795Y-73622000D01*
X42397352Y-73652743D01*
X42397352Y-73652743D01*
G37*
G36*
X59415352Y-72382743D02*
X59560941Y-72443048D01*
X59691973Y-72530601D01*
X59803399Y-72642027D01*
X59890952Y-72773059D01*
X59951257Y-72918648D01*
X59982000Y-73073205D01*
X59982000Y-73230795D01*
X59951257Y-73385352D01*
X59890952Y-73530941D01*
X59803399Y-73661973D01*
X59691973Y-73773399D01*
X59560941Y-73860952D01*
X59415352Y-73921257D01*
X59260795Y-73952000D01*
X59103205Y-73952000D01*
X58948648Y-73921257D01*
X58803059Y-73860952D01*
X58672027Y-73773399D01*
X58560601Y-73661973D01*
X58473048Y-73530941D01*
X58412743Y-73385352D01*
X58382000Y-73230795D01*
X58382000Y-73073205D01*
X58412743Y-72918648D01*
X58473048Y-72773059D01*
X58560601Y-72642027D01*
X58672027Y-72530601D01*
X58803059Y-72443048D01*
X58948648Y-72382743D01*
X59103205Y-72352000D01*
X59260795Y-72352000D01*
X59415352Y-72382743D01*
X59415352Y-72382743D01*
G37*
G36*
X36937489Y-68808797D02*
X36976667Y-68812656D01*
X37052068Y-68835529D01*
X37127469Y-68858401D01*
X37266448Y-68932688D01*
X37388262Y-69032658D01*
X37488232Y-69154472D01*
X37562519Y-69293451D01*
X37608264Y-69444254D01*
X37623710Y-69601080D01*
X37608264Y-69757906D01*
X37562519Y-69908709D01*
X37488232Y-70047688D01*
X37388262Y-70169502D01*
X37266448Y-70269472D01*
X37127469Y-70343759D01*
X37052068Y-70366631D01*
X36976667Y-70389504D01*
X36937489Y-70393363D01*
X36859135Y-70401080D01*
X36780545Y-70401080D01*
X36702191Y-70393363D01*
X36663013Y-70389504D01*
X36587612Y-70366631D01*
X36512211Y-70343759D01*
X36373232Y-70269472D01*
X36251418Y-70169502D01*
X36151448Y-70047688D01*
X36077161Y-69908709D01*
X36031416Y-69757906D01*
X36015970Y-69601080D01*
X36031416Y-69444254D01*
X36077161Y-69293451D01*
X36151448Y-69154472D01*
X36251418Y-69032658D01*
X36373232Y-68932688D01*
X36512211Y-68858401D01*
X36587612Y-68835529D01*
X36663013Y-68812656D01*
X36702191Y-68808797D01*
X36780545Y-68801080D01*
X36859135Y-68801080D01*
X36937489Y-68808797D01*
X36937489Y-68808797D01*
G37*
G36*
X31852409Y-68808797D02*
X31891587Y-68812656D01*
X31966988Y-68835529D01*
X32042389Y-68858401D01*
X32181368Y-68932688D01*
X32303182Y-69032658D01*
X32403152Y-69154472D01*
X32477439Y-69293451D01*
X32523184Y-69444254D01*
X32538630Y-69601080D01*
X32523184Y-69757906D01*
X32477439Y-69908709D01*
X32403152Y-70047688D01*
X32303182Y-70169502D01*
X32181368Y-70269472D01*
X32042389Y-70343759D01*
X31966988Y-70366631D01*
X31891587Y-70389504D01*
X31852409Y-70393363D01*
X31774055Y-70401080D01*
X31695465Y-70401080D01*
X31617111Y-70393363D01*
X31577933Y-70389504D01*
X31502532Y-70366631D01*
X31427131Y-70343759D01*
X31288152Y-70269472D01*
X31166338Y-70169502D01*
X31066368Y-70047688D01*
X30992081Y-69908709D01*
X30946336Y-69757906D01*
X30930890Y-69601080D01*
X30946336Y-69444254D01*
X30992081Y-69293451D01*
X31066368Y-69154472D01*
X31166338Y-69032658D01*
X31288152Y-68932688D01*
X31427131Y-68858401D01*
X31502532Y-68835529D01*
X31577933Y-68812656D01*
X31617111Y-68808797D01*
X31695465Y-68801080D01*
X31774055Y-68801080D01*
X31852409Y-68808797D01*
X31852409Y-68808797D01*
G37*
G36*
X91595122Y-65048115D02*
X91711041Y-65071173D01*
X92038620Y-65206861D01*
X92329511Y-65401228D01*
X92333436Y-65403851D01*
X92584149Y-65654564D01*
X92584151Y-65654567D01*
X92781139Y-65949380D01*
X92904241Y-66246573D01*
X92916827Y-66276960D01*
X92970153Y-66545045D01*
X92986000Y-66624716D01*
X92986000Y-66979284D01*
X92916827Y-67327041D01*
X92781139Y-67654620D01*
X92777526Y-67660027D01*
X92584149Y-67949436D01*
X92333436Y-68200149D01*
X92333433Y-68200151D01*
X92038620Y-68397139D01*
X91711041Y-68532827D01*
X91595122Y-68555885D01*
X91363286Y-68602000D01*
X91008714Y-68602000D01*
X90776878Y-68555885D01*
X90660959Y-68532827D01*
X90333380Y-68397139D01*
X90038567Y-68200151D01*
X90038564Y-68200149D01*
X89787851Y-67949436D01*
X89594474Y-67660027D01*
X89590861Y-67654620D01*
X89455173Y-67327041D01*
X89386000Y-66979284D01*
X89386000Y-66624716D01*
X89401848Y-66545045D01*
X89455173Y-66276960D01*
X89467760Y-66246573D01*
X89590861Y-65949380D01*
X89787849Y-65654567D01*
X89787851Y-65654564D01*
X90038564Y-65403851D01*
X90042489Y-65401228D01*
X90333380Y-65206861D01*
X90660959Y-65071173D01*
X90776878Y-65048115D01*
X91008714Y-65002000D01*
X91363286Y-65002000D01*
X91595122Y-65048115D01*
X91595122Y-65048115D01*
G37*
G36*
X71812000Y-68510000D02*
X69412000Y-68510000D01*
X69412000Y-66110000D01*
X71812000Y-66110000D01*
X71812000Y-68510000D01*
X71812000Y-68510000D01*
G37*
G36*
X65962026Y-66156115D02*
X66180412Y-66246573D01*
X66376958Y-66377901D01*
X66544099Y-66545042D01*
X66675427Y-66741588D01*
X66765885Y-66959974D01*
X66812000Y-67191809D01*
X66812000Y-67428191D01*
X66765885Y-67660026D01*
X66675427Y-67878412D01*
X66544099Y-68074958D01*
X66376958Y-68242099D01*
X66180412Y-68373427D01*
X65962026Y-68463885D01*
X65730191Y-68510000D01*
X65493809Y-68510000D01*
X65261974Y-68463885D01*
X65043588Y-68373427D01*
X64847042Y-68242099D01*
X64679901Y-68074958D01*
X64548573Y-67878412D01*
X64458115Y-67660026D01*
X64412000Y-67428191D01*
X64412000Y-67191809D01*
X64458115Y-66959974D01*
X64548573Y-66741588D01*
X64679901Y-66545042D01*
X64847042Y-66377901D01*
X65043588Y-66246573D01*
X65261974Y-66156115D01*
X65493809Y-66110000D01*
X65730191Y-66110000D01*
X65962026Y-66156115D01*
X65962026Y-66156115D01*
G37*
G36*
X39233649Y-63469717D02*
X39272827Y-63473576D01*
X39336012Y-63492743D01*
X39423629Y-63519321D01*
X39562608Y-63593608D01*
X39684422Y-63693578D01*
X39784392Y-63815392D01*
X39858679Y-63954371D01*
X39858679Y-63954372D01*
X39904424Y-64105173D01*
X39919870Y-64262000D01*
X39904424Y-64418827D01*
X39903342Y-64422393D01*
X39858679Y-64569629D01*
X39784392Y-64708608D01*
X39684422Y-64830422D01*
X39562608Y-64930392D01*
X39423629Y-65004679D01*
X39348227Y-65027552D01*
X39272827Y-65050424D01*
X39233649Y-65054283D01*
X39155295Y-65062000D01*
X39076705Y-65062000D01*
X38998351Y-65054283D01*
X38959173Y-65050424D01*
X38883773Y-65027552D01*
X38808371Y-65004679D01*
X38669392Y-64930392D01*
X38547578Y-64830422D01*
X38447608Y-64708608D01*
X38373321Y-64569629D01*
X38328658Y-64422393D01*
X38327576Y-64418827D01*
X38312130Y-64262000D01*
X38327576Y-64105173D01*
X38373321Y-63954372D01*
X38373321Y-63954371D01*
X38447608Y-63815392D01*
X38547578Y-63693578D01*
X38669392Y-63593608D01*
X38808371Y-63519321D01*
X38895988Y-63492743D01*
X38959173Y-63473576D01*
X38998351Y-63469717D01*
X39076705Y-63462000D01*
X39155295Y-63462000D01*
X39233649Y-63469717D01*
X39233649Y-63469717D01*
G37*
G36*
X26649352Y-63492743D02*
X26794941Y-63553048D01*
X26925973Y-63640601D01*
X27037399Y-63752027D01*
X27124952Y-63883059D01*
X27185257Y-64028648D01*
X27216000Y-64183205D01*
X27216000Y-64340795D01*
X27185257Y-64495352D01*
X27124952Y-64640941D01*
X27037399Y-64771973D01*
X26925973Y-64883399D01*
X26794941Y-64970952D01*
X26649352Y-65031257D01*
X26494795Y-65062000D01*
X26337205Y-65062000D01*
X26182648Y-65031257D01*
X26037059Y-64970952D01*
X25906027Y-64883399D01*
X25794601Y-64771973D01*
X25707048Y-64640941D01*
X25646743Y-64495352D01*
X25616000Y-64340795D01*
X25616000Y-64183205D01*
X25646743Y-64028648D01*
X25707048Y-63883059D01*
X25794601Y-63752027D01*
X25906027Y-63640601D01*
X26037059Y-63553048D01*
X26182648Y-63492743D01*
X26337205Y-63462000D01*
X26494795Y-63462000D01*
X26649352Y-63492743D01*
X26649352Y-63492743D01*
G37*
G36*
X20691649Y-62961717D02*
X20730827Y-62965576D01*
X20806228Y-62988449D01*
X20881629Y-63011321D01*
X21020608Y-63085608D01*
X21142422Y-63185578D01*
X21242392Y-63307392D01*
X21316679Y-63446371D01*
X21332947Y-63500000D01*
X21362424Y-63597173D01*
X21377870Y-63754000D01*
X21362424Y-63910827D01*
X21351570Y-63946608D01*
X21316679Y-64061629D01*
X21242392Y-64200608D01*
X21142422Y-64322422D01*
X21020608Y-64422392D01*
X20881629Y-64496679D01*
X20806228Y-64519551D01*
X20730827Y-64542424D01*
X20691649Y-64546283D01*
X20613295Y-64554000D01*
X20534705Y-64554000D01*
X20456351Y-64546283D01*
X20417173Y-64542424D01*
X20341772Y-64519551D01*
X20266371Y-64496679D01*
X20127392Y-64422392D01*
X20005578Y-64322422D01*
X19905608Y-64200608D01*
X19831321Y-64061629D01*
X19796430Y-63946608D01*
X19785576Y-63910827D01*
X19770130Y-63754000D01*
X19785576Y-63597173D01*
X19815053Y-63500000D01*
X19831321Y-63446371D01*
X19905608Y-63307392D01*
X20005578Y-63185578D01*
X20127392Y-63085608D01*
X20266371Y-63011321D01*
X20341772Y-62988449D01*
X20417173Y-62965576D01*
X20456351Y-62961717D01*
X20534705Y-62954000D01*
X20613295Y-62954000D01*
X20691649Y-62961717D01*
X20691649Y-62961717D01*
G37*
G36*
X45075649Y-62707717D02*
X45114827Y-62711576D01*
X45190228Y-62734449D01*
X45265629Y-62757321D01*
X45404608Y-62831608D01*
X45526422Y-62931578D01*
X45626392Y-63053392D01*
X45700679Y-63192371D01*
X45700679Y-63192372D01*
X45735571Y-63307394D01*
X45746424Y-63343174D01*
X45761870Y-63500000D01*
X45746424Y-63656826D01*
X45700679Y-63807629D01*
X45626392Y-63946608D01*
X45526422Y-64068422D01*
X45404608Y-64168392D01*
X45265629Y-64242679D01*
X45201935Y-64262000D01*
X45114827Y-64288424D01*
X45075649Y-64292283D01*
X44997295Y-64300000D01*
X44918705Y-64300000D01*
X44840351Y-64292283D01*
X44801173Y-64288424D01*
X44714065Y-64262000D01*
X44650371Y-64242679D01*
X44511392Y-64168392D01*
X44389578Y-64068422D01*
X44289608Y-63946608D01*
X44215321Y-63807629D01*
X44169576Y-63656826D01*
X44154130Y-63500000D01*
X44169576Y-63343174D01*
X44180430Y-63307394D01*
X44215321Y-63192372D01*
X44215321Y-63192371D01*
X44289608Y-63053392D01*
X44389578Y-62931578D01*
X44511392Y-62831608D01*
X44650371Y-62757321D01*
X44725772Y-62734449D01*
X44801173Y-62711576D01*
X44840351Y-62707717D01*
X44918705Y-62700000D01*
X44997295Y-62700000D01*
X45075649Y-62707717D01*
X45075649Y-62707717D01*
G37*
G36*
X52695649Y-62707717D02*
X52734827Y-62711576D01*
X52810228Y-62734449D01*
X52885629Y-62757321D01*
X53024608Y-62831608D01*
X53146422Y-62931578D01*
X53246392Y-63053392D01*
X53320679Y-63192371D01*
X53320679Y-63192372D01*
X53355571Y-63307394D01*
X53366424Y-63343174D01*
X53381870Y-63500000D01*
X53366424Y-63656826D01*
X53320679Y-63807629D01*
X53246392Y-63946608D01*
X53146422Y-64068422D01*
X53024608Y-64168392D01*
X52885629Y-64242679D01*
X52821935Y-64262000D01*
X52734827Y-64288424D01*
X52695649Y-64292283D01*
X52617295Y-64300000D01*
X52538705Y-64300000D01*
X52460351Y-64292283D01*
X52421173Y-64288424D01*
X52334065Y-64262000D01*
X52270371Y-64242679D01*
X52131392Y-64168392D01*
X52009578Y-64068422D01*
X51909608Y-63946608D01*
X51835321Y-63807629D01*
X51789576Y-63656826D01*
X51774130Y-63500000D01*
X51789576Y-63343174D01*
X51800430Y-63307394D01*
X51835321Y-63192372D01*
X51835321Y-63192371D01*
X51909608Y-63053392D01*
X52009578Y-62931578D01*
X52131392Y-62831608D01*
X52270371Y-62757321D01*
X52345772Y-62734449D01*
X52421173Y-62711576D01*
X52460351Y-62707717D01*
X52538705Y-62700000D01*
X52617295Y-62700000D01*
X52695649Y-62707717D01*
X52695649Y-62707717D01*
G37*
G36*
X91516719Y-58936520D02*
X91711041Y-58975173D01*
X91941851Y-59070778D01*
X92013146Y-59100309D01*
X92038620Y-59110861D01*
X92066111Y-59129230D01*
X92333436Y-59307851D01*
X92584149Y-59558564D01*
X92584151Y-59558567D01*
X92781139Y-59853380D01*
X92916827Y-60180959D01*
X92924060Y-60217321D01*
X92986000Y-60528714D01*
X92986000Y-60883286D01*
X92965484Y-60986424D01*
X92916827Y-61231041D01*
X92820881Y-61462674D01*
X92781140Y-61558618D01*
X92584149Y-61853436D01*
X92333436Y-62104149D01*
X92333433Y-62104151D01*
X92038620Y-62301139D01*
X91711041Y-62436827D01*
X91595122Y-62459885D01*
X91363286Y-62506000D01*
X91008714Y-62506000D01*
X90776878Y-62459885D01*
X90660959Y-62436827D01*
X90333380Y-62301139D01*
X90038567Y-62104151D01*
X90038564Y-62104149D01*
X89787851Y-61853436D01*
X89590860Y-61558618D01*
X89551119Y-61462674D01*
X89455173Y-61231041D01*
X89406516Y-60986424D01*
X89386000Y-60883286D01*
X89386000Y-60528714D01*
X89447940Y-60217321D01*
X89455173Y-60180959D01*
X89590861Y-59853380D01*
X89787849Y-59558567D01*
X89787851Y-59558564D01*
X90038564Y-59307851D01*
X90305889Y-59129230D01*
X90333380Y-59110861D01*
X90358855Y-59100309D01*
X90430149Y-59070778D01*
X90660959Y-58975173D01*
X90855281Y-58936520D01*
X91008714Y-58906000D01*
X91363286Y-58906000D01*
X91516719Y-58936520D01*
X91516719Y-58936520D01*
G37*
G36*
X52695649Y-60167717D02*
X52734827Y-60171576D01*
X52810227Y-60194448D01*
X52885629Y-60217321D01*
X53024608Y-60291608D01*
X53146422Y-60391578D01*
X53246392Y-60513392D01*
X53320679Y-60652371D01*
X53366424Y-60803174D01*
X53381870Y-60960000D01*
X53366424Y-61116826D01*
X53320679Y-61267629D01*
X53246392Y-61406608D01*
X53146422Y-61528422D01*
X53024608Y-61628392D01*
X52885629Y-61702679D01*
X52810228Y-61725551D01*
X52734827Y-61748424D01*
X52695649Y-61752283D01*
X52617295Y-61760000D01*
X52538705Y-61760000D01*
X52460351Y-61752283D01*
X52421173Y-61748424D01*
X52345772Y-61725551D01*
X52270371Y-61702679D01*
X52131392Y-61628392D01*
X52009578Y-61528422D01*
X51909608Y-61406608D01*
X51835321Y-61267629D01*
X51789576Y-61116826D01*
X51774130Y-60960000D01*
X51789576Y-60803174D01*
X51835321Y-60652371D01*
X51909608Y-60513392D01*
X52009578Y-60391578D01*
X52131392Y-60291608D01*
X52270371Y-60217321D01*
X52345773Y-60194448D01*
X52421173Y-60171576D01*
X52460351Y-60167717D01*
X52538705Y-60160000D01*
X52617295Y-60160000D01*
X52695649Y-60167717D01*
X52695649Y-60167717D01*
G37*
G36*
X45075649Y-60167717D02*
X45114827Y-60171576D01*
X45190227Y-60194448D01*
X45265629Y-60217321D01*
X45404608Y-60291608D01*
X45526422Y-60391578D01*
X45626392Y-60513392D01*
X45700679Y-60652371D01*
X45746424Y-60803174D01*
X45761870Y-60960000D01*
X45746424Y-61116826D01*
X45700679Y-61267629D01*
X45626392Y-61406608D01*
X45526422Y-61528422D01*
X45404608Y-61628392D01*
X45265629Y-61702679D01*
X45190228Y-61725551D01*
X45114827Y-61748424D01*
X45075649Y-61752283D01*
X44997295Y-61760000D01*
X44918705Y-61760000D01*
X44840351Y-61752283D01*
X44801173Y-61748424D01*
X44725772Y-61725551D01*
X44650371Y-61702679D01*
X44511392Y-61628392D01*
X44389578Y-61528422D01*
X44289608Y-61406608D01*
X44215321Y-61267629D01*
X44169576Y-61116826D01*
X44154130Y-60960000D01*
X44169576Y-60803174D01*
X44215321Y-60652371D01*
X44289608Y-60513392D01*
X44389578Y-60391578D01*
X44511392Y-60291608D01*
X44650371Y-60217321D01*
X44725773Y-60194448D01*
X44801173Y-60171576D01*
X44840351Y-60167717D01*
X44918705Y-60160000D01*
X44997295Y-60160000D01*
X45075649Y-60167717D01*
X45075649Y-60167717D01*
G37*
G36*
X20691649Y-59405717D02*
X20730827Y-59409576D01*
X20806228Y-59432449D01*
X20881629Y-59455321D01*
X21020608Y-59529608D01*
X21142422Y-59629578D01*
X21242392Y-59751392D01*
X21316679Y-59890371D01*
X21316679Y-59890372D01*
X21362424Y-60041173D01*
X21377870Y-60198000D01*
X21362424Y-60354827D01*
X21340341Y-60427624D01*
X21316679Y-60505629D01*
X21242392Y-60644608D01*
X21142422Y-60766422D01*
X21020608Y-60866392D01*
X20881629Y-60940679D01*
X20817935Y-60960000D01*
X20730827Y-60986424D01*
X20691649Y-60990283D01*
X20613295Y-60998000D01*
X20534705Y-60998000D01*
X20456351Y-60990283D01*
X20417173Y-60986424D01*
X20330065Y-60960000D01*
X20266371Y-60940679D01*
X20127392Y-60866392D01*
X20005578Y-60766422D01*
X19905608Y-60644608D01*
X19831321Y-60505629D01*
X19807659Y-60427624D01*
X19785576Y-60354827D01*
X19770130Y-60198000D01*
X19785576Y-60041173D01*
X19831321Y-59890372D01*
X19831321Y-59890371D01*
X19905608Y-59751392D01*
X20005578Y-59629578D01*
X20127392Y-59529608D01*
X20266371Y-59455321D01*
X20341772Y-59432449D01*
X20417173Y-59409576D01*
X20456351Y-59405717D01*
X20534705Y-59398000D01*
X20613295Y-59398000D01*
X20691649Y-59405717D01*
X20691649Y-59405717D01*
G37*
G36*
X24744352Y-58869943D02*
X24889941Y-58930248D01*
X25020973Y-59017801D01*
X25132399Y-59129227D01*
X25219952Y-59260259D01*
X25280257Y-59405848D01*
X25311000Y-59560405D01*
X25311000Y-59717995D01*
X25280257Y-59872552D01*
X25219952Y-60018141D01*
X25132399Y-60149173D01*
X25020973Y-60260599D01*
X24889941Y-60348152D01*
X24744352Y-60408457D01*
X24589795Y-60439200D01*
X24432205Y-60439200D01*
X24277648Y-60408457D01*
X24132059Y-60348152D01*
X24001027Y-60260599D01*
X23889601Y-60149173D01*
X23802048Y-60018141D01*
X23741743Y-59872552D01*
X23711000Y-59717995D01*
X23711000Y-59560405D01*
X23741743Y-59405848D01*
X23802048Y-59260259D01*
X23889601Y-59129227D01*
X24001027Y-59017801D01*
X24132059Y-58930248D01*
X24277648Y-58869943D01*
X24432205Y-58839200D01*
X24589795Y-58839200D01*
X24744352Y-58869943D01*
X24744352Y-58869943D01*
G37*
G36*
X37328649Y-58846917D02*
X37367827Y-58850776D01*
X37420011Y-58866606D01*
X37518629Y-58896521D01*
X37657608Y-58970808D01*
X37779422Y-59070778D01*
X37879392Y-59192592D01*
X37953679Y-59331571D01*
X37966269Y-59373076D01*
X37999424Y-59482373D01*
X38014870Y-59639200D01*
X37999424Y-59796027D01*
X37976552Y-59871427D01*
X37953679Y-59946829D01*
X37879392Y-60085808D01*
X37779422Y-60207622D01*
X37657608Y-60307592D01*
X37518629Y-60381879D01*
X37486655Y-60391578D01*
X37367827Y-60427624D01*
X37328649Y-60431483D01*
X37250295Y-60439200D01*
X37171705Y-60439200D01*
X37093351Y-60431483D01*
X37054173Y-60427624D01*
X36935345Y-60391578D01*
X36903371Y-60381879D01*
X36764392Y-60307592D01*
X36642578Y-60207622D01*
X36542608Y-60085808D01*
X36468321Y-59946829D01*
X36445448Y-59871427D01*
X36422576Y-59796027D01*
X36407130Y-59639200D01*
X36422576Y-59482373D01*
X36455731Y-59373076D01*
X36468321Y-59331571D01*
X36542608Y-59192592D01*
X36642578Y-59070778D01*
X36764392Y-58970808D01*
X36903371Y-58896521D01*
X37001989Y-58866606D01*
X37054173Y-58850776D01*
X37093351Y-58846917D01*
X37171705Y-58839200D01*
X37250295Y-58839200D01*
X37328649Y-58846917D01*
X37328649Y-58846917D01*
G37*
G36*
X69096521Y-57808586D02*
X69260309Y-57876429D01*
X69407720Y-57974926D01*
X69533074Y-58100280D01*
X69631571Y-58247691D01*
X69699414Y-58411479D01*
X69734000Y-58585356D01*
X69734000Y-58762644D01*
X69699414Y-58936521D01*
X69631571Y-59100309D01*
X69533074Y-59247720D01*
X69407720Y-59373074D01*
X69260309Y-59471571D01*
X69096521Y-59539414D01*
X68922644Y-59574000D01*
X68745356Y-59574000D01*
X68571479Y-59539414D01*
X68407691Y-59471571D01*
X68260280Y-59373074D01*
X68134926Y-59247720D01*
X68036429Y-59100309D01*
X67968586Y-58936521D01*
X67934000Y-58762644D01*
X67934000Y-58585356D01*
X67968586Y-58411479D01*
X68036429Y-58247691D01*
X68134926Y-58100280D01*
X68260280Y-57974926D01*
X68407691Y-57876429D01*
X68571479Y-57808586D01*
X68745356Y-57774000D01*
X68922644Y-57774000D01*
X69096521Y-57808586D01*
X69096521Y-57808586D01*
G37*
G36*
X62238521Y-57808586D02*
X62402309Y-57876429D01*
X62549720Y-57974926D01*
X62675074Y-58100280D01*
X62773571Y-58247691D01*
X62841414Y-58411479D01*
X62876000Y-58585356D01*
X62876000Y-58762644D01*
X62841414Y-58936521D01*
X62773571Y-59100309D01*
X62675074Y-59247720D01*
X62549720Y-59373074D01*
X62402309Y-59471571D01*
X62238521Y-59539414D01*
X62064644Y-59574000D01*
X61887356Y-59574000D01*
X61713479Y-59539414D01*
X61549691Y-59471571D01*
X61402280Y-59373074D01*
X61276926Y-59247720D01*
X61178429Y-59100309D01*
X61110586Y-58936521D01*
X61076000Y-58762644D01*
X61076000Y-58585356D01*
X61110586Y-58411479D01*
X61178429Y-58247691D01*
X61276926Y-58100280D01*
X61402280Y-57974926D01*
X61549691Y-57876429D01*
X61713479Y-57808586D01*
X61887356Y-57774000D01*
X62064644Y-57774000D01*
X62238521Y-57808586D01*
X62238521Y-57808586D01*
G37*
G36*
X45075649Y-57627717D02*
X45114827Y-57631576D01*
X45190228Y-57654449D01*
X45265629Y-57677321D01*
X45404608Y-57751608D01*
X45526422Y-57851578D01*
X45626392Y-57973392D01*
X45700679Y-58112371D01*
X45700679Y-58112372D01*
X45746424Y-58263173D01*
X45761870Y-58420000D01*
X45746424Y-58576827D01*
X45743836Y-58585358D01*
X45700679Y-58727629D01*
X45626392Y-58866608D01*
X45526422Y-58988422D01*
X45404608Y-59088392D01*
X45265629Y-59162679D01*
X45190228Y-59185551D01*
X45114827Y-59208424D01*
X45075649Y-59212283D01*
X44997295Y-59220000D01*
X44918705Y-59220000D01*
X44840351Y-59212283D01*
X44801173Y-59208424D01*
X44725772Y-59185551D01*
X44650371Y-59162679D01*
X44511392Y-59088392D01*
X44389578Y-58988422D01*
X44289608Y-58866608D01*
X44215321Y-58727629D01*
X44172164Y-58585358D01*
X44169576Y-58576827D01*
X44154130Y-58420000D01*
X44169576Y-58263173D01*
X44215321Y-58112372D01*
X44215321Y-58112371D01*
X44289608Y-57973392D01*
X44389578Y-57851578D01*
X44511392Y-57751608D01*
X44650371Y-57677321D01*
X44725772Y-57654449D01*
X44801173Y-57631576D01*
X44840351Y-57627717D01*
X44918705Y-57620000D01*
X44997295Y-57620000D01*
X45075649Y-57627717D01*
X45075649Y-57627717D01*
G37*
G36*
X52695649Y-57627717D02*
X52734827Y-57631576D01*
X52810228Y-57654449D01*
X52885629Y-57677321D01*
X53024608Y-57751608D01*
X53146422Y-57851578D01*
X53246392Y-57973392D01*
X53320679Y-58112371D01*
X53320679Y-58112372D01*
X53366424Y-58263173D01*
X53381870Y-58420000D01*
X53366424Y-58576827D01*
X53363836Y-58585358D01*
X53320679Y-58727629D01*
X53246392Y-58866608D01*
X53146422Y-58988422D01*
X53024608Y-59088392D01*
X52885629Y-59162679D01*
X52810228Y-59185551D01*
X52734827Y-59208424D01*
X52695649Y-59212283D01*
X52617295Y-59220000D01*
X52538705Y-59220000D01*
X52460351Y-59212283D01*
X52421173Y-59208424D01*
X52345772Y-59185551D01*
X52270371Y-59162679D01*
X52131392Y-59088392D01*
X52009578Y-58988422D01*
X51909608Y-58866608D01*
X51835321Y-58727629D01*
X51792164Y-58585358D01*
X51789576Y-58576827D01*
X51774130Y-58420000D01*
X51789576Y-58263173D01*
X51835321Y-58112372D01*
X51835321Y-58112371D01*
X51909608Y-57973392D01*
X52009578Y-57851578D01*
X52131392Y-57751608D01*
X52270371Y-57677321D01*
X52345772Y-57654449D01*
X52421173Y-57631576D01*
X52460351Y-57627717D01*
X52538705Y-57620000D01*
X52617295Y-57620000D01*
X52695649Y-57627717D01*
X52695649Y-57627717D01*
G37*
G36*
X37341080Y-57229280D02*
X35821080Y-57229280D01*
X35821080Y-55709280D01*
X37341080Y-55709280D01*
X37341080Y-57229280D01*
X37341080Y-57229280D01*
G37*
G36*
X31174123Y-55728326D02*
X31312432Y-55785615D01*
X31436916Y-55868793D01*
X31542767Y-55974644D01*
X31625945Y-56099128D01*
X31683234Y-56237437D01*
X31712440Y-56384265D01*
X31712440Y-56533975D01*
X31683234Y-56680803D01*
X31625945Y-56819112D01*
X31542767Y-56943596D01*
X31436916Y-57049447D01*
X31312432Y-57132625D01*
X31174123Y-57189914D01*
X31027295Y-57219120D01*
X30877585Y-57219120D01*
X30730757Y-57189914D01*
X30592448Y-57132625D01*
X30467964Y-57049447D01*
X30362113Y-56943596D01*
X30278935Y-56819112D01*
X30221646Y-56680803D01*
X30192440Y-56533975D01*
X30192440Y-56384265D01*
X30221646Y-56237437D01*
X30278935Y-56099128D01*
X30362113Y-55974644D01*
X30467964Y-55868793D01*
X30592448Y-55785615D01*
X30730757Y-55728326D01*
X30877585Y-55699120D01*
X31027295Y-55699120D01*
X31174123Y-55728326D01*
X31174123Y-55728326D01*
G37*
G36*
X69734000Y-57034000D02*
X67934000Y-57034000D01*
X67934000Y-55234000D01*
X69734000Y-55234000D01*
X69734000Y-57034000D01*
X69734000Y-57034000D01*
G37*
G36*
X62876000Y-57034000D02*
X61076000Y-57034000D01*
X61076000Y-55234000D01*
X62876000Y-55234000D01*
X62876000Y-57034000D01*
X62876000Y-57034000D01*
G37*
G36*
X45758000Y-56680000D02*
X44158000Y-56680000D01*
X44158000Y-55080000D01*
X45758000Y-55080000D01*
X45758000Y-56680000D01*
X45758000Y-56680000D01*
G37*
G36*
X52695649Y-55087717D02*
X52734827Y-55091576D01*
X52810227Y-55114448D01*
X52885629Y-55137321D01*
X53024608Y-55211608D01*
X53146422Y-55311578D01*
X53246392Y-55433392D01*
X53320679Y-55572371D01*
X53320679Y-55572372D01*
X53366424Y-55723173D01*
X53366932Y-55728327D01*
X53381870Y-55880000D01*
X53366424Y-56036826D01*
X53320679Y-56187629D01*
X53246392Y-56326608D01*
X53146422Y-56448422D01*
X53024608Y-56548392D01*
X52885629Y-56622679D01*
X52810228Y-56645551D01*
X52734827Y-56668424D01*
X52695649Y-56672283D01*
X52617295Y-56680000D01*
X52538705Y-56680000D01*
X52460351Y-56672283D01*
X52421173Y-56668424D01*
X52345772Y-56645551D01*
X52270371Y-56622679D01*
X52131392Y-56548392D01*
X52009578Y-56448422D01*
X51909608Y-56326608D01*
X51835321Y-56187629D01*
X51789576Y-56036826D01*
X51774130Y-55880000D01*
X51789068Y-55728327D01*
X51789576Y-55723173D01*
X51835321Y-55572372D01*
X51835321Y-55572371D01*
X51909608Y-55433392D01*
X52009578Y-55311578D01*
X52131392Y-55211608D01*
X52270371Y-55137321D01*
X52345773Y-55114448D01*
X52421173Y-55091576D01*
X52460351Y-55087717D01*
X52538705Y-55080000D01*
X52617295Y-55080000D01*
X52695649Y-55087717D01*
X52695649Y-55087717D01*
G37*
G36*
X36802763Y-53198486D02*
X36941072Y-53255775D01*
X36941075Y-53255777D01*
X37050347Y-53328790D01*
X37065556Y-53338953D01*
X37171407Y-53444804D01*
X37254585Y-53569288D01*
X37311874Y-53707597D01*
X37341080Y-53854425D01*
X37341080Y-54004135D01*
X37311874Y-54150963D01*
X37254585Y-54289272D01*
X37254583Y-54289275D01*
X37178199Y-54403592D01*
X37171407Y-54413756D01*
X37065556Y-54519607D01*
X36941072Y-54602785D01*
X36802763Y-54660074D01*
X36655935Y-54689280D01*
X36506225Y-54689280D01*
X36359397Y-54660074D01*
X36221088Y-54602785D01*
X36096604Y-54519607D01*
X35990753Y-54413756D01*
X35983962Y-54403592D01*
X35907577Y-54289275D01*
X35907575Y-54289272D01*
X35850286Y-54150963D01*
X35821080Y-54004135D01*
X35821080Y-53854425D01*
X35850286Y-53707597D01*
X35907575Y-53569288D01*
X35990753Y-53444804D01*
X36096604Y-53338953D01*
X36111814Y-53328790D01*
X36221085Y-53255777D01*
X36221088Y-53255775D01*
X36359397Y-53198486D01*
X36506225Y-53169280D01*
X36655935Y-53169280D01*
X36802763Y-53198486D01*
X36802763Y-53198486D01*
G37*
G36*
X31174123Y-53188326D02*
X31312432Y-53245615D01*
X31436916Y-53328793D01*
X31542767Y-53434644D01*
X31542769Y-53434647D01*
X31542770Y-53434648D01*
X31625943Y-53559125D01*
X31625945Y-53559128D01*
X31683234Y-53697437D01*
X31712440Y-53844265D01*
X31712440Y-53993975D01*
X31683234Y-54140803D01*
X31625945Y-54279112D01*
X31542767Y-54403596D01*
X31436916Y-54509447D01*
X31436913Y-54509449D01*
X31436912Y-54509450D01*
X31312435Y-54592623D01*
X31312432Y-54592625D01*
X31174123Y-54649914D01*
X31027295Y-54679120D01*
X30877585Y-54679120D01*
X30730757Y-54649914D01*
X30592448Y-54592625D01*
X30592445Y-54592623D01*
X30467968Y-54509450D01*
X30467967Y-54509449D01*
X30467964Y-54509447D01*
X30362113Y-54403596D01*
X30278935Y-54279112D01*
X30221646Y-54140803D01*
X30192440Y-53993975D01*
X30192440Y-53844265D01*
X30221646Y-53697437D01*
X30278935Y-53559128D01*
X30278937Y-53559125D01*
X30362110Y-53434648D01*
X30362111Y-53434647D01*
X30362113Y-53434644D01*
X30467964Y-53328793D01*
X30592448Y-53245615D01*
X30730757Y-53188326D01*
X30877585Y-53159120D01*
X31027295Y-53159120D01*
X31174123Y-53188326D01*
X31174123Y-53188326D01*
G37*
G36*
X52695649Y-51531717D02*
X52734827Y-51535576D01*
X52798012Y-51554743D01*
X52885629Y-51581321D01*
X53024608Y-51655608D01*
X53146422Y-51755578D01*
X53246392Y-51877392D01*
X53320679Y-52016371D01*
X53366424Y-52167174D01*
X53381870Y-52324000D01*
X53366424Y-52480826D01*
X53320679Y-52631629D01*
X53246392Y-52770608D01*
X53146422Y-52892422D01*
X53024608Y-52992392D01*
X52885629Y-53066679D01*
X52810227Y-53089552D01*
X52734827Y-53112424D01*
X52695649Y-53116283D01*
X52617295Y-53124000D01*
X52538705Y-53124000D01*
X52460351Y-53116283D01*
X52421173Y-53112424D01*
X52345773Y-53089552D01*
X52270371Y-53066679D01*
X52131392Y-52992392D01*
X52009578Y-52892422D01*
X51909608Y-52770608D01*
X51835321Y-52631629D01*
X51789576Y-52480826D01*
X51774130Y-52324000D01*
X51789576Y-52167174D01*
X51835321Y-52016371D01*
X51909608Y-51877392D01*
X52009578Y-51755578D01*
X52131392Y-51655608D01*
X52270371Y-51581321D01*
X52357988Y-51554743D01*
X52421173Y-51535576D01*
X52460351Y-51531717D01*
X52538705Y-51524000D01*
X52617295Y-51524000D01*
X52695649Y-51531717D01*
X52695649Y-51531717D01*
G37*
G36*
X65511352Y-51554743D02*
X65656941Y-51615048D01*
X65787973Y-51702601D01*
X65899399Y-51814027D01*
X65986952Y-51945059D01*
X66047257Y-52090648D01*
X66078000Y-52245205D01*
X66078000Y-52402795D01*
X66047257Y-52557352D01*
X65986952Y-52702941D01*
X65899399Y-52833973D01*
X65787973Y-52945399D01*
X65656941Y-53032952D01*
X65511352Y-53093257D01*
X65356795Y-53124000D01*
X65199205Y-53124000D01*
X65044648Y-53093257D01*
X64899059Y-53032952D01*
X64768027Y-52945399D01*
X64656601Y-52833973D01*
X64569048Y-52702941D01*
X64508743Y-52557352D01*
X64478000Y-52402795D01*
X64478000Y-52245205D01*
X64508743Y-52090648D01*
X64569048Y-51945059D01*
X64656601Y-51814027D01*
X64768027Y-51702601D01*
X64899059Y-51615048D01*
X65044648Y-51554743D01*
X65199205Y-51524000D01*
X65356795Y-51524000D01*
X65511352Y-51554743D01*
X65511352Y-51554743D01*
G37*
G36*
X36802763Y-50658486D02*
X36941072Y-50715775D01*
X37065556Y-50798953D01*
X37171407Y-50904804D01*
X37254585Y-51029288D01*
X37311874Y-51167597D01*
X37341080Y-51314425D01*
X37341080Y-51464135D01*
X37311874Y-51610963D01*
X37254585Y-51749272D01*
X37171407Y-51873756D01*
X37065556Y-51979607D01*
X36941072Y-52062785D01*
X36802763Y-52120074D01*
X36655935Y-52149280D01*
X36506225Y-52149280D01*
X36359397Y-52120074D01*
X36221088Y-52062785D01*
X36096604Y-51979607D01*
X35990753Y-51873756D01*
X35907575Y-51749272D01*
X35850286Y-51610963D01*
X35821080Y-51464135D01*
X35821080Y-51314425D01*
X35850286Y-51167597D01*
X35907575Y-51029288D01*
X35990753Y-50904804D01*
X36096604Y-50798953D01*
X36221088Y-50715775D01*
X36359397Y-50658486D01*
X36506225Y-50629280D01*
X36655935Y-50629280D01*
X36802763Y-50658486D01*
X36802763Y-50658486D01*
G37*
G36*
X31712440Y-52139120D02*
X30192440Y-52139120D01*
X30192440Y-50619120D01*
X31712440Y-50619120D01*
X31712440Y-52139120D01*
X31712440Y-52139120D01*
G37*
G36*
X91595122Y-46252115D02*
X91711041Y-46275173D01*
X92038620Y-46410861D01*
X92053204Y-46420606D01*
X92333436Y-46607851D01*
X92584149Y-46858564D01*
X92584151Y-46858567D01*
X92781139Y-47153380D01*
X92916827Y-47480959D01*
X92935890Y-47576795D01*
X92986000Y-47828714D01*
X92986000Y-48183286D01*
X92951411Y-48357174D01*
X92916827Y-48531041D01*
X92781139Y-48858620D01*
X92631599Y-49082422D01*
X92584149Y-49153436D01*
X92333436Y-49404149D01*
X92333433Y-49404151D01*
X92038620Y-49601139D01*
X91711041Y-49736827D01*
X91595122Y-49759885D01*
X91363286Y-49806000D01*
X91008714Y-49806000D01*
X90776878Y-49759885D01*
X90660959Y-49736827D01*
X90333380Y-49601139D01*
X90038567Y-49404151D01*
X90038564Y-49404149D01*
X89787851Y-49153436D01*
X89740401Y-49082422D01*
X89590861Y-48858620D01*
X89455173Y-48531041D01*
X89420589Y-48357174D01*
X89386000Y-48183286D01*
X89386000Y-47828714D01*
X89436110Y-47576795D01*
X89455173Y-47480959D01*
X89590861Y-47153380D01*
X89787849Y-46858567D01*
X89787851Y-46858564D01*
X90038564Y-46607851D01*
X90318796Y-46420606D01*
X90333380Y-46410861D01*
X90660959Y-46275173D01*
X90776878Y-46252115D01*
X91008714Y-46206000D01*
X91363286Y-46206000D01*
X91595122Y-46252115D01*
X91595122Y-46252115D01*
G37*
G36*
X45075649Y-47721717D02*
X45114827Y-47725576D01*
X45190227Y-47748448D01*
X45265629Y-47771321D01*
X45404608Y-47845608D01*
X45526422Y-47945578D01*
X45626392Y-48067392D01*
X45700679Y-48206371D01*
X45746424Y-48357174D01*
X45761870Y-48514000D01*
X45746424Y-48670826D01*
X45700679Y-48821629D01*
X45626392Y-48960608D01*
X45526422Y-49082422D01*
X45404608Y-49182392D01*
X45265629Y-49256679D01*
X45190227Y-49279552D01*
X45114827Y-49302424D01*
X45075649Y-49306283D01*
X44997295Y-49314000D01*
X44918705Y-49314000D01*
X44840351Y-49306283D01*
X44801173Y-49302424D01*
X44725773Y-49279552D01*
X44650371Y-49256679D01*
X44511392Y-49182392D01*
X44389578Y-49082422D01*
X44289608Y-48960608D01*
X44215321Y-48821629D01*
X44169576Y-48670826D01*
X44154130Y-48514000D01*
X44169576Y-48357174D01*
X44215321Y-48206371D01*
X44289608Y-48067392D01*
X44389578Y-47945578D01*
X44511392Y-47845608D01*
X44650371Y-47771321D01*
X44725773Y-47748448D01*
X44801173Y-47725576D01*
X44840351Y-47721717D01*
X44918705Y-47714000D01*
X44997295Y-47714000D01*
X45075649Y-47721717D01*
X45075649Y-47721717D01*
G37*
G36*
X52695649Y-47721717D02*
X52734827Y-47725576D01*
X52810227Y-47748448D01*
X52885629Y-47771321D01*
X53024608Y-47845608D01*
X53146422Y-47945578D01*
X53246392Y-48067392D01*
X53320679Y-48206371D01*
X53366424Y-48357174D01*
X53381870Y-48514000D01*
X53366424Y-48670826D01*
X53320679Y-48821629D01*
X53246392Y-48960608D01*
X53146422Y-49082422D01*
X53024608Y-49182392D01*
X52885629Y-49256679D01*
X52810227Y-49279552D01*
X52734827Y-49302424D01*
X52695649Y-49306283D01*
X52617295Y-49314000D01*
X52538705Y-49314000D01*
X52460351Y-49306283D01*
X52421173Y-49302424D01*
X52345773Y-49279552D01*
X52270371Y-49256679D01*
X52131392Y-49182392D01*
X52009578Y-49082422D01*
X51909608Y-48960608D01*
X51835321Y-48821629D01*
X51789576Y-48670826D01*
X51774130Y-48514000D01*
X51789576Y-48357174D01*
X51835321Y-48206371D01*
X51909608Y-48067392D01*
X52009578Y-47945578D01*
X52131392Y-47845608D01*
X52270371Y-47771321D01*
X52345773Y-47748448D01*
X52421173Y-47725576D01*
X52460351Y-47721717D01*
X52538705Y-47714000D01*
X52617295Y-47714000D01*
X52695649Y-47721717D01*
X52695649Y-47721717D01*
G37*
G36*
X31093312Y-46798982D02*
X31262961Y-46850445D01*
X31419313Y-46934016D01*
X31556355Y-47046485D01*
X31668824Y-47183527D01*
X31752395Y-47339879D01*
X31803858Y-47509528D01*
X31821234Y-47685960D01*
X31803858Y-47862392D01*
X31752395Y-48032041D01*
X31668824Y-48188393D01*
X31556355Y-48325435D01*
X31419313Y-48437904D01*
X31262961Y-48521475D01*
X31093312Y-48572938D01*
X30961091Y-48585960D01*
X30872669Y-48585960D01*
X30740448Y-48572938D01*
X30570799Y-48521475D01*
X30414447Y-48437904D01*
X30277405Y-48325435D01*
X30164936Y-48188393D01*
X30081365Y-48032041D01*
X30029902Y-47862392D01*
X30012526Y-47685960D01*
X30029902Y-47509528D01*
X30081365Y-47339879D01*
X30164936Y-47183527D01*
X30277405Y-47046485D01*
X30414447Y-46934016D01*
X30570799Y-46850445D01*
X30740448Y-46798982D01*
X30872669Y-46785960D01*
X30961091Y-46785960D01*
X31093312Y-46798982D01*
X31093312Y-46798982D01*
G37*
G36*
X33633312Y-46798982D02*
X33802961Y-46850445D01*
X33959313Y-46934016D01*
X34096355Y-47046485D01*
X34208824Y-47183527D01*
X34292395Y-47339879D01*
X34343858Y-47509528D01*
X34361234Y-47685960D01*
X34343858Y-47862392D01*
X34292395Y-48032041D01*
X34208824Y-48188393D01*
X34096355Y-48325435D01*
X33959313Y-48437904D01*
X33802961Y-48521475D01*
X33633312Y-48572938D01*
X33501091Y-48585960D01*
X33412669Y-48585960D01*
X33280448Y-48572938D01*
X33110799Y-48521475D01*
X32954447Y-48437904D01*
X32817405Y-48325435D01*
X32704936Y-48188393D01*
X32621365Y-48032041D01*
X32569902Y-47862392D01*
X32552526Y-47685960D01*
X32569902Y-47509528D01*
X32621365Y-47339879D01*
X32704936Y-47183527D01*
X32817405Y-47046485D01*
X32954447Y-46934016D01*
X33110799Y-46850445D01*
X33280448Y-46798982D01*
X33412669Y-46785960D01*
X33501091Y-46785960D01*
X33633312Y-46798982D01*
X33633312Y-46798982D01*
G37*
G36*
X29276880Y-48585960D02*
X27476880Y-48585960D01*
X27476880Y-46785960D01*
X29276880Y-46785960D01*
X29276880Y-48585960D01*
X29276880Y-48585960D01*
G37*
G36*
X20807352Y-46728743D02*
X20952941Y-46789048D01*
X21083973Y-46876601D01*
X21195399Y-46988027D01*
X21282952Y-47119059D01*
X21343257Y-47264648D01*
X21374000Y-47419205D01*
X21374000Y-47576795D01*
X21343257Y-47731352D01*
X21282952Y-47876941D01*
X21195399Y-48007973D01*
X21083973Y-48119399D01*
X20952941Y-48206952D01*
X20807352Y-48267257D01*
X20652795Y-48298000D01*
X20495205Y-48298000D01*
X20340648Y-48267257D01*
X20195059Y-48206952D01*
X20064027Y-48119399D01*
X19952601Y-48007973D01*
X19865048Y-47876941D01*
X19804743Y-47731352D01*
X19774000Y-47576795D01*
X19774000Y-47419205D01*
X19804743Y-47264648D01*
X19865048Y-47119059D01*
X19952601Y-46988027D01*
X20064027Y-46876601D01*
X20195059Y-46789048D01*
X20340648Y-46728743D01*
X20495205Y-46698000D01*
X20652795Y-46698000D01*
X20807352Y-46728743D01*
X20807352Y-46728743D01*
G37*
G36*
X58341770Y-45377372D02*
X58457689Y-45400429D01*
X58639678Y-45475811D01*
X58803463Y-45585249D01*
X58942751Y-45724537D01*
X59052189Y-45888322D01*
X59127571Y-46070311D01*
X59166000Y-46263509D01*
X59166000Y-46460491D01*
X59127571Y-46653689D01*
X59052189Y-46835678D01*
X58942751Y-46999463D01*
X58803463Y-47138751D01*
X58639678Y-47248189D01*
X58457689Y-47323571D01*
X58341770Y-47346628D01*
X58264493Y-47362000D01*
X58067507Y-47362000D01*
X57990230Y-47346628D01*
X57874311Y-47323571D01*
X57692322Y-47248189D01*
X57528537Y-47138751D01*
X57389249Y-46999463D01*
X57279811Y-46835678D01*
X57204429Y-46653689D01*
X57166000Y-46460491D01*
X57166000Y-46263509D01*
X57204429Y-46070311D01*
X57279811Y-45888322D01*
X57389249Y-45724537D01*
X57528537Y-45585249D01*
X57692322Y-45475811D01*
X57874311Y-45400429D01*
X57990230Y-45377372D01*
X58067507Y-45362000D01*
X58264493Y-45362000D01*
X58341770Y-45377372D01*
X58341770Y-45377372D01*
G37*
G36*
X52695649Y-45181717D02*
X52734827Y-45185576D01*
X52801411Y-45205774D01*
X52885629Y-45231321D01*
X53024608Y-45305608D01*
X53146422Y-45405578D01*
X53246392Y-45527392D01*
X53320679Y-45666371D01*
X53320679Y-45666372D01*
X53366424Y-45817173D01*
X53373432Y-45888325D01*
X53381870Y-45974000D01*
X53366424Y-46130826D01*
X53320679Y-46281629D01*
X53246392Y-46420608D01*
X53146422Y-46542422D01*
X53024608Y-46642392D01*
X52885629Y-46716679D01*
X52810228Y-46739551D01*
X52734827Y-46762424D01*
X52695649Y-46766283D01*
X52617295Y-46774000D01*
X52538705Y-46774000D01*
X52460351Y-46766283D01*
X52421173Y-46762424D01*
X52345772Y-46739551D01*
X52270371Y-46716679D01*
X52131392Y-46642392D01*
X52009578Y-46542422D01*
X51909608Y-46420608D01*
X51835321Y-46281629D01*
X51789576Y-46130826D01*
X51774130Y-45974000D01*
X51782568Y-45888325D01*
X51789576Y-45817173D01*
X51835321Y-45666372D01*
X51835321Y-45666371D01*
X51909608Y-45527392D01*
X52009578Y-45405578D01*
X52131392Y-45305608D01*
X52270371Y-45231321D01*
X52354589Y-45205774D01*
X52421173Y-45185576D01*
X52460351Y-45181717D01*
X52538705Y-45174000D01*
X52617295Y-45174000D01*
X52695649Y-45181717D01*
X52695649Y-45181717D01*
G37*
G36*
X45075649Y-45181717D02*
X45114827Y-45185576D01*
X45181411Y-45205774D01*
X45265629Y-45231321D01*
X45404608Y-45305608D01*
X45526422Y-45405578D01*
X45626392Y-45527392D01*
X45700679Y-45666371D01*
X45700679Y-45666372D01*
X45746424Y-45817173D01*
X45753432Y-45888325D01*
X45761870Y-45974000D01*
X45746424Y-46130826D01*
X45700679Y-46281629D01*
X45626392Y-46420608D01*
X45526422Y-46542422D01*
X45404608Y-46642392D01*
X45265629Y-46716679D01*
X45190228Y-46739551D01*
X45114827Y-46762424D01*
X45075649Y-46766283D01*
X44997295Y-46774000D01*
X44918705Y-46774000D01*
X44840351Y-46766283D01*
X44801173Y-46762424D01*
X44725772Y-46739551D01*
X44650371Y-46716679D01*
X44511392Y-46642392D01*
X44389578Y-46542422D01*
X44289608Y-46420608D01*
X44215321Y-46281629D01*
X44169576Y-46130826D01*
X44154130Y-45974000D01*
X44162568Y-45888325D01*
X44169576Y-45817173D01*
X44215321Y-45666372D01*
X44215321Y-45666371D01*
X44289608Y-45527392D01*
X44389578Y-45405578D01*
X44511392Y-45305608D01*
X44650371Y-45231321D01*
X44734589Y-45205774D01*
X44801173Y-45185576D01*
X44840351Y-45181717D01*
X44918705Y-45174000D01*
X44997295Y-45174000D01*
X45075649Y-45181717D01*
X45075649Y-45181717D01*
G37*
G36*
X16127196Y-42945958D02*
X16363780Y-43043954D01*
X16576705Y-43186226D01*
X16757774Y-43367295D01*
X16900046Y-43580220D01*
X16998042Y-43816804D01*
X17048000Y-44067960D01*
X17048000Y-44324040D01*
X16998042Y-44575196D01*
X16900046Y-44811780D01*
X16757774Y-45024705D01*
X16576705Y-45205774D01*
X16363780Y-45348046D01*
X16127196Y-45446042D01*
X15876040Y-45496000D01*
X15619960Y-45496000D01*
X15368804Y-45446042D01*
X15132220Y-45348046D01*
X14919295Y-45205774D01*
X14738226Y-45024705D01*
X14595954Y-44811780D01*
X14497958Y-44575196D01*
X14448000Y-44324040D01*
X14448000Y-44067960D01*
X14497958Y-43816804D01*
X14595954Y-43580220D01*
X14738226Y-43367295D01*
X14919295Y-43186226D01*
X15132220Y-43043954D01*
X15368804Y-42945958D01*
X15619960Y-42896000D01*
X15876040Y-42896000D01*
X16127196Y-42945958D01*
X16127196Y-42945958D01*
G37*
G36*
X20691649Y-43403717D02*
X20730827Y-43407576D01*
X20806227Y-43430448D01*
X20881629Y-43453321D01*
X21020608Y-43527608D01*
X21142422Y-43627578D01*
X21242392Y-43749392D01*
X21316679Y-43888371D01*
X21362424Y-44039174D01*
X21377870Y-44196000D01*
X21362424Y-44352826D01*
X21316679Y-44503629D01*
X21242392Y-44642608D01*
X21142422Y-44764422D01*
X21020608Y-44864392D01*
X20881629Y-44938679D01*
X20806228Y-44961551D01*
X20730827Y-44984424D01*
X20691649Y-44988283D01*
X20613295Y-44996000D01*
X20534705Y-44996000D01*
X20456351Y-44988283D01*
X20417173Y-44984424D01*
X20341772Y-44961551D01*
X20266371Y-44938679D01*
X20127392Y-44864392D01*
X20005578Y-44764422D01*
X19905608Y-44642608D01*
X19831321Y-44503629D01*
X19785576Y-44352826D01*
X19770130Y-44196000D01*
X19785576Y-44039174D01*
X19831321Y-43888371D01*
X19905608Y-43749392D01*
X20005578Y-43627578D01*
X20127392Y-43527608D01*
X20266371Y-43453321D01*
X20341773Y-43430448D01*
X20417173Y-43407576D01*
X20456351Y-43403717D01*
X20534705Y-43396000D01*
X20613295Y-43396000D01*
X20691649Y-43403717D01*
X20691649Y-43403717D01*
G37*
G36*
X52695649Y-42641717D02*
X52734827Y-42645576D01*
X52810228Y-42668449D01*
X52885629Y-42691321D01*
X53024608Y-42765608D01*
X53146422Y-42865578D01*
X53246392Y-42987392D01*
X53320679Y-43126371D01*
X53366424Y-43277174D01*
X53381870Y-43434000D01*
X53366424Y-43590826D01*
X53320679Y-43741629D01*
X53246392Y-43880608D01*
X53146422Y-44002422D01*
X53024608Y-44102392D01*
X52885629Y-44176679D01*
X52821935Y-44196000D01*
X52734827Y-44222424D01*
X52695649Y-44226283D01*
X52617295Y-44234000D01*
X52538705Y-44234000D01*
X52460351Y-44226283D01*
X52421173Y-44222424D01*
X52334065Y-44196000D01*
X52270371Y-44176679D01*
X52131392Y-44102392D01*
X52009578Y-44002422D01*
X51909608Y-43880608D01*
X51835321Y-43741629D01*
X51789576Y-43590826D01*
X51774130Y-43434000D01*
X51789576Y-43277174D01*
X51835321Y-43126371D01*
X51909608Y-42987392D01*
X52009578Y-42865578D01*
X52131392Y-42765608D01*
X52270371Y-42691321D01*
X52345772Y-42668449D01*
X52421173Y-42645576D01*
X52460351Y-42641717D01*
X52538705Y-42634000D01*
X52617295Y-42634000D01*
X52695649Y-42641717D01*
X52695649Y-42641717D01*
G37*
G36*
X45075649Y-42641717D02*
X45114827Y-42645576D01*
X45190228Y-42668449D01*
X45265629Y-42691321D01*
X45404608Y-42765608D01*
X45526422Y-42865578D01*
X45626392Y-42987392D01*
X45700679Y-43126371D01*
X45746424Y-43277174D01*
X45761870Y-43434000D01*
X45746424Y-43590826D01*
X45700679Y-43741629D01*
X45626392Y-43880608D01*
X45526422Y-44002422D01*
X45404608Y-44102392D01*
X45265629Y-44176679D01*
X45201935Y-44196000D01*
X45114827Y-44222424D01*
X45075649Y-44226283D01*
X44997295Y-44234000D01*
X44918705Y-44234000D01*
X44840351Y-44226283D01*
X44801173Y-44222424D01*
X44714065Y-44196000D01*
X44650371Y-44176679D01*
X44511392Y-44102392D01*
X44389578Y-44002422D01*
X44289608Y-43880608D01*
X44215321Y-43741629D01*
X44169576Y-43590826D01*
X44154130Y-43434000D01*
X44169576Y-43277174D01*
X44215321Y-43126371D01*
X44289608Y-42987392D01*
X44389578Y-42865578D01*
X44511392Y-42765608D01*
X44650371Y-42691321D01*
X44725772Y-42668449D01*
X44801173Y-42645576D01*
X44840351Y-42641717D01*
X44918705Y-42634000D01*
X44997295Y-42634000D01*
X45075649Y-42641717D01*
X45075649Y-42641717D01*
G37*
G36*
X25616080Y-43025240D02*
X23416080Y-43025240D01*
X23416080Y-40825240D01*
X25616080Y-40825240D01*
X25616080Y-43025240D01*
X25616080Y-43025240D01*
G37*
G36*
X52695649Y-40101717D02*
X52734827Y-40105576D01*
X52810227Y-40128448D01*
X52885629Y-40151321D01*
X53024608Y-40225608D01*
X53146422Y-40325578D01*
X53246392Y-40447392D01*
X53320679Y-40586371D01*
X53366424Y-40737174D01*
X53381870Y-40894000D01*
X53366424Y-41050826D01*
X53320679Y-41201629D01*
X53246392Y-41340608D01*
X53146422Y-41462422D01*
X53024608Y-41562392D01*
X52885629Y-41636679D01*
X52810228Y-41659551D01*
X52734827Y-41682424D01*
X52695649Y-41686283D01*
X52617295Y-41694000D01*
X52538705Y-41694000D01*
X52460351Y-41686283D01*
X52421173Y-41682424D01*
X52345772Y-41659551D01*
X52270371Y-41636679D01*
X52131392Y-41562392D01*
X52009578Y-41462422D01*
X51909608Y-41340608D01*
X51835321Y-41201629D01*
X51789576Y-41050826D01*
X51774130Y-40894000D01*
X51789576Y-40737174D01*
X51835321Y-40586371D01*
X51909608Y-40447392D01*
X52009578Y-40325578D01*
X52131392Y-40225608D01*
X52270371Y-40151321D01*
X52345772Y-40128449D01*
X52421173Y-40105576D01*
X52460351Y-40101717D01*
X52538705Y-40094000D01*
X52617295Y-40094000D01*
X52695649Y-40101717D01*
X52695649Y-40101717D01*
G37*
G36*
X45075649Y-40101717D02*
X45114827Y-40105576D01*
X45190227Y-40128448D01*
X45265629Y-40151321D01*
X45404608Y-40225608D01*
X45526422Y-40325578D01*
X45626392Y-40447392D01*
X45700679Y-40586371D01*
X45746424Y-40737174D01*
X45761870Y-40894000D01*
X45746424Y-41050826D01*
X45700679Y-41201629D01*
X45626392Y-41340608D01*
X45526422Y-41462422D01*
X45404608Y-41562392D01*
X45265629Y-41636679D01*
X45190228Y-41659551D01*
X45114827Y-41682424D01*
X45075649Y-41686283D01*
X44997295Y-41694000D01*
X44918705Y-41694000D01*
X44840351Y-41686283D01*
X44801173Y-41682424D01*
X44725772Y-41659551D01*
X44650371Y-41636679D01*
X44511392Y-41562392D01*
X44389578Y-41462422D01*
X44289608Y-41340608D01*
X44215321Y-41201629D01*
X44169576Y-41050826D01*
X44154130Y-40894000D01*
X44169576Y-40737174D01*
X44215321Y-40586371D01*
X44289608Y-40447392D01*
X44389578Y-40325578D01*
X44511392Y-40225608D01*
X44650371Y-40151321D01*
X44725772Y-40128449D01*
X44801173Y-40105576D01*
X44840351Y-40101717D01*
X44918705Y-40094000D01*
X44997295Y-40094000D01*
X45075649Y-40101717D01*
X45075649Y-40101717D01*
G37*
G36*
X103824840Y-41340840D02*
X100624840Y-41340840D01*
X100624840Y-38140840D01*
X103824840Y-38140840D01*
X103824840Y-41340840D01*
X103824840Y-41340840D01*
G37*
G36*
X97672960Y-41340840D02*
X94472960Y-41340840D01*
X94472960Y-38140840D01*
X97672960Y-38140840D01*
X97672960Y-41340840D01*
X97672960Y-41340840D01*
G37*
G36*
X58341770Y-37877372D02*
X58457689Y-37900429D01*
X58639678Y-37975811D01*
X58803463Y-38085249D01*
X58942751Y-38224537D01*
X59052189Y-38388322D01*
X59127571Y-38570311D01*
X59144501Y-38655426D01*
X59163584Y-38751360D01*
X59166000Y-38763509D01*
X59166000Y-38960491D01*
X59127571Y-39153689D01*
X59052189Y-39335678D01*
X58942751Y-39499463D01*
X58803463Y-39638751D01*
X58639678Y-39748189D01*
X58457689Y-39823571D01*
X58341770Y-39846628D01*
X58264493Y-39862000D01*
X58067507Y-39862000D01*
X57990230Y-39846628D01*
X57874311Y-39823571D01*
X57692322Y-39748189D01*
X57528537Y-39638751D01*
X57389249Y-39499463D01*
X57279811Y-39335678D01*
X57204429Y-39153689D01*
X57166000Y-38960491D01*
X57166000Y-38763509D01*
X57168417Y-38751360D01*
X57187499Y-38655426D01*
X57204429Y-38570311D01*
X57279811Y-38388322D01*
X57389249Y-38224537D01*
X57528537Y-38085249D01*
X57692322Y-37975811D01*
X57874311Y-37900429D01*
X57990230Y-37877372D01*
X58067507Y-37862000D01*
X58264493Y-37862000D01*
X58341770Y-37877372D01*
X58341770Y-37877372D01*
G37*
G36*
X52695649Y-37561717D02*
X52734827Y-37565576D01*
X52810228Y-37588449D01*
X52885629Y-37611321D01*
X53024608Y-37685608D01*
X53146422Y-37785578D01*
X53246392Y-37907392D01*
X53320679Y-38046371D01*
X53342945Y-38119772D01*
X53349336Y-38140840D01*
X53366424Y-38197174D01*
X53381870Y-38354000D01*
X53366424Y-38510826D01*
X53320679Y-38661629D01*
X53246392Y-38800608D01*
X53146422Y-38922422D01*
X53024608Y-39022392D01*
X52885629Y-39096679D01*
X52810228Y-39119551D01*
X52734827Y-39142424D01*
X52695649Y-39146283D01*
X52617295Y-39154000D01*
X52538705Y-39154000D01*
X52460351Y-39146283D01*
X52421173Y-39142424D01*
X52345773Y-39119552D01*
X52270371Y-39096679D01*
X52131392Y-39022392D01*
X52009578Y-38922422D01*
X51909608Y-38800608D01*
X51835321Y-38661629D01*
X51789576Y-38510826D01*
X51774130Y-38354000D01*
X51789576Y-38197174D01*
X51806665Y-38140840D01*
X51813055Y-38119772D01*
X51835321Y-38046371D01*
X51909608Y-37907392D01*
X52009578Y-37785578D01*
X52131392Y-37685608D01*
X52270371Y-37611321D01*
X52345772Y-37588449D01*
X52421173Y-37565576D01*
X52460351Y-37561717D01*
X52538705Y-37554000D01*
X52617295Y-37554000D01*
X52695649Y-37561717D01*
X52695649Y-37561717D01*
G37*
G36*
X45075649Y-37561717D02*
X45114827Y-37565576D01*
X45190228Y-37588449D01*
X45265629Y-37611321D01*
X45404608Y-37685608D01*
X45526422Y-37785578D01*
X45626392Y-37907392D01*
X45700679Y-38046371D01*
X45722945Y-38119772D01*
X45729336Y-38140840D01*
X45746424Y-38197174D01*
X45761870Y-38354000D01*
X45746424Y-38510826D01*
X45700679Y-38661629D01*
X45626392Y-38800608D01*
X45526422Y-38922422D01*
X45404608Y-39022392D01*
X45265629Y-39096679D01*
X45190228Y-39119551D01*
X45114827Y-39142424D01*
X45075649Y-39146283D01*
X44997295Y-39154000D01*
X44918705Y-39154000D01*
X44840351Y-39146283D01*
X44801173Y-39142424D01*
X44725773Y-39119552D01*
X44650371Y-39096679D01*
X44511392Y-39022392D01*
X44389578Y-38922422D01*
X44289608Y-38800608D01*
X44215321Y-38661629D01*
X44169576Y-38510826D01*
X44154130Y-38354000D01*
X44169576Y-38197174D01*
X44186665Y-38140840D01*
X44193055Y-38119772D01*
X44215321Y-38046371D01*
X44289608Y-37907392D01*
X44389578Y-37785578D01*
X44511392Y-37685608D01*
X44650371Y-37611321D01*
X44725772Y-37588449D01*
X44801173Y-37565576D01*
X44840351Y-37561717D01*
X44918705Y-37554000D01*
X44997295Y-37554000D01*
X45075649Y-37561717D01*
X45075649Y-37561717D01*
G37*
G36*
X88408026Y-36438115D02*
X88626412Y-36528573D01*
X88822958Y-36659901D01*
X88990099Y-36827042D01*
X89121427Y-37023588D01*
X89211885Y-37241974D01*
X89258000Y-37473809D01*
X89258000Y-37710191D01*
X89211885Y-37942026D01*
X89121427Y-38160412D01*
X88990099Y-38356958D01*
X88822958Y-38524099D01*
X88626412Y-38655427D01*
X88408026Y-38745885D01*
X88176191Y-38792000D01*
X87939809Y-38792000D01*
X87707974Y-38745885D01*
X87489588Y-38655427D01*
X87293042Y-38524099D01*
X87125901Y-38356958D01*
X86994573Y-38160412D01*
X86904115Y-37942026D01*
X86858000Y-37710191D01*
X86858000Y-37473809D01*
X86904115Y-37241974D01*
X86994573Y-37023588D01*
X87125901Y-36827042D01*
X87293042Y-36659901D01*
X87489588Y-36528573D01*
X87707974Y-36438115D01*
X87939809Y-36392000D01*
X88176191Y-36392000D01*
X88408026Y-36438115D01*
X88408026Y-36438115D01*
G37*
G36*
X84258000Y-38792000D02*
X81858000Y-38792000D01*
X81858000Y-36392000D01*
X84258000Y-36392000D01*
X84258000Y-38792000D01*
X84258000Y-38792000D01*
G37*
G36*
X32911546Y-36397475D02*
X33129932Y-36487933D01*
X33326478Y-36619261D01*
X33493619Y-36786402D01*
X33624947Y-36982948D01*
X33715405Y-37201334D01*
X33761520Y-37433169D01*
X33761520Y-37669551D01*
X33715405Y-37901386D01*
X33624947Y-38119772D01*
X33493619Y-38316318D01*
X33326478Y-38483459D01*
X33129932Y-38614787D01*
X32911546Y-38705245D01*
X32679711Y-38751360D01*
X32443329Y-38751360D01*
X32211494Y-38705245D01*
X31993108Y-38614787D01*
X31796562Y-38483459D01*
X31629421Y-38316318D01*
X31498093Y-38119772D01*
X31407635Y-37901386D01*
X31361520Y-37669551D01*
X31361520Y-37433169D01*
X31407635Y-37201334D01*
X31498093Y-36982948D01*
X31629421Y-36786402D01*
X31796562Y-36619261D01*
X31993108Y-36487933D01*
X32211494Y-36397475D01*
X32443329Y-36351360D01*
X32679711Y-36351360D01*
X32911546Y-36397475D01*
X32911546Y-36397475D01*
G37*
G36*
X38761520Y-38751360D02*
X36361520Y-38751360D01*
X36361520Y-36351360D01*
X38761520Y-36351360D01*
X38761520Y-38751360D01*
X38761520Y-38751360D01*
G37*
G36*
X45075649Y-35021717D02*
X45114827Y-35025576D01*
X45190227Y-35048448D01*
X45265629Y-35071321D01*
X45404608Y-35145608D01*
X45526422Y-35245578D01*
X45626392Y-35367392D01*
X45700679Y-35506371D01*
X45746424Y-35657174D01*
X45761870Y-35814000D01*
X45746424Y-35970826D01*
X45700679Y-36121629D01*
X45626392Y-36260608D01*
X45526422Y-36382422D01*
X45404608Y-36482392D01*
X45265629Y-36556679D01*
X45190228Y-36579551D01*
X45114827Y-36602424D01*
X45075649Y-36606283D01*
X44997295Y-36614000D01*
X44918705Y-36614000D01*
X44840351Y-36606283D01*
X44801173Y-36602424D01*
X44725773Y-36579552D01*
X44650371Y-36556679D01*
X44511392Y-36482392D01*
X44389578Y-36382422D01*
X44289608Y-36260608D01*
X44215321Y-36121629D01*
X44169576Y-35970826D01*
X44154130Y-35814000D01*
X44169576Y-35657174D01*
X44215321Y-35506371D01*
X44289608Y-35367392D01*
X44389578Y-35245578D01*
X44511392Y-35145608D01*
X44650371Y-35071321D01*
X44725772Y-35048449D01*
X44801173Y-35025576D01*
X44840351Y-35021717D01*
X44918705Y-35014000D01*
X44997295Y-35014000D01*
X45075649Y-35021717D01*
X45075649Y-35021717D01*
G37*
G36*
X52695649Y-35021717D02*
X52734827Y-35025576D01*
X52810227Y-35048448D01*
X52885629Y-35071321D01*
X53024608Y-35145608D01*
X53146422Y-35245578D01*
X53246392Y-35367392D01*
X53320679Y-35506371D01*
X53366424Y-35657174D01*
X53381870Y-35814000D01*
X53366424Y-35970826D01*
X53320679Y-36121629D01*
X53246392Y-36260608D01*
X53146422Y-36382422D01*
X53024608Y-36482392D01*
X52885629Y-36556679D01*
X52810228Y-36579551D01*
X52734827Y-36602424D01*
X52695649Y-36606283D01*
X52617295Y-36614000D01*
X52538705Y-36614000D01*
X52460351Y-36606283D01*
X52421173Y-36602424D01*
X52345773Y-36579552D01*
X52270371Y-36556679D01*
X52131392Y-36482392D01*
X52009578Y-36382422D01*
X51909608Y-36260608D01*
X51835321Y-36121629D01*
X51789576Y-35970826D01*
X51774130Y-35814000D01*
X51789576Y-35657174D01*
X51835321Y-35506371D01*
X51909608Y-35367392D01*
X52009578Y-35245578D01*
X52131392Y-35145608D01*
X52270371Y-35071321D01*
X52345772Y-35048449D01*
X52421173Y-35025576D01*
X52460351Y-35021717D01*
X52538705Y-35014000D01*
X52617295Y-35014000D01*
X52695649Y-35021717D01*
X52695649Y-35021717D01*
G37*
G36*
X45758000Y-34074000D02*
X44158000Y-34074000D01*
X44158000Y-32474000D01*
X45758000Y-32474000D01*
X45758000Y-34074000D01*
X45758000Y-34074000D01*
G37*
G36*
X70983649Y-32481717D02*
X71022827Y-32485576D01*
X71086012Y-32504743D01*
X71173629Y-32531321D01*
X71312608Y-32605608D01*
X71434422Y-32705578D01*
X71534392Y-32827392D01*
X71608679Y-32966371D01*
X71654424Y-33117174D01*
X71669870Y-33274000D01*
X71654424Y-33430826D01*
X71608679Y-33581629D01*
X71534392Y-33720608D01*
X71434422Y-33842422D01*
X71312608Y-33942392D01*
X71173629Y-34016679D01*
X71098228Y-34039551D01*
X71022827Y-34062424D01*
X70983649Y-34066283D01*
X70905295Y-34074000D01*
X70826705Y-34074000D01*
X70748351Y-34066283D01*
X70709173Y-34062424D01*
X70633772Y-34039551D01*
X70558371Y-34016679D01*
X70419392Y-33942392D01*
X70297578Y-33842422D01*
X70197608Y-33720608D01*
X70123321Y-33581629D01*
X70077576Y-33430826D01*
X70062130Y-33274000D01*
X70077576Y-33117174D01*
X70123321Y-32966371D01*
X70197608Y-32827392D01*
X70297578Y-32705578D01*
X70419392Y-32605608D01*
X70558371Y-32531321D01*
X70645988Y-32504743D01*
X70709173Y-32485576D01*
X70748351Y-32481717D01*
X70826705Y-32474000D01*
X70905295Y-32474000D01*
X70983649Y-32481717D01*
X70983649Y-32481717D01*
G37*
G36*
X58399352Y-32504743D02*
X58544941Y-32565048D01*
X58675973Y-32652601D01*
X58787399Y-32764027D01*
X58874952Y-32895059D01*
X58935257Y-33040648D01*
X58966000Y-33195205D01*
X58966000Y-33352795D01*
X58935257Y-33507352D01*
X58874952Y-33652941D01*
X58787399Y-33783973D01*
X58675973Y-33895399D01*
X58544941Y-33982952D01*
X58399352Y-34043257D01*
X58244795Y-34074000D01*
X58087205Y-34074000D01*
X57932648Y-34043257D01*
X57787059Y-33982952D01*
X57656027Y-33895399D01*
X57544601Y-33783973D01*
X57457048Y-33652941D01*
X57396743Y-33507352D01*
X57366000Y-33352795D01*
X57366000Y-33195205D01*
X57396743Y-33040648D01*
X57457048Y-32895059D01*
X57544601Y-32764027D01*
X57656027Y-32652601D01*
X57787059Y-32565048D01*
X57932648Y-32504743D01*
X58087205Y-32474000D01*
X58244795Y-32474000D01*
X58399352Y-32504743D01*
X58399352Y-32504743D01*
G37*
G36*
X52695649Y-32481717D02*
X52734827Y-32485576D01*
X52798012Y-32504743D01*
X52885629Y-32531321D01*
X53024608Y-32605608D01*
X53146422Y-32705578D01*
X53246392Y-32827392D01*
X53320679Y-32966371D01*
X53366424Y-33117174D01*
X53381870Y-33274000D01*
X53366424Y-33430826D01*
X53320679Y-33581629D01*
X53246392Y-33720608D01*
X53146422Y-33842422D01*
X53024608Y-33942392D01*
X52885629Y-34016679D01*
X52810228Y-34039551D01*
X52734827Y-34062424D01*
X52695649Y-34066283D01*
X52617295Y-34074000D01*
X52538705Y-34074000D01*
X52460351Y-34066283D01*
X52421173Y-34062424D01*
X52345772Y-34039551D01*
X52270371Y-34016679D01*
X52131392Y-33942392D01*
X52009578Y-33842422D01*
X51909608Y-33720608D01*
X51835321Y-33581629D01*
X51789576Y-33430826D01*
X51774130Y-33274000D01*
X51789576Y-33117174D01*
X51835321Y-32966371D01*
X51909608Y-32827392D01*
X52009578Y-32705578D01*
X52131392Y-32605608D01*
X52270371Y-32531321D01*
X52357988Y-32504743D01*
X52421173Y-32485576D01*
X52460351Y-32481717D01*
X52538705Y-32474000D01*
X52617295Y-32474000D01*
X52695649Y-32481717D01*
X52695649Y-32481717D01*
G37*
G36*
X24731719Y-30681156D02*
X24939066Y-30744055D01*
X24939068Y-30744056D01*
X25130164Y-30846198D01*
X25297661Y-30983659D01*
X25435122Y-31151156D01*
X25537264Y-31342252D01*
X25537265Y-31342254D01*
X25600164Y-31549601D01*
X25621402Y-31765240D01*
X25600164Y-31980879D01*
X25558750Y-32117401D01*
X25537264Y-32188228D01*
X25435122Y-32379324D01*
X25297661Y-32546821D01*
X25130164Y-32684282D01*
X24939068Y-32786424D01*
X24939066Y-32786425D01*
X24731719Y-32849324D01*
X24570118Y-32865240D01*
X24462042Y-32865240D01*
X24300441Y-32849324D01*
X24093094Y-32786425D01*
X24093092Y-32786424D01*
X23901996Y-32684282D01*
X23734499Y-32546821D01*
X23597038Y-32379324D01*
X23494896Y-32188228D01*
X23473411Y-32117401D01*
X23431996Y-31980879D01*
X23410758Y-31765240D01*
X23431996Y-31549601D01*
X23494895Y-31342254D01*
X23494896Y-31342252D01*
X23597038Y-31151156D01*
X23734499Y-30983659D01*
X23901996Y-30846198D01*
X24093092Y-30744056D01*
X24093094Y-30744055D01*
X24300441Y-30681156D01*
X24462042Y-30665240D01*
X24570118Y-30665240D01*
X24731719Y-30681156D01*
X24731719Y-30681156D01*
G37*
G36*
X20807352Y-30726743D02*
X20952941Y-30787048D01*
X21083973Y-30874601D01*
X21195399Y-30986027D01*
X21282952Y-31117059D01*
X21343257Y-31262648D01*
X21374000Y-31417205D01*
X21374000Y-31574795D01*
X21343257Y-31729352D01*
X21282952Y-31874941D01*
X21195399Y-32005973D01*
X21083973Y-32117399D01*
X20952941Y-32204952D01*
X20807352Y-32265257D01*
X20652795Y-32296000D01*
X20495205Y-32296000D01*
X20340648Y-32265257D01*
X20195059Y-32204952D01*
X20064027Y-32117399D01*
X19952601Y-32005973D01*
X19865048Y-31874941D01*
X19804743Y-31729352D01*
X19774000Y-31574795D01*
X19774000Y-31417205D01*
X19804743Y-31262648D01*
X19865048Y-31117059D01*
X19952601Y-30986027D01*
X20064027Y-30874601D01*
X20195059Y-30787048D01*
X20340648Y-30726743D01*
X20495205Y-30696000D01*
X20652795Y-30696000D01*
X20807352Y-30726743D01*
X20807352Y-30726743D01*
G37*
G36*
X16127196Y-28721958D02*
X16363780Y-28819954D01*
X16576705Y-28962226D01*
X16757774Y-29143295D01*
X16900046Y-29356220D01*
X16998042Y-29592804D01*
X17048000Y-29843960D01*
X17048000Y-30100040D01*
X16998042Y-30351196D01*
X16900046Y-30587780D01*
X16757774Y-30800705D01*
X16576705Y-30981774D01*
X16363780Y-31124046D01*
X16127196Y-31222042D01*
X15876040Y-31272000D01*
X15619960Y-31272000D01*
X15368804Y-31222042D01*
X15132220Y-31124046D01*
X14919295Y-30981774D01*
X14738226Y-30800705D01*
X14595954Y-30587780D01*
X14497958Y-30351196D01*
X14448000Y-30100040D01*
X14448000Y-29843960D01*
X14497958Y-29592804D01*
X14595954Y-29356220D01*
X14738226Y-29143295D01*
X14919295Y-28962226D01*
X15132220Y-28819954D01*
X15368804Y-28721958D01*
X15619960Y-28672000D01*
X15876040Y-28672000D01*
X16127196Y-28721958D01*
X16127196Y-28721958D01*
G37*
G36*
X58381639Y-27617916D02*
X58588986Y-27680815D01*
X58588988Y-27680816D01*
X58780084Y-27782958D01*
X58947581Y-27920419D01*
X59085042Y-28087916D01*
X59158424Y-28225206D01*
X59187185Y-28279014D01*
X59250084Y-28486361D01*
X59271322Y-28702000D01*
X59250084Y-28917639D01*
X59215740Y-29030855D01*
X59187184Y-29124988D01*
X59085042Y-29316084D01*
X58947581Y-29483581D01*
X58780084Y-29621042D01*
X58602428Y-29716000D01*
X58588986Y-29723185D01*
X58381639Y-29786084D01*
X58220038Y-29802000D01*
X58111962Y-29802000D01*
X57950361Y-29786084D01*
X57743014Y-29723185D01*
X57729572Y-29716000D01*
X57551916Y-29621042D01*
X57384419Y-29483581D01*
X57246958Y-29316084D01*
X57144816Y-29124988D01*
X57116261Y-29030855D01*
X57081916Y-28917639D01*
X57060678Y-28702000D01*
X57081916Y-28486361D01*
X57144815Y-28279014D01*
X57173576Y-28225206D01*
X57246958Y-28087916D01*
X57384419Y-27920419D01*
X57551916Y-27782958D01*
X57743012Y-27680816D01*
X57743014Y-27680815D01*
X57950361Y-27617916D01*
X58111962Y-27602000D01*
X58220038Y-27602000D01*
X58381639Y-27617916D01*
X58381639Y-27617916D01*
G37*
G36*
X69426000Y-29802000D02*
X67226000Y-29802000D01*
X67226000Y-27602000D01*
X69426000Y-27602000D01*
X69426000Y-29802000D01*
X69426000Y-29802000D01*
G37*
G36*
X76960000Y-29716000D02*
X75440000Y-29716000D01*
X75440000Y-28196000D01*
X76960000Y-28196000D01*
X76960000Y-29716000D01*
X76960000Y-29716000D01*
G37*
G36*
X82771683Y-28225206D02*
X82909992Y-28282495D01*
X83034476Y-28365673D01*
X83140327Y-28471524D01*
X83140329Y-28471527D01*
X83140330Y-28471528D01*
X83223503Y-28596005D01*
X83223505Y-28596008D01*
X83280794Y-28734317D01*
X83310000Y-28881145D01*
X83310000Y-29030855D01*
X83280794Y-29177683D01*
X83223505Y-29315992D01*
X83140327Y-29440476D01*
X83034476Y-29546327D01*
X82909992Y-29629505D01*
X82771683Y-29686794D01*
X82624855Y-29716000D01*
X82475145Y-29716000D01*
X82328317Y-29686794D01*
X82190008Y-29629505D01*
X82065524Y-29546327D01*
X81959673Y-29440476D01*
X81876495Y-29315992D01*
X81819206Y-29177683D01*
X81790000Y-29030855D01*
X81790000Y-28881145D01*
X81819206Y-28734317D01*
X81876495Y-28596008D01*
X81876497Y-28596005D01*
X81959670Y-28471528D01*
X81959671Y-28471527D01*
X81959673Y-28471524D01*
X82065524Y-28365673D01*
X82190008Y-28282495D01*
X82328317Y-28225206D01*
X82475145Y-28196000D01*
X82624855Y-28196000D01*
X82771683Y-28225206D01*
X82771683Y-28225206D01*
G37*
G36*
X88359683Y-28225206D02*
X88497992Y-28282495D01*
X88622476Y-28365673D01*
X88728327Y-28471524D01*
X88728329Y-28471527D01*
X88728330Y-28471528D01*
X88811503Y-28596005D01*
X88811505Y-28596008D01*
X88868794Y-28734317D01*
X88898000Y-28881145D01*
X88898000Y-29030855D01*
X88868794Y-29177683D01*
X88811505Y-29315992D01*
X88728327Y-29440476D01*
X88622476Y-29546327D01*
X88497992Y-29629505D01*
X88359683Y-29686794D01*
X88212855Y-29716000D01*
X88063145Y-29716000D01*
X87916317Y-29686794D01*
X87778008Y-29629505D01*
X87653524Y-29546327D01*
X87547673Y-29440476D01*
X87464495Y-29315992D01*
X87407206Y-29177683D01*
X87378000Y-29030855D01*
X87378000Y-28881145D01*
X87407206Y-28734317D01*
X87464495Y-28596008D01*
X87464497Y-28596005D01*
X87547670Y-28471528D01*
X87547671Y-28471527D01*
X87547673Y-28471524D01*
X87653524Y-28365673D01*
X87778008Y-28282495D01*
X87916317Y-28225206D01*
X88063145Y-28196000D01*
X88212855Y-28196000D01*
X88359683Y-28225206D01*
X88359683Y-28225206D01*
G37*
G36*
X23778950Y-24569717D02*
X23935655Y-24585151D01*
X24103281Y-24636000D01*
X24237257Y-24676641D01*
X24385828Y-24756054D01*
X24515213Y-24825212D01*
X24515215Y-24825213D01*
X24515214Y-24825213D01*
X24758845Y-25025155D01*
X24958787Y-25268786D01*
X25107359Y-25546743D01*
X25107359Y-25546744D01*
X25198849Y-25848345D01*
X25229741Y-26162000D01*
X25198849Y-26475655D01*
X25194238Y-26490855D01*
X25107359Y-26777257D01*
X25041499Y-26900472D01*
X24958788Y-27055213D01*
X24758845Y-27298845D01*
X24515213Y-27498788D01*
X24385828Y-27567946D01*
X24237257Y-27647359D01*
X24136722Y-27677856D01*
X23935655Y-27738849D01*
X23778950Y-27754283D01*
X23700598Y-27762000D01*
X23543402Y-27762000D01*
X23465050Y-27754283D01*
X23308345Y-27738849D01*
X23107278Y-27677856D01*
X23006743Y-27647359D01*
X22858172Y-27567946D01*
X22728787Y-27498788D01*
X22485155Y-27298845D01*
X22285212Y-27055213D01*
X22202501Y-26900472D01*
X22136641Y-26777257D01*
X22049762Y-26490855D01*
X22045151Y-26475655D01*
X22014259Y-26162000D01*
X22045151Y-25848345D01*
X22136641Y-25546744D01*
X22136641Y-25546743D01*
X22285213Y-25268786D01*
X22485155Y-25025155D01*
X22728786Y-24825213D01*
X22728785Y-24825213D01*
X22728787Y-24825212D01*
X22858172Y-24756054D01*
X23006743Y-24676641D01*
X23140719Y-24636000D01*
X23308345Y-24585151D01*
X23465050Y-24569717D01*
X23543402Y-24562000D01*
X23700598Y-24562000D01*
X23778950Y-24569717D01*
X23778950Y-24569717D01*
G37*
G36*
X40462000Y-27762000D02*
X37262000Y-27762000D01*
X37262000Y-24562000D01*
X40462000Y-24562000D01*
X40462000Y-27762000D01*
X40462000Y-27762000D01*
G37*
G36*
X88359683Y-25685206D02*
X88497992Y-25742495D01*
X88622476Y-25825673D01*
X88728327Y-25931524D01*
X88811505Y-26056008D01*
X88868794Y-26194317D01*
X88898000Y-26341145D01*
X88898000Y-26490855D01*
X88868794Y-26637683D01*
X88811505Y-26775992D01*
X88728327Y-26900476D01*
X88622476Y-27006327D01*
X88622473Y-27006329D01*
X88622472Y-27006330D01*
X88549312Y-27055214D01*
X88497992Y-27089505D01*
X88359683Y-27146794D01*
X88212855Y-27176000D01*
X88063145Y-27176000D01*
X87916317Y-27146794D01*
X87778008Y-27089505D01*
X87726688Y-27055214D01*
X87653528Y-27006330D01*
X87653527Y-27006329D01*
X87653524Y-27006327D01*
X87547673Y-26900476D01*
X87464495Y-26775992D01*
X87407206Y-26637683D01*
X87378000Y-26490855D01*
X87378000Y-26341145D01*
X87407206Y-26194317D01*
X87464495Y-26056008D01*
X87547673Y-25931524D01*
X87653524Y-25825673D01*
X87778008Y-25742495D01*
X87916317Y-25685206D01*
X88063145Y-25656000D01*
X88212855Y-25656000D01*
X88359683Y-25685206D01*
X88359683Y-25685206D01*
G37*
G36*
X82771683Y-25685206D02*
X82909992Y-25742495D01*
X83034476Y-25825673D01*
X83140327Y-25931524D01*
X83223505Y-26056008D01*
X83280794Y-26194317D01*
X83310000Y-26341145D01*
X83310000Y-26490855D01*
X83280794Y-26637683D01*
X83223505Y-26775992D01*
X83140327Y-26900476D01*
X83034476Y-27006327D01*
X83034473Y-27006329D01*
X83034472Y-27006330D01*
X82961312Y-27055214D01*
X82909992Y-27089505D01*
X82771683Y-27146794D01*
X82624855Y-27176000D01*
X82475145Y-27176000D01*
X82328317Y-27146794D01*
X82190008Y-27089505D01*
X82138688Y-27055214D01*
X82065528Y-27006330D01*
X82065527Y-27006329D01*
X82065524Y-27006327D01*
X81959673Y-26900476D01*
X81876495Y-26775992D01*
X81819206Y-26637683D01*
X81790000Y-26490855D01*
X81790000Y-26341145D01*
X81819206Y-26194317D01*
X81876495Y-26056008D01*
X81959673Y-25931524D01*
X82065524Y-25825673D01*
X82190008Y-25742495D01*
X82328317Y-25685206D01*
X82475145Y-25656000D01*
X82624855Y-25656000D01*
X82771683Y-25685206D01*
X82771683Y-25685206D01*
G37*
G36*
X76421683Y-25685206D02*
X76559992Y-25742495D01*
X76684476Y-25825673D01*
X76790327Y-25931524D01*
X76873505Y-26056008D01*
X76930794Y-26194317D01*
X76960000Y-26341145D01*
X76960000Y-26490855D01*
X76930794Y-26637683D01*
X76873505Y-26775992D01*
X76790327Y-26900476D01*
X76684476Y-27006327D01*
X76684473Y-27006329D01*
X76684472Y-27006330D01*
X76611312Y-27055214D01*
X76559992Y-27089505D01*
X76421683Y-27146794D01*
X76274855Y-27176000D01*
X76125145Y-27176000D01*
X75978317Y-27146794D01*
X75840008Y-27089505D01*
X75788688Y-27055214D01*
X75715528Y-27006330D01*
X75715527Y-27006329D01*
X75715524Y-27006327D01*
X75609673Y-26900476D01*
X75526495Y-26775992D01*
X75469206Y-26637683D01*
X75440000Y-26490855D01*
X75440000Y-26341145D01*
X75469206Y-26194317D01*
X75526495Y-26056008D01*
X75609673Y-25931524D01*
X75715524Y-25825673D01*
X75840008Y-25742495D01*
X75978317Y-25685206D01*
X76125145Y-25656000D01*
X76274855Y-25656000D01*
X76421683Y-25685206D01*
X76421683Y-25685206D01*
G37*
G36*
X102381790Y-22908557D02*
X102538495Y-22923991D01*
X102739419Y-22984941D01*
X102840097Y-23015481D01*
X102909556Y-23052608D01*
X103118053Y-23164052D01*
X103361685Y-23363995D01*
X103561628Y-23607627D01*
X103586584Y-23654317D01*
X103710199Y-23885583D01*
X103710199Y-23885584D01*
X103801689Y-24187185D01*
X103832581Y-24500840D01*
X103801689Y-24814495D01*
X103740696Y-25015562D01*
X103710199Y-25116097D01*
X103630786Y-25264668D01*
X103561628Y-25394053D01*
X103361685Y-25637685D01*
X103118053Y-25837628D01*
X102988668Y-25906786D01*
X102840097Y-25986199D01*
X102739562Y-26016696D01*
X102538495Y-26077689D01*
X102381790Y-26093123D01*
X102303438Y-26100840D01*
X102146242Y-26100840D01*
X102067890Y-26093123D01*
X101911185Y-26077689D01*
X101710118Y-26016696D01*
X101609583Y-25986199D01*
X101461012Y-25906786D01*
X101331627Y-25837628D01*
X101087995Y-25637685D01*
X100888052Y-25394053D01*
X100818894Y-25264668D01*
X100739481Y-25116097D01*
X100708984Y-25015562D01*
X100647991Y-24814495D01*
X100617099Y-24500840D01*
X100647991Y-24187185D01*
X100739481Y-23885584D01*
X100739481Y-23885583D01*
X100863096Y-23654317D01*
X100888052Y-23607627D01*
X101087995Y-23363995D01*
X101331627Y-23164052D01*
X101540124Y-23052608D01*
X101609583Y-23015481D01*
X101710261Y-22984941D01*
X101911185Y-22923991D01*
X102067890Y-22908557D01*
X102146242Y-22900840D01*
X102303438Y-22900840D01*
X102381790Y-22908557D01*
X102381790Y-22908557D01*
G37*
G36*
X96229910Y-22908557D02*
X96386615Y-22923991D01*
X96587539Y-22984941D01*
X96688217Y-23015481D01*
X96757676Y-23052608D01*
X96966173Y-23164052D01*
X97209805Y-23363995D01*
X97409748Y-23607627D01*
X97434704Y-23654317D01*
X97558319Y-23885583D01*
X97558319Y-23885584D01*
X97649809Y-24187185D01*
X97680701Y-24500840D01*
X97649809Y-24814495D01*
X97588816Y-25015562D01*
X97558319Y-25116097D01*
X97478906Y-25264668D01*
X97409748Y-25394053D01*
X97209805Y-25637685D01*
X96966173Y-25837628D01*
X96836788Y-25906786D01*
X96688217Y-25986199D01*
X96587682Y-26016696D01*
X96386615Y-26077689D01*
X96229910Y-26093123D01*
X96151558Y-26100840D01*
X95994362Y-26100840D01*
X95916010Y-26093123D01*
X95759305Y-26077689D01*
X95558238Y-26016696D01*
X95457703Y-25986199D01*
X95309132Y-25906786D01*
X95179747Y-25837628D01*
X94936115Y-25637685D01*
X94736172Y-25394053D01*
X94667014Y-25264668D01*
X94587601Y-25116097D01*
X94557104Y-25015562D01*
X94496111Y-24814495D01*
X94465219Y-24500840D01*
X94496111Y-24187185D01*
X94587601Y-23885584D01*
X94587601Y-23885583D01*
X94711216Y-23654317D01*
X94736172Y-23607627D01*
X94936115Y-23363995D01*
X95179747Y-23164052D01*
X95388244Y-23052608D01*
X95457703Y-23015481D01*
X95558381Y-22984941D01*
X95759305Y-22923991D01*
X95916010Y-22908557D01*
X95994362Y-22900840D01*
X96151558Y-22900840D01*
X96229910Y-22908557D01*
X96229910Y-22908557D01*
G37*
G36*
X88898000Y-24636000D02*
X87378000Y-24636000D01*
X87378000Y-23116000D01*
X88898000Y-23116000D01*
X88898000Y-24636000D01*
X88898000Y-24636000D01*
G37*
G36*
X83310000Y-24636000D02*
X81790000Y-24636000D01*
X81790000Y-23116000D01*
X83310000Y-23116000D01*
X83310000Y-24636000D01*
X83310000Y-24636000D01*
G37*
G36*
X76421683Y-23145206D02*
X76559992Y-23202495D01*
X76559995Y-23202497D01*
X76682124Y-23284101D01*
X76684476Y-23285673D01*
X76790327Y-23391524D01*
X76873505Y-23516008D01*
X76930794Y-23654317D01*
X76960000Y-23801145D01*
X76960000Y-23950855D01*
X76930794Y-24097683D01*
X76873505Y-24235992D01*
X76790327Y-24360476D01*
X76684476Y-24466327D01*
X76559992Y-24549505D01*
X76421683Y-24606794D01*
X76274855Y-24636000D01*
X76125145Y-24636000D01*
X75978317Y-24606794D01*
X75840008Y-24549505D01*
X75715524Y-24466327D01*
X75609673Y-24360476D01*
X75526495Y-24235992D01*
X75469206Y-24097683D01*
X75440000Y-23950855D01*
X75440000Y-23801145D01*
X75469206Y-23654317D01*
X75526495Y-23516008D01*
X75609673Y-23391524D01*
X75715524Y-23285673D01*
X75717877Y-23284101D01*
X75840005Y-23202497D01*
X75840008Y-23202495D01*
X75978317Y-23145206D01*
X76125145Y-23116000D01*
X76274855Y-23116000D01*
X76421683Y-23145206D01*
X76421683Y-23145206D01*
G37*
G36*
X48952000Y-23552000D02*
X46552000Y-23552000D01*
X46552000Y-21152000D01*
X48952000Y-21152000D01*
X48952000Y-23552000D01*
X48952000Y-23552000D01*
G37*
G36*
X53102026Y-21198115D02*
X53320412Y-21288573D01*
X53516958Y-21419901D01*
X53684099Y-21587042D01*
X53815427Y-21783588D01*
X53905885Y-22001974D01*
X53952000Y-22233809D01*
X53952000Y-22470191D01*
X53905885Y-22702026D01*
X53815427Y-22920412D01*
X53684099Y-23116958D01*
X53516958Y-23284099D01*
X53320412Y-23415427D01*
X53102026Y-23505885D01*
X52870191Y-23552000D01*
X52633809Y-23552000D01*
X52401974Y-23505885D01*
X52183588Y-23415427D01*
X51987042Y-23284099D01*
X51819901Y-23116958D01*
X51688573Y-22920412D01*
X51598115Y-22702026D01*
X51552000Y-22470191D01*
X51552000Y-22233809D01*
X51598115Y-22001974D01*
X51688573Y-21783588D01*
X51819901Y-21587042D01*
X51987042Y-21419901D01*
X52183588Y-21288573D01*
X52401974Y-21198115D01*
X52633809Y-21152000D01*
X52870191Y-21152000D01*
X53102026Y-21198115D01*
X53102026Y-21198115D01*
G37*
G36*
X71237649Y-21813717D02*
X71276827Y-21817576D01*
X71340012Y-21836743D01*
X71427629Y-21863321D01*
X71566608Y-21937608D01*
X71688422Y-22037578D01*
X71788392Y-22159392D01*
X71862679Y-22298371D01*
X71908424Y-22449174D01*
X71923870Y-22606000D01*
X71908424Y-22762826D01*
X71862679Y-22913629D01*
X71788392Y-23052608D01*
X71688422Y-23174422D01*
X71566608Y-23274392D01*
X71427629Y-23348679D01*
X71377138Y-23363995D01*
X71276827Y-23394424D01*
X71237649Y-23398283D01*
X71159295Y-23406000D01*
X71080705Y-23406000D01*
X71002351Y-23398283D01*
X70963173Y-23394424D01*
X70862862Y-23363995D01*
X70812371Y-23348679D01*
X70673392Y-23274392D01*
X70551578Y-23174422D01*
X70451608Y-23052608D01*
X70377321Y-22913629D01*
X70331576Y-22762826D01*
X70316130Y-22606000D01*
X70331576Y-22449174D01*
X70377321Y-22298371D01*
X70451608Y-22159392D01*
X70551578Y-22037578D01*
X70673392Y-21937608D01*
X70812371Y-21863321D01*
X70899988Y-21836743D01*
X70963173Y-21817576D01*
X71002351Y-21813717D01*
X71080705Y-21806000D01*
X71159295Y-21806000D01*
X71237649Y-21813717D01*
X71237649Y-21813717D01*
G37*
G36*
X58653352Y-21836743D02*
X58798941Y-21897048D01*
X58929973Y-21984601D01*
X59041399Y-22096027D01*
X59128952Y-22227059D01*
X59189257Y-22372648D01*
X59220000Y-22527205D01*
X59220000Y-22684795D01*
X59189257Y-22839352D01*
X59128952Y-22984941D01*
X59041399Y-23115973D01*
X58929973Y-23227399D01*
X58798941Y-23314952D01*
X58653352Y-23375257D01*
X58498795Y-23406000D01*
X58341205Y-23406000D01*
X58186648Y-23375257D01*
X58041059Y-23314952D01*
X57910027Y-23227399D01*
X57798601Y-23115973D01*
X57711048Y-22984941D01*
X57650743Y-22839352D01*
X57620000Y-22684795D01*
X57620000Y-22527205D01*
X57650743Y-22372648D01*
X57711048Y-22227059D01*
X57798601Y-22096027D01*
X57910027Y-21984601D01*
X58041059Y-21897048D01*
X58186648Y-21836743D01*
X58341205Y-21806000D01*
X58498795Y-21806000D01*
X58653352Y-21836743D01*
X58653352Y-21836743D01*
G37*
G36*
X83991635Y-16961714D02*
X84069130Y-16985222D01*
X84151795Y-17010298D01*
X84299390Y-17089189D01*
X84428765Y-17195365D01*
X84534942Y-17324741D01*
X84613832Y-17472334D01*
X84618584Y-17488000D01*
X84658507Y-17619607D01*
X84662416Y-17632495D01*
X84674710Y-17757318D01*
X84674710Y-19641642D01*
X84662416Y-19766465D01*
X84613832Y-19926626D01*
X84534942Y-20074219D01*
X84428765Y-20203595D01*
X84299389Y-20309772D01*
X84151796Y-20388662D01*
X84085656Y-20408725D01*
X83991636Y-20437246D01*
X83825080Y-20453650D01*
X83658525Y-20437246D01*
X83564505Y-20408725D01*
X83498365Y-20388662D01*
X83350772Y-20309772D01*
X83221396Y-20203595D01*
X83115219Y-20074219D01*
X83036329Y-19926626D01*
X82987745Y-19766465D01*
X82975451Y-19641642D01*
X82975450Y-17757319D01*
X82987744Y-17632496D01*
X82987745Y-17632494D01*
X83036327Y-17472339D01*
X83036328Y-17472335D01*
X83115219Y-17324740D01*
X83221395Y-17195365D01*
X83350771Y-17089188D01*
X83498364Y-17010298D01*
X83581029Y-16985222D01*
X83658524Y-16961714D01*
X83825080Y-16945310D01*
X83991635Y-16961714D01*
X83991635Y-16961714D01*
G37*
G36*
X86531635Y-16961714D02*
X86609130Y-16985222D01*
X86691795Y-17010298D01*
X86839390Y-17089189D01*
X86968765Y-17195365D01*
X87074942Y-17324741D01*
X87153832Y-17472334D01*
X87158584Y-17488000D01*
X87198507Y-17619607D01*
X87202416Y-17632495D01*
X87214710Y-17757318D01*
X87214710Y-19641642D01*
X87202416Y-19766465D01*
X87153832Y-19926626D01*
X87074942Y-20074219D01*
X86968765Y-20203595D01*
X86839389Y-20309772D01*
X86691796Y-20388662D01*
X86625656Y-20408725D01*
X86531636Y-20437246D01*
X86365080Y-20453650D01*
X86198525Y-20437246D01*
X86104505Y-20408725D01*
X86038365Y-20388662D01*
X85890772Y-20309772D01*
X85761396Y-20203595D01*
X85655219Y-20074219D01*
X85576329Y-19926626D01*
X85527745Y-19766465D01*
X85515451Y-19641642D01*
X85515450Y-17757319D01*
X85527744Y-17632496D01*
X85527745Y-17632494D01*
X85576327Y-17472339D01*
X85576328Y-17472335D01*
X85655219Y-17324740D01*
X85761395Y-17195365D01*
X85890771Y-17089188D01*
X86038364Y-17010298D01*
X86121029Y-16985222D01*
X86198524Y-16961714D01*
X86365080Y-16945310D01*
X86531635Y-16961714D01*
X86531635Y-16961714D01*
G37*
G36*
X89071635Y-16961714D02*
X89149130Y-16985222D01*
X89231795Y-17010298D01*
X89379390Y-17089189D01*
X89508765Y-17195365D01*
X89614942Y-17324741D01*
X89693832Y-17472334D01*
X89698584Y-17488000D01*
X89738507Y-17619607D01*
X89742416Y-17632495D01*
X89754710Y-17757318D01*
X89754710Y-19641642D01*
X89742416Y-19766465D01*
X89693832Y-19926626D01*
X89614942Y-20074219D01*
X89508765Y-20203595D01*
X89379389Y-20309772D01*
X89231796Y-20388662D01*
X89165656Y-20408725D01*
X89071636Y-20437246D01*
X88905080Y-20453650D01*
X88738525Y-20437246D01*
X88644505Y-20408725D01*
X88578365Y-20388662D01*
X88430772Y-20309772D01*
X88301396Y-20203595D01*
X88195219Y-20074219D01*
X88116329Y-19926626D01*
X88067745Y-19766465D01*
X88055451Y-19641642D01*
X88055450Y-17757319D01*
X88067744Y-17632496D01*
X88067745Y-17632494D01*
X88116327Y-17472339D01*
X88116328Y-17472335D01*
X88195219Y-17324740D01*
X88301395Y-17195365D01*
X88430771Y-17089188D01*
X88578364Y-17010298D01*
X88661029Y-16985222D01*
X88738524Y-16961714D01*
X88905080Y-16945310D01*
X89071635Y-16961714D01*
X89071635Y-16961714D01*
G37*
G36*
X40462000Y-20142000D02*
X37262000Y-20142000D01*
X37262000Y-16942000D01*
X40462000Y-16942000D01*
X40462000Y-20142000D01*
X40462000Y-20142000D01*
G37*
G36*
X23778950Y-16949717D02*
X23935655Y-16965151D01*
X24084484Y-17010298D01*
X24237257Y-17056641D01*
X24298153Y-17089191D01*
X24515213Y-17205212D01*
X24758845Y-17405155D01*
X24958788Y-17648787D01*
X25016800Y-17757320D01*
X25107359Y-17926743D01*
X25107359Y-17926744D01*
X25198849Y-18228345D01*
X25229741Y-18542000D01*
X25198849Y-18855655D01*
X25168290Y-18956393D01*
X25107359Y-19157257D01*
X25027946Y-19305828D01*
X24958788Y-19435213D01*
X24758845Y-19678845D01*
X24515213Y-19878788D01*
X24425722Y-19926622D01*
X24237257Y-20027359D01*
X24136722Y-20057856D01*
X23935655Y-20118849D01*
X23778950Y-20134283D01*
X23700598Y-20142000D01*
X23543402Y-20142000D01*
X23465050Y-20134283D01*
X23308345Y-20118849D01*
X23107278Y-20057856D01*
X23006743Y-20027359D01*
X22818278Y-19926622D01*
X22728787Y-19878788D01*
X22485155Y-19678845D01*
X22285212Y-19435213D01*
X22216054Y-19305828D01*
X22136641Y-19157257D01*
X22075710Y-18956393D01*
X22045151Y-18855655D01*
X22014259Y-18542000D01*
X22045151Y-18228345D01*
X22136641Y-17926744D01*
X22136641Y-17926743D01*
X22227200Y-17757320D01*
X22285212Y-17648787D01*
X22485155Y-17405155D01*
X22728787Y-17205212D01*
X22945847Y-17089191D01*
X23006743Y-17056641D01*
X23159516Y-17010298D01*
X23308345Y-16965151D01*
X23465050Y-16949717D01*
X23543402Y-16942000D01*
X23700598Y-16942000D01*
X23778950Y-16949717D01*
X23778950Y-16949717D01*
G37*
G36*
X58537649Y-17495717D02*
X58576827Y-17499576D01*
X58640012Y-17518743D01*
X58727629Y-17545321D01*
X58866608Y-17619608D01*
X58988422Y-17719578D01*
X59088392Y-17841392D01*
X59162679Y-17980371D01*
X59162679Y-17980372D01*
X59208424Y-18131173D01*
X59223870Y-18288000D01*
X59208424Y-18444827D01*
X59200341Y-18471472D01*
X59162679Y-18595629D01*
X59088392Y-18734608D01*
X58988422Y-18856422D01*
X58866608Y-18956392D01*
X58727629Y-19030679D01*
X58652228Y-19053551D01*
X58576827Y-19076424D01*
X58537649Y-19080283D01*
X58459295Y-19088000D01*
X58380705Y-19088000D01*
X58302351Y-19080283D01*
X58263173Y-19076424D01*
X58187772Y-19053551D01*
X58112371Y-19030679D01*
X57973392Y-18956392D01*
X57851578Y-18856422D01*
X57751608Y-18734608D01*
X57677321Y-18595629D01*
X57639659Y-18471472D01*
X57631576Y-18444827D01*
X57616130Y-18288000D01*
X57631576Y-18131173D01*
X57677321Y-17980372D01*
X57677321Y-17980371D01*
X57751608Y-17841392D01*
X57851578Y-17719578D01*
X57973392Y-17619608D01*
X58112371Y-17545321D01*
X58199988Y-17518743D01*
X58263173Y-17499576D01*
X58302351Y-17495717D01*
X58380705Y-17488000D01*
X58459295Y-17488000D01*
X58537649Y-17495717D01*
X58537649Y-17495717D01*
G37*
G36*
X71353352Y-17518743D02*
X71498941Y-17579048D01*
X71629973Y-17666601D01*
X71741399Y-17778027D01*
X71828952Y-17909059D01*
X71889257Y-18054648D01*
X71920000Y-18209205D01*
X71920000Y-18366795D01*
X71889257Y-18521352D01*
X71828952Y-18666941D01*
X71741399Y-18797973D01*
X71629973Y-18909399D01*
X71498941Y-18996952D01*
X71353352Y-19057257D01*
X71198795Y-19088000D01*
X71041205Y-19088000D01*
X70886648Y-19057257D01*
X70741059Y-18996952D01*
X70610027Y-18909399D01*
X70498601Y-18797973D01*
X70411048Y-18666941D01*
X70350743Y-18521352D01*
X70320000Y-18366795D01*
X70320000Y-18209205D01*
X70350743Y-18054648D01*
X70411048Y-17909059D01*
X70498601Y-17778027D01*
X70610027Y-17666601D01*
X70741059Y-17579048D01*
X70886648Y-17518743D01*
X71041205Y-17488000D01*
X71198795Y-17488000D01*
X71353352Y-17518743D01*
X71353352Y-17518743D01*
G37*
G36*
X104931745Y-13891169D02*
X105092743Y-13923194D01*
X105281197Y-14001254D01*
X105547713Y-14111648D01*
X105957180Y-14385246D01*
X106305394Y-14733460D01*
X106578992Y-15142927D01*
X106689386Y-15409443D01*
X106737988Y-15526778D01*
X106767446Y-15597898D01*
X106849374Y-16009772D01*
X106863520Y-16080892D01*
X106863520Y-16573348D01*
X106767446Y-17056343D01*
X106753840Y-17089191D01*
X106578992Y-17511313D01*
X106305394Y-17920780D01*
X105957180Y-18268994D01*
X105547713Y-18542592D01*
X105281197Y-18652986D01*
X105092743Y-18731046D01*
X104967291Y-18756000D01*
X104609750Y-18827120D01*
X104117290Y-18827120D01*
X103759749Y-18756000D01*
X103634297Y-18731046D01*
X103445843Y-18652986D01*
X103179327Y-18542592D01*
X102769860Y-18268994D01*
X102421646Y-17920780D01*
X102148048Y-17511313D01*
X101973200Y-17089191D01*
X101959594Y-17056343D01*
X101863520Y-16573348D01*
X101863520Y-16080892D01*
X101877667Y-16009772D01*
X101959594Y-15597898D01*
X101989053Y-15526778D01*
X102037654Y-15409443D01*
X102148048Y-15142927D01*
X102421646Y-14733460D01*
X102769860Y-14385246D01*
X103179327Y-14111648D01*
X103445843Y-14001254D01*
X103634297Y-13923194D01*
X103795295Y-13891169D01*
X104117290Y-13827120D01*
X104609750Y-13827120D01*
X104931745Y-13891169D01*
X104931745Y-13891169D01*
G37*
G36*
X17078225Y-13820049D02*
X17239223Y-13852074D01*
X17410922Y-13923194D01*
X17694193Y-14040528D01*
X18103660Y-14314126D01*
X18451874Y-14662340D01*
X18725472Y-15071807D01*
X18913926Y-15526778D01*
X19010000Y-16009770D01*
X19010000Y-16502230D01*
X18995853Y-16573350D01*
X18913926Y-16985223D01*
X18870862Y-17089188D01*
X18725472Y-17440193D01*
X18451874Y-17849660D01*
X18103660Y-18197874D01*
X17694193Y-18471472D01*
X17573771Y-18521352D01*
X17239223Y-18659926D01*
X17203956Y-18666941D01*
X16756230Y-18756000D01*
X16263770Y-18756000D01*
X15816044Y-18666941D01*
X15780777Y-18659926D01*
X15446229Y-18521352D01*
X15325807Y-18471472D01*
X14916340Y-18197874D01*
X14568126Y-17849660D01*
X14294528Y-17440193D01*
X14149138Y-17089188D01*
X14106074Y-16985223D01*
X14024147Y-16573350D01*
X14010000Y-16502230D01*
X14010000Y-16009770D01*
X14106074Y-15526778D01*
X14294528Y-15071807D01*
X14568126Y-14662340D01*
X14916340Y-14314126D01*
X15325807Y-14040528D01*
X15609078Y-13923194D01*
X15780777Y-13852074D01*
X15941775Y-13820049D01*
X16263770Y-13756000D01*
X16756230Y-13756000D01*
X17078225Y-13820049D01*
X17078225Y-13820049D01*
G37*
M02*
